<svg xmlns="http://www.w3.org/2000/svg" width="702" height="337" style="width:702px;height:337px;background:0 0;fill:none"><svg xmlns="http://www.w3.org/2000/svg"/><svg xmlns="http://www.w3.org/2000/svg" class="role-diagram-draw-area" style="overflow:visible"><g class="shapes-region" style="stroke:#000;fill:none"><g class="composite-shape" data-amt="diagram/shapes/plot"><g class="test-xti" style="font-family:Asana-Math,Asana"><path stroke="#FFF" d="M117 280.042h417m-405.631-4v8m67.7-8v8m67.7-8v8m135.4-8v8m67.7-8v8m67.7-8v8"/><path fill="#FFF" stroke="none" d="m529 276.442 8 3.6-8 3.6Z"/></g><g class="test-yti" style="font-family:Asana-Math,Asana"><path stroke="#FFF" d="M331.469 33v266m-4-122.058h8m-8-103.1h8"/><path fill="#FFF" stroke="none" d="m327.87 38 3.6-8 3.6 8Z"/></g><g class="test-plot-expression" transform="translate(117 29)"><defs><clipPath id="a"><path d="M1 1h419v268H1z"/></clipPath></defs><g clip-path="url(#a)"><path d="m0 232.36.5-.08.5-.08.5-.08.5-.08.5-.09.5-.08.5-.08.5-.08.51-.09.5-.08.5-.09.5-.08.5-.09.5-.08.5-.09.5-.09.5-.09.5-.08.5-.09.5-.09.5-.09.5-.09.5-.09.5-.1.5-.09.51-.09.5-.1.5-.09.5-.1.5-.09.5-.1.5-.09.5-.1.5-.1.5-.1.5-.1.5-.1.5-.1.5-.1.5-.1.5-.1.5-.11.51-.1.5-.11.5-.1.5-.11.5-.11.5-.1.5-.11.5-.11.5-.11.5-.11.5-.11.5-.11.5-.12.5-.11.5-.11.5-.12.51-.12.5-.11.5-.12.5-.12.5-.12.5-.12.5-.12.5-.12.5-.12.5-.13.5-.12.5-.13.5-.12.5-.13.5-.13.5-.12.5-.13.51-.13.5-.14.5-.13.5-.13.5-.14.5-.13.5-.14.5-.13.5-.14.5-.14.5-.14.5-.14.5-.14.5-.15.5-.14.5-.15.5-.14.51-.15.5-.15.5-.15.5-.15.5-.15.5-.15.5-.16.5-.15.5-.16.5-.16.5-.15.5-.16.5-.17.5-.16.5-.16.5-.17.5-.16.51-.17.5-.17.5-.17.5-.17.5-.17.5-.17.5-.18.5-.17.5-.18.5-.18.5-.18.5-.18.5-.18.5-.19.5-.18.5-.19.5-.19.51-.19.5-.19.5-.19.5-.2.5-.2.5-.19.5-.2.5-.2.5-.21.5-.2.5-.2.5-.21.5-.21.5-.21.5-.21.5-.22.51-.21.5-.22.5-.22.5-.22.5-.22.5-.23.5-.22.5-.23.5-.23.5-.23.5-.23.5-.24.5-.24.5-.24.5-.24.5-.24.5-.25.51-.24.5-.25.5-.25.5-.26.5-.25.5-.26.5-.26.5-.26.5-.26.5-.27.5-.27.5-.27.5-.27.5-.28.5-.27.5-.28.5-.28.51-.29.5-.29.5-.28.5-.3.5-.29.5-.3.5-.3.5-.3.5-.3.5-.31.5-.31.5-.31.5-.31.5-.32.5-.32.5-.32.5-.33.51-.33.5-.33.5-.33.5-.34.5-.34.5-.34.5-.35.5-.34.5-.36.5-.35.5-.36.5-.36.5-.36.5-.37.5-.37.5-.37.5-.38.51-.38.5-.38.5-.39.5-.39.5-.39.5-.4.5-.4.5-.4.5-.41.5-.41.5-.41.5-.42.5-.42.5-.43.5-.43.5-.43.5-.44.51-.44.5-.44.5-.45.5-.45.5-.46.5-.46.5-.46.5-.47.5-.47.5-.48.5-.48.5-.48.5-.49.5-.5.5-.49.5-.51.51-.5.5-.51.5-.52.5-.52.5-.52.5-.53.5-.53.5-.54.5-.54.5-.55.5-.55.5-.56.5-.56.5-.57.5-.57.5-.58.5-.58.51-.58.5-.59.5-.6.5-.6.5-.61.5-.61.5-.62.5-.62.5-.62.5-.64.5-.63.5-.65.5-.64.5-.66.5-.66.5-.66.5-.67.51-.67.5-.69.5-.68.5-.69.5-.7.5-.7.5-.71.5-.71.5-.72.5-.73.5-.73.5-.73.5-.75.5-.74.5-.76.5-.75.5-.77.51-.77.5-.77.5-.78.5-.79.5-.79.5-.8.5-.8.5-.81.5-.82.5-.82.5-.82.5-.83.5-.84.5-.84.5-.85.5-.85.5-.86.51-.86.5-.87.5-.88.5-.88.5-.88.5-.89.5-.89.5-.9.5-.9.5-.91.5-.92.5-.91.5-.93.5-.92.5-.93.5-.94.51-.94.5-.94.5-.94.5-.96.5-.95.5-.96.5-.96.5-.96.5-.97.5-.97.5-.97.5-.97.5-.98.5-.98.5-.98.5-.99.5-.98.51-.99.5-.99.5-.98.5-.99.5-.99.5-.99.5-.99.5-.99.5-.99.5-.99.5-.99.5-.99.5-.98.5-.99.5-.98.5-.98.5-.97.51-.98.5-.97.5-.97.5-.96.5-.96.5-.95.5-.95.5-.94.5-.94.5-.94.5-.92.5-.92.5-.91.5-.91.5-.9.5-.89.5-.88.51-.87.5-.86.5-.85.5-.85.5-.83.5-.82.5-.81.5-.8.5-.79.5-.77.5-.76.5-.75.5-.74.5-.72.5-.71.5-.69.5-.67.51-.67.5-.64.5-.63.5-.62.5-.59.5-.58.5-.56.5-.55.5-.52.5-.51.5-.49.5-.47.5-.45.5-.43.5-.41.5-.39.5-.37.51-.35.5-.33.5-.3.5-.29.5-.27.5-.24.5-.22.5-.2.5-.18.5-.15.5-.14.5-.11.5-.09.5-.06.5-.05.5-.02.51.01.5.02.5.05.5.07.5.09.5.11.5.14.5.16.5.18.5.2.5.22.5.25.5.27.5.29.5.31.5.33.5.35.51.37.5.4.5.41.5.43.5.46.5.47.5.49.5.51.5.53.5.55.5.56.5.58.5.6.5.62.5.63.5.65.5.66.51.68.5.69.5.71.5.73.5.73.5.75.5.77.5.77.5.79.5.8.5.81.5.83.5.83.5.85.5.85.5.86.5.88.51.88.5.89.5.9.5.9.5.92.5.92.5.93.5.93.5.94.5.94.5.95.5.96.5.96.5.96.5.97.5.97.5.97.51.98.5.98.5.98.5.99.5.98.5.99.5.99.5.99.5.99.5.99.5.99.5.99.5.99.5.99.5.99.5.98.5.99.51.98.5.99.5.98.5.98.5.97.5.98.5.97.5.97.5.97.5.96.5.96.5.96.5.95.5.95.5.95.5.94.51.94.5.93.5.93.5.93.5.92.5.91.5.92.5.9.5.91.5.9.5.89.5.89.5.88.5.88.5.87.5.87.5.86.51.86.5.85.5.85.5.84.5.83.5.83.5.83.5.82.5.81.5.81.5.8.5.8.5.79.5.79.5.78.5.77.5.77.51.76.5.76.5.75.5.75.5.74.5.74.5.73.5.72.5.72.5.71.5.71.5.7.5.7.5.69.5.68.5.68.5.68.51.66.5.67.5.66.5.65.5.65.5.64.5.63.5.64.5.62.5.62.5.62.5.61.5.6.5.6.5.6.5.59.5.59.51.58.5.57.5.57.5.57.5.56.5.55.5.56.5.54.5.54.5.54.5.53.5.53.5.53.5.52.5.51.5.51.51.51.5.5.5.49.5.5.5.48.5.49.5.48.5.47.5.48.5.46.5.47.5.46.5.45.5.45.5.45.5.44.5.44.51.44.5.43.5.43.5.43.5.42.5.41.5.42.5.41.5.41.5.4.5.4.5.39.5.4.5.39.5.38.5.39.5.37.51.38.5.37.5.37.5.37.5.36.5.36.5.36.5.35.5.36.5.34.5.35.5.34.5.34.5.34.5.33.5.33.5.33.51.32.5.33.5.32.5.31.5.32.5.31.5.31.5.3.5.31.5.3.5.3.5.29.5.3.5.29.5.29.5.28.5.29.51.28.5.28.5.27.5.28.5.27.5.27.5.27.5.26.5.27.5.26.5.26.5.26.5.25.5.25.5.25.5.25.5.25.51.24.5.25.5.24.5.24.5.23.5.24.5.23.5.23.5.23.5.23.5.23.5.22.5.22.5.22.5.22.5.22.51.21.5.22.5.21.5.21.5.21.5.2.5.21.5.2.5.21.5.2.5.19.5.2.5.2.5.19.5.2.5.19.5.19.51.19.5.18.5.19.5.18.5.18.5.19.5.18.5.17.5.18.5.18.5.17.5.18.5.17.5.17.5.17.5.17.5.16.51.17.5.16.5.17.5.16.5.16.5.16.5.16.5.15.5.16.5.15.5.16.5.15.5.15.5.15.5.15.5.15.5.15.51.14.5.15.5.14.5.15.5.14.5.14.5.14.5.14.5.14.5.13.5.14.5.13.5.14.5.13.5.13.5.13.5.13.51.13.5.13.5.13.5.13.5.12.5.13.5.12.5.12.5.13.5.12.5.12.5.12.5.12.5.12.5.11.5.12.51.12.5.11.5.12.5.11.5.11.5.11.5.12.5.11.5.11.5.1.5.11.5.11.5.11.5.1.5.11.5.1.5.11.51.1.5.1.5.1.5.11.5.1.5.1.5.1.5.09.5.1.5.1.5.1.5.09.5.1.5.09.5.1.5.09.5.09.51.1.5.09.5.09.5.09.5.09.5.09.5.09.5.09.5.09" style="stroke-width:3;stroke:#4a90e2;stroke-opacity:.8"/></g></g><g fill="#FFF" stroke="none" class="test-xtl" dominant-baseline="hanging" font-size="11" style="font-family:&quot;Open Sans&quot;,verdana,arial,sans-serif" text-anchor="middle"><text x="8.234" y="258.042" transform="translate(117 29)">-3</text><text x="75.934" y="258.042" transform="translate(117 29)">-2</text><text x="143.634" y="258.042" transform="translate(117 29)">-1</text><text x="282.169" y="258.042" transform="translate(117 29)">1</text><text x="349.869" y="258.042" transform="translate(117 29)">2</text><text x="417.569" y="258.042" transform="translate(117 29)">3</text><text x="206.469" y="256.042" transform="translate(117 29)">0</text></g><g fill="#FFF" stroke="none" class="test-ytl" dominant-baseline="middle" font-size="11" style="font-family:&quot;Open Sans&quot;,verdana,arial,sans-serif" text-anchor="end"><text x="206.469" y="147.942" transform="translate(117 29)">0.5</text><text x="206.469" y="44.842" transform="translate(117 29)">1</text></g><path stroke="none" d="M1 1h419v268H1z" class="real" style="fill:transparent;stroke:none" transform="translate(117 29)"/></g></g></svg><svg xmlns="http://www.w3.org/2000/svg" xmlns:xlink="http://www.w3.org/1999/xlink" width="700" height="335" style="width:700px;height:335px;font-family:Asana-Math,Asana;background:0 0"/></svg>