<svg xmlns="http://www.w3.org/2000/svg" xmlns:xlink="http://www.w3.org/1999/xlink" x="0" y="0" width="702" height="337" style="
        width:702px;
        height:337px;
        background: transparent;
        fill: none;
">
        <svg xmlns="http://www.w3.org/2000/svg"/>
        
        <svg xmlns="http://www.w3.org/2000/svg" class="role-diagram-draw-area" style="overflow: visible;"><g class="shapes-region" style="stroke: black; fill: none;"><g class="composite-shape" data-amt="diagram/shapes/plot" transform="matrix(1,0,0,1,117,29)"><g><g/><g><g class="test-xti" style="font-family: Asana-Math, Asana;"><line x1="0" y1="251.0417594913958" x2="417" y2="251.0417594913958" fill="none" stroke="rgb(255,255,255)" stroke-opacity="1" stroke-width="1"/><line x1="11.369146098427994" y1="247.0417594913958" x2="11.369146098427994" y2="255.0417594913958" fill="none" stroke="rgb(255,255,255)" stroke-opacity="1" stroke-width="1"/><line x1="79.06914609842799" y1="247.0417594913958" x2="79.06914609842799" y2="255.0417594913958" fill="none" stroke="rgb(255,255,255)" stroke-opacity="1" stroke-width="1"/><line x1="146.76914609842797" y1="247.0417594913958" x2="146.76914609842797" y2="255.0417594913958" fill="none" stroke="rgb(255,255,255)" stroke-opacity="1" stroke-width="1"/><line x1="282.169146098428" y1="247.0417594913958" x2="282.169146098428" y2="255.0417594913958" fill="none" stroke="rgb(255,255,255)" stroke-opacity="1" stroke-width="1"/><line x1="349.86914609842796" y1="247.0417594913958" x2="349.86914609842796" y2="255.0417594913958" fill="none" stroke="rgb(255,255,255)" stroke-opacity="1" stroke-width="1"/><line x1="417.569146098428" y1="247.0417594913958" x2="417.569146098428" y2="255.0417594913958" fill="none" stroke="rgb(255,255,255)" stroke-opacity="1" stroke-width="1"/><path d="M412,247.4417594913958 L420,251.0417594913958 L412,254.6417594913958 Z" stroke="none" stroke-width="1" fill="rgb(255,255,255)" fill-opacity="1"/></g><g class="test-yti" style="font-family: Asana-Math, Asana;"><line x1="214.469146098428" y1="4" x2="214.469146098428" y2="270" fill="none" stroke="rgb(255,255,255)" stroke-opacity="1" stroke-width="1"/><line x1="210.469146098428" y1="147.94175949139577" x2="218.469146098428" y2="147.94175949139577" fill="none" stroke="rgb(255,255,255)" stroke-opacity="1" stroke-width="1"/><line x1="210.469146098428" y1="44.841759491395806" x2="218.469146098428" y2="44.841759491395806" fill="none" stroke="rgb(255,255,255)" stroke-opacity="1" stroke-width="1"/><path d="M210.86914609842802,9 L214.469146098428,1 L218.069146098428,9 Z" stroke="none" stroke-width="1" fill="rgb(255,255,255)" fill-opacity="1"/></g><g class="test-plot-expression"><defs><clipPath id="cpr05kap1ypdg-full-view"><rect x="1" y="1" width="419" height="268"/></clipPath></defs><g clip-path="url(#cpr05kap1ypdg-full-view)"><path d=" M0.00,232.36 L0.50,232.28 L1.00,232.20 L1.50,232.12 L2.00,232.04 L2.50,231.95 L3.00,231.87 L3.50,231.79 L4.00,231.71 L4.51,231.62 L5.01,231.54 L5.51,231.45 L6.01,231.37 L6.51,231.28 L7.01,231.20 L7.51,231.11 L8.01,231.02 L8.51,230.93 L9.01,230.85 L9.51,230.76 L10.01,230.67 L10.51,230.58 L11.01,230.49 L11.51,230.40 L12.01,230.30 L12.51,230.21 L13.02,230.12 L13.52,230.02 L14.02,229.93 L14.52,229.83 L15.02,229.74 L15.52,229.64 L16.02,229.55 L16.52,229.45 L17.02,229.35 L17.52,229.25 L18.02,229.15 L18.52,229.05 L19.02,228.95 L19.52,228.85 L20.02,228.75 L20.52,228.65 L21.02,228.54 L21.53,228.44 L22.03,228.33 L22.53,228.23 L23.03,228.12 L23.53,228.01 L24.03,227.91 L24.53,227.80 L25.03,227.69 L25.53,227.58 L26.03,227.47 L26.53,227.36 L27.03,227.25 L27.53,227.13 L28.03,227.02 L28.53,226.91 L29.03,226.79 L29.54,226.67 L30.04,226.56 L30.54,226.44 L31.04,226.32 L31.54,226.20 L32.04,226.08 L32.54,225.96 L33.04,225.84 L33.54,225.72 L34.04,225.59 L34.54,225.47 L35.04,225.34 L35.54,225.22 L36.04,225.09 L36.54,224.96 L37.04,224.84 L37.54,224.71 L38.05,224.58 L38.55,224.44 L39.05,224.31 L39.55,224.18 L40.05,224.04 L40.55,223.91 L41.05,223.77 L41.55,223.64 L42.05,223.50 L42.55,223.36 L43.05,223.22 L43.55,223.08 L44.05,222.94 L44.55,222.79 L45.05,222.65 L45.55,222.50 L46.05,222.36 L46.56,222.21 L47.06,222.06 L47.56,221.91 L48.06,221.76 L48.56,221.61 L49.06,221.46 L49.56,221.30 L50.06,221.15 L50.56,220.99 L51.06,220.83 L51.56,220.68 L52.06,220.52 L52.56,220.35 L53.06,220.19 L53.56,220.03 L54.06,219.86 L54.56,219.70 L55.07,219.53 L55.57,219.36 L56.07,219.19 L56.57,219.02 L57.07,218.85 L57.57,218.68 L58.07,218.50 L58.57,218.33 L59.07,218.15 L59.57,217.97 L60.07,217.79 L60.57,217.61 L61.07,217.43 L61.57,217.24 L62.07,217.06 L62.57,216.87 L63.07,216.68 L63.58,216.49 L64.08,216.30 L64.58,216.11 L65.08,215.91 L65.58,215.71 L66.08,215.52 L66.58,215.32 L67.08,215.12 L67.58,214.91 L68.08,214.71 L68.58,214.51 L69.08,214.30 L69.58,214.09 L70.08,213.88 L70.58,213.67 L71.08,213.45 L71.59,213.24 L72.09,213.02 L72.59,212.80 L73.09,212.58 L73.59,212.36 L74.09,212.13 L74.59,211.91 L75.09,211.68 L75.59,211.45 L76.09,211.22 L76.59,210.99 L77.09,210.75 L77.59,210.51 L78.09,210.27 L78.59,210.03 L79.09,209.79 L79.59,209.54 L80.10,209.30 L80.60,209.05 L81.10,208.80 L81.60,208.54 L82.10,208.29 L82.60,208.03 L83.10,207.77 L83.60,207.51 L84.10,207.25 L84.60,206.98 L85.10,206.71 L85.60,206.44 L86.10,206.17 L86.60,205.89 L87.10,205.62 L87.60,205.34 L88.10,205.06 L88.61,204.77 L89.11,204.48 L89.61,204.20 L90.11,203.90 L90.61,203.61 L91.11,203.31 L91.61,203.01 L92.11,202.71 L92.61,202.41 L93.11,202.10 L93.61,201.79 L94.11,201.48 L94.61,201.17 L95.11,200.85 L95.61,200.53 L96.11,200.21 L96.61,199.88 L97.12,199.55 L97.62,199.22 L98.12,198.89 L98.62,198.55 L99.12,198.21 L99.62,197.87 L100.12,197.52 L100.62,197.18 L101.12,196.82 L101.62,196.47 L102.12,196.11 L102.62,195.75 L103.12,195.39 L103.62,195.02 L104.12,194.65 L104.62,194.28 L105.12,193.90 L105.63,193.52 L106.13,193.14 L106.63,192.75 L107.13,192.36 L107.63,191.97 L108.13,191.57 L108.63,191.17 L109.13,190.77 L109.63,190.36 L110.13,189.95 L110.63,189.54 L111.13,189.12 L111.63,188.70 L112.13,188.27 L112.63,187.84 L113.13,187.41 L113.63,186.97 L114.14,186.53 L114.64,186.09 L115.14,185.64 L115.64,185.19 L116.14,184.73 L116.64,184.27 L117.14,183.81 L117.64,183.34 L118.14,182.87 L118.64,182.39 L119.14,181.91 L119.64,181.43 L120.14,180.94 L120.64,180.44 L121.14,179.95 L121.64,179.44 L122.15,178.94 L122.65,178.43 L123.15,177.91 L123.65,177.39 L124.15,176.87 L124.65,176.34 L125.15,175.81 L125.65,175.27 L126.15,174.73 L126.65,174.18 L127.15,173.63 L127.65,173.07 L128.15,172.51 L128.65,171.94 L129.15,171.37 L129.65,170.79 L130.15,170.21 L130.66,169.63 L131.16,169.04 L131.66,168.44 L132.16,167.84 L132.66,167.23 L133.16,166.62 L133.66,166.00 L134.16,165.38 L134.66,164.76 L135.16,164.12 L135.66,163.49 L136.16,162.84 L136.66,162.20 L137.16,161.54 L137.66,160.88 L138.16,160.22 L138.66,159.55 L139.17,158.88 L139.67,158.19 L140.17,157.51 L140.67,156.82 L141.17,156.12 L141.67,155.42 L142.17,154.71 L142.67,154.00 L143.17,153.28 L143.67,152.55 L144.17,151.82 L144.67,151.09 L145.17,150.34 L145.67,149.60 L146.17,148.84 L146.67,148.09 L147.17,147.32 L147.68,146.55 L148.18,145.78 L148.68,145.00 L149.18,144.21 L149.68,143.42 L150.18,142.62 L150.68,141.82 L151.18,141.01 L151.68,140.19 L152.18,139.37 L152.68,138.55 L153.18,137.72 L153.68,136.88 L154.18,136.04 L154.68,135.19 L155.18,134.34 L155.68,133.48 L156.19,132.62 L156.69,131.75 L157.19,130.87 L157.69,129.99 L158.19,129.11 L158.69,128.22 L159.19,127.33 L159.69,126.43 L160.19,125.53 L160.69,124.62 L161.19,123.70 L161.69,122.79 L162.19,121.86 L162.69,120.94 L163.19,120.01 L163.69,119.07 L164.20,118.13 L164.70,117.19 L165.20,116.25 L165.70,115.29 L166.20,114.34 L166.70,113.38 L167.20,112.42 L167.70,111.46 L168.20,110.49 L168.70,109.52 L169.20,108.55 L169.70,107.58 L170.20,106.60 L170.70,105.62 L171.20,104.64 L171.70,103.65 L172.20,102.67 L172.71,101.68 L173.21,100.69 L173.71,99.71 L174.21,98.72 L174.71,97.73 L175.21,96.74 L175.71,95.75 L176.21,94.76 L176.71,93.77 L177.21,92.78 L177.71,91.79 L178.21,90.80 L178.71,89.82 L179.21,88.83 L179.71,87.85 L180.21,86.87 L180.71,85.90 L181.22,84.92 L181.72,83.95 L182.22,82.98 L182.72,82.02 L183.22,81.06 L183.72,80.11 L184.22,79.16 L184.72,78.22 L185.22,77.28 L185.72,76.34 L186.22,75.42 L186.72,74.50 L187.22,73.59 L187.72,72.68 L188.22,71.78 L188.72,70.89 L189.22,70.01 L189.73,69.14 L190.23,68.28 L190.73,67.43 L191.23,66.58 L191.73,65.75 L192.23,64.93 L192.73,64.12 L193.23,63.32 L193.73,62.53 L194.23,61.76 L194.73,61.00 L195.23,60.25 L195.73,59.51 L196.23,58.79 L196.73,58.08 L197.23,57.39 L197.73,56.72 L198.24,56.05 L198.74,55.41 L199.24,54.78 L199.74,54.16 L200.24,53.57 L200.74,52.99 L201.24,52.43 L201.74,51.88 L202.24,51.36 L202.74,50.85 L203.24,50.36 L203.74,49.89 L204.24,49.44 L204.74,49.01 L205.24,48.60 L205.74,48.21 L206.24,47.84 L206.75,47.49 L207.25,47.16 L207.75,46.86 L208.25,46.57 L208.75,46.30 L209.25,46.06 L209.75,45.84 L210.25,45.64 L210.75,45.46 L211.25,45.31 L211.75,45.17 L212.25,45.06 L212.75,44.97 L213.25,44.91 L213.75,44.86 L214.25,44.84 L214.76,44.85 L215.26,44.87 L215.76,44.92 L216.26,44.99 L216.76,45.08 L217.26,45.19 L217.76,45.33 L218.26,45.49 L218.76,45.67 L219.26,45.87 L219.76,46.09 L220.26,46.34 L220.76,46.61 L221.26,46.90 L221.76,47.21 L222.26,47.54 L222.76,47.89 L223.27,48.26 L223.77,48.66 L224.27,49.07 L224.77,49.50 L225.27,49.96 L225.77,50.43 L226.27,50.92 L226.77,51.43 L227.27,51.96 L227.77,52.51 L228.27,53.07 L228.77,53.65 L229.27,54.25 L229.77,54.87 L230.27,55.50 L230.77,56.15 L231.27,56.81 L231.78,57.49 L232.28,58.18 L232.78,58.89 L233.28,59.62 L233.78,60.35 L234.28,61.10 L234.78,61.87 L235.28,62.64 L235.78,63.43 L236.28,64.23 L236.78,65.04 L237.28,65.87 L237.78,66.70 L238.28,67.55 L238.78,68.40 L239.28,69.26 L239.78,70.14 L240.29,71.02 L240.79,71.91 L241.29,72.81 L241.79,73.71 L242.29,74.63 L242.79,75.55 L243.29,76.48 L243.79,77.41 L244.29,78.35 L244.79,79.29 L245.29,80.24 L245.79,81.20 L246.29,82.16 L246.79,83.12 L247.29,84.09 L247.79,85.06 L248.29,86.03 L248.80,87.01 L249.30,87.99 L249.80,88.97 L250.30,89.96 L250.80,90.94 L251.30,91.93 L251.80,92.92 L252.30,93.91 L252.80,94.90 L253.30,95.89 L253.80,96.88 L254.30,97.87 L254.80,98.86 L255.30,99.85 L255.80,100.84 L256.30,101.82 L256.80,102.81 L257.31,103.79 L257.81,104.78 L258.31,105.76 L258.81,106.74 L259.31,107.71 L259.81,108.69 L260.31,109.66 L260.81,110.63 L261.31,111.60 L261.81,112.56 L262.31,113.52 L262.81,114.48 L263.31,115.43 L263.81,116.38 L264.31,117.33 L264.81,118.27 L265.32,119.21 L265.82,120.14 L266.32,121.07 L266.82,122.00 L267.32,122.92 L267.82,123.83 L268.32,124.75 L268.82,125.65 L269.32,126.56 L269.82,127.46 L270.32,128.35 L270.82,129.24 L271.32,130.12 L271.82,131.00 L272.32,131.87 L272.82,132.74 L273.32,133.60 L273.83,134.46 L274.33,135.31 L274.83,136.16 L275.33,137.00 L275.83,137.83 L276.33,138.66 L276.83,139.49 L277.33,140.31 L277.83,141.12 L278.33,141.93 L278.83,142.73 L279.33,143.53 L279.83,144.32 L280.33,145.11 L280.83,145.89 L281.33,146.66 L281.83,147.43 L282.34,148.19 L282.84,148.95 L283.34,149.70 L283.84,150.45 L284.34,151.19 L284.84,151.93 L285.34,152.66 L285.84,153.38 L286.34,154.10 L286.84,154.81 L287.34,155.52 L287.84,156.22 L288.34,156.92 L288.84,157.61 L289.34,158.29 L289.84,158.97 L290.34,159.65 L290.85,160.31 L291.35,160.98 L291.85,161.64 L292.35,162.29 L292.85,162.94 L293.35,163.58 L293.85,164.21 L294.35,164.85 L294.85,165.47 L295.35,166.09 L295.85,166.71 L296.35,167.32 L296.85,167.92 L297.35,168.52 L297.85,169.12 L298.35,169.71 L298.85,170.30 L299.36,170.88 L299.86,171.45 L300.36,172.02 L300.86,172.59 L301.36,173.15 L301.86,173.70 L302.36,174.26 L302.86,174.80 L303.36,175.34 L303.86,175.88 L304.36,176.41 L304.86,176.94 L305.36,177.47 L305.86,177.99 L306.36,178.50 L306.86,179.01 L307.37,179.52 L307.87,180.02 L308.37,180.51 L308.87,181.01 L309.37,181.49 L309.87,181.98 L310.37,182.46 L310.87,182.93 L311.37,183.41 L311.87,183.87 L312.37,184.34 L312.87,184.80 L313.37,185.25 L313.87,185.70 L314.37,186.15 L314.87,186.59 L315.37,187.03 L315.88,187.47 L316.38,187.90 L316.88,188.33 L317.38,188.76 L317.88,189.18 L318.38,189.59 L318.88,190.01 L319.38,190.42 L319.88,190.83 L320.38,191.23 L320.88,191.63 L321.38,192.02 L321.88,192.42 L322.38,192.81 L322.88,193.19 L323.38,193.58 L323.88,193.95 L324.39,194.33 L324.89,194.70 L325.39,195.07 L325.89,195.44 L326.39,195.80 L326.89,196.16 L327.39,196.52 L327.89,196.87 L328.39,197.23 L328.89,197.57 L329.39,197.92 L329.89,198.26 L330.39,198.60 L330.89,198.94 L331.39,199.27 L331.89,199.60 L332.39,199.93 L332.90,200.25 L333.40,200.58 L333.90,200.90 L334.40,201.21 L334.90,201.53 L335.40,201.84 L335.90,202.15 L336.40,202.45 L336.90,202.76 L337.40,203.06 L337.90,203.36 L338.40,203.65 L338.90,203.95 L339.40,204.24 L339.90,204.53 L340.40,204.81 L340.90,205.10 L341.41,205.38 L341.91,205.66 L342.41,205.93 L342.91,206.21 L343.41,206.48 L343.91,206.75 L344.41,207.02 L344.91,207.28 L345.41,207.55 L345.91,207.81 L346.41,208.07 L346.91,208.33 L347.41,208.58 L347.91,208.83 L348.41,209.08 L348.91,209.33 L349.41,209.58 L349.92,209.82 L350.42,210.07 L350.92,210.31 L351.42,210.55 L351.92,210.78 L352.42,211.02 L352.92,211.25 L353.42,211.48 L353.92,211.71 L354.42,211.94 L354.92,212.17 L355.42,212.39 L355.92,212.61 L356.42,212.83 L356.92,213.05 L357.42,213.27 L357.93,213.48 L358.43,213.70 L358.93,213.91 L359.43,214.12 L359.93,214.33 L360.43,214.53 L360.93,214.74 L361.43,214.94 L361.93,215.15 L362.43,215.35 L362.93,215.54 L363.43,215.74 L363.93,215.94 L364.43,216.13 L364.93,216.33 L365.43,216.52 L365.93,216.71 L366.44,216.90 L366.94,217.08 L367.44,217.27 L367.94,217.45 L368.44,217.63 L368.94,217.82 L369.44,218.00 L369.94,218.17 L370.44,218.35 L370.94,218.53 L371.44,218.70 L371.94,218.88 L372.44,219.05 L372.94,219.22 L373.44,219.39 L373.94,219.56 L374.44,219.72 L374.95,219.89 L375.45,220.05 L375.95,220.22 L376.45,220.38 L376.95,220.54 L377.45,220.70 L377.95,220.86 L378.45,221.01 L378.95,221.17 L379.45,221.32 L379.95,221.48 L380.45,221.63 L380.95,221.78 L381.45,221.93 L381.95,222.08 L382.45,222.23 L382.95,222.38 L383.46,222.52 L383.96,222.67 L384.46,222.81 L384.96,222.96 L385.46,223.10 L385.96,223.24 L386.46,223.38 L386.96,223.52 L387.46,223.66 L387.96,223.79 L388.46,223.93 L388.96,224.06 L389.46,224.20 L389.96,224.33 L390.46,224.46 L390.96,224.59 L391.46,224.72 L391.97,224.85 L392.47,224.98 L392.97,225.11 L393.47,225.24 L393.97,225.36 L394.47,225.49 L394.97,225.61 L395.47,225.73 L395.97,225.86 L396.47,225.98 L396.97,226.10 L397.47,226.22 L397.97,226.34 L398.47,226.46 L398.97,226.57 L399.47,226.69 L399.98,226.81 L400.48,226.92 L400.98,227.04 L401.48,227.15 L401.98,227.26 L402.48,227.37 L402.98,227.49 L403.48,227.60 L403.98,227.71 L404.48,227.81 L404.98,227.92 L405.48,228.03 L405.98,228.14 L406.48,228.24 L406.98,228.35 L407.48,228.45 L407.98,228.56 L408.49,228.66 L408.99,228.76 L409.49,228.86 L409.99,228.97 L410.49,229.07 L410.99,229.17 L411.49,229.27 L411.99,229.36 L412.49,229.46 L412.99,229.56 L413.49,229.66 L413.99,229.75 L414.49,229.85 L414.99,229.94 L415.49,230.04 L415.99,230.13 L416.49,230.22 L417.00,230.32 L417.50,230.41 L418.00,230.50 L418.50,230.59 L419.00,230.68 L419.50,230.77 L420.00,230.86 L420.50,230.95 L421.00,231.04" style="stroke-width: 3; stroke: rgb(74, 144, 226); stroke-opacity: 0.8;"/></g></g><g class="test-xtl" style="font-family: &quot;Open Sans&quot;, verdana, arial, sans-serif;"><text text-anchor="middle" font-size="11" dominant-baseline="hanging" stroke="none" fill="rgb(255,255,255)" fill-opacity="1" x="8.234146098427994" y="258.0417594913958">-3</text><text text-anchor="middle" font-size="11" dominant-baseline="hanging" stroke="none" fill="rgb(255,255,255)" fill-opacity="1" x="75.93414609842799" y="258.0417594913958">-2</text><text text-anchor="middle" font-size="11" dominant-baseline="hanging" stroke="none" fill="rgb(255,255,255)" fill-opacity="1" x="143.63414609842798" y="258.0417594913958">-1</text><text text-anchor="middle" font-size="11" dominant-baseline="hanging" stroke="none" fill="rgb(255,255,255)" fill-opacity="1" x="282.169146098428" y="258.0417594913958">1</text><text text-anchor="middle" font-size="11" dominant-baseline="hanging" stroke="none" fill="rgb(255,255,255)" fill-opacity="1" x="349.86914609842796" y="258.0417594913958">2</text><text text-anchor="middle" font-size="11" dominant-baseline="hanging" stroke="none" fill="rgb(255,255,255)" fill-opacity="1" x="417.569146098428" y="258.0417594913958">3</text><text text-anchor="middle" font-size="11" dominant-baseline="hanging" stroke="none" fill="rgb(255,255,255)" fill-opacity="1" x="206.46914609842798" y="256.0417594913958">0</text></g><g class="test-ytl" style="font-family: &quot;Open Sans&quot;, verdana, arial, sans-serif;"><text text-anchor="end" dominant-baseline="middle" font-size="11" stroke="none" fill="rgb(255,255,255)" fill-opacity="1" x="206.469146098428" y="147.94175949139577">0.5</text><text text-anchor="end" dominant-baseline="middle" font-size="11" stroke="none" fill="rgb(255,255,255)" fill-opacity="1" x="206.469146098428" y="44.841759491395806">1</text></g><rect class="real" x="1" y="1" width="419" height="268" style="fill: transparent; stroke: none;"/></g></g></g><g/></g><g/><g/><g/></svg>
        <svg xmlns="http://www.w3.org/2000/svg" xmlns:xlink="http://www.w3.org/1999/xlink" width="700" height="335" style="width:700px;height:335px;font-family:Asana-Math, Asana;background:transparent;"></svg>
</svg>
