<svg xmlns="http://www.w3.org/2000/svg" xmlns:xlink="http://www.w3.org/1999/xlink" x="0" y="0" width="702" height="337" style="
        width:702px;
        height:337px;
        background: transparent;
        fill: none;
">
        <svg xmlns="http://www.w3.org/2000/svg"/>
        
        <svg xmlns="http://www.w3.org/2000/svg" class="role-diagram-draw-area" style="overflow: visible;"><g class="shapes-region" style="stroke: black; fill: none;"><g class="composite-shape" data-amt="diagram/shapes/plot" transform="matrix(1,0,0,1,52,2)"><g><g/><g><g class="test-xti" style="font-family: Asana-Math, Asana;"><line x1="0" y1="125.40691489652818" x2="417" y2="125.40691489652818" fill="none" stroke="rgb(255,255,255)" stroke-opacity="1" stroke-width="1"/><line x1="14.330837249755923" y1="121.40691489652818" x2="14.330837249755923" y2="129.40691489652818" fill="none" stroke="rgb(255,255,255)" stroke-opacity="1" stroke-width="1"/><line x1="214.33083724975594" y1="121.40691489652818" x2="214.33083724975594" y2="129.40691489652818" fill="none" stroke="rgb(255,255,255)" stroke-opacity="1" stroke-width="1"/><line x1="314.3308372497559" y1="121.40691489652818" x2="314.3308372497559" y2="129.40691489652818" fill="none" stroke="rgb(255,255,255)" stroke-opacity="1" stroke-width="1"/><line x1="414.3308372497559" y1="121.40691489652818" x2="414.3308372497559" y2="129.40691489652818" fill="none" stroke="rgb(255,255,255)" stroke-opacity="1" stroke-width="1"/><path d="M412,121.80691489652818 L420,125.40691489652818 L412,129.00691489652817 Z" stroke="none" stroke-width="1" fill="rgb(255,255,255)" fill-opacity="1"/></g><g class="test-yti" style="font-family: Asana-Math, Asana;"><line x1="114.33083724975592" y1="4" x2="114.33083724975592" y2="270" fill="none" stroke="rgb(255,255,255)" stroke-opacity="1" stroke-width="1"/><line x1="110.33083724975592" y1="225.40691489652818" x2="118.33083724975592" y2="225.40691489652818" fill="none" stroke="rgb(255,255,255)" stroke-opacity="1" stroke-width="1"/><line x1="110.33083724975592" y1="25.406914896528235" x2="118.33083724975592" y2="25.406914896528235" fill="none" stroke="rgb(255,255,255)" stroke-opacity="1" stroke-width="1"/><path d="M110.73083724975592,9 L114.33083724975592,1 L117.93083724975591,9 Z" stroke="none" stroke-width="1" fill="rgb(255,255,255)" fill-opacity="1"/></g><g class="test-plot-expression"><defs><clipPath id="cpr05kap1ypdg-full-view"><rect x="1" y="1" width="419" height="268"/></clipPath></defs><g clip-path="url(#cpr05kap1ypdg-full-view)"><path d=" M0.00,339.12 L0.50,337.55 L1.00,335.99 L1.50,334.44 L2.00,332.90 L2.50,331.37 L3.00,329.84 L3.50,328.32 L4.00,326.80 L4.51,325.30 L5.01,323.80 L5.51,322.31 L6.01,320.83 L6.51,319.35 L7.01,317.89 L7.51,316.43 L8.01,314.97 L8.51,313.53 L9.01,312.09 L9.51,310.66 L10.01,309.23 L10.51,307.82 L11.01,306.40 L11.51,305.00 L12.01,303.61 L12.51,302.22 L13.02,300.83 L13.52,299.46 L14.02,298.09 L14.52,296.73 L15.02,295.37 L15.52,294.03 L16.02,292.68 L16.52,291.35 L17.02,290.02 L17.52,288.70 L18.02,287.39 L18.52,286.08 L19.02,284.78 L19.52,283.48 L20.02,282.19 L20.52,280.91 L21.02,279.63 L21.53,278.36 L22.03,277.10 L22.53,275.84 L23.03,274.59 L23.53,273.35 L24.03,272.11 L24.53,270.88 L25.03,269.65 L25.53,268.43 L26.03,267.22 L26.53,266.01 L27.03,264.81 L27.53,263.62 L28.03,262.43 L28.53,261.24 L29.03,260.07 L29.54,258.89 L30.04,257.73 L30.54,256.57 L31.04,255.41 L31.54,254.27 L32.04,253.12 L32.54,251.99 L33.04,250.85 L33.54,249.73 L34.04,248.61 L34.54,247.49 L35.04,246.38 L35.54,245.28 L36.04,244.18 L36.54,243.09 L37.04,242.00 L37.54,240.92 L38.05,239.85 L38.55,238.78 L39.05,237.71 L39.55,236.65 L40.05,235.60 L40.55,234.55 L41.05,233.50 L41.55,232.46 L42.05,231.43 L42.55,230.40 L43.05,229.38 L43.55,228.36 L44.05,227.34 L44.55,226.34 L45.05,225.33 L45.55,224.33 L46.05,223.34 L46.56,222.35 L47.06,221.37 L47.56,220.39 L48.06,219.42 L48.56,218.45 L49.06,217.48 L49.56,216.52 L50.06,215.57 L50.56,214.62 L51.06,213.68 L51.56,212.74 L52.06,211.80 L52.56,210.87 L53.06,209.94 L53.56,209.02 L54.06,208.11 L54.56,207.19 L55.07,206.29 L55.57,205.38 L56.07,204.48 L56.57,203.59 L57.07,202.70 L57.57,201.81 L58.07,200.93 L58.57,200.06 L59.07,199.18 L59.57,198.32 L60.07,197.45 L60.57,196.59 L61.07,195.74 L61.57,194.89 L62.07,194.04 L62.57,193.20 L63.07,192.36 L63.58,191.53 L64.08,190.70 L64.58,189.87 L65.08,189.05 L65.58,188.24 L66.08,187.42 L66.58,186.61 L67.08,185.81 L67.58,185.01 L68.08,184.21 L68.58,183.42 L69.08,182.63 L69.58,181.84 L70.08,181.06 L70.58,180.29 L71.08,179.51 L71.59,178.74 L72.09,177.98 L72.59,177.21 L73.09,176.46 L73.59,175.70 L74.09,174.95 L74.59,174.21 L75.09,173.46 L75.59,172.72 L76.09,171.99 L76.59,171.26 L77.09,170.53 L77.59,169.80 L78.09,169.08 L78.59,168.36 L79.09,167.65 L79.59,166.94 L80.10,166.23 L80.60,165.53 L81.10,164.83 L81.60,164.13 L82.10,163.44 L82.60,162.75 L83.10,162.07 L83.60,161.38 L84.10,160.70 L84.60,160.03 L85.10,159.36 L85.60,158.69 L86.10,158.02 L86.60,157.36 L87.10,156.70 L87.60,156.05 L88.10,155.39 L88.61,154.74 L89.11,154.10 L89.61,153.46 L90.11,152.82 L90.61,152.18 L91.11,151.55 L91.61,150.92 L92.11,150.29 L92.61,149.67 L93.11,149.05 L93.61,148.43 L94.11,147.82 L94.61,147.20 L95.11,146.60 L95.61,145.99 L96.11,145.39 L96.61,144.79 L97.12,144.19 L97.62,143.60 L98.12,143.01 L98.62,142.42 L99.12,141.84 L99.62,141.26 L100.12,140.68 L100.62,140.10 L101.12,139.53 L101.62,138.96 L102.12,138.39 L102.62,137.83 L103.12,137.27 L103.62,136.71 L104.12,136.15 L104.62,135.60 L105.12,135.05 L105.63,134.50 L106.13,133.96 L106.63,133.42 L107.13,132.88 L107.63,132.34 L108.13,131.81 L108.63,131.27 L109.13,130.75 L109.63,130.22 L110.13,129.70 L110.63,129.18 L111.13,128.66 L111.63,128.14 L112.13,127.63 L112.63,127.12 L113.13,126.61 L113.63,126.11 L114.14,125.60 L114.64,125.10 L115.14,124.60 L115.64,124.11 L116.14,123.62 L116.64,123.13 L117.14,122.64 L117.64,122.15 L118.14,121.67 L118.64,121.19 L119.14,120.71 L119.64,120.23 L120.14,119.76 L120.64,119.29 L121.14,118.82 L121.64,118.35 L122.15,117.89 L122.65,117.43 L123.15,116.97 L123.65,116.51 L124.15,116.06 L124.65,115.60 L125.15,115.15 L125.65,114.71 L126.15,114.26 L126.65,113.82 L127.15,113.37 L127.65,112.94 L128.15,112.50 L128.65,112.06 L129.15,111.63 L129.65,111.20 L130.15,110.77 L130.66,110.35 L131.16,109.92 L131.66,109.50 L132.16,109.08 L132.66,108.66 L133.16,108.25 L133.66,107.83 L134.16,107.42 L134.66,107.01 L135.16,106.60 L135.66,106.20 L136.16,105.79 L136.66,105.39 L137.16,104.99 L137.66,104.60 L138.16,104.20 L138.66,103.81 L139.17,103.42 L139.67,103.03 L140.17,102.64 L140.67,102.25 L141.17,101.87 L141.67,101.49 L142.17,101.11 L142.67,100.73 L143.17,100.35 L143.67,99.98 L144.17,99.61 L144.67,99.24 L145.17,98.87 L145.67,98.50 L146.17,98.14 L146.67,97.77 L147.17,97.41 L147.68,97.05 L148.18,96.69 L148.68,96.34 L149.18,95.98 L149.68,95.63 L150.18,95.28 L150.68,94.93 L151.18,94.58 L151.68,94.24 L152.18,93.90 L152.68,93.55 L153.18,93.21 L153.68,92.87 L154.18,92.54 L154.68,92.20 L155.18,91.87 L155.68,91.54 L156.19,91.21 L156.69,90.88 L157.19,90.55 L157.69,90.23 L158.19,89.90 L158.69,89.58 L159.19,89.26 L159.69,88.94 L160.19,88.62 L160.69,88.31 L161.19,87.99 L161.69,87.68 L162.19,87.37 L162.69,87.06 L163.19,86.75 L163.69,86.45 L164.20,86.14 L164.70,85.84 L165.20,85.54 L165.70,85.24 L166.20,84.94 L166.70,84.64 L167.20,84.35 L167.70,84.05 L168.20,83.76 L168.70,83.47 L169.20,83.18 L169.70,82.89 L170.20,82.60 L170.70,82.32 L171.20,82.03 L171.70,81.75 L172.20,81.47 L172.71,81.19 L173.21,80.91 L173.71,80.63 L174.21,80.36 L174.71,80.08 L175.21,79.81 L175.71,79.54 L176.21,79.27 L176.71,79.00 L177.21,78.73 L177.71,78.46 L178.21,78.20 L178.71,77.94 L179.21,77.67 L179.71,77.41 L180.21,77.15 L180.71,76.89 L181.22,76.64 L181.72,76.38 L182.22,76.13 L182.72,75.87 L183.22,75.62 L183.72,75.37 L184.22,75.12 L184.72,74.87 L185.22,74.63 L185.72,74.38 L186.22,74.14 L186.72,73.89 L187.22,73.65 L187.72,73.41 L188.22,73.17 L188.72,72.93 L189.22,72.69 L189.73,72.46 L190.23,72.22 L190.73,71.99 L191.23,71.76 L191.73,71.52 L192.23,71.29 L192.73,71.07 L193.23,70.84 L193.73,70.61 L194.23,70.38 L194.73,70.16 L195.23,69.94 L195.73,69.71 L196.23,69.49 L196.73,69.27 L197.23,69.05 L197.73,68.84 L198.24,68.62 L198.74,68.40 L199.24,68.19 L199.74,67.98 L200.24,67.76 L200.74,67.55 L201.24,67.34 L201.74,67.13 L202.24,66.92 L202.74,66.72 L203.24,66.51 L203.74,66.30 L204.24,66.10 L204.74,65.90 L205.24,65.69 L205.74,65.49 L206.24,65.29 L206.75,65.09 L207.25,64.90 L207.75,64.70 L208.25,64.50 L208.75,64.31 L209.25,64.11 L209.75,63.92 L210.25,63.73 L210.75,63.54 L211.25,63.35 L211.75,63.16 L212.25,62.97 L212.75,62.78 L213.25,62.59 L213.75,62.41 L214.25,62.22 L214.76,62.04 L215.26,61.86 L215.76,61.67 L216.26,61.49 L216.76,61.31 L217.26,61.13 L217.76,60.96 L218.26,60.78 L218.76,60.60 L219.26,60.43 L219.76,60.25 L220.26,60.08 L220.76,59.90 L221.26,59.73 L221.76,59.56 L222.26,59.39 L222.76,59.22 L223.27,59.05 L223.77,58.88 L224.27,58.72 L224.77,58.55 L225.27,58.38 L225.77,58.22 L226.27,58.06 L226.77,57.89 L227.27,57.73 L227.77,57.57 L228.27,57.41 L228.77,57.25 L229.27,57.09 L229.77,56.93 L230.27,56.77 L230.77,56.62 L231.27,56.46 L231.78,56.31 L232.28,56.15 L232.78,56.00 L233.28,55.85 L233.78,55.69 L234.28,55.54 L234.78,55.39 L235.28,55.24 L235.78,55.09 L236.28,54.94 L236.78,54.80 L237.28,54.65 L237.78,54.50 L238.28,54.36 L238.78,54.21 L239.28,54.07 L239.78,53.93 L240.29,53.79 L240.79,53.64 L241.29,53.50 L241.79,53.36 L242.29,53.22 L242.79,53.08 L243.29,52.95 L243.79,52.81 L244.29,52.67 L244.79,52.54 L245.29,52.40 L245.79,52.26 L246.29,52.13 L246.79,52.00 L247.29,51.86 L247.79,51.73 L248.29,51.60 L248.80,51.47 L249.30,51.34 L249.80,51.21 L250.30,51.08 L250.80,50.95 L251.30,50.83 L251.80,50.70 L252.30,50.57 L252.80,50.45 L253.30,50.32 L253.80,50.20 L254.30,50.07 L254.80,49.95 L255.30,49.83 L255.80,49.71 L256.30,49.58 L256.80,49.46 L257.31,49.34 L257.81,49.22 L258.31,49.11 L258.81,48.99 L259.31,48.87 L259.81,48.75 L260.31,48.64 L260.81,48.52 L261.31,48.40 L261.81,48.29 L262.31,48.18 L262.81,48.06 L263.31,47.95 L263.81,47.84 L264.31,47.72 L264.81,47.61 L265.32,47.50 L265.82,47.39 L266.32,47.28 L266.82,47.17 L267.32,47.06 L267.82,46.96 L268.32,46.85 L268.82,46.74 L269.32,46.63 L269.82,46.53 L270.32,46.42 L270.82,46.32 L271.32,46.21 L271.82,46.11 L272.32,46.01 L272.82,45.90 L273.32,45.80 L273.83,45.70 L274.33,45.60 L274.83,45.50 L275.33,45.40 L275.83,45.30 L276.33,45.20 L276.83,45.10 L277.33,45.00 L277.83,44.90 L278.33,44.80 L278.83,44.71 L279.33,44.61 L279.83,44.52 L280.33,44.42 L280.83,44.33 L281.33,44.23 L281.83,44.14 L282.34,44.04 L282.84,43.95 L283.34,43.86 L283.84,43.77 L284.34,43.67 L284.84,43.58 L285.34,43.49 L285.84,43.40 L286.34,43.31 L286.84,43.22 L287.34,43.13 L287.84,43.04 L288.34,42.96 L288.84,42.87 L289.34,42.78 L289.84,42.70 L290.34,42.61 L290.85,42.52 L291.35,42.44 L291.85,42.35 L292.35,42.27 L292.85,42.18 L293.35,42.10 L293.85,42.02 L294.35,41.93 L294.85,41.85 L295.35,41.77 L295.85,41.69 L296.35,41.61 L296.85,41.53 L297.35,41.44 L297.85,41.36 L298.35,41.28 L298.85,41.21 L299.36,41.13 L299.86,41.05 L300.36,40.97 L300.86,40.89 L301.36,40.82 L301.86,40.74 L302.36,40.66 L302.86,40.59 L303.36,40.51 L303.86,40.43 L304.36,40.36 L304.86,40.28 L305.36,40.21 L305.86,40.14 L306.36,40.06 L306.86,39.99 L307.37,39.92 L307.87,39.84 L308.37,39.77 L308.87,39.70 L309.37,39.63 L309.87,39.56 L310.37,39.49 L310.87,39.42 L311.37,39.35 L311.87,39.28 L312.37,39.21 L312.87,39.14 L313.37,39.07 L313.87,39.00 L314.37,38.93 L314.87,38.87 L315.37,38.80 L315.88,38.73 L316.38,38.67 L316.88,38.60 L317.38,38.53 L317.88,38.47 L318.38,38.40 L318.88,38.34 L319.38,38.27 L319.88,38.21 L320.38,38.15 L320.88,38.08 L321.38,38.02 L321.88,37.96 L322.38,37.89 L322.88,37.83 L323.38,37.77 L323.88,37.71 L324.39,37.65 L324.89,37.58 L325.39,37.52 L325.89,37.46 L326.39,37.40 L326.89,37.34 L327.39,37.28 L327.89,37.22 L328.39,37.17 L328.89,37.11 L329.39,37.05 L329.89,36.99 L330.39,36.93 L330.89,36.87 L331.39,36.82 L331.89,36.76 L332.39,36.70 L332.90,36.65 L333.40,36.59 L333.90,36.54 L334.40,36.48 L334.90,36.42 L335.40,36.37 L335.90,36.31 L336.40,36.26 L336.90,36.21 L337.40,36.15 L337.90,36.10 L338.40,36.05 L338.90,35.99 L339.40,35.94 L339.90,35.89 L340.40,35.83 L340.90,35.78 L341.41,35.73 L341.91,35.68 L342.41,35.63 L342.91,35.58 L343.41,35.53 L343.91,35.48 L344.41,35.42 L344.91,35.37 L345.41,35.33 L345.91,35.28 L346.41,35.23 L346.91,35.18 L347.41,35.13 L347.91,35.08 L348.41,35.03 L348.91,34.98 L349.41,34.94 L349.92,34.89 L350.42,34.84 L350.92,34.79 L351.42,34.75 L351.92,34.70 L352.42,34.65 L352.92,34.61 L353.42,34.56 L353.92,34.52 L354.42,34.47 L354.92,34.43 L355.42,34.38 L355.92,34.34 L356.42,34.29 L356.92,34.25 L357.42,34.20 L357.93,34.16 L358.43,34.11 L358.93,34.07 L359.43,34.03 L359.93,33.98 L360.43,33.94 L360.93,33.90 L361.43,33.86 L361.93,33.81 L362.43,33.77 L362.93,33.73 L363.43,33.69 L363.93,33.65 L364.43,33.61 L364.93,33.57 L365.43,33.53 L365.93,33.48 L366.44,33.44 L366.94,33.40 L367.44,33.36 L367.94,33.32 L368.44,33.29 L368.94,33.25 L369.44,33.21 L369.94,33.17 L370.44,33.13 L370.94,33.09 L371.44,33.05 L371.94,33.01 L372.44,32.98 L372.94,32.94 L373.44,32.90 L373.94,32.86 L374.44,32.83 L374.95,32.79 L375.45,32.75 L375.95,32.72 L376.45,32.68 L376.95,32.64 L377.45,32.61 L377.95,32.57 L378.45,32.53 L378.95,32.50 L379.45,32.46 L379.95,32.43 L380.45,32.39 L380.95,32.36 L381.45,32.32 L381.95,32.29 L382.45,32.25 L382.95,32.22 L383.46,32.19 L383.96,32.15 L384.46,32.12 L384.96,32.09 L385.46,32.05 L385.96,32.02 L386.46,31.99 L386.96,31.95 L387.46,31.92 L387.96,31.89 L388.46,31.86 L388.96,31.82 L389.46,31.79 L389.96,31.76 L390.46,31.73 L390.96,31.70 L391.46,31.66 L391.97,31.63 L392.47,31.60 L392.97,31.57 L393.47,31.54 L393.97,31.51 L394.47,31.48 L394.97,31.45 L395.47,31.42 L395.97,31.39 L396.47,31.36 L396.97,31.33 L397.47,31.30 L397.97,31.27 L398.47,31.24 L398.97,31.21 L399.47,31.18 L399.98,31.15 L400.48,31.13 L400.98,31.10 L401.48,31.07 L401.98,31.04 L402.48,31.01 L402.98,30.98 L403.48,30.96 L403.98,30.93 L404.48,30.90 L404.98,30.87 L405.48,30.85 L405.98,30.82 L406.48,30.79 L406.98,30.77 L407.48,30.74 L407.98,30.71 L408.49,30.69 L408.99,30.66 L409.49,30.63 L409.99,30.61 L410.49,30.58 L410.99,30.55 L411.49,30.53 L411.99,30.50 L412.49,30.48 L412.99,30.45 L413.49,30.43 L413.99,30.40 L414.49,30.38 L414.99,30.35 L415.49,30.33 L415.99,30.30 L416.49,30.28 L417.00,30.25 L417.50,30.23 L418.00,30.21 L418.50,30.18 L419.00,30.16 L419.50,30.13 L420.00,30.11 L420.50,30.09 L421.00,30.06" style="stroke-width: 3; stroke: rgb(74, 144, 226); stroke-opacity: 0.8;"/></g></g><g class="test-xtl" style="font-family: &quot;Open Sans&quot;, verdana, arial, sans-serif;"><text text-anchor="middle" font-size="11" dominant-baseline="hanging" stroke="none" fill="rgb(255,255,255)" fill-opacity="1" x="11.195837249755924" y="132.40691489652818">-1</text><text text-anchor="middle" font-size="11" dominant-baseline="hanging" stroke="none" fill="rgb(255,255,255)" fill-opacity="1" x="214.33083724975594" y="132.40691489652818">1</text><text text-anchor="middle" font-size="11" dominant-baseline="hanging" stroke="none" fill="rgb(255,255,255)" fill-opacity="1" x="314.3308372497559" y="132.40691489652818">2</text><text text-anchor="middle" font-size="11" dominant-baseline="hanging" stroke="none" fill="rgb(255,255,255)" fill-opacity="1" x="414.3308372497559" y="132.40691489652818">3</text><text text-anchor="middle" font-size="11" dominant-baseline="hanging" stroke="none" fill="rgb(255,255,255)" fill-opacity="1" x="106.33083724975592" y="130.40691489652818">0</text></g><g class="test-ytl" style="font-family: &quot;Open Sans&quot;, verdana, arial, sans-serif;"><text text-anchor="end" dominant-baseline="middle" font-size="11" stroke="none" fill="rgb(255,255,255)" fill-opacity="1" x="106.33083724975592" y="225.40691489652818">-1</text><text text-anchor="end" dominant-baseline="middle" font-size="11" stroke="none" fill="rgb(255,255,255)" fill-opacity="1" x="106.33083724975592" y="25.406914896528235">1</text></g><rect class="real" x="1" y="1" width="419" height="268" style="fill: transparent; stroke: none;"/></g></g></g><g/></g><g/><g/><g/></svg>
        <svg xmlns="http://www.w3.org/2000/svg" xmlns:xlink="http://www.w3.org/1999/xlink" width="700" height="335" style="width:700px;height:335px;font-family:Asana-Math, Asana;background:transparent;"></svg>
</svg>
