<svg xmlns="http://www.w3.org/2000/svg" xmlns:xlink="http://www.w3.org/1999/xlink" x="0" y="0" width="702" height="337" style="
        width:702px;
        height:337px;
        background: transparent;
        fill: none;
">
        <svg xmlns="http://www.w3.org/2000/svg"/>
        
        <svg xmlns="http://www.w3.org/2000/svg" class="role-diagram-draw-area" style="overflow: visible;"><g class="shapes-region" style="stroke: black; fill: none; --darkreader-inline-stroke: #ffffff; --darkreader-inline-fill: none;" data-darkreader-inline-stroke="" data-darkreader-inline-fill=""><g class="composite-shape" data-amt="diagram/shapes/plot" transform="matrix(1,0,0,1,117,29)"><g><g/><g><g class="test-xti" style="font-family: Asana-Math, Asana;"><line x1="0" y1="248.84953818746163" x2="417" y2="248.84953818746163" fill="none" stroke="rgb(255,255,255)" stroke-opacity="1" stroke-width="1" data-darkreader-inline-stroke="" style="--darkreader-inline-stroke: #131a1d;"/><line x1="198.49464071308367" y1="244.84953818746163" x2="198.49464071308367" y2="252.84953818746163" fill="none" stroke="rgb(255,255,255)" stroke-opacity="1" stroke-width="1" data-darkreader-inline-stroke="" style="--darkreader-inline-stroke: #131a1d;"/><line x1="298.49464071308364" y1="244.84953818746163" x2="298.49464071308364" y2="252.84953818746163" fill="none" stroke="rgb(255,255,255)" stroke-opacity="1" stroke-width="1" data-darkreader-inline-stroke="" style="--darkreader-inline-stroke: #131a1d;"/><line x1="398.49464071308364" y1="244.84953818746163" x2="398.49464071308364" y2="252.84953818746163" fill="none" stroke="rgb(255,255,255)" stroke-opacity="1" stroke-width="1" data-darkreader-inline-stroke="" style="--darkreader-inline-stroke: #131a1d;"/><path d="M412,245.24953818746164 L420,248.84953818746163 L412,252.44953818746163 Z" stroke="none" stroke-width="1" fill="rgb(255,255,255)" fill-opacity="1" data-darkreader-inline-fill="" data-darkreader-inline-stroke="" style="--darkreader-inline-fill: #ffffff; --darkreader-inline-stroke: none;"/></g><g class="test-yti" style="font-family: Asana-Math, Asana;"><line x1="98.49464071308367" y1="4" x2="98.49464071308367" y2="270" fill="none" stroke="rgb(255,255,255)" stroke-opacity="1" stroke-width="1" data-darkreader-inline-stroke="" style="--darkreader-inline-stroke: #131a1d;"/><line x1="94.49464071308367" y1="148.84953818746163" x2="102.49464071308367" y2="148.84953818746163" fill="none" stroke="rgb(255,255,255)" stroke-opacity="1" stroke-width="1" data-darkreader-inline-stroke="" style="--darkreader-inline-stroke: #131a1d;"/><line x1="94.49464071308367" y1="48.84953818746163" x2="102.49464071308367" y2="48.84953818746163" fill="none" stroke="rgb(255,255,255)" stroke-opacity="1" stroke-width="1" data-darkreader-inline-stroke="" style="--darkreader-inline-stroke: #131a1d;"/><path d="M94.89464071308367,9 L98.49464071308367,1 L102.09464071308366,9 Z" stroke="none" stroke-width="1" fill="rgb(255,255,255)" fill-opacity="1" data-darkreader-inline-fill="" data-darkreader-inline-stroke="" style="--darkreader-inline-fill: #ffffff; --darkreader-inline-stroke: none;"/></g><g class="test-plot-expression"><defs><clipPath id="cpr05kap1ypdg-full-view"><rect x="1" y="1" width="419" height="268"/></clipPath></defs><g clip-path="url(#cpr05kap1ypdg-full-view)"><path d=" M98.62,243.90 L99.12,237.72 L99.62,233.94 L100.12,230.97 L100.62,228.44 L101.12,226.22 L101.62,224.21 L102.12,222.37 L102.62,220.67 L103.12,219.08 L103.62,217.58 L104.12,216.16 L104.62,214.81 L105.12,213.53 L105.63,212.30 L106.13,211.13 L106.63,209.99 L107.13,208.90 L107.63,207.85 L108.13,206.83 L108.63,205.85 L109.13,204.90 L109.63,203.97 L110.13,203.07 L110.63,202.20 L111.13,201.35 L111.63,200.52 L112.13,199.71 L112.63,198.92 L113.13,198.15 L113.63,197.40 L114.14,196.67 L114.64,195.95 L115.14,195.25 L115.64,194.56 L116.14,193.89 L116.64,193.23 L117.14,192.59 L117.64,191.95 L118.14,191.33 L118.64,190.73 L119.14,190.13 L119.64,189.54 L120.14,188.97 L120.64,188.40 L121.14,187.85 L121.64,187.30 L122.15,186.76 L122.65,186.24 L123.15,185.72 L123.65,185.21 L124.15,184.71 L124.65,184.21 L125.15,183.73 L125.65,183.25 L126.15,182.78 L126.65,182.32 L127.15,181.86 L127.65,181.41 L128.15,180.97 L128.65,180.53 L129.15,180.10 L129.65,179.68 L130.15,179.26 L130.66,178.85 L131.16,178.44 L131.66,178.04 L132.16,177.64 L132.66,177.26 L133.16,176.87 L133.66,176.49 L134.16,176.12 L134.66,175.75 L135.16,175.38 L135.66,175.02 L136.16,174.67 L136.66,174.32 L137.16,173.97 L137.66,173.63 L138.16,173.29 L138.66,172.96 L139.17,172.63 L139.67,172.31 L140.17,171.98 L140.67,171.67 L141.17,171.35 L141.67,171.04 L142.17,170.74 L142.67,170.43 L143.17,170.13 L143.67,169.84 L144.17,169.55 L144.67,169.26 L145.17,168.97 L145.67,168.69 L146.17,168.41 L146.67,168.13 L147.17,167.86 L147.68,167.59 L148.18,167.32 L148.68,167.05 L149.18,166.79 L149.68,166.53 L150.18,166.28 L150.68,166.02 L151.18,165.77 L151.68,165.52 L152.18,165.28 L152.68,165.03 L153.18,164.79 L153.68,164.55 L154.18,164.32 L154.68,164.08 L155.18,163.85 L155.68,163.62 L156.19,163.39 L156.69,163.17 L157.19,162.94 L157.69,162.72 L158.19,162.50 L158.69,162.28 L159.19,162.07 L159.69,161.85 L160.19,161.64 L160.69,161.43 L161.19,161.23 L161.69,161.02 L162.19,160.81 L162.69,160.61 L163.19,160.41 L163.69,160.21 L164.20,160.01 L164.70,159.82 L165.20,159.62 L165.70,159.43 L166.20,159.24 L166.70,159.05 L167.20,158.86 L167.70,158.67 L168.20,158.49 L168.70,158.30 L169.20,158.12 L169.70,157.94 L170.20,157.75 L170.70,157.58 L171.20,157.40 L171.70,157.22 L172.20,157.04 L172.71,156.87 L173.21,156.70 L173.71,156.52 L174.21,156.35 L174.71,156.18 L175.21,156.01 L175.71,155.84 L176.21,155.68 L176.71,155.51 L177.21,155.34 L177.71,155.18 L178.21,155.01 L178.71,154.85 L179.21,154.69 L179.71,154.53 L180.21,154.37 L180.71,154.21 L181.22,154.05 L181.72,153.89 L182.22,153.73 L182.72,153.58 L183.22,153.42 L183.72,153.26 L184.22,153.11 L184.72,152.95 L185.22,152.80 L185.72,152.65 L186.22,152.49 L186.72,152.34 L187.22,152.19 L187.72,152.04 L188.22,151.89 L188.72,151.74 L189.22,151.59 L189.73,151.44 L190.23,151.29 L190.73,151.14 L191.23,150.99 L191.73,150.84 L192.23,150.69 L192.73,150.54 L193.23,150.40 L193.73,150.25 L194.23,150.10 L194.73,149.95 L195.23,149.81 L195.73,149.66 L196.23,149.51 L196.73,149.37 L197.23,149.22 L197.73,149.07 L198.24,148.93 L198.74,148.78 L199.24,148.63 L199.74,148.49 L200.24,148.34 L200.74,148.19 L201.24,148.05 L201.74,147.90 L202.24,147.75 L202.74,147.60 L203.24,147.46 L203.74,147.31 L204.24,147.16 L204.74,147.01 L205.24,146.86 L205.74,146.72 L206.24,146.57 L206.75,146.42 L207.25,146.27 L207.75,146.12 L208.25,145.97 L208.75,145.82 L209.25,145.67 L209.75,145.52 L210.25,145.36 L210.75,145.21 L211.25,145.06 L211.75,144.90 L212.25,144.75 L212.75,144.60 L213.25,144.44 L213.75,144.29 L214.25,144.13 L214.76,143.97 L215.26,143.81 L215.76,143.66 L216.26,143.50 L216.76,143.34 L217.26,143.18 L217.76,143.02 L218.26,142.85 L218.76,142.69 L219.26,142.53 L219.76,142.36 L220.26,142.20 L220.76,142.03 L221.26,141.86 L221.76,141.69 L222.26,141.52 L222.76,141.35 L223.27,141.18 L223.77,141.01 L224.27,140.84 L224.77,140.66 L225.27,140.49 L225.77,140.31 L226.27,140.13 L226.77,139.95 L227.27,139.77 L227.77,139.59 L228.27,139.41 L228.77,139.22 L229.27,139.03 L229.77,138.85 L230.27,138.66 L230.77,138.47 L231.27,138.28 L231.78,138.08 L232.28,137.89 L232.78,137.69 L233.28,137.49 L233.78,137.30 L234.28,137.09 L234.78,136.89 L235.28,136.69 L235.78,136.48 L236.28,136.27 L236.78,136.06 L237.28,135.85 L237.78,135.64 L238.28,135.42 L238.78,135.21 L239.28,134.99 L239.78,134.76 L240.29,134.54 L240.79,134.32 L241.29,134.09 L241.79,133.86 L242.29,133.63 L242.79,133.39 L243.29,133.16 L243.79,132.92 L244.29,132.68 L244.79,132.43 L245.29,132.19 L245.79,131.94 L246.29,131.69 L246.79,131.43 L247.29,131.17 L247.79,130.92 L248.29,130.65 L248.80,130.39 L249.30,130.12 L249.80,129.85 L250.30,129.58 L250.80,129.30 L251.30,129.02 L251.80,128.74 L252.30,128.45 L252.80,128.16 L253.30,127.87 L253.80,127.58 L254.30,127.28 L254.80,126.97 L255.30,126.67 L255.80,126.36 L256.30,126.04 L256.80,125.73 L257.31,125.41 L257.81,125.08 L258.31,124.75 L258.81,124.42 L259.31,124.08 L259.81,123.74 L260.31,123.39 L260.81,123.04 L261.31,122.69 L261.81,122.33 L262.31,121.96 L262.81,121.59 L263.31,121.22 L263.81,120.84 L264.31,120.46 L264.81,120.07 L265.32,119.67 L265.82,119.27 L266.32,118.87 L266.82,118.46 L267.32,118.04 L267.82,117.61 L268.32,117.18 L268.82,116.75 L269.32,116.31 L269.82,115.86 L270.32,115.40 L270.82,114.94 L271.32,114.47 L271.82,113.99 L272.32,113.50 L272.82,113.01 L273.32,112.51 L273.83,112.00 L274.33,111.48 L274.83,110.95 L275.33,110.42 L275.83,109.87 L276.33,109.32 L276.83,108.75 L277.33,108.18 L277.83,107.59 L278.33,106.99 L278.83,106.39 L279.33,105.77 L279.83,105.13 L280.33,104.49 L280.83,103.83 L281.33,103.16 L281.83,102.47 L282.34,101.77 L282.84,101.06 L283.34,100.32 L283.84,99.57 L284.34,98.80 L284.84,98.02 L285.34,97.21 L285.84,96.38 L286.34,95.53 L286.84,94.66 L287.34,93.76 L287.84,92.84 L288.34,91.88 L288.84,90.90 L289.34,89.88 L289.84,88.83 L290.34,87.74 L290.85,86.61 L291.35,85.44 L291.85,84.21 L292.35,82.93 L292.85,81.59 L293.35,80.17 L293.85,78.68 L294.35,77.09 L294.85,75.39 L295.35,73.56 L295.85,71.56 L296.35,69.34 L296.85,66.83 L297.35,63.88 L297.85,60.14 L298.35,54.14" style="stroke-width: 3; stroke: rgb(74, 144, 226); stroke-opacity: 0.8; --darkreader-inline-stroke: #51d6ff;" data-darkreader-inline-stroke=""/></g></g><g class="test-xtl" style="font-family: &quot;Open Sans&quot;, verdana, arial, sans-serif;"><text text-anchor="middle" font-size="11" dominant-baseline="hanging" stroke="none" fill="rgb(255,255,255)" fill-opacity="1" x="198.49464071308367" y="255.84953818746163" data-darkreader-inline-fill="" data-darkreader-inline-stroke="" style="--darkreader-inline-fill: #ffffff; --darkreader-inline-stroke: none;">0.5</text><text text-anchor="middle" font-size="11" dominant-baseline="hanging" stroke="none" fill="rgb(255,255,255)" fill-opacity="1" x="298.49464071308364" y="255.84953818746163" data-darkreader-inline-fill="" data-darkreader-inline-stroke="" style="--darkreader-inline-fill: #ffffff; --darkreader-inline-stroke: none;">1</text><text text-anchor="middle" font-size="11" dominant-baseline="hanging" stroke="none" fill="rgb(255,255,255)" fill-opacity="1" x="398.49464071308364" y="255.84953818746163" data-darkreader-inline-fill="" data-darkreader-inline-stroke="" style="--darkreader-inline-fill: #ffffff; --darkreader-inline-stroke: none;">1.5</text><text text-anchor="middle" font-size="11" dominant-baseline="hanging" stroke="none" fill="rgb(255,255,255)" fill-opacity="1" x="90.49464071308367" y="253.84953818746163" data-darkreader-inline-fill="" data-darkreader-inline-stroke="" style="--darkreader-inline-fill: #ffffff; --darkreader-inline-stroke: none;">0</text></g><g class="test-ytl" style="font-family: &quot;Open Sans&quot;, verdana, arial, sans-serif;"><text text-anchor="end" dominant-baseline="middle" font-size="11" stroke="none" fill="rgb(255,255,255)" fill-opacity="1" x="90.49464071308367" y="148.84953818746163" data-darkreader-inline-fill="" data-darkreader-inline-stroke="" style="--darkreader-inline-fill: #ffffff; --darkreader-inline-stroke: none;">0.5</text><text text-anchor="end" dominant-baseline="middle" font-size="11" stroke="none" fill="rgb(255,255,255)" fill-opacity="1" x="90.49464071308367" y="48.84953818746163" data-darkreader-inline-fill="" data-darkreader-inline-stroke="" style="--darkreader-inline-fill: #ffffff; --darkreader-inline-stroke: none;">1</text></g><rect class="real" x="1" y="1" width="419" height="268" style="fill: transparent; stroke: none; --darkreader-inline-fill: transparent; --darkreader-inline-stroke: none;" data-darkreader-inline-fill="" data-darkreader-inline-stroke=""/></g></g></g><g/></g><g/><g/><g/></svg>
        <svg xmlns="http://www.w3.org/2000/svg" xmlns:xlink="http://www.w3.org/1999/xlink" width="700" height="335" style="width:700px;height:335px;font-family:Asana-Math, Asana;background:transparent;"></svg>
</svg>
