<svg xmlns="http://www.w3.org/2000/svg" width="702" height="337" style="width:702px;height:337px;background:0 0;fill:none"><svg xmlns="http://www.w3.org/2000/svg"/><svg xmlns="http://www.w3.org/2000/svg" class="role-diagram-draw-area" style="overflow:visible"><g class="shapes-region" style="stroke:#000;fill:none;--darkreader-inline-stroke:#ffffff;--darkreader-inline-fill:none"><g class="composite-shape" data-amt="diagram/shapes/plot"><g class="test-xti" style="font-family:Asana-Math,Asana"><path stroke="#fff" d="M0 248.85h417m-218.505-4v8m100-8v8m100-8v8" style="--darkreader-inline-stroke:#131a1d" transform="translate(117 29)"/><path fill="#fff" stroke="none" d="m412 245.25 8 3.6-8 3.6Z" style="--darkreader-inline-fill:#ffffff;--darkreader-inline-stroke:none" transform="translate(117 29)"/></g><g class="test-yti" style="font-family:Asana-Math,Asana"><path stroke="#fff" d="M98.495 4v266m-4-121.15h8m-8-100h8" style="--darkreader-inline-stroke:#131a1d" transform="translate(117 29)"/><path fill="#fff" stroke="none" d="m94.895 9 3.6-8 3.6 8Z" style="--darkreader-inline-fill:#ffffff;--darkreader-inline-stroke:none" transform="translate(117 29)"/></g><g class="test-plot-expression" transform="translate(117 29)"><defs><clipPath id="a"><path d="M1 1h419v268H1z"/></clipPath></defs><g clip-path="url(#a)"><path d="m98.62 243.9.5-6.18.5-3.78.5-2.97.5-2.53.5-2.22.5-2.01.5-1.84.5-1.7.5-1.59.5-1.5.5-1.42.5-1.35.5-1.28.51-1.23.5-1.17.5-1.14.5-1.09.5-1.05.5-1.02.5-.98.5-.95.5-.93.5-.9.5-.87.5-.85.5-.83.5-.81.5-.79.5-.77.5-.75.51-.73.5-.72.5-.7.5-.69.5-.67.5-.66.5-.64.5-.64.5-.62.5-.6.5-.6.5-.59.5-.57.5-.57.5-.55.5-.55.51-.54.5-.52.5-.52.5-.51.5-.5.5-.5.5-.48.5-.48.5-.47.5-.46.5-.46.5-.45.5-.44.5-.44.5-.43.5-.42.5-.42.51-.41.5-.41.5-.4.5-.4.5-.38.5-.39.5-.38.5-.37.5-.37.5-.37.5-.36.5-.35.5-.35.5-.35.5-.34.5-.34.5-.33.51-.33.5-.32.5-.33.5-.31.5-.32.5-.31.5-.3.5-.31.5-.3.5-.29.5-.29.5-.29.5-.29.5-.28.5-.28.5-.28.5-.27.51-.27.5-.27.5-.27.5-.26.5-.26.5-.25.5-.26.5-.25.5-.25.5-.24.5-.25.5-.24.5-.24.5-.23.5-.24.5-.23.5-.23.51-.23.5-.22.5-.23.5-.22.5-.22.5-.22.5-.21.5-.22.5-.21.5-.21.5-.2.5-.21.5-.21.5-.2.5-.2.5-.2.51-.2.5-.19.5-.2.5-.19.5-.19.5-.19.5-.19.5-.19.5-.18.5-.19.5-.18.5-.18.5-.19.5-.17.5-.18.5-.18.5-.18.51-.17.5-.17.5-.18.5-.17.5-.17.5-.17.5-.17.5-.16.5-.17.5-.17.5-.16.5-.17.5-.16.5-.16.5-.16.5-.16.5-.16.51-.16.5-.16.5-.16.5-.15.5-.16.5-.16.5-.15.5-.16.5-.15.5-.15.5-.16.5-.15.5-.15.5-.15.5-.15.5-.15.5-.15.51-.15.5-.15.5-.15.5-.15.5-.15.5-.15.5-.15.5-.14.5-.15.5-.15.5-.15.5-.14.5-.15.5-.15.5-.14.5-.15.5-.15.51-.14.5-.15.5-.15.5-.14.5-.15.5-.15.5-.14.5-.15.5-.15.5-.15.5-.14.5-.15.5-.15.5-.15.5-.15.5-.14.5-.15.51-.15.5-.15.5-.15.5-.15.5-.15.5-.15.5-.15.5-.16.5-.15.5-.15.5-.16.5-.15.5-.15.5-.16.5-.15.5-.16.51-.16.5-.16.5-.15.5-.16.5-.16.5-.16.5-.16.5-.17.5-.16.5-.16.5-.17.5-.16.5-.17.5-.17.5-.17.5-.17.5-.17.51-.17.5-.17.5-.17.5-.18.5-.17.5-.18.5-.18.5-.18.5-.18.5-.18.5-.18.5-.19.5-.19.5-.18.5-.19.5-.19.5-.19.51-.2.5-.19.5-.2.5-.2.5-.19.5-.21.5-.2.5-.2.5-.21.5-.21.5-.21.5-.21.5-.21.5-.22.5-.21.5-.22.5-.23.51-.22.5-.22.5-.23.5-.23.5-.23.5-.24.5-.23.5-.24.5-.24.5-.25.5-.24.5-.25.5-.25.5-.26.5-.26.5-.25.5-.27.51-.26.5-.27.5-.27.5-.27.5-.28.5-.28.5-.28.5-.29.5-.29.5-.29.5-.29.5-.3.5-.31.5-.3.5-.31.5-.32.5-.31.51-.32.5-.33.5-.33.5-.33.5-.34.5-.34.5-.35.5-.35.5-.35.5-.36.5-.37.5-.37.5-.37.5-.38.5-.38.5-.39.51-.4.5-.4.5-.4.5-.41.5-.42.5-.43.5-.43.5-.43.5-.44.5-.45.5-.46.5-.46.5-.47.5-.48.5-.49.5-.49.5-.5.51-.51.5-.52.5-.53.5-.53.5-.55.5-.55.5-.57.5-.57.5-.59.5-.6.5-.6.5-.62.5-.64.5-.64.5-.66.5-.67.5-.69.51-.7.5-.71.5-.74.5-.75.5-.77.5-.78.5-.81.5-.83.5-.85.5-.87.5-.9.5-.92.5-.96.5-.98.5-1.02.5-1.05.5-1.09.51-1.13.5-1.17.5-1.23.5-1.28.5-1.34.5-1.42.5-1.49.5-1.59.5-1.7.5-1.83.5-2 .5-2.22.5-2.51.5-2.95.5-3.74.5-6" style="stroke-width:3;stroke:#4a90e2;stroke-opacity:.8;--darkreader-inline-stroke:#51d6ff"/></g></g><g fill="#fff" stroke="none" class="test-xtl" dominant-baseline="hanging" font-size="11" style="font-family:&quot;Open Sans&quot;,verdana,arial,sans-serif" text-anchor="middle"><text x="198.495" y="255.85" style="--darkreader-inline-fill:#ffffff;--darkreader-inline-stroke:none" transform="translate(117 29)">0.5</text><text x="298.495" y="255.85" style="--darkreader-inline-fill:#ffffff;--darkreader-inline-stroke:none" transform="translate(117 29)">1</text><text x="398.495" y="255.85" style="--darkreader-inline-fill:#ffffff;--darkreader-inline-stroke:none" transform="translate(117 29)">1.5</text><text x="90.495" y="253.85" style="--darkreader-inline-fill:#ffffff;--darkreader-inline-stroke:none" transform="translate(117 29)">0</text></g><g fill="#fff" stroke="none" class="test-ytl" dominant-baseline="middle" font-size="11" style="font-family:&quot;Open Sans&quot;,verdana,arial,sans-serif" text-anchor="end"><text x="90.495" y="148.85" style="--darkreader-inline-fill:#ffffff;--darkreader-inline-stroke:none" transform="translate(117 29)">0.5</text><text x="90.495" y="48.85" style="--darkreader-inline-fill:#ffffff;--darkreader-inline-stroke:none" transform="translate(117 29)">1</text></g><path stroke="none" d="M1 1h419v268H1z" class="real" style="fill:transparent;stroke:none;--darkreader-inline-fill:transparent;--darkreader-inline-stroke:none" transform="translate(117 29)"/></g></g></svg><svg xmlns="http://www.w3.org/2000/svg" xmlns:xlink="http://www.w3.org/1999/xlink" width="700" height="335" style="width:700px;height:335px;font-family:Asana-Math,Asana;background:0 0"/></svg>