<svg xmlns="http://www.w3.org/2000/svg" xmlns:xlink="http://www.w3.org/1999/xlink" x="0" y="0" width="702" height="337" style="
        width:702px;
        height:337px;
        background: transparent;
        fill: none;
">
        <svg xmlns="http://www.w3.org/2000/svg"/>
        
        <svg xmlns="http://www.w3.org/2000/svg" class="role-diagram-draw-area" style="overflow: visible;"><g class="shapes-region" style="stroke: black; fill: none;"><g class="composite-shape" data-amt="diagram/shapes/plot" transform="matrix(1,0,0,1,52,2)"><g><g/><g><g class="test-xti" style="font-family: Asana-Math, Asana;"><line x1="0" y1="254.66964949171404" x2="417" y2="254.66964949171404" fill="none" stroke="rgb(255,255,255)" stroke-opacity="1" stroke-width="1"/><line x1="46.31056191353136" y1="250.66964949171404" x2="46.31056191353136" y2="258.66964949171404" fill="none" stroke="rgb(255,255,255)" stroke-opacity="1" stroke-width="1"/><line x1="126.40089394478136" y1="250.66964949171404" x2="126.40089394478136" y2="258.66964949171404" fill="none" stroke="rgb(255,255,255)" stroke-opacity="1" stroke-width="1"/><line x1="286.58155800728133" y1="250.66964949171404" x2="286.58155800728133" y2="258.66964949171404" fill="none" stroke="rgb(255,255,255)" stroke-opacity="1" stroke-width="1"/><line x1="366.67189003853133" y1="250.66964949171404" x2="366.67189003853133" y2="258.66964949171404" fill="none" stroke="rgb(255,255,255)" stroke-opacity="1" stroke-width="1"/><path d="M412,251.06964949171405 L420,254.66964949171404 L412,258.26964949171406 Z" stroke="none" stroke-width="1" fill="rgb(255,255,255)" fill-opacity="1"/></g><g class="test-yti" style="font-family: Asana-Math, Asana;"><line x1="206.49122597603136" y1="4" x2="206.49122597603136" y2="270" fill="none" stroke="rgb(255,255,255)" stroke-opacity="1" stroke-width="1"/><line x1="202.49122597603136" y1="174.57931746046404" x2="210.49122597603136" y2="174.57931746046404" fill="none" stroke="rgb(255,255,255)" stroke-opacity="1" stroke-width="1"/><line x1="202.49122597603136" y1="94.48898542921404" x2="210.49122597603136" y2="94.48898542921404" fill="none" stroke="rgb(255,255,255)" stroke-opacity="1" stroke-width="1"/><line x1="202.49122597603136" y1="14.39865339796404" x2="210.49122597603136" y2="14.39865339796404" fill="none" stroke="rgb(255,255,255)" stroke-opacity="1" stroke-width="1"/><path d="M202.89122597603136,9 L206.49122597603136,1 L210.09122597603135,9 Z" stroke="none" stroke-width="1" fill="rgb(255,255,255)" fill-opacity="1"/></g><g class="test-plot-expression"><defs><clipPath id="cpr05kap1ypdg-full-view"><rect x="1" y="1" width="419" height="268"/></clipPath></defs><g clip-path="url(#cpr05kap1ypdg-full-view)"><path d=" M0.00,254.57 L0.50,254.56 L1.00,254.56 L1.50,254.56 L2.00,254.55 L2.50,254.55 L3.00,254.54 L3.50,254.54 L4.00,254.54 L4.51,254.53 L5.01,254.53 L5.51,254.52 L6.01,254.52 L6.51,254.51 L7.01,254.51 L7.51,254.50 L8.01,254.50 L8.51,254.49 L9.01,254.49 L9.51,254.48 L10.01,254.47 L10.51,254.47 L11.01,254.46 L11.51,254.46 L12.01,254.45 L12.51,254.44 L13.02,254.44 L13.52,254.43 L14.02,254.42 L14.52,254.41 L15.02,254.41 L15.52,254.40 L16.02,254.39 L16.52,254.38 L17.02,254.37 L17.52,254.36 L18.02,254.35 L18.52,254.35 L19.02,254.34 L19.52,254.33 L20.02,254.32 L20.52,254.30 L21.02,254.29 L21.53,254.28 L22.03,254.27 L22.53,254.26 L23.03,254.25 L23.53,254.24 L24.03,254.22 L24.53,254.21 L25.03,254.20 L25.53,254.18 L26.03,254.17 L26.53,254.16 L27.03,254.14 L27.53,254.13 L28.03,254.11 L28.53,254.09 L29.03,254.08 L29.54,254.06 L30.04,254.05 L30.54,254.03 L31.04,254.01 L31.54,253.99 L32.04,253.97 L32.54,253.95 L33.04,253.93 L33.54,253.91 L34.04,253.89 L34.54,253.87 L35.04,253.85 L35.54,253.83 L36.04,253.81 L36.54,253.78 L37.04,253.76 L37.54,253.73 L38.05,253.71 L38.55,253.68 L39.05,253.66 L39.55,253.63 L40.05,253.60 L40.55,253.58 L41.05,253.55 L41.55,253.52 L42.05,253.49 L42.55,253.46 L43.05,253.43 L43.55,253.39 L44.05,253.36 L44.55,253.33 L45.05,253.29 L45.55,253.26 L46.05,253.22 L46.56,253.18 L47.06,253.15 L47.56,253.11 L48.06,253.07 L48.56,253.03 L49.06,252.99 L49.56,252.95 L50.06,252.90 L50.56,252.86 L51.06,252.82 L51.56,252.77 L52.06,252.72 L52.56,252.68 L53.06,252.63 L53.56,252.58 L54.06,252.53 L54.56,252.48 L55.07,252.43 L55.57,252.37 L56.07,252.32 L56.57,252.26 L57.07,252.20 L57.57,252.15 L58.07,252.09 L58.57,252.03 L59.07,251.96 L59.57,251.90 L60.07,251.84 L60.57,251.77 L61.07,251.71 L61.57,251.64 L62.07,251.57 L62.57,251.50 L63.07,251.43 L63.58,251.35 L64.08,251.28 L64.58,251.20 L65.08,251.12 L65.58,251.05 L66.08,250.97 L66.58,250.88 L67.08,250.80 L67.58,250.71 L68.08,250.63 L68.58,250.54 L69.08,250.45 L69.58,250.36 L70.08,250.27 L70.58,250.17 L71.08,250.08 L71.59,249.98 L72.09,249.88 L72.59,249.78 L73.09,249.67 L73.59,249.57 L74.09,249.46 L74.59,249.35 L75.09,249.24 L75.59,249.13 L76.09,249.02 L76.59,248.90 L77.09,248.78 L77.59,248.66 L78.09,248.54 L78.59,248.42 L79.09,248.29 L79.59,248.16 L80.10,248.03 L80.60,247.90 L81.10,247.77 L81.60,247.63 L82.10,247.49 L82.60,247.35 L83.10,247.21 L83.60,247.07 L84.10,246.92 L84.60,246.77 L85.10,246.62 L85.60,246.46 L86.10,246.31 L86.60,246.15 L87.10,245.99 L87.60,245.83 L88.10,245.66 L88.61,245.49 L89.11,245.32 L89.61,245.15 L90.11,244.98 L90.61,244.80 L91.11,244.62 L91.61,244.44 L92.11,244.25 L92.61,244.06 L93.11,243.87 L93.61,243.68 L94.11,243.49 L94.61,243.29 L95.11,243.09 L95.61,242.89 L96.11,242.68 L96.61,242.47 L97.12,242.26 L97.62,242.05 L98.12,241.84 L98.62,241.62 L99.12,241.40 L99.62,241.17 L100.12,240.95 L100.62,240.72 L101.12,240.48 L101.62,240.25 L102.12,240.01 L102.62,239.77 L103.12,239.53 L103.62,239.28 L104.12,239.04 L104.62,238.78 L105.12,238.53 L105.63,238.27 L106.13,238.01 L106.63,237.75 L107.13,237.49 L107.63,237.22 L108.13,236.95 L108.63,236.67 L109.13,236.40 L109.63,236.12 L110.13,235.84 L110.63,235.55 L111.13,235.26 L111.63,234.97 L112.13,234.68 L112.63,234.39 L113.13,234.09 L113.63,233.79 L114.14,233.48 L114.64,233.18 L115.14,232.87 L115.64,232.55 L116.14,232.24 L116.64,231.92 L117.14,231.60 L117.64,231.28 L118.14,230.95 L118.64,230.62 L119.14,230.29 L119.64,229.96 L120.14,229.62 L120.64,229.28 L121.14,228.94 L121.64,228.60 L122.15,228.25 L122.65,227.90 L123.15,227.55 L123.65,227.20 L124.15,226.84 L124.65,226.48 L125.15,226.12 L125.65,225.76 L126.15,225.39 L126.65,225.02 L127.15,224.65 L127.65,224.28 L128.15,223.90 L128.65,223.53 L129.15,223.15 L129.65,222.77 L130.15,222.38 L130.66,222.00 L131.16,221.61 L131.66,221.22 L132.16,220.83 L132.66,220.43 L133.16,220.04 L133.66,219.64 L134.16,219.24 L134.66,218.84 L135.16,218.44 L135.66,218.03 L136.16,217.63 L136.66,217.22 L137.16,216.81 L137.66,216.40 L138.16,215.99 L138.66,215.58 L139.17,215.16 L139.67,214.75 L140.17,214.33 L140.67,213.91 L141.17,213.49 L141.67,213.07 L142.17,212.65 L142.67,212.23 L143.17,211.80 L143.67,211.38 L144.17,210.96 L144.67,210.53 L145.17,210.10 L145.67,209.68 L146.17,209.25 L146.67,208.82 L147.17,208.39 L147.68,207.96 L148.18,207.54 L148.68,207.11 L149.18,206.68 L149.68,206.25 L150.18,205.82 L150.68,205.39 L151.18,204.96 L151.68,204.53 L152.18,204.10 L152.68,203.67 L153.18,203.25 L153.68,202.82 L154.18,202.39 L154.68,201.96 L155.18,201.54 L155.68,201.11 L156.19,200.69 L156.69,200.27 L157.19,199.84 L157.69,199.42 L158.19,199.00 L158.69,198.58 L159.19,198.16 L159.69,197.75 L160.19,197.33 L160.69,196.92 L161.19,196.51 L161.69,196.10 L162.19,195.69 L162.69,195.28 L163.19,194.88 L163.69,194.47 L164.20,194.07 L164.70,193.67 L165.20,193.28 L165.70,192.88 L166.20,192.49 L166.70,192.10 L167.20,191.71 L167.70,191.33 L168.20,190.94 L168.70,190.57 L169.20,190.19 L169.70,189.81 L170.20,189.44 L170.70,189.08 L171.20,188.71 L171.70,188.35 L172.20,187.99 L172.71,187.64 L173.21,187.28 L173.71,186.94 L174.21,186.59 L174.71,186.25 L175.21,185.91 L175.71,185.58 L176.21,185.25 L176.71,184.92 L177.21,184.60 L177.71,184.28 L178.21,183.97 L178.71,183.66 L179.21,183.35 L179.71,183.05 L180.21,182.75 L180.71,182.46 L181.22,182.17 L181.72,181.89 L182.22,181.61 L182.72,181.33 L183.22,181.06 L183.72,180.80 L184.22,180.54 L184.72,180.28 L185.22,180.03 L185.72,179.79 L186.22,179.55 L186.72,179.31 L187.22,179.08 L187.72,178.86 L188.22,178.64 L188.72,178.43 L189.22,178.22 L189.73,178.01 L190.23,177.82 L190.73,177.62 L191.23,177.44 L191.73,177.26 L192.23,177.08 L192.73,176.91 L193.23,176.75 L193.73,176.59 L194.23,176.43 L194.73,176.29 L195.23,176.15 L195.73,176.01 L196.23,175.88 L196.73,175.76 L197.23,175.64 L197.73,175.53 L198.24,175.43 L198.74,175.33 L199.24,175.23 L199.74,175.15 L200.24,175.07 L200.74,174.99 L201.24,174.92 L201.74,174.86 L202.24,174.80 L202.74,174.75 L203.24,174.71 L203.74,174.67 L204.24,174.64 L204.74,174.62 L205.24,174.60 L205.74,174.59 L206.24,174.58 L206.75,174.58 L207.25,174.59 L207.75,174.60 L208.25,174.62 L208.75,174.64 L209.25,174.67 L209.75,174.71 L210.25,174.76 L210.75,174.81 L211.25,174.86 L211.75,174.92 L212.25,174.99 L212.75,175.07 L213.25,175.15 L213.75,175.24 L214.25,175.33 L214.76,175.43 L215.26,175.53 L215.76,175.64 L216.26,175.76 L216.76,175.88 L217.26,176.01 L217.76,176.15 L218.26,176.29 L218.76,176.44 L219.26,176.59 L219.76,176.75 L220.26,176.91 L220.76,177.08 L221.26,177.26 L221.76,177.44 L222.26,177.63 L222.76,177.82 L223.27,178.02 L223.77,178.22 L224.27,178.43 L224.77,178.64 L225.27,178.86 L225.77,179.09 L226.27,179.32 L226.77,179.55 L227.27,179.79 L227.77,180.04 L228.27,180.29 L228.77,180.54 L229.27,180.80 L229.77,181.07 L230.27,181.34 L230.77,181.61 L231.27,181.89 L231.78,182.18 L232.28,182.46 L232.78,182.76 L233.28,183.05 L233.78,183.36 L234.28,183.66 L234.78,183.97 L235.28,184.29 L235.78,184.60 L236.28,184.93 L236.78,185.25 L237.28,185.58 L237.78,185.92 L238.28,186.26 L238.78,186.60 L239.28,186.94 L239.78,187.29 L240.29,187.64 L240.79,188.00 L241.29,188.36 L241.79,188.72 L242.29,189.08 L242.79,189.45 L243.29,189.82 L243.79,190.19 L244.29,190.57 L244.79,190.95 L245.29,191.33 L245.79,191.72 L246.29,192.11 L246.79,192.50 L247.29,192.89 L247.79,193.28 L248.29,193.68 L248.80,194.08 L249.30,194.48 L249.80,194.88 L250.30,195.29 L250.80,195.69 L251.30,196.10 L251.80,196.51 L252.30,196.93 L252.80,197.34 L253.30,197.75 L253.80,198.17 L254.30,198.59 L254.80,199.01 L255.30,199.43 L255.80,199.85 L256.30,200.27 L256.80,200.70 L257.31,201.12 L257.81,201.54 L258.31,201.97 L258.81,202.40 L259.31,202.82 L259.81,203.25 L260.31,203.68 L260.81,204.11 L261.31,204.54 L261.81,204.97 L262.31,205.40 L262.81,205.83 L263.31,206.25 L263.81,206.68 L264.31,207.11 L264.81,207.54 L265.32,207.97 L265.82,208.40 L266.32,208.83 L266.82,209.26 L267.32,209.68 L267.82,210.11 L268.32,210.54 L268.82,210.96 L269.32,211.39 L269.82,211.81 L270.32,212.23 L270.82,212.66 L271.32,213.08 L271.82,213.50 L272.32,213.92 L272.82,214.34 L273.32,214.75 L273.83,215.17 L274.33,215.58 L274.83,216.00 L275.33,216.41 L275.83,216.82 L276.33,217.23 L276.83,217.63 L277.33,218.04 L277.83,218.44 L278.33,218.85 L278.83,219.25 L279.33,219.65 L279.83,220.04 L280.33,220.44 L280.83,220.83 L281.33,221.22 L281.83,221.61 L282.34,222.00 L282.84,222.39 L283.34,222.77 L283.84,223.15 L284.34,223.53 L284.84,223.91 L285.34,224.28 L285.84,224.66 L286.34,225.03 L286.84,225.40 L287.34,225.76 L287.84,226.13 L288.34,226.49 L288.84,226.85 L289.34,227.20 L289.84,227.56 L290.34,227.91 L290.85,228.26 L291.35,228.60 L291.85,228.95 L292.35,229.29 L292.85,229.63 L293.35,229.96 L293.85,230.30 L294.35,230.63 L294.85,230.96 L295.35,231.28 L295.85,231.61 L296.35,231.93 L296.85,232.24 L297.35,232.56 L297.85,232.87 L298.35,233.18 L298.85,233.49 L299.36,233.79 L299.86,234.09 L300.36,234.39 L300.86,234.69 L301.36,234.98 L301.86,235.27 L302.36,235.56 L302.86,235.84 L303.36,236.12 L303.86,236.40 L304.36,236.68 L304.86,236.95 L305.36,237.22 L305.86,237.49 L306.36,237.76 L306.86,238.02 L307.37,238.28 L307.87,238.53 L308.37,238.79 L308.87,239.04 L309.37,239.29 L309.87,239.53 L310.37,239.78 L310.87,240.02 L311.37,240.25 L311.87,240.49 L312.37,240.72 L312.87,240.95 L313.37,241.18 L313.87,241.40 L314.37,241.62 L314.87,241.84 L315.37,242.05 L315.88,242.27 L316.38,242.48 L316.88,242.69 L317.38,242.89 L317.88,243.09 L318.38,243.29 L318.88,243.49 L319.38,243.69 L319.88,243.88 L320.38,244.07 L320.88,244.25 L321.38,244.44 L321.88,244.62 L322.38,244.80 L322.88,244.98 L323.38,245.15 L323.88,245.33 L324.39,245.50 L324.89,245.66 L325.39,245.83 L325.89,245.99 L326.39,246.15 L326.89,246.31 L327.39,246.47 L327.89,246.62 L328.39,246.77 L328.89,246.92 L329.39,247.07 L329.89,247.21 L330.39,247.35 L330.89,247.50 L331.39,247.63 L331.89,247.77 L332.39,247.90 L332.90,248.04 L333.40,248.17 L333.90,248.29 L334.40,248.42 L334.90,248.54 L335.40,248.66 L335.90,248.78 L336.40,248.90 L336.90,249.02 L337.40,249.13 L337.90,249.24 L338.40,249.35 L338.90,249.46 L339.40,249.57 L339.90,249.68 L340.40,249.78 L340.90,249.88 L341.41,249.98 L341.91,250.08 L342.41,250.17 L342.91,250.27 L343.41,250.36 L343.91,250.45 L344.41,250.54 L344.91,250.63 L345.41,250.72 L345.91,250.80 L346.41,250.88 L346.91,250.97 L347.41,251.05 L347.91,251.13 L348.41,251.20 L348.91,251.28 L349.41,251.35 L349.92,251.43 L350.42,251.50 L350.92,251.57 L351.42,251.64 L351.92,251.71 L352.42,251.77 L352.92,251.84 L353.42,251.90 L353.92,251.97 L354.42,252.03 L354.92,252.09 L355.42,252.15 L355.92,252.21 L356.42,252.26 L356.92,252.32 L357.42,252.37 L357.93,252.43 L358.43,252.48 L358.93,252.53 L359.43,252.58 L359.93,252.63 L360.43,252.68 L360.93,252.73 L361.43,252.77 L361.93,252.82 L362.43,252.86 L362.93,252.91 L363.43,252.95 L363.93,252.99 L364.43,253.03 L364.93,253.07 L365.43,253.11 L365.93,253.15 L366.44,253.19 L366.94,253.22 L367.44,253.26 L367.94,253.29 L368.44,253.33 L368.94,253.36 L369.44,253.39 L369.94,253.43 L370.44,253.46 L370.94,253.49 L371.44,253.52 L371.94,253.55 L372.44,253.58 L372.94,253.60 L373.44,253.63 L373.94,253.66 L374.44,253.68 L374.95,253.71 L375.45,253.73 L375.95,253.76 L376.45,253.78 L376.95,253.81 L377.45,253.83 L377.95,253.85 L378.45,253.87 L378.95,253.89 L379.45,253.91 L379.95,253.93 L380.45,253.95 L380.95,253.97 L381.45,253.99 L381.95,254.01 L382.45,254.03 L382.95,254.05 L383.46,254.06 L383.96,254.08 L384.46,254.10 L384.96,254.11 L385.46,254.13 L385.96,254.14 L386.46,254.16 L386.96,254.17 L387.46,254.18 L387.96,254.20 L388.46,254.21 L388.96,254.22 L389.46,254.24 L389.96,254.25 L390.46,254.26 L390.96,254.27 L391.46,254.28 L391.97,254.29 L392.47,254.31 L392.97,254.32 L393.47,254.33 L393.97,254.34 L394.47,254.35 L394.97,254.35 L395.47,254.36 L395.97,254.37 L396.47,254.38 L396.97,254.39 L397.47,254.40 L397.97,254.41 L398.47,254.41 L398.97,254.42 L399.47,254.43 L399.98,254.44 L400.48,254.44 L400.98,254.45 L401.48,254.46 L401.98,254.46 L402.48,254.47 L402.98,254.47 L403.48,254.48 L403.98,254.49 L404.48,254.49 L404.98,254.50 L405.48,254.50 L405.98,254.51 L406.48,254.51 L406.98,254.52 L407.48,254.52 L407.98,254.53 L408.49,254.53 L408.99,254.54 L409.49,254.54 L409.99,254.54 L410.49,254.55 L410.99,254.55 L411.49,254.56 L411.99,254.56 L412.49,254.56 L412.99,254.57 L413.49,254.57 L413.99,254.57 L414.49,254.58 L414.99,254.58 L415.49,254.58 L415.99,254.58 L416.49,254.59 L417.00,254.59 L417.50,254.59 L418.00,254.59 L418.50,254.60 L419.00,254.60 L419.50,254.60 L420.00,254.60 L420.50,254.61 L421.00,254.61" style="stroke-width: 3; stroke: rgb(74, 144, 226); stroke-opacity: 0.8;"/></g></g><g class="test-xtl" style="font-family: &quot;Open Sans&quot;, verdana, arial, sans-serif;"><text text-anchor="middle" font-size="11" dominant-baseline="hanging" stroke="none" fill="rgb(255,255,255)" fill-opacity="1" x="43.17556191353136" y="261.66964949171404">-2</text><text text-anchor="middle" font-size="11" dominant-baseline="hanging" stroke="none" fill="rgb(255,255,255)" fill-opacity="1" x="123.26589394478135" y="261.66964949171404">-1</text><text text-anchor="middle" font-size="11" dominant-baseline="hanging" stroke="none" fill="rgb(255,255,255)" fill-opacity="1" x="286.58155800728133" y="261.66964949171404">1</text><text text-anchor="middle" font-size="11" dominant-baseline="hanging" stroke="none" fill="rgb(255,255,255)" fill-opacity="1" x="366.67189003853133" y="261.66964949171404">2</text><text text-anchor="middle" font-size="11" dominant-baseline="hanging" stroke="none" fill="rgb(255,255,255)" fill-opacity="1" x="198.49122597603136" y="259.66964949171404">0</text></g><g class="test-ytl" style="font-family: &quot;Open Sans&quot;, verdana, arial, sans-serif;"><text text-anchor="end" dominant-baseline="middle" font-size="11" stroke="none" fill="rgb(255,255,255)" fill-opacity="1" x="198.49122597603136" y="174.57931746046404">1</text><text text-anchor="end" dominant-baseline="middle" font-size="11" stroke="none" fill="rgb(255,255,255)" fill-opacity="1" x="198.49122597603136" y="94.48898542921404">2</text><text text-anchor="end" dominant-baseline="middle" font-size="11" stroke="none" fill="rgb(255,255,255)" fill-opacity="1" x="198.49122597603136" y="14.39865339796404">3</text></g><rect class="real" x="1" y="1" width="419" height="268" style="fill: transparent; stroke: none;"/></g></g></g><g/></g><g/><g/><g/></svg>
        <svg xmlns="http://www.w3.org/2000/svg" xmlns:xlink="http://www.w3.org/1999/xlink" width="700" height="335" style="width:700px;height:335px;font-family:Asana-Math, Asana;background:transparent;"></svg>
</svg>
