<svg xmlns="http://www.w3.org/2000/svg" xmlns:xlink="http://www.w3.org/1999/xlink" x="0" y="0" width="702" height="312" style="
        width:702px;
        height:312px;
        background: transparent;
        fill: none;
">
        
        
        <svg xmlns="http://www.w3.org/2000/svg" class="role-diagram-draw-area" style="overflow: visible;"><g class="shapes-region" style="stroke: black; fill: none;"><g class="composite-shape" data-amt="diagram/shapes/plot" transform="matrix(1,0,0,1,20,10)"><g><g/><g><g class="test-xti" style="font-family: Asana-Math, Asana;"><line x1="0" y1="215.88994705637413" x2="616" y2="215.88994705637413" fill="none" stroke="rgb(255,255,255)" stroke-opacity="1" stroke-width="1"/><line x1="24.159387330590082" y1="211.88994705637413" x2="24.159387330590082" y2="219.88994705637413" fill="none" stroke="rgb(255,255,255)" stroke-opacity="1" stroke-width="1"/><line x1="96.15938733059008" y1="211.88994705637413" x2="96.15938733059008" y2="219.88994705637413" fill="none" stroke="rgb(255,255,255)" stroke-opacity="1" stroke-width="1"/><line x1="168.15938733059008" y1="211.88994705637413" x2="168.15938733059008" y2="219.88994705637413" fill="none" stroke="rgb(255,255,255)" stroke-opacity="1" stroke-width="1"/><line x1="240.15938733059008" y1="211.88994705637413" x2="240.15938733059008" y2="219.88994705637413" fill="none" stroke="rgb(255,255,255)" stroke-opacity="1" stroke-width="1"/><line x1="384.1593873305901" y1="211.88994705637413" x2="384.1593873305901" y2="219.88994705637413" fill="none" stroke="rgb(255,255,255)" stroke-opacity="1" stroke-width="1"/><line x1="456.1593873305901" y1="211.88994705637413" x2="456.1593873305901" y2="219.88994705637413" fill="none" stroke="rgb(255,255,255)" stroke-opacity="1" stroke-width="1"/><line x1="528.1593873305901" y1="211.88994705637413" x2="528.1593873305901" y2="219.88994705637413" fill="none" stroke="rgb(255,255,255)" stroke-opacity="1" stroke-width="1"/><line x1="600.1593873305901" y1="211.88994705637413" x2="600.1593873305901" y2="219.88994705637413" fill="none" stroke="rgb(255,255,255)" stroke-opacity="1" stroke-width="1"/><path d="M611,212.28994705637413 L619,215.88994705637413 L611,219.48994705637412 Z" stroke="none" stroke-width="1" fill="rgb(255,255,255)" fill-opacity="1"/></g><g class="test-yti" style="font-family: Asana-Math, Asana;"><line x1="312.1593873305901" y1="4" x2="312.1593873305901" y2="270" fill="none" stroke="rgb(255,255,255)" stroke-opacity="1" stroke-width="1"/><line x1="308.1593873305901" y1="143.88994705637413" x2="316.1593873305901" y2="143.88994705637413" fill="none" stroke="rgb(255,255,255)" stroke-opacity="1" stroke-width="1"/><line x1="308.1593873305901" y1="71.8899470563741" x2="316.1593873305901" y2="71.8899470563741" fill="none" stroke="rgb(255,255,255)" stroke-opacity="1" stroke-width="1"/><path d="M308.5593873305901,9 L312.1593873305901,1 L315.75938733059013,9 Z" stroke="none" stroke-width="1" fill="rgb(255,255,255)" fill-opacity="1"/></g><g class="test-plot-expression"><defs><clipPath id="cp41wox6cz1dg-full-view"><rect x="1" y="1" width="618" height="268"/></clipPath></defs><g clip-path="url(#cp41wox6cz1dg-full-view)"><path d=" M0.00,-270.00 L0.56,-270.00 L1.13,-270.00 L1.69,-270.00 L2.26,-270.00 L2.82,-270.00 L3.38,-270.00 L3.95,-270.00 L4.51,-270.00 L5.08,-270.00 L5.64,-270.00 L6.21,-270.00 L6.77,-270.00 L7.33,-270.00 L7.90,-270.00 L8.46,-270.00 L9.03,-270.00 L9.59,-270.00 L10.15,-270.00 L10.72,-270.00 L11.28,-270.00 L11.85,-270.00 L12.41,-270.00 L12.98,-270.00 L13.54,-270.00 L14.10,-270.00 L14.67,-270.00 L15.23,-270.00 L15.80,-270.00 L16.36,-270.00 L16.92,-270.00 L17.49,-270.00 L18.05,-270.00 L18.62,-270.00 L19.18,-270.00 L19.75,-270.00 L20.31,-270.00 L20.87,-270.00 L21.44,-270.00 L22.00,-270.00 L22.57,-270.00 L23.13,-270.00 L23.69,-270.00 L24.26,-270.00 M24.26,215.89 L24.26,215.89 L24.82,215.89 L25.39,215.89 L25.95,215.89 L26.52,215.89 L27.08,215.89 L27.64,215.89 L28.21,215.89 L28.77,215.89 L29.34,215.89 L29.90,215.89 L30.46,215.89 L31.03,215.89 L31.59,215.89 L32.16,215.89 L32.72,215.89 L33.28,215.89 L33.85,215.89 L34.41,215.89 L34.98,215.89 L35.54,215.89 L36.11,215.89 L36.67,215.89 L37.23,215.89 L37.80,215.88 L38.36,215.88 L38.93,215.88 L39.49,215.87 L40.05,215.86 L40.62,215.85 L41.18,215.84 L41.75,215.83 L42.31,215.81 L42.88,215.79 L43.44,215.76 L44.00,215.73 L44.57,215.70 L45.13,215.66 L45.70,215.61 L46.26,215.56 L46.82,215.50 L47.39,215.44 L47.95,215.37 L48.52,215.29 L49.08,215.20 L49.65,215.11 L50.21,215.01 L50.77,214.90 L51.34,214.78 L51.90,214.66 L52.47,214.52 L53.03,214.38 L53.59,214.23 L54.16,214.07 L54.72,213.90 L55.29,213.72 L55.85,213.54 L56.41,213.35 L56.98,213.14 L57.54,212.93 L58.11,212.71 L58.67,212.49 L59.24,212.25 L59.80,212.01 L60.36,211.76 L60.93,211.50 L61.49,211.23 L62.06,210.96 L62.62,210.68 L63.18,210.39 L63.75,210.09 L64.31,209.79 L64.88,209.48 L65.44,209.17 L66.01,208.85 L66.57,208.52 L67.13,208.18 L67.70,207.84 L68.26,207.50 L68.83,207.15 L69.39,206.79 L69.95,206.43 L70.52,206.07 L71.08,205.69 L71.65,205.32 L72.21,204.94 L72.78,204.55 L73.34,204.17 L73.90,203.77 L74.47,203.38 L75.03,202.98 L75.60,202.58 L76.16,202.17 L76.72,201.76 L77.29,201.35 L77.85,200.93 L78.42,200.51 L78.98,200.09 L79.55,199.67 L80.11,199.24 L80.67,198.81 L81.24,198.38 L81.80,197.95 L82.37,197.52 L82.93,197.08 L83.49,196.64 L84.06,196.20 L84.62,195.76 L85.19,195.32 L85.75,194.88 L86.31,194.44 L86.88,193.99 L87.44,193.54 L88.01,193.10 L88.57,192.65 L89.14,192.20 L89.70,191.75 L90.26,191.30 L90.83,190.85 L91.39,190.40 L91.96,189.95 L92.52,189.50 L93.08,189.05 L93.65,188.60 L94.21,188.15 L94.78,187.70 L95.34,187.25 L95.91,186.80 L96.47,186.35 L97.03,185.90 L97.60,185.45 L98.16,185.01 L98.73,184.56 L99.29,184.11 L99.85,183.66 L100.42,183.22 L100.98,182.77 L101.55,182.33 L102.11,181.88 L102.68,181.44 L103.24,181.00 L103.80,180.56 L104.37,180.12 L104.93,179.68 L105.50,179.24 L106.06,178.80 L106.62,178.37 L107.19,177.93 L107.75,177.50 L108.32,177.06 L108.88,176.63 L109.44,176.20 L110.01,175.77 L110.57,175.34 L111.14,174.92 L111.70,174.49 L112.27,174.07 L112.83,173.65 L113.39,173.22 L113.96,172.80 L114.52,172.39 L115.09,171.97 L115.65,171.55 L116.21,171.14 L116.78,170.73 L117.34,170.31 L117.91,169.90 L118.47,169.50 L119.04,169.09 L119.60,168.68 L120.16,168.28 L120.73,167.88 L121.29,167.48 L121.86,167.08 L122.42,166.68 L122.98,166.29 L123.55,165.89 L124.11,165.50 L124.68,165.11 L125.24,164.72 L125.81,164.33 L126.37,163.95 L126.93,163.56 L127.50,163.18 L128.06,162.80 L128.63,162.42 L129.19,162.04 L129.75,161.67 L130.32,161.29 L130.88,160.92 L131.45,160.55 L132.01,160.18 L132.58,159.81 L133.14,159.44 L133.70,159.08 L134.27,158.72 L134.83,158.36 L135.40,158.00 L135.96,157.64 L136.52,157.28 L137.09,156.93 L137.65,156.58 L138.22,156.23 L138.78,155.88 L139.34,155.53 L139.91,155.19 L140.47,154.84 L141.04,154.50 L141.60,154.16 L142.17,153.82 L142.73,153.48 L143.29,153.15 L143.86,152.81 L144.42,152.48 L144.99,152.15 L145.55,151.82 L146.11,151.49 L146.68,151.17 L147.24,150.84 L147.81,150.52 L148.37,150.20 L148.94,149.88 L149.50,149.57 L150.06,149.25 L150.63,148.94 L151.19,148.62 L151.76,148.31 L152.32,148.00 L152.88,147.70 L153.45,147.39 L154.01,147.09 L154.58,146.78 L155.14,146.48 L155.71,146.18 L156.27,145.89 L156.83,145.59 L157.40,145.30 L157.96,145.00 L158.53,144.71 L159.09,144.42 L159.65,144.13 L160.22,143.85 L160.78,143.56 L161.35,143.28 L161.91,143.00 L162.47,142.71 L163.04,142.44 L163.60,142.16 L164.17,141.88 L164.73,141.61 L165.30,141.34 L165.86,141.06 L166.42,140.79 L166.99,140.53 L167.55,140.26 L168.12,139.99 L168.68,139.73 L169.24,139.47 L169.81,139.21 L170.37,138.95 L170.94,138.69 L171.50,138.43 L172.07,138.18 L172.63,137.93 L173.19,137.67 L173.76,137.42 L174.32,137.17 L174.89,136.93 L175.45,136.68 L176.01,136.44 L176.58,136.19 L177.14,135.95 L177.71,135.71 L178.27,135.47 L178.84,135.23 L179.40,135.00 L179.96,134.76 L180.53,134.53 L181.09,134.30 L181.66,134.07 L182.22,133.84 L182.78,133.61 L183.35,133.38 L183.91,133.16 L184.48,132.93 L185.04,132.71 L185.61,132.49 L186.17,132.27 L186.73,132.05 L187.30,131.83 L187.86,131.62 L188.43,131.40 L188.99,131.19 L189.55,130.98 L190.12,130.77 L190.68,130.56 L191.25,130.35 L191.81,130.14 L192.37,129.94 L192.94,129.73 L193.50,129.53 L194.07,129.33 L194.63,129.13 L195.20,128.93 L195.76,128.73 L196.32,128.54 L196.89,128.34 L197.45,128.15 L198.02,127.95 L198.58,127.76 L199.14,127.57 L199.71,127.38 L200.27,127.19 L200.84,127.01 L201.40,126.82 L201.97,126.64 L202.53,126.46 L203.09,126.27 L203.66,126.09 L204.22,125.91 L204.79,125.74 L205.35,125.56 L205.91,125.38 L206.48,125.21 L207.04,125.03 L207.61,124.86 L208.17,124.69 L208.74,124.52 L209.30,124.35 L209.86,124.18 L210.43,124.02 L210.99,123.85 L211.56,123.69 L212.12,123.53 L212.68,123.36 L213.25,123.20 L213.81,123.04 L214.38,122.88 L214.94,122.73 L215.51,122.57 L216.07,122.41 L216.63,122.26 L217.20,122.11 L217.76,121.96 L218.33,121.80 L218.89,121.65 L219.45,121.51 L220.02,121.36 L220.58,121.21 L221.15,121.07 L221.71,120.92 L222.27,120.78 L222.84,120.64 L223.40,120.50 L223.97,120.36 L224.53,120.22 L225.10,120.08 L225.66,119.94 L226.22,119.81 L226.79,119.67 L227.35,119.54 L227.92,119.40 L228.48,119.27 L229.04,119.14 L229.61,119.01 L230.17,118.88 L230.74,118.76 L231.30,118.63 L231.87,118.50 L232.43,118.38 L232.99,118.26 L233.56,118.13 L234.12,118.01 L234.69,117.89 L235.25,117.77 L235.81,117.65 L236.38,117.54 L236.94,117.42 L237.51,117.30 L238.07,117.19 L238.64,117.08 L239.20,116.96 L239.76,116.85 L240.33,116.74 L240.89,116.63 L241.46,116.52 L242.02,116.41 L242.58,116.31 L243.15,116.20 L243.71,116.10 L244.28,115.99 L244.84,115.89 L245.40,115.79 L245.97,115.69 L246.53,115.59 L247.10,115.49 L247.66,115.39 L248.23,115.29 L248.79,115.20 L249.35,115.10 L249.92,115.01 L250.48,114.91 L251.05,114.82 L251.61,114.73 L252.17,114.64 L252.74,114.55 L253.30,114.46 L253.87,114.37 L254.43,114.28 L255.00,114.20 L255.56,114.11 L256.12,114.03 L256.69,113.95 L257.25,113.86 L257.82,113.78 L258.38,113.70 L258.94,113.62 L259.51,113.54 L260.07,113.46 L260.64,113.39 L261.20,113.31 L261.77,113.23 L262.33,113.16 L262.89,113.09 L263.46,113.01 L264.02,112.94 L264.59,112.87 L265.15,112.80 L265.71,112.73 L266.28,112.66 L266.84,112.60 L267.41,112.53 L267.97,112.46 L268.54,112.40 L269.10,112.34 L269.66,112.27 L270.23,112.21 L270.79,112.15 L271.36,112.09 L271.92,112.03 L272.48,111.97 L273.05,111.91 L273.61,111.86 L274.18,111.80 L274.74,111.74 L275.30,111.69 L275.87,111.64 L276.43,111.58 L277.00,111.53 L277.56,111.48 L278.13,111.43 L278.69,111.38 L279.25,111.33 L279.82,111.29 L280.38,111.24 L280.95,111.19 L281.51,111.15 L282.07,111.10 L282.64,111.06 L283.20,111.02 L283.77,110.98 L284.33,110.93 L284.90,110.89 L285.46,110.86 L286.02,110.82 L286.59,110.78 L287.15,110.74 L287.72,110.71 L288.28,110.67 L288.84,110.64 L289.41,110.60 L289.97,110.57 L290.54,110.54 L291.10,110.51 L291.67,110.48 L292.23,110.45 L292.79,110.42 L293.36,110.39 L293.92,110.37 L294.49,110.34 L295.05,110.32 L295.61,110.29 L296.18,110.27 L296.74,110.24 L297.31,110.22 L297.87,110.20 L298.43,110.18 L299.00,110.16 L299.56,110.14 L300.13,110.13 L300.69,110.11 L301.26,110.09 L301.82,110.08 L302.38,110.06 L302.95,110.05 L303.51,110.04 L304.08,110.02 L304.64,110.01 L305.20,110.00 L305.77,109.99 L306.33,109.98 L306.90,109.98 L307.46,109.97 L308.03,109.96 L308.59,109.96 L309.15,109.95 L309.72,109.95 L310.28,109.95 L310.85,109.94 L311.41,109.94 L311.97,109.94 L312.54,109.94 L313.10,109.94 L313.67,109.94 L314.23,109.95 L314.80,109.95 L315.36,109.95 L315.92,109.96 L316.49,109.96 L317.05,109.97 L317.62,109.98 L318.18,109.99 L318.74,110.00 L319.31,110.01 L319.87,110.02 L320.44,110.03 L321.00,110.04 L321.57,110.05 L322.13,110.07 L322.69,110.08 L323.26,110.10 L323.82,110.11 L324.39,110.13 L324.95,110.15 L325.51,110.17 L326.08,110.19 L326.64,110.21 L327.21,110.23 L327.77,110.25 L328.33,110.28 L328.90,110.30 L329.46,110.32 L330.03,110.35 L330.59,110.38 L331.16,110.40 L331.72,110.43 L332.28,110.46 L332.85,110.49 L333.41,110.52 L333.98,110.55 L334.54,110.58 L335.10,110.62 L335.67,110.65 L336.23,110.68 L336.80,110.72 L337.36,110.76 L337.93,110.79 L338.49,110.83 L339.05,110.87 L339.62,110.91 L340.18,110.95 L340.75,110.99 L341.31,111.03 L341.87,111.07 L342.44,111.12 L343.00,111.16 L343.57,111.21 L344.13,111.25 L344.70,111.30 L345.26,111.35 L345.82,111.40 L346.39,111.45 L346.95,111.50 L347.52,111.55 L348.08,111.60 L348.64,111.65 L349.21,111.71 L349.77,111.76 L350.34,111.82 L350.90,111.88 L351.46,111.93 L352.03,111.99 L352.59,112.05 L353.16,112.11 L353.72,112.17 L354.29,112.23 L354.85,112.29 L355.41,112.36 L355.98,112.42 L356.54,112.49 L357.11,112.55 L357.67,112.62 L358.23,112.69 L358.80,112.76 L359.36,112.83 L359.93,112.90 L360.49,112.97 L361.06,113.04 L361.62,113.11 L362.18,113.19 L362.75,113.26 L363.31,113.34 L363.88,113.41 L364.44,113.49 L365.00,113.57 L365.57,113.65 L366.13,113.73 L366.70,113.81 L367.26,113.89 L367.83,113.97 L368.39,114.06 L368.95,114.14 L369.52,114.23 L370.08,114.31 L370.65,114.40 L371.21,114.49 L371.77,114.58 L372.34,114.67 L372.90,114.76 L373.47,114.85 L374.03,114.95 L374.60,115.04 L375.16,115.13 L375.72,115.23 L376.29,115.33 L376.85,115.42 L377.42,115.52 L377.98,115.62 L378.54,115.72 L379.11,115.82 L379.67,115.93 L380.24,116.03 L380.80,116.13 L381.36,116.24 L381.93,116.34 L382.49,116.45 L383.06,116.56 L383.62,116.67 L384.19,116.78 L384.75,116.89 L385.31,117.00 L385.88,117.11 L386.44,117.23 L387.01,117.34 L387.57,117.46 L388.13,117.58 L388.70,117.69 L389.26,117.81 L389.83,117.93 L390.39,118.05 L390.96,118.18 L391.52,118.30 L392.08,118.42 L392.65,118.55 L393.21,118.67 L393.78,118.80 L394.34,118.93 L394.90,119.06 L395.47,119.19 L396.03,119.32 L396.60,119.45 L397.16,119.58 L397.73,119.72 L398.29,119.85 L398.85,119.99 L399.42,120.13 L399.98,120.26 L400.55,120.40 L401.11,120.54 L401.67,120.69 L402.24,120.83 L402.80,120.97 L403.37,121.12 L403.93,121.26 L404.49,121.41 L405.06,121.56 L405.62,121.71 L406.19,121.86 L406.75,122.01 L407.32,122.16 L407.88,122.31 L408.44,122.47 L409.01,122.62 L409.57,122.78 L410.14,122.94 L410.70,123.10 L411.26,123.26 L411.83,123.42 L412.39,123.58 L412.96,123.74 L413.52,123.91 L414.09,124.08 L414.65,124.24 L415.21,124.41 L415.78,124.58 L416.34,124.75 L416.91,124.92 L417.47,125.09 L418.03,125.27 L418.60,125.44 L419.16,125.62 L419.73,125.80 L420.29,125.98 L420.86,126.16 L421.42,126.34 L421.98,126.52 L422.55,126.70 L423.11,126.89 L423.68,127.07 L424.24,127.26 L424.80,127.45 L425.37,127.64 L425.93,127.83 L426.50,128.02 L427.06,128.21 L427.63,128.41 L428.19,128.60 L428.75,128.80 L429.32,129.00 L429.88,129.20 L430.45,129.40 L431.01,129.60 L431.57,129.80 L432.14,130.01 L432.70,130.21 L433.27,130.42 L433.83,130.63 L434.39,130.84 L434.96,131.05 L435.52,131.26 L436.09,131.48 L436.65,131.69 L437.22,131.91 L437.78,132.13 L438.34,132.34 L438.91,132.57 L439.47,132.79 L440.04,133.01 L440.60,133.23 L441.16,133.46 L441.73,133.69 L442.29,133.92 L442.86,134.15 L443.42,134.38 L443.99,134.61 L444.55,134.84 L445.11,135.08 L445.68,135.31 L446.24,135.55 L446.81,135.79 L447.37,136.03 L447.93,136.28 L448.50,136.52 L449.06,136.77 L449.63,137.01 L450.19,137.26 L450.76,137.51 L451.32,137.76 L451.88,138.01 L452.45,138.27 L453.01,138.52 L453.58,138.78 L454.14,139.04 L454.70,139.30 L455.27,139.56 L455.83,139.82 L456.40,140.09 L456.96,140.35 L457.53,140.62 L458.09,140.89 L458.65,141.16 L459.22,141.43 L459.78,141.70 L460.35,141.98 L460.91,142.25 L461.47,142.53 L462.04,142.81 L462.60,143.09 L463.17,143.37 L463.73,143.66 L464.29,143.94 L464.86,144.23 L465.42,144.52 L465.99,144.81 L466.55,145.10 L467.12,145.40 L467.68,145.69 L468.24,145.99 L468.81,146.29 L469.37,146.59 L469.94,146.89 L470.50,147.19 L471.06,147.50 L471.63,147.80 L472.19,148.11 L472.76,148.42 L473.32,148.73 L473.89,149.04 L474.45,149.36 L475.01,149.67 L475.58,149.99 L476.14,150.31 L476.71,150.63 L477.27,150.96 L477.83,151.28 L478.40,151.61 L478.96,151.93 L479.53,152.26 L480.09,152.59 L480.66,152.93 L481.22,153.26 L481.78,153.60 L482.35,153.94 L482.91,154.28 L483.48,154.62 L484.04,154.96 L484.60,155.30 L485.17,155.65 L485.73,156.00 L486.30,156.35 L486.86,156.70 L487.42,157.05 L487.99,157.41 L488.55,157.76 L489.12,158.12 L489.68,158.48 L490.25,158.84 L490.81,159.21 L491.37,159.57 L491.94,159.94 L492.50,160.30 L493.07,160.67 L493.63,161.05 L494.19,161.42 L494.76,161.79 L495.32,162.17 L495.89,162.55 L496.45,162.93 L497.02,163.31 L497.58,163.69 L498.14,164.08 L498.71,164.47 L499.27,164.85 L499.84,165.24 L500.40,165.63 L500.96,166.03 L501.53,166.42 L502.09,166.82 L502.66,167.22 L503.22,167.62 L503.79,168.02 L504.35,168.42 L504.91,168.82 L505.48,169.23 L506.04,169.64 L506.61,170.05 L507.17,170.46 L507.73,170.87 L508.30,171.28 L508.86,171.70 L509.43,172.11 L509.99,172.53 L510.56,172.95 L511.12,173.37 L511.68,173.79 L512.25,174.21 L512.81,174.64 L513.38,175.06 L513.94,175.49 L514.50,175.92 L515.07,176.35 L515.63,176.78 L516.20,177.21 L516.76,177.65 L517.32,178.08 L517.89,178.52 L518.45,178.95 L519.02,179.39 L519.58,179.83 L520.15,180.27 L520.71,180.71 L521.27,181.15 L521.84,181.59 L522.40,182.04 L522.97,182.48 L523.53,182.93 L524.09,183.37 L524.66,183.82 L525.22,184.27 L525.79,184.71 L526.35,185.16 L526.92,185.61 L527.48,186.06 L528.04,186.51 L528.61,186.96 L529.17,187.41 L529.74,187.86 L530.30,188.31 L530.86,188.76 L531.43,189.21 L531.99,189.66 L532.56,190.11 L533.12,190.56 L533.69,191.01 L534.25,191.46 L534.81,191.91 L535.38,192.36 L535.94,192.80 L536.51,193.25 L537.07,193.70 L537.63,194.14 L538.20,194.59 L538.76,195.03 L539.33,195.47 L539.89,195.92 L540.45,196.36 L541.02,196.79 L541.58,197.23 L542.15,197.67 L542.71,198.10 L543.28,198.53 L543.84,198.96 L544.40,199.39 L544.97,199.81 L545.53,200.24 L546.10,200.66 L546.66,201.07 L547.22,201.49 L547.79,201.90 L548.35,202.31 L548.92,202.71 L549.48,203.12 L550.05,203.51 L550.61,203.91 L551.17,204.30 L551.74,204.69 L552.30,205.07 L552.87,205.45 L553.43,205.82 L553.99,206.19 L554.56,206.56 L555.12,206.92 L555.69,207.27 L556.25,207.62 L556.82,207.96 L557.38,208.30 L557.94,208.63 L558.51,208.96 L559.07,209.28 L559.64,209.59 L560.20,209.90 L560.76,210.20 L561.33,210.49 L561.89,210.78 L562.46,211.05 L563.02,211.33 L563.59,211.59 L564.15,211.85 L564.71,212.09 L565.28,212.33 L565.84,212.57 L566.41,212.79 L566.97,213.01 L567.53,213.21 L568.10,213.41 L568.66,213.60 L569.23,213.79 L569.79,213.96 L570.35,214.13 L570.92,214.28 L571.48,214.43 L572.05,214.57 L572.61,214.70 L573.18,214.82 L573.74,214.94 L574.30,215.04 L574.87,215.14 L575.43,215.23 L576.00,215.32 L576.56,215.39 L577.12,215.46 L577.69,215.52 L578.25,215.58 L578.82,215.63 L579.38,215.67 L579.95,215.71 L580.51,215.74 L581.07,215.77 L581.64,215.80 L582.20,215.82 L582.77,215.83 L583.33,215.85 L583.89,215.86 L584.46,215.87 L585.02,215.87 L585.59,215.88 L586.15,215.88 L586.72,215.88 L587.28,215.89 L587.84,215.89 L588.41,215.89 L588.97,215.89 L589.54,215.89 L590.10,215.89 L590.66,215.89 L591.23,215.89 L591.79,215.89 L592.36,215.89 L592.92,215.89 L593.48,215.89 L594.05,215.89 L594.61,215.89 L595.18,215.89 L595.74,215.89 L596.31,215.89 L596.87,215.89 L597.43,215.89 L598.00,215.89 L598.56,215.89 L599.13,215.89 L599.69,215.89 L600.25,215.89 M600.25,-270.00 L600.25,-270.00 L600.82,-270.00 M600.82,-270.00 L600.82,-270.00 L601.38,-270.00 L601.95,-270.00 L602.51,-270.00 L603.08,-270.00 L603.64,-270.00 L604.20,-270.00 L604.77,-270.00 L605.33,-270.00 L605.90,-270.00 L606.46,-270.00 L607.02,-270.00 L607.59,-270.00 L608.15,-270.00 L608.72,-270.00 L609.28,-270.00 L609.85,-270.00 L610.41,-270.00 L610.97,-270.00 L611.54,-270.00 L612.10,-270.00 L612.67,-270.00 L613.23,-270.00 L613.79,-270.00 L614.36,-270.00 L614.92,-270.00 L615.49,-270.00 L616.05,-270.00 L616.62,-270.00 L617.18,-270.00 L617.74,-270.00 L618.31,-270.00 L618.87,-270.00 L619.44,-270.00 L620.00,-270.00" style="stroke-width: 2; stroke: rgb(74, 144, 226); stroke-opacity: 0.8;"/></g></g><g class="test-xtl" style="font-family: &quot;Open Sans&quot;, verdana, arial, sans-serif;"><text text-anchor="middle" font-size="11" dominant-baseline="hanging" stroke="none" fill="rgb(255,255,255)" fill-opacity="1" x="21.02438733059008" y="222.88994705637413">-1</text><text text-anchor="middle" font-size="11" dominant-baseline="hanging" stroke="none" fill="rgb(255,255,255)" fill-opacity="1" x="93.02438733059007" y="222.88994705637413">-0.75</text><text text-anchor="middle" font-size="11" dominant-baseline="hanging" stroke="none" fill="rgb(255,255,255)" fill-opacity="1" x="165.0243873305901" y="222.88994705637413">-0.5</text><text text-anchor="middle" font-size="11" dominant-baseline="hanging" stroke="none" fill="rgb(255,255,255)" fill-opacity="1" x="237.0243873305901" y="222.88994705637413">-0.25</text><text text-anchor="middle" font-size="11" dominant-baseline="hanging" stroke="none" fill="rgb(255,255,255)" fill-opacity="1" x="384.1593873305901" y="222.88994705637413">0.25</text><text text-anchor="middle" font-size="11" dominant-baseline="hanging" stroke="none" fill="rgb(255,255,255)" fill-opacity="1" x="456.1593873305901" y="222.88994705637413">0.5</text><text text-anchor="middle" font-size="11" dominant-baseline="hanging" stroke="none" fill="rgb(255,255,255)" fill-opacity="1" x="528.1593873305901" y="222.88994705637413">0.75</text><text text-anchor="middle" font-size="11" dominant-baseline="hanging" stroke="none" fill="rgb(255,255,255)" fill-opacity="1" x="600.1593873305901" y="222.88994705637413">1</text><text text-anchor="middle" font-size="11" dominant-baseline="hanging" stroke="none" fill="rgb(255,255,255)" fill-opacity="1" x="304.15938733059005" y="220.88994705637413">0</text></g><g class="test-ytl" style="font-family: &quot;Open Sans&quot;, verdana, arial, sans-serif;"><text text-anchor="end" dominant-baseline="middle" font-size="11" stroke="none" fill="rgb(255,255,255)" fill-opacity="1" x="304.1593873305901" y="143.88994705637413">0.25</text><text text-anchor="end" dominant-baseline="middle" font-size="11" stroke="none" fill="rgb(255,255,255)" fill-opacity="1" x="304.1593873305901" y="71.8899470563741">0.5</text></g><rect class="real" x="1" y="1" width="618" height="268" style="fill: transparent; stroke: none;"/></g></g></g><g/></g><g/><g/><g/></svg>
        <svg xmlns="http://www.w3.org/2000/svg" xmlns:xlink="http://www.w3.org/1999/xlink" width="700" height="310" style="width:700px;height:310px;font-family:Asana-Math, Asana;background:transparent;"></svg>
</svg>
