<svg xmlns="http://www.w3.org/2000/svg" width="702" height="337" style="width:702px;height:337px;background:0 0;fill:none"><svg xmlns="http://www.w3.org/2000/svg"/><svg xmlns="http://www.w3.org/2000/svg" class="role-diagram-draw-area" style="overflow:visible"><g class="shapes-region" style="stroke:#000;fill:none"><g class="composite-shape" data-amt="diagram/shapes/plot"><g class="test-xti" style="font-family:Asana-Math,Asana"><path stroke="#fff" d="M52 256.67h417m-370.689-4v8m80.09-8v8m160.181-8v8m80.09-8v8"/><path fill="#fff" stroke="none" d="m464 253.07 8 3.6-8 3.6Z"/></g><g class="test-yti" style="font-family:Asana-Math,Asana"><path stroke="#fff" d="M258.491 6v266m-4-95.421h8m-8-80.09h8m-8-80.09h8"/><path fill="#fff" stroke="none" d="m254.891 11 3.6-8 3.6 8Z"/></g><g class="test-plot-expression" transform="translate(52 2)"><defs><clipPath id="a"><path d="M1 1h419v268H1z"/></clipPath></defs><g clip-path="url(#a)"><path d="m0 254.57.5-.01h1l.5-.01h.5l.5-.01h1l.51-.01h.5l.5-.01h.5l.5-.01h.5l.5-.01h.5l.5-.01h.5l.5-.01.5-.01h.5l.5-.01h.5l.5-.01.5-.01h.51l.5-.01.5-.01.5-.01h.5l.5-.01.5-.01.5-.01.5-.01.5-.01.5-.01h.5l.5-.01.5-.01.5-.01.5-.02.5-.01.51-.01.5-.01.5-.01.5-.01.5-.01.5-.02.5-.01.5-.01.5-.02.5-.01.5-.01.5-.02.5-.01.5-.02.5-.02.5-.01.51-.02.5-.01.5-.02.5-.02.5-.02.5-.02.5-.02.5-.02.5-.02.5-.02.5-.02.5-.02.5-.02.5-.02.5-.03.5-.02.5-.03.51-.02.5-.03.5-.02.5-.03.5-.03.5-.02.5-.03.5-.03.5-.03.5-.03.5-.03.5-.04.5-.03.5-.03.5-.04.5-.03.5-.04.51-.04.5-.03.5-.04.5-.04.5-.04.5-.04.5-.04.5-.05.5-.04.5-.04.5-.05.5-.05.5-.04.5-.05.5-.05.5-.05.5-.05.51-.05.5-.06.5-.05.5-.06.5-.06.5-.05.5-.06.5-.06.5-.07.5-.06.5-.06.5-.07.5-.06.5-.07.5-.07.5-.07.5-.07.51-.08.5-.07.5-.08.5-.08.5-.07.5-.08.5-.09.5-.08.5-.09.5-.08.5-.09.5-.09.5-.09.5-.09.5-.1.5-.09.51-.1.5-.1.5-.1.5-.11.5-.1.5-.11.5-.11.5-.11.5-.11.5-.11.5-.12.5-.12.5-.12.5-.12.5-.12.5-.13.5-.13.51-.13.5-.13.5-.13.5-.14.5-.14.5-.14.5-.14.5-.14.5-.15.5-.15.5-.15.5-.16.5-.15.5-.16.5-.16.5-.16.5-.17.51-.17.5-.17.5-.17.5-.17.5-.18.5-.18.5-.18.5-.19.5-.19.5-.19.5-.19.5-.19.5-.2.5-.2.5-.2.5-.21.5-.21.51-.21.5-.21.5-.21.5-.22.5-.22.5-.23.5-.22.5-.23.5-.24.5-.23.5-.24.5-.24.5-.24.5-.25.5-.24.5-.26.5-.25.51-.26.5-.26.5-.26.5-.26.5-.27.5-.27.5-.28.5-.27.5-.28.5-.28.5-.29.5-.29.5-.29.5-.29.5-.29.5-.3.5-.3.51-.31.5-.3.5-.31.5-.32.5-.31.5-.32.5-.32.5-.32.5-.33.5-.33.5-.33.5-.33.5-.34.5-.34.5-.34.5-.34.51-.35.5-.35.5-.35.5-.35.5-.36.5-.36.5-.36.5-.36.5-.37.5-.37.5-.37.5-.37.5-.38.5-.37.5-.38.5-.38.5-.39.51-.38.5-.39.5-.39.5-.39.5-.4.5-.39.5-.4.5-.4.5-.4.5-.4.5-.41.5-.4.5-.41.5-.41.5-.41.5-.41.5-.41.51-.42.5-.41.5-.42.5-.42.5-.42.5-.42.5-.42.5-.42.5-.43.5-.42.5-.42.5-.43.5-.43.5-.42.5-.43.5-.43.5-.43.51-.43.5-.42.5-.43.5-.43.5-.43.5-.43.5-.43.5-.43.5-.43.5-.43.5-.43.5-.42.5-.43.5-.43.5-.43.5-.42.5-.43.51-.42.5-.42.5-.43.5-.42.5-.42.5-.42.5-.42.5-.41.5-.42.5-.41.5-.41.5-.41.5-.41.5-.41.5-.4.5-.41.51-.4.5-.4.5-.39.5-.4.5-.39.5-.39.5-.39.5-.38.5-.39.5-.37.5-.38.5-.38.5-.37.5-.36.5-.37.5-.36.5-.36.51-.35.5-.36.5-.34.5-.35.5-.34.5-.34.5-.33.5-.33.5-.33.5-.32.5-.32.5-.31.5-.31.5-.31.5-.3.5-.3.5-.29.51-.29.5-.28.5-.28.5-.28.5-.27.5-.26.5-.26.5-.26.5-.25.5-.24.5-.24.5-.24.5-.23.5-.22.5-.22.5-.21.5-.21.51-.21.5-.19.5-.2.5-.18.5-.18.5-.18.5-.17.5-.16.5-.16.5-.16.5-.14.5-.14.5-.14.5-.13.5-.12.5-.12.5-.11.51-.1.5-.1.5-.1.5-.08.5-.08.5-.08.5-.07.5-.06.5-.06.5-.05.5-.04.5-.04.5-.03.5-.02.5-.02.5-.01.5-.01h.51l.5.01.5.01.5.02.5.02.5.03.5.04.5.05.5.05.5.05.5.06.5.07.5.08.5.08.5.09.5.09.51.1.5.1.5.11.5.12.5.12.5.13.5.14.5.14.5.15.5.15.5.16.5.16.5.17.5.18.5.18.5.19.5.19.51.2.5.2.5.21.5.21.5.22.5.23.5.23.5.23.5.24.5.25.5.25.5.25.5.26.5.27.5.27.5.27.5.28.51.29.5.28.5.3.5.29.5.31.5.3.5.31.5.32.5.31.5.33.5.32.5.33.5.34.5.34.5.34.5.34.5.35.51.35.5.36.5.36.5.36.5.36.5.37.5.37.5.37.5.38.5.38.5.38.5.39.5.39.5.39.5.39.5.39.5.4.51.4.5.4.5.4.5.41.5.4.5.41.5.41.5.42.5.41.5.41.5.42.5.42.5.42.5.42.5.42.5.42.5.43.51.42.5.42.5.43.5.43.5.42.5.43.5.43.5.43.5.43.5.43.5.43.5.43.5.42.5.43.5.43.5.43.51.43.5.43.5.43.5.43.5.42.5.43.5.43.5.42.5.43.5.42.5.42.5.43.5.42.5.42.5.42.5.42.5.41.51.42.5.41.5.42.5.41.5.41.5.41.5.4.5.41.5.4.5.41.5.4.5.4.5.39.5.4.5.39.5.39.5.39.51.39.5.39.5.38.5.38.5.38.5.38.5.37.5.38.5.37.5.37.5.36.5.37.5.36.5.36.5.35.5.36.5.35.51.35.5.34.5.35.5.34.5.34.5.33.5.34.5.33.5.33.5.32.5.33.5.32.5.31.5.32.5.31.5.31.5.31.51.3.5.3.5.3.5.3.5.29.5.29.5.29.5.28.5.28.5.28.5.28.5.27.5.27.5.27.5.27.5.26.51.26.5.25.5.26.5.25.5.25.5.24.5.25.5.24.5.23.5.24.5.23.5.23.5.23.5.22.5.22.5.22.5.21.51.22.5.21.5.21.5.2.5.2.5.2.5.2.5.2.5.19.5.19.5.18.5.19.5.18.5.18.5.18.5.17.5.18.51.17.5.16.5.17.5.16.5.16.5.16.5.16.5.15.5.15.5.15.5.15.5.14.5.14.5.15.5.13.5.14.5.13.51.14.5.13.5.12.5.13.5.12.5.12.5.12.5.12.5.12.5.11.5.11.5.11.5.11.5.11.5.11.5.1.5.1.51.1.5.1.5.09.5.1.5.09.5.09.5.09.5.09.5.09.5.08.5.08.5.09.5.08.5.08.5.07.5.08.5.07.51.08.5.07.5.07.5.07.5.07.5.06.5.07.5.06.5.07.5.06.5.06.5.06.5.06.5.05.5.06.5.05.51.06.5.05.5.05.5.05.5.05.5.05.5.05.5.04.5.05.5.04.5.05.5.04.5.04.5.04.5.04.5.04.5.04.51.04.5.03.5.04.5.03.5.04.5.03.5.03.5.04.5.03.5.03.5.03.5.03.5.03.5.02.5.03.5.03.5.02.51.03.5.02.5.03.5.02.5.03.5.02.5.02.5.02.5.02.5.02.5.02.5.02.5.02.5.02.5.02.5.02.5.02.51.01.5.02.5.02.5.01.5.02.5.01.5.02.5.01.5.01.5.02.5.01.5.01.5.02.5.01.5.01.5.01.5.01.51.01.5.02.5.01.5.01.5.01.5.01h.5l.5.01.5.01.5.01.5.01.5.01.5.01h.5l.5.01.5.01.51.01h.5l.5.01.5.01h.5l.5.01h.5l.5.01.5.01h.5l.5.01h.5l.5.01h.5l.5.01h.5l.5.01h.51l.5.01h1l.5.01h.5l.5.01h1l.5.01h1l.5.01h1.5l.5.01H418l.5.01h1.5l.5.01h.5" style="stroke-width:3;stroke:#4a90e2;stroke-opacity:.8"/></g></g><g fill="#fff" stroke="none" class="test-xtl" dominant-baseline="hanging" font-size="11" style="font-family:&quot;Open Sans&quot;,verdana,arial,sans-serif" text-anchor="middle"><text x="43.176" y="261.67" transform="translate(52 2)">-2</text><text x="123.266" y="261.67" transform="translate(52 2)">-1</text><text x="286.582" y="261.67" transform="translate(52 2)">1</text><text x="366.672" y="261.67" transform="translate(52 2)">2</text><text x="198.491" y="259.67" transform="translate(52 2)">0</text></g><g fill="#fff" stroke="none" class="test-ytl" dominant-baseline="middle" font-size="11" style="font-family:&quot;Open Sans&quot;,verdana,arial,sans-serif" text-anchor="end"><text x="198.491" y="174.579" transform="translate(52 2)">1</text><text x="198.491" y="94.489" transform="translate(52 2)">2</text><text x="198.491" y="14.399" transform="translate(52 2)">3</text></g><path stroke="none" d="M1 1h419v268H1z" class="real" style="fill:transparent;stroke:none" transform="translate(52 2)"/></g></g></svg><svg xmlns="http://www.w3.org/2000/svg" xmlns:xlink="http://www.w3.org/1999/xlink" width="700" height="335" style="width:700px;height:335px;font-family:Asana-Math,Asana;background:0 0"/></svg>