<svg xmlns="http://www.w3.org/2000/svg" width="702" height="312" style="width:702px;height:312px;background:0 0;fill:none"><svg xmlns="http://www.w3.org/2000/svg" class="role-diagram-draw-area" style="overflow:visible"><g class="shapes-region" style="stroke:#000;fill:none"><g class="composite-shape" data-amt="diagram/shapes/plot"><g class="test-xti" style="font-family:Asana-Math,Asana"><path stroke="#fff" d="M20 225.89h616m-591.841-4v8m72-8v8m72-8v8m72-8v8m144-8v8m72-8v8m72-8v8m72-8v8"/><path fill="#fff" stroke="none" d="m631 222.29 8 3.6-8 3.6Z"/></g><g class="test-yti" style="font-family:Asana-Math,Asana"><path stroke="#fff" d="M332.159 14v266m-4-126.11h8m-8-72h8"/><path fill="#fff" stroke="none" d="m328.56 19 3.6-8 3.6 8Z"/></g><g class="test-plot-expression" transform="translate(20 10)"><defs><clipPath id="a"><path d="M1 1h618v268H1z"/></clipPath></defs><g clip-path="url(#a)"><path d="M0-270h24.26m0 485.89h12.97l.57-.01h1.13l.56-.01.56-.01.57-.01.56-.01.57-.01.56-.02.57-.02.56-.03.56-.03.57-.03.56-.04.57-.05.56-.05.56-.06.57-.06.56-.07.57-.08.56-.09.57-.09.56-.1.56-.11.57-.12.56-.12.57-.14.56-.14.56-.15.57-.16.56-.17.57-.18.56-.18.56-.19.57-.21.56-.21.57-.22.56-.22.57-.24.56-.24.56-.25.57-.26.56-.27.57-.27.56-.28.56-.29.57-.3.56-.3.57-.31.56-.31.57-.32.56-.33.56-.34.57-.34.56-.34.57-.35.56-.36.56-.36.57-.36.56-.38.57-.37.56-.38.57-.39.56-.38.56-.4.57-.39.56-.4.57-.4.56-.41.56-.41.57-.41.56-.42.57-.42.56-.42.57-.42.56-.43.56-.43.57-.43.56-.43.57-.43.56-.44.56-.44.57-.44.56-.44.57-.44.56-.44.56-.44.57-.45.56-.45.57-.44.56-.45.57-.45.56-.45.56-.45.57-.45.56-.45.57-.45.56-.45.56-.45.57-.45.56-.45.57-.45.56-.45.57-.45.56-.45.56-.45.57-.45.56-.44.57-.45.56-.45.56-.45.57-.44.56-.45.57-.44.56-.45.57-.44.56-.44.56-.44.57-.44.56-.44.57-.44.56-.44.56-.43.57-.44.56-.43.57-.44.56-.43.56-.43.57-.43.56-.43.57-.42.56-.43.57-.42.56-.42.56-.43.57-.42.56-.41.57-.42.56-.42.56-.41.57-.41.56-.42.57-.41.56-.4.57-.41.56-.41.56-.4.57-.4.56-.4.57-.4.56-.4.56-.39.57-.4.56-.39.57-.39.56-.39.57-.39.56-.38.56-.39.57-.38.56-.38.57-.38.56-.38.56-.37.57-.38.56-.37.57-.37.56-.37.57-.37.56-.37.56-.36.57-.36.56-.36.57-.36.56-.36.56-.36.57-.35.56-.35.57-.35.56-.35.56-.35.57-.34.56-.35.57-.34.56-.34.57-.34.56-.34.56-.33.57-.34.56-.33.57-.33.56-.33.56-.33.57-.32.56-.33.57-.32.56-.32.57-.32.56-.31.56-.32.57-.31.56-.32.57-.31.56-.31.56-.3.57-.31.56-.3.57-.31.56-.3.57-.3.56-.29.56-.3.57-.29.56-.3.57-.29.56-.29.56-.29.57-.28.56-.29.57-.28.56-.28.56-.29.57-.27.56-.28.57-.28.56-.27.57-.27.56-.28.56-.27.57-.26.56-.27.57-.27.56-.26.56-.26.57-.26.56-.26.57-.26.56-.26.57-.25.56-.25.56-.26.57-.25.56-.25.57-.24.56-.25.56-.24.57-.25.56-.24.57-.24.56-.24.57-.24.56-.23.56-.24.57-.23.56-.23.57-.23.56-.23.56-.23.57-.23.56-.22.57-.23.56-.22.57-.22.56-.22.56-.22.57-.22.56-.21.57-.22.56-.21.56-.21.57-.21.56-.21.57-.21.56-.21.56-.2.57-.21.56-.2.57-.2.56-.2.57-.2.56-.2.56-.19.57-.2.56-.19.57-.2.56-.19.56-.19.57-.19.56-.19.57-.18.56-.19.57-.18.56-.18.56-.19.57-.18.56-.18.57-.17.56-.18.56-.18.57-.17.56-.18.57-.17.56-.17.57-.17.56-.17.56-.17.57-.16.56-.17.57-.16.56-.16.56-.17.57-.16.56-.16.57-.16.56-.15.57-.16.56-.16.56-.15.57-.15.56-.15.57-.16.56-.15.56-.14.57-.15.56-.15.57-.14.56-.15.56-.14.57-.14.56-.14.57-.14.56-.14.57-.14.56-.14.56-.13.57-.14.56-.13.57-.14.56-.13.56-.13.57-.13.56-.13.57-.12.56-.13.57-.13.56-.12.56-.12.57-.13.56-.12.57-.12.56-.12.56-.12.57-.11.56-.12.57-.12.56-.11.57-.11.56-.12.56-.11.57-.11.56-.11.57-.11.56-.11.56-.1.57-.11.56-.1.57-.11.56-.1.56-.1.57-.1.56-.1.57-.1.56-.1.57-.1.56-.09.56-.1.57-.09.56-.1.57-.09.56-.09.56-.09.57-.09.56-.09.57-.09.56-.09.57-.08.56-.09.56-.08.57-.08.56-.09.57-.08.56-.08.56-.08.57-.08.56-.08.57-.07.56-.08.57-.08.56-.07.56-.07.57-.08.56-.07.57-.07.56-.07.56-.07.57-.07.56-.06.57-.07.56-.07.57-.06.56-.06.56-.07.57-.06.56-.06.57-.06.56-.06.56-.06.57-.06.56-.05.57-.06.56-.06.56-.05.57-.05.56-.06.57-.05.56-.05.57-.05.56-.05.56-.05.57-.04.56-.05.57-.05.56-.04.56-.05.57-.04.56-.04.57-.04.56-.05.57-.04.56-.03.56-.04.57-.04.56-.04.57-.03.56-.04.56-.03.57-.04.56-.03.57-.03.56-.03.57-.03.56-.03.56-.03.57-.03.56-.02.57-.03.56-.02.56-.03.57-.02.56-.03.57-.02.56-.02.56-.02.57-.02.56-.02.57-.01.56-.02.57-.02.56-.01.56-.02.57-.01.56-.01.57-.02.56-.01.56-.01.57-.01.56-.01h.57l.56-.01.57-.01h.56l.56-.01h1.13l.57-.01h2.82l.56.01h1.13l.56.01h.57l.56.01.57.01.56.01.56.01.57.01.56.01.57.01.56.01.57.01.56.02.56.01.57.02.56.01.57.02.56.02.56.02.57.02.56.02.57.02.56.02.56.03.57.02.56.02.57.03.56.03.57.02.56.03.56.03.57.03.56.03.57.03.56.03.56.04.57.03.56.03.57.04.56.04.57.03.56.04.56.04.57.04.56.04.57.04.56.04.56.04.57.05.56.04.57.05.56.04.57.05.56.05.56.05.57.05.56.05.57.05.56.05.56.05.57.06.56.05.57.06.56.06.56.05.57.06.56.06.57.06.56.06.57.06.56.06.56.07.57.06.56.07.57.06.56.07.56.07.57.07.56.07.57.07.56.07.57.07.56.07.56.08.57.07.56.08.57.07.56.08.56.08.57.08.56.08.57.08.56.08.57.08.56.09.56.08.57.09.56.08.57.09.56.09.56.09.57.09.56.09.57.09.56.1.57.09.56.09.56.1.57.1.56.09.57.1.56.1.56.1.57.1.56.11.57.1.56.1.56.11.57.1.56.11.57.11.56.11.57.11.56.11.56.11.57.11.56.12.57.11.56.12.56.12.57.11.56.12.57.12.56.12.57.13.56.12.56.12.57.13.56.12.57.13.56.13.56.13.57.13.56.13.57.13.56.13.57.14.56.13.56.14.57.14.56.13.57.14.56.14.56.15.57.14.56.14.57.15.56.14.56.15.57.15.56.15.57.15.56.15.57.15.56.15.56.16.57.15.56.16.57.16.56.16.56.16.57.16.56.16.57.16.56.17.57.17.56.16.56.17.57.17.56.17.57.17.56.17.56.18.57.17.56.18.57.18.56.18.57.18.56.18.56.18.57.18.56.19.57.18.56.19.56.19.57.19.56.19.57.19.56.19.57.2.56.19.56.2.57.2.56.2.57.2.56.2.56.2.57.21.56.2.57.21.56.21.56.21.57.21.56.21.57.22.56.21.57.22.56.22.56.21.57.23.56.22.57.22.56.22.56.23.57.23.56.23.57.23.56.23.57.23.56.23.56.24.57.23.56.24.57.24.56.24.56.25.57.24.56.25.57.24.56.25.57.25.56.25.56.25.57.26.56.25.57.26.56.26.56.26.57.26.56.26.57.27.56.26.57.27.56.27.56.27.57.27.56.27.57.28.56.27.56.28.57.28.56.28.57.28.56.29.56.28.57.29.56.29.57.29.56.29.57.3.56.29.56.3.57.3.56.3.57.3.56.3.56.31.57.3.56.31.57.31.56.31.57.31.56.32.56.31.57.32.56.32.57.32.56.33.56.32.57.33.56.32.57.33.56.33.57.34.56.33.56.34.57.34.56.34.57.34.56.34.56.34.57.35.56.35.57.35.56.35.56.35.57.36.56.35.57.36.56.36.57.36.56.37.56.36.57.37.56.36.57.37.56.38.56.37.57.37.56.38.57.38.56.38.57.38.56.38.56.39.57.39.56.38.57.39.56.39.56.4.57.39.56.4.57.4.56.4.57.4.56.4.56.4.57.41.56.41.57.41.56.41.56.41.57.41.56.42.57.41.56.42.57.42.56.42.56.42.57.42.56.43.57.42.56.43.56.43.57.43.56.43.57.43.56.44.56.43.57.44.56.43.57.44.56.44.57.44.56.44.56.44.57.44.56.45.57.44.56.45.56.44.57.45.56.45.57.44.56.45.57.45.56.45.56.45.57.45.56.45.57.45.56.45.56.45.57.45.56.45.57.45.56.45.57.45.56.45.56.45.57.45.56.44.57.45.56.45.56.44.57.45.56.44.57.44.56.45.56.44.57.43.56.44.57.44.56.43.57.43.56.43.56.43.57.42.56.43.57.42.56.41.56.42.57.41.56.41.57.4.56.41.57.39.56.4.56.39.57.39.56.38.57.38.56.37.56.37.57.37.56.36.57.35.56.35.57.34.56.34.56.33.57.33.56.32.57.31.56.31.56.3.57.29.56.29.57.27.56.28.57.26.56.26.56.24.57.24.56.24.57.22.56.22.56.2.57.2.56.19.57.19.56.17.56.17.57.15.56.15.57.14.56.13.57.12.56.12.56.1.57.1.56.09.57.09.56.07.56.07.57.06.56.06.57.05.56.04.57.04.56.03.56.03.57.03.56.02.57.01.56.02.56.01.57.01h.56l.57.01h1.13l.56.01h12.97m0-485.89h.57m0 0H620" style="stroke-width:2;stroke:#4a90e2;stroke-opacity:.8"/></g></g><g fill="#fff" stroke="none" class="test-xtl" dominant-baseline="hanging" font-size="11" style="font-family:&quot;Open Sans&quot;,verdana,arial,sans-serif" text-anchor="middle"><text x="21.024" y="222.89" transform="translate(20 10)">-1</text><text x="93.024" y="222.89" transform="translate(20 10)">-0.75</text><text x="165.024" y="222.89" transform="translate(20 10)">-0.5</text><text x="237.024" y="222.89" transform="translate(20 10)">-0.25</text><text x="384.159" y="222.89" transform="translate(20 10)">0.25</text><text x="456.159" y="222.89" transform="translate(20 10)">0.5</text><text x="528.159" y="222.89" transform="translate(20 10)">0.75</text><text x="600.159" y="222.89" transform="translate(20 10)">1</text><text x="304.159" y="220.89" transform="translate(20 10)">0</text></g><g fill="#fff" stroke="none" class="test-ytl" dominant-baseline="middle" font-size="11" style="font-family:&quot;Open Sans&quot;,verdana,arial,sans-serif" text-anchor="end"><text x="304.159" y="143.89" transform="translate(20 10)">0.25</text><text x="304.159" y="71.89" transform="translate(20 10)">0.5</text></g><path stroke="none" d="M1 1h618v268H1z" class="real" style="fill:transparent;stroke:none" transform="translate(20 10)"/></g></g></svg><svg xmlns="http://www.w3.org/2000/svg" xmlns:xlink="http://www.w3.org/1999/xlink" width="700" height="310" style="width:700px;height:310px;font-family:Asana-Math,Asana;background:0 0"/></svg>