<svg xmlns="http://www.w3.org/2000/svg" width="702" height="337" style="width:702px;height:337px;background:0 0;fill:none"><svg xmlns="http://www.w3.org/2000/svg"/><svg xmlns="http://www.w3.org/2000/svg" class="role-diagram-draw-area" style="overflow:visible"><g class="shapes-region" style="stroke:#000;fill:none"><g class="composite-shape" data-amt="diagram/shapes/plot"><g class="test-xti" style="font-family:Asana-Math,Asana"><path stroke="#fff" d="M52 259.305h417m-411.127-4v8m150-8v8m75-8v8m75-8v8m75-8v8"/><path fill="#fff" stroke="none" d="m464 255.705 8 3.6-8 3.6Z"/></g><g class="test-yti" style="font-family:Asana-Math,Asana"><path stroke="#fff" d="M132.873 6v266m-4-87.695h8m-8-75h8m-8-75h8"/><path fill="#fff" stroke="none" d="m129.273 11 3.6-8 3.6 8Z"/></g><g class="test-plot-expression" transform="translate(52 2)"><defs><clipPath id="a"><path d="M1 1h419v268H1z"/></clipPath></defs><g clip-path="url(#a)"><path d="m0 36.83.5 1.46.5 1.46.5 1.45.5 1.44.5 1.42.5 1.42.5 1.41.5 1.4.51 1.39.5 1.38.5 1.38.5 1.36.5 1.35.5 1.35.5 1.33.5 1.33.5 1.32.5 1.31.5 1.3.5 1.29.5 1.28.5 1.28.5 1.26.5 1.26.5 1.25.51 1.24.5 1.24.5 1.22.5 1.22.5 1.21.5 1.2.5 1.19.5 1.18.5 1.18.5 1.17.5 1.16.5 1.15.5 1.15.5 1.14.5 1.13.5 1.12.5 1.12.51 1.11.5 1.1.5 1.09.5 1.09.5 1.07.5 1.08.5 1.06.5 1.06.5 1.05.5 1.04.5 1.04.5 1.03.5 1.02.5 1.02.5 1.01.5 1 .51 1 .5.98.5.99.5.97.5.97.5.97.5.95.5.95.5.95.5.94.5.93.5.92.5.92.5.92.5.9.5.9.5.9.51.89.5.88.5.88.5.87.5.86.5.86.5.86.5.85.5.84.5.84.5.83.5.83.5.82.5.81.5.81.5.81.5.79.51.8.5.79.5.78.5.78.5.77.5.77.5.76.5.76.5.75.5.75.5.74.5.74.5.73.5.73.5.72.5.72.5.71.51.71.5.7.5.7.5.7.5.69.5.68.5.68.5.68.5.67.5.67.5.66.5.66.5.65.5.65.5.65.5.64.5.64.51.63.5.63.5.62.5.62.5.62.5.61.5.61.5.6.5.6.5.6.5.59.5.59.5.58.5.58.5.58.5.57.51.57.5.56.5.56.5.56.5.55.5.55.5.55.5.54.5.54.5.54.5.53.5.53.5.52.5.52.5.52.5.51.5.52.51.5.5.51.5.5.5.5.5.49.5.49.5.49.5.48.5.48.5.48.5.48.5.47.5.47.5.46.5.46.5.46.5.46.51.45.5.45.5.45.5.44.5.44.5.44.5.44.5.43.5.43.5.43.5.42.5.42.5.42.5.41.5.42.5.41.5.4.51.41.5.4.5.4.5.4.5.39.5.39.5.39.5.39.5.38.5.38.5.38.5.37.5.38.5.37.5.37.5.36.5.37.51.36.5.36.5.35.5.36.5.35.5.35.5.34.5.35.5.34.5.34.5.34.5.33.5.34.5.33.5.33.5.32.5.33.51.32.5.32.5.32.5.32.5.31.5.31.5.31.5.31.5.3.5.31.5.3.5.3.5.3.5.29.5.3.5.29.51.29.5.28.5.29.5.28.5.29.5.28.5.27.5.28.5.28.5.27.5.27.5.27.5.27.5.26.5.27.5.26.5.26.51.26.5.25.5.26.5.25.5.25.5.25.5.25.5.25.5.24.5.25.5.24.5.24.5.24.5.24.5.23.5.24.5.23.51.23.5.23.5.23.5.22.5.23.5.22.5.22.5.22.5.22.5.22.5.22.5.21.5.21.5.21.5.21.5.21.5.21.51.21.5.2.5.21.5.2.5.2.5.2.5.2.5.19.5.2.5.19.5.19.5.2.5.19.5.19.5.18.5.19.5.18.51.19.5.18.5.18.5.18.5.18.5.18.5.18.5.17.5.18.5.17.5.17.5.17.5.17.5.17.5.17.5.17.51.16.5.17.5.16.5.16.5.16.5.16.5.16.5.16.5.16.5.15.5.16.5.15.5.15.5.15.5.15.5.15.5.15.51.15.5.15.5.14.5.15.5.14.5.14.5.15.5.14.5.14.5.14.5.13.5.14.5.14.5.13.5.14.5.13.5.13.51.14.5.13.5.13.5.13.5.12.5.13.5.13.5.12.5.13.5.12.5.13.5.12.5.12.5.12.5.12.5.12.5.12.51.12.5.11.5.12.5.11.5.12.5.11.5.12.5.11.5.11.5.11.5.11.5.11.5.11.5.11.5.1.5.11.5.11.51.1.5.11.5.1.5.1.5.1.5.11.5.1.5.1.5.1.5.1.5.09.5.1.5.1.5.09.5.1.5.1.5.09.51.09.5.1.5.09.5.09.5.09.5.09.5.09.5.09.5.09.5.09.5.09.5.08.5.09.5.09.5.08.5.09.51.08.5.09.5.08.5.08.5.08.5.08.5.09.5.08.5.08.5.08.5.07.5.08.5.08.5.08.5.07.5.08.5.08.51.07.5.08.5.07.5.07.5.08.5.07.5.07.5.07.5.08.5.07.5.07.5.07.5.07.5.07.5.06.5.07.5.07.51.07.5.06.5.07.5.07.5.06.5.07.5.06.5.06.5.07.5.06.5.06.5.07.5.06.5.06.5.06.5.06.5.06.51.06.5.06.5.06.5.06.5.06.5.06.5.05.5.06.5.06.5.05.5.06.5.06.5.05.5.06.5.05.5.06.5.05.51.05.5.06.5.05.5.05.5.05.5.05.5.06.5.05.5.05.5.05.5.05.5.05.5.05.5.05.5.05.5.04.5.05.51.05.5.05.5.04.5.05.5.05.5.04.5.05.5.05.5.04.5.05.5.04.5.04.5.05.5.04.5.05.5.04.51.04.5.05.5.04.5.04.5.04.5.04.5.04.5.05.5.04.5.04.5.04.5.04.5.04.5.04.5.03.5.04.5.04.51.04.5.04.5.04.5.03.5.04.5.04.5.04.5.03.5.04.5.03.5.04.5.04.5.03.5.04.5.03.5.04.5.03.51.03.5.04.5.03.5.04.5.03.5.03.5.04.5.03.5.03.5.03.5.03.5.04.5.03.5.03.5.03.5.03.5.03.51.03.5.03.5.03.5.03.5.03.5.03.5.03.5.03.5.03.5.03.5.03.5.03.5.02.5.03.5.03.5.03.5.02.51.03.5.03.5.03.5.02.5.03.5.03.5.02.5.03.5.02.5.03.5.03.5.02.5.03.5.02.5.03.5.02.51.02.5.03.5.02.5.03.5.02.5.02.5.03.5.02.5.03.5.02.5.02.5.02.5.03.5.02.5.02.5.02.5.03.51.02.5.02.5.02.5.02.5.02.5.02.5.03.5.02.5.02.5.02.5.02.5.02.5.02.5.02.5.02.5.02.5.02.51.02.5.02.5.02.5.02.5.01.5.02.5.02.5.02.5.02.5.02.5.02.5.01.5.02.5.02.5.02.5.02.5.01.51.02.5.02.5.02.5.01.5.02.5.02.5.01.5.02.5.02.5.01.5.02.5.02.5.01.5.02.5.01.5.02.5.01.51.02.5.02.5.01.5.02.5.01.5.02.5.01.5.02.5.01.5.02.5.01.5.01.5.02.5.01.5.02.5.01.5.02.51.01.5.01.5.02.5.01.5.01.5.02.5.01.5.01.5.02.5.01.5.01.5.02.5.01.5.01.5.01.5.02.51.01.5.01.5.01.5.02.5.01.5.01.5.01.5.01.5.02.5.01.5.01.5.01.5.01.5.01.5.02.5.01.5.01.51.01.5.01.5.01.5.01.5.01.5.01.5.02.5.01.5.01.5.01.5.01.5.01.5.01.5.01.5.01.5.01.5.01.51.01.5.01.5.01.5.01.5.01.5.01.5.01.5.01.5.01.5.01h.5l.5.01.5.01.5.01.5.01.5.01.5.01.51.01.5.01.5.01h.5l.5.01.5.01.5.01.5.01.5.01.5.01h.5l.5.01.5.01.5.01.5.01h.5l.5.01.51.01.5.01.5.01h.5l.5.01.5.01.5.01h.5l.5.01.5.01.5.01h.5l.5.01.5.01.5.01h.5l.51.01.5.01h.5l.5.01.5.01.5.01h.5l.5.01.5.01h.5l.5.01.5.01h.5l.5.01.5.01h.5l.5.01h.51l.5.01.5.01h.5l.5.01.5.01h.5l.5.01h.5l.5.01.5.01h.5l.5.01h.5l.5.01.5.01h.5l.51.01h.5l.5.01h.5l.5.01h.5l.5.01.5.01h.5" style="stroke-width:3;stroke:#4a90e2;stroke-opacity:.8"/></g></g><g fill="#fff" stroke="none" class="test-xtl" dominant-baseline="hanging" font-size="11" style="font-family:&quot;Open Sans&quot;,verdana,arial,sans-serif" text-anchor="middle"><text x="2.738" y="264.305" transform="translate(52 2)">-1</text><text x="155.873" y="264.305" transform="translate(52 2)">1</text><text x="230.873" y="264.305" transform="translate(52 2)">2</text><text x="305.873" y="264.305" transform="translate(52 2)">3</text><text x="380.873" y="264.305" transform="translate(52 2)">4</text><text x="72.873" y="262.305" transform="translate(52 2)">0</text></g><g fill="#fff" stroke="none" class="test-ytl" dominant-baseline="middle" font-size="11" style="font-family:&quot;Open Sans&quot;,verdana,arial,sans-serif" text-anchor="end"><text x="72.873" y="182.305" transform="translate(52 2)">1</text><text x="72.873" y="107.305" transform="translate(52 2)">2</text><text x="72.873" y="32.305" transform="translate(52 2)">3</text></g><path stroke="none" d="M1 1h419v268H1z" class="real" style="fill:transparent;stroke:none" transform="translate(52 2)"/></g></g></svg><svg xmlns="http://www.w3.org/2000/svg" xmlns:xlink="http://www.w3.org/1999/xlink" width="700" height="335" style="width:700px;height:335px;font-family:Asana-Math,Asana;background:0 0"/></svg>