<svg xmlns="http://www.w3.org/2000/svg" xmlns:xlink="http://www.w3.org/1999/xlink" x="0" y="0" width="702" height="337" style="
        width:702px;
        height:337px;
        background: transparent;
        fill: none;
">
        <svg xmlns="http://www.w3.org/2000/svg"/>
        
        <svg xmlns="http://www.w3.org/2000/svg" class="role-diagram-draw-area" style="overflow: visible;"><g class="shapes-region" style="stroke: black; fill: none;"><g class="composite-shape" data-amt="diagram/shapes/plot" transform="matrix(1,0,0,1,52,2)"><g><g/><g><g class="test-xti" style="font-family: Asana-Math, Asana;"><line x1="0" y1="257.30518617239613" x2="417" y2="257.30518617239613" fill="none" stroke="rgb(255,255,255)" stroke-opacity="1" stroke-width="1"/><line x1="5.873127937316947" y1="253.30518617239613" x2="5.873127937316947" y2="261.30518617239613" fill="none" stroke="rgb(255,255,255)" stroke-opacity="1" stroke-width="1"/><line x1="155.87312793731695" y1="253.30518617239613" x2="155.87312793731695" y2="261.30518617239613" fill="none" stroke="rgb(255,255,255)" stroke-opacity="1" stroke-width="1"/><line x1="230.87312793731695" y1="253.30518617239613" x2="230.87312793731695" y2="261.30518617239613" fill="none" stroke="rgb(255,255,255)" stroke-opacity="1" stroke-width="1"/><line x1="305.87312793731695" y1="253.30518617239613" x2="305.87312793731695" y2="261.30518617239613" fill="none" stroke="rgb(255,255,255)" stroke-opacity="1" stroke-width="1"/><line x1="380.873127937317" y1="253.30518617239613" x2="380.873127937317" y2="261.30518617239613" fill="none" stroke="rgb(255,255,255)" stroke-opacity="1" stroke-width="1"/><path d="M412,253.70518617239614 L420,257.30518617239613 L412,260.90518617239616 Z" stroke="none" stroke-width="1" fill="rgb(255,255,255)" fill-opacity="1"/></g><g class="test-yti" style="font-family: Asana-Math, Asana;"><line x1="80.87312793731695" y1="4" x2="80.87312793731695" y2="270" fill="none" stroke="rgb(255,255,255)" stroke-opacity="1" stroke-width="1"/><line x1="76.87312793731695" y1="182.30518617239613" x2="84.87312793731695" y2="182.30518617239613" fill="none" stroke="rgb(255,255,255)" stroke-opacity="1" stroke-width="1"/><line x1="76.87312793731695" y1="107.30518617239613" x2="84.87312793731695" y2="107.30518617239613" fill="none" stroke="rgb(255,255,255)" stroke-opacity="1" stroke-width="1"/><line x1="76.87312793731695" y1="32.305186172396134" x2="84.87312793731695" y2="32.305186172396134" fill="none" stroke="rgb(255,255,255)" stroke-opacity="1" stroke-width="1"/><path d="M77.27312793731696,9 L80.87312793731695,1 L84.47312793731695,9 Z" stroke="none" stroke-width="1" fill="rgb(255,255,255)" fill-opacity="1"/></g><g class="test-plot-expression"><defs><clipPath id="cpr05kap1ypdg-full-view"><rect x="1" y="1" width="419" height="268"/></clipPath></defs><g clip-path="url(#cpr05kap1ypdg-full-view)"><path d=" M0.00,36.83 L0.50,38.29 L1.00,39.75 L1.50,41.20 L2.00,42.64 L2.50,44.06 L3.00,45.48 L3.50,46.89 L4.00,48.29 L4.51,49.68 L5.01,51.06 L5.51,52.44 L6.01,53.80 L6.51,55.15 L7.01,56.50 L7.51,57.83 L8.01,59.16 L8.51,60.48 L9.01,61.79 L9.51,63.09 L10.01,64.38 L10.51,65.66 L11.01,66.94 L11.51,68.20 L12.01,69.46 L12.51,70.71 L13.02,71.95 L13.52,73.19 L14.02,74.41 L14.52,75.63 L15.02,76.84 L15.52,78.04 L16.02,79.23 L16.52,80.41 L17.02,81.59 L17.52,82.76 L18.02,83.92 L18.52,85.07 L19.02,86.22 L19.52,87.36 L20.02,88.49 L20.52,89.61 L21.02,90.73 L21.53,91.84 L22.03,92.94 L22.53,94.03 L23.03,95.12 L23.53,96.19 L24.03,97.27 L24.53,98.33 L25.03,99.39 L25.53,100.44 L26.03,101.48 L26.53,102.52 L27.03,103.55 L27.53,104.57 L28.03,105.59 L28.53,106.60 L29.03,107.60 L29.54,108.60 L30.04,109.58 L30.54,110.57 L31.04,111.54 L31.54,112.51 L32.04,113.48 L32.54,114.43 L33.04,115.38 L33.54,116.33 L34.04,117.27 L34.54,118.20 L35.04,119.12 L35.54,120.04 L36.04,120.96 L36.54,121.86 L37.04,122.76 L37.54,123.66 L38.05,124.55 L38.55,125.43 L39.05,126.31 L39.55,127.18 L40.05,128.04 L40.55,128.90 L41.05,129.76 L41.55,130.61 L42.05,131.45 L42.55,132.29 L43.05,133.12 L43.55,133.95 L44.05,134.77 L44.55,135.58 L45.05,136.39 L45.55,137.20 L46.05,137.99 L46.56,138.79 L47.06,139.58 L47.56,140.36 L48.06,141.14 L48.56,141.91 L49.06,142.68 L49.56,143.44 L50.06,144.20 L50.56,144.95 L51.06,145.70 L51.56,146.44 L52.06,147.18 L52.56,147.91 L53.06,148.64 L53.56,149.36 L54.06,150.08 L54.56,150.79 L55.07,151.50 L55.57,152.20 L56.07,152.90 L56.57,153.60 L57.07,154.29 L57.57,154.97 L58.07,155.65 L58.57,156.33 L59.07,157.00 L59.57,157.67 L60.07,158.33 L60.57,158.99 L61.07,159.64 L61.57,160.29 L62.07,160.94 L62.57,161.58 L63.07,162.22 L63.58,162.85 L64.08,163.48 L64.58,164.10 L65.08,164.72 L65.58,165.34 L66.08,165.95 L66.58,166.56 L67.08,167.16 L67.58,167.76 L68.08,168.36 L68.58,168.95 L69.08,169.54 L69.58,170.12 L70.08,170.70 L70.58,171.28 L71.08,171.85 L71.59,172.42 L72.09,172.98 L72.59,173.54 L73.09,174.10 L73.59,174.65 L74.09,175.20 L74.59,175.75 L75.09,176.29 L75.59,176.83 L76.09,177.37 L76.59,177.90 L77.09,178.43 L77.59,178.95 L78.09,179.47 L78.59,179.99 L79.09,180.50 L79.59,181.02 L80.10,181.52 L80.60,182.03 L81.10,182.53 L81.60,183.03 L82.10,183.52 L82.60,184.01 L83.10,184.50 L83.60,184.98 L84.10,185.46 L84.60,185.94 L85.10,186.42 L85.60,186.89 L86.10,187.36 L86.60,187.82 L87.10,188.28 L87.60,188.74 L88.10,189.20 L88.61,189.65 L89.11,190.10 L89.61,190.55 L90.11,190.99 L90.61,191.43 L91.11,191.87 L91.61,192.31 L92.11,192.74 L92.61,193.17 L93.11,193.60 L93.61,194.02 L94.11,194.44 L94.61,194.86 L95.11,195.27 L95.61,195.69 L96.11,196.10 L96.61,196.50 L97.12,196.91 L97.62,197.31 L98.12,197.71 L98.62,198.11 L99.12,198.50 L99.62,198.89 L100.12,199.28 L100.62,199.67 L101.12,200.05 L101.62,200.43 L102.12,200.81 L102.62,201.18 L103.12,201.56 L103.62,201.93 L104.12,202.30 L104.62,202.66 L105.12,203.03 L105.63,203.39 L106.13,203.75 L106.63,204.10 L107.13,204.46 L107.63,204.81 L108.13,205.16 L108.63,205.50 L109.13,205.85 L109.63,206.19 L110.13,206.53 L110.63,206.87 L111.13,207.20 L111.63,207.54 L112.13,207.87 L112.63,208.20 L113.13,208.52 L113.63,208.85 L114.14,209.17 L114.64,209.49 L115.14,209.81 L115.64,210.13 L116.14,210.44 L116.64,210.75 L117.14,211.06 L117.64,211.37 L118.14,211.67 L118.64,211.98 L119.14,212.28 L119.64,212.58 L120.14,212.88 L120.64,213.17 L121.14,213.47 L121.64,213.76 L122.15,214.05 L122.65,214.33 L123.15,214.62 L123.65,214.90 L124.15,215.19 L124.65,215.47 L125.15,215.74 L125.65,216.02 L126.15,216.30 L126.65,216.57 L127.15,216.84 L127.65,217.11 L128.15,217.38 L128.65,217.64 L129.15,217.91 L129.65,218.17 L130.15,218.43 L130.66,218.69 L131.16,218.94 L131.66,219.20 L132.16,219.45 L132.66,219.70 L133.16,219.95 L133.66,220.20 L134.16,220.45 L134.66,220.69 L135.16,220.94 L135.66,221.18 L136.16,221.42 L136.66,221.66 L137.16,221.90 L137.66,222.13 L138.16,222.37 L138.66,222.60 L139.17,222.83 L139.67,223.06 L140.17,223.29 L140.67,223.51 L141.17,223.74 L141.67,223.96 L142.17,224.18 L142.67,224.40 L143.17,224.62 L143.67,224.84 L144.17,225.06 L144.67,225.27 L145.17,225.48 L145.67,225.69 L146.17,225.90 L146.67,226.11 L147.17,226.32 L147.68,226.53 L148.18,226.73 L148.68,226.94 L149.18,227.14 L149.68,227.34 L150.18,227.54 L150.68,227.74 L151.18,227.93 L151.68,228.13 L152.18,228.32 L152.68,228.51 L153.18,228.71 L153.68,228.90 L154.18,229.09 L154.68,229.27 L155.18,229.46 L155.68,229.64 L156.19,229.83 L156.69,230.01 L157.19,230.19 L157.69,230.37 L158.19,230.55 L158.69,230.73 L159.19,230.91 L159.69,231.08 L160.19,231.26 L160.69,231.43 L161.19,231.60 L161.69,231.77 L162.19,231.94 L162.69,232.11 L163.19,232.28 L163.69,232.45 L164.20,232.61 L164.70,232.78 L165.20,232.94 L165.70,233.10 L166.20,233.26 L166.70,233.42 L167.20,233.58 L167.70,233.74 L168.20,233.90 L168.70,234.05 L169.20,234.21 L169.70,234.36 L170.20,234.51 L170.70,234.66 L171.20,234.81 L171.70,234.96 L172.20,235.11 L172.71,235.26 L173.21,235.41 L173.71,235.55 L174.21,235.70 L174.71,235.84 L175.21,235.98 L175.71,236.13 L176.21,236.27 L176.71,236.41 L177.21,236.55 L177.71,236.68 L178.21,236.82 L178.71,236.96 L179.21,237.09 L179.71,237.23 L180.21,237.36 L180.71,237.49 L181.22,237.63 L181.72,237.76 L182.22,237.89 L182.72,238.02 L183.22,238.14 L183.72,238.27 L184.22,238.40 L184.72,238.52 L185.22,238.65 L185.72,238.77 L186.22,238.90 L186.72,239.02 L187.22,239.14 L187.72,239.26 L188.22,239.38 L188.72,239.50 L189.22,239.62 L189.73,239.74 L190.23,239.85 L190.73,239.97 L191.23,240.08 L191.73,240.20 L192.23,240.31 L192.73,240.43 L193.23,240.54 L193.73,240.65 L194.23,240.76 L194.73,240.87 L195.23,240.98 L195.73,241.09 L196.23,241.20 L196.73,241.30 L197.23,241.41 L197.73,241.52 L198.24,241.62 L198.74,241.73 L199.24,241.83 L199.74,241.93 L200.24,242.03 L200.74,242.14 L201.24,242.24 L201.74,242.34 L202.24,242.44 L202.74,242.54 L203.24,242.63 L203.74,242.73 L204.24,242.83 L204.74,242.92 L205.24,243.02 L205.74,243.12 L206.24,243.21 L206.75,243.30 L207.25,243.40 L207.75,243.49 L208.25,243.58 L208.75,243.67 L209.25,243.76 L209.75,243.85 L210.25,243.94 L210.75,244.03 L211.25,244.12 L211.75,244.21 L212.25,244.29 L212.75,244.38 L213.25,244.47 L213.75,244.55 L214.25,244.64 L214.76,244.72 L215.26,244.81 L215.76,244.89 L216.26,244.97 L216.76,245.05 L217.26,245.13 L217.76,245.22 L218.26,245.30 L218.76,245.38 L219.26,245.46 L219.76,245.53 L220.26,245.61 L220.76,245.69 L221.26,245.77 L221.76,245.84 L222.26,245.92 L222.76,246.00 L223.27,246.07 L223.77,246.15 L224.27,246.22 L224.77,246.29 L225.27,246.37 L225.77,246.44 L226.27,246.51 L226.77,246.58 L227.27,246.66 L227.77,246.73 L228.27,246.80 L228.77,246.87 L229.27,246.94 L229.77,247.01 L230.27,247.07 L230.77,247.14 L231.27,247.21 L231.78,247.28 L232.28,247.34 L232.78,247.41 L233.28,247.48 L233.78,247.54 L234.28,247.61 L234.78,247.67 L235.28,247.73 L235.78,247.80 L236.28,247.86 L236.78,247.92 L237.28,247.99 L237.78,248.05 L238.28,248.11 L238.78,248.17 L239.28,248.23 L239.78,248.29 L240.29,248.35 L240.79,248.41 L241.29,248.47 L241.79,248.53 L242.29,248.59 L242.79,248.65 L243.29,248.70 L243.79,248.76 L244.29,248.82 L244.79,248.87 L245.29,248.93 L245.79,248.99 L246.29,249.04 L246.79,249.10 L247.29,249.15 L247.79,249.21 L248.29,249.26 L248.80,249.31 L249.30,249.37 L249.80,249.42 L250.30,249.47 L250.80,249.52 L251.30,249.57 L251.80,249.63 L252.30,249.68 L252.80,249.73 L253.30,249.78 L253.80,249.83 L254.30,249.88 L254.80,249.93 L255.30,249.98 L255.80,250.03 L256.30,250.07 L256.80,250.12 L257.31,250.17 L257.81,250.22 L258.31,250.26 L258.81,250.31 L259.31,250.36 L259.81,250.40 L260.31,250.45 L260.81,250.50 L261.31,250.54 L261.81,250.59 L262.31,250.63 L262.81,250.67 L263.31,250.72 L263.81,250.76 L264.31,250.81 L264.81,250.85 L265.32,250.89 L265.82,250.94 L266.32,250.98 L266.82,251.02 L267.32,251.06 L267.82,251.10 L268.32,251.14 L268.82,251.19 L269.32,251.23 L269.82,251.27 L270.32,251.31 L270.82,251.35 L271.32,251.39 L271.82,251.43 L272.32,251.46 L272.82,251.50 L273.32,251.54 L273.83,251.58 L274.33,251.62 L274.83,251.66 L275.33,251.69 L275.83,251.73 L276.33,251.77 L276.83,251.81 L277.33,251.84 L277.83,251.88 L278.33,251.91 L278.83,251.95 L279.33,251.99 L279.83,252.02 L280.33,252.06 L280.83,252.09 L281.33,252.13 L281.83,252.16 L282.34,252.19 L282.84,252.23 L283.34,252.26 L283.84,252.30 L284.34,252.33 L284.84,252.36 L285.34,252.40 L285.84,252.43 L286.34,252.46 L286.84,252.49 L287.34,252.52 L287.84,252.56 L288.34,252.59 L288.84,252.62 L289.34,252.65 L289.84,252.68 L290.34,252.71 L290.85,252.74 L291.35,252.77 L291.85,252.80 L292.35,252.83 L292.85,252.86 L293.35,252.89 L293.85,252.92 L294.35,252.95 L294.85,252.98 L295.35,253.01 L295.85,253.04 L296.35,253.07 L296.85,253.09 L297.35,253.12 L297.85,253.15 L298.35,253.18 L298.85,253.20 L299.36,253.23 L299.86,253.26 L300.36,253.29 L300.86,253.31 L301.36,253.34 L301.86,253.37 L302.36,253.39 L302.86,253.42 L303.36,253.44 L303.86,253.47 L304.36,253.50 L304.86,253.52 L305.36,253.55 L305.86,253.57 L306.36,253.60 L306.86,253.62 L307.37,253.64 L307.87,253.67 L308.37,253.69 L308.87,253.72 L309.37,253.74 L309.87,253.76 L310.37,253.79 L310.87,253.81 L311.37,253.84 L311.87,253.86 L312.37,253.88 L312.87,253.90 L313.37,253.93 L313.87,253.95 L314.37,253.97 L314.87,253.99 L315.37,254.02 L315.88,254.04 L316.38,254.06 L316.88,254.08 L317.38,254.10 L317.88,254.12 L318.38,254.14 L318.88,254.17 L319.38,254.19 L319.88,254.21 L320.38,254.23 L320.88,254.25 L321.38,254.27 L321.88,254.29 L322.38,254.31 L322.88,254.33 L323.38,254.35 L323.88,254.37 L324.39,254.39 L324.89,254.41 L325.39,254.43 L325.89,254.45 L326.39,254.46 L326.89,254.48 L327.39,254.50 L327.89,254.52 L328.39,254.54 L328.89,254.56 L329.39,254.58 L329.89,254.59 L330.39,254.61 L330.89,254.63 L331.39,254.65 L331.89,254.67 L332.39,254.68 L332.90,254.70 L333.40,254.72 L333.90,254.74 L334.40,254.75 L334.90,254.77 L335.40,254.79 L335.90,254.80 L336.40,254.82 L336.90,254.84 L337.40,254.85 L337.90,254.87 L338.40,254.89 L338.90,254.90 L339.40,254.92 L339.90,254.93 L340.40,254.95 L340.90,254.96 L341.41,254.98 L341.91,255.00 L342.41,255.01 L342.91,255.03 L343.41,255.04 L343.91,255.06 L344.41,255.07 L344.91,255.09 L345.41,255.10 L345.91,255.12 L346.41,255.13 L346.91,255.14 L347.41,255.16 L347.91,255.17 L348.41,255.19 L348.91,255.20 L349.41,255.22 L349.92,255.23 L350.42,255.24 L350.92,255.26 L351.42,255.27 L351.92,255.28 L352.42,255.30 L352.92,255.31 L353.42,255.32 L353.92,255.34 L354.42,255.35 L354.92,255.36 L355.42,255.38 L355.92,255.39 L356.42,255.40 L356.92,255.41 L357.42,255.43 L357.93,255.44 L358.43,255.45 L358.93,255.46 L359.43,255.48 L359.93,255.49 L360.43,255.50 L360.93,255.51 L361.43,255.52 L361.93,255.54 L362.43,255.55 L362.93,255.56 L363.43,255.57 L363.93,255.58 L364.43,255.59 L364.93,255.61 L365.43,255.62 L365.93,255.63 L366.44,255.64 L366.94,255.65 L367.44,255.66 L367.94,255.67 L368.44,255.68 L368.94,255.69 L369.44,255.71 L369.94,255.72 L370.44,255.73 L370.94,255.74 L371.44,255.75 L371.94,255.76 L372.44,255.77 L372.94,255.78 L373.44,255.79 L373.94,255.80 L374.44,255.81 L374.95,255.82 L375.45,255.83 L375.95,255.84 L376.45,255.85 L376.95,255.86 L377.45,255.87 L377.95,255.88 L378.45,255.89 L378.95,255.90 L379.45,255.91 L379.95,255.91 L380.45,255.92 L380.95,255.93 L381.45,255.94 L381.95,255.95 L382.45,255.96 L382.95,255.97 L383.46,255.98 L383.96,255.99 L384.46,256.00 L384.96,256.00 L385.46,256.01 L385.96,256.02 L386.46,256.03 L386.96,256.04 L387.46,256.05 L387.96,256.06 L388.46,256.06 L388.96,256.07 L389.46,256.08 L389.96,256.09 L390.46,256.10 L390.96,256.10 L391.46,256.11 L391.97,256.12 L392.47,256.13 L392.97,256.14 L393.47,256.14 L393.97,256.15 L394.47,256.16 L394.97,256.17 L395.47,256.17 L395.97,256.18 L396.47,256.19 L396.97,256.20 L397.47,256.20 L397.97,256.21 L398.47,256.22 L398.97,256.23 L399.47,256.23 L399.98,256.24 L400.48,256.25 L400.98,256.25 L401.48,256.26 L401.98,256.27 L402.48,256.28 L402.98,256.28 L403.48,256.29 L403.98,256.30 L404.48,256.30 L404.98,256.31 L405.48,256.32 L405.98,256.32 L406.48,256.33 L406.98,256.34 L407.48,256.34 L407.98,256.35 L408.49,256.35 L408.99,256.36 L409.49,256.37 L409.99,256.37 L410.49,256.38 L410.99,256.39 L411.49,256.39 L411.99,256.40 L412.49,256.40 L412.99,256.41 L413.49,256.42 L413.99,256.42 L414.49,256.43 L414.99,256.43 L415.49,256.44 L415.99,256.45 L416.49,256.45 L417.00,256.46 L417.50,256.46 L418.00,256.47 L418.50,256.47 L419.00,256.48 L419.50,256.48 L420.00,256.49 L420.50,256.50 L421.00,256.50" style="stroke-width: 3; stroke: rgb(74, 144, 226); stroke-opacity: 0.8;"/></g></g><g class="test-xtl" style="font-family: &quot;Open Sans&quot;, verdana, arial, sans-serif;"><text text-anchor="middle" font-size="11" dominant-baseline="hanging" stroke="none" fill="rgb(255,255,255)" fill-opacity="1" x="2.738127937316947" y="264.30518617239613">-1</text><text text-anchor="middle" font-size="11" dominant-baseline="hanging" stroke="none" fill="rgb(255,255,255)" fill-opacity="1" x="155.87312793731695" y="264.30518617239613">1</text><text text-anchor="middle" font-size="11" dominant-baseline="hanging" stroke="none" fill="rgb(255,255,255)" fill-opacity="1" x="230.87312793731695" y="264.30518617239613">2</text><text text-anchor="middle" font-size="11" dominant-baseline="hanging" stroke="none" fill="rgb(255,255,255)" fill-opacity="1" x="305.87312793731695" y="264.30518617239613">3</text><text text-anchor="middle" font-size="11" dominant-baseline="hanging" stroke="none" fill="rgb(255,255,255)" fill-opacity="1" x="380.873127937317" y="264.30518617239613">4</text><text text-anchor="middle" font-size="11" dominant-baseline="hanging" stroke="none" fill="rgb(255,255,255)" fill-opacity="1" x="72.87312793731695" y="262.30518617239613">0</text></g><g class="test-ytl" style="font-family: &quot;Open Sans&quot;, verdana, arial, sans-serif;"><text text-anchor="end" dominant-baseline="middle" font-size="11" stroke="none" fill="rgb(255,255,255)" fill-opacity="1" x="72.87312793731695" y="182.30518617239613">1</text><text text-anchor="end" dominant-baseline="middle" font-size="11" stroke="none" fill="rgb(255,255,255)" fill-opacity="1" x="72.87312793731695" y="107.30518617239613">2</text><text text-anchor="end" dominant-baseline="middle" font-size="11" stroke="none" fill="rgb(255,255,255)" fill-opacity="1" x="72.87312793731695" y="32.305186172396134">3</text></g><rect class="real" x="1" y="1" width="419" height="268" style="fill: transparent; stroke: none;"/></g></g></g><g/></g><g/><g/><g/></svg>
        <svg xmlns="http://www.w3.org/2000/svg" xmlns:xlink="http://www.w3.org/1999/xlink" width="700" height="335" style="width:700px;height:335px;font-family:Asana-Math, Asana;background:transparent;"></svg>
</svg>
