<svg xmlns="http://www.w3.org/2000/svg" width="702" height="337" style="width:702px;height:337px;background:0 0;fill:none"><svg xmlns="http://www.w3.org/2000/svg"/><svg xmlns="http://www.w3.org/2000/svg" class="role-diagram-draw-area" style="overflow:visible"><g class="shapes-region" style="stroke:#000;fill:none;--darkreader-inline-stroke:#ffffff;--darkreader-inline-fill:none"><g class="composite-shape" data-amt="diagram/shapes/plot"><g class="test-xti" style="font-family:Asana-Math,Asana"><path stroke="#FFF" d="M0 138.117h417m-354.847-4v8m75-8v8m150-8v8m75-8v8" style="--darkreader-inline-stroke:#131a1d" transform="translate(117 29)"/><path fill="#FFF" stroke="none" d="m412 134.517 8 3.6-8 3.6Z" style="--darkreader-inline-fill:#ffffff;--darkreader-inline-stroke:none" transform="translate(117 29)"/></g><g class="test-yti" style="font-family:Asana-Math,Asana"><path stroke="#FFF" d="M212.153 4v266m-4-56.883h8m-8-150h8" style="--darkreader-inline-stroke:#131a1d" transform="translate(117 29)"/><path fill="#FFF" stroke="none" d="m208.553 9 3.6-8 3.6 8Z" style="--darkreader-inline-fill:#ffffff;--darkreader-inline-stroke:none" transform="translate(117 29)"/></g><g class="test-plot-expression" transform="translate(117 29)"><defs><clipPath id="a"><path d="M1 1h419v268H1z"/></clipPath></defs><g clip-path="url(#a)"><path d="m0 137.98.5-.01.5-.01h.5l.5-.01h.5l.5-.01h.5l.5-.01.51-.01h.5l.5-.01.5-.01.5-.01h.5l.5-.01.5-.01.5-.01.5-.01.5-.01.5-.01.5-.01.5-.01.5-.01.5-.01.5-.01.51-.01.5-.01.5-.01.5-.01.5-.02.5-.01.5-.01.5-.02.5-.01.5-.02.5-.01.5-.02.5-.01.5-.02.5-.02.5-.01.5-.02.51-.02.5-.02.5-.02.5-.02.5-.02.5-.02.5-.02.5-.02.5-.03.5-.02.5-.02.5-.03.5-.02.5-.03.5-.03.5-.03.51-.02.5-.03.5-.03.5-.04.5-.03.5-.03.5-.03.5-.04.5-.03.5-.04.5-.04.5-.03.5-.04.5-.04.5-.04.5-.05.5-.04.51-.04.5-.05.5-.04.5-.05.5-.05.5-.05.5-.05.5-.05.5-.06.5-.05.5-.06.5-.06.5-.05.5-.07.5-.06.5-.06.5-.06.51-.07.5-.07.5-.07.5-.07.5-.07.5-.07.5-.08.5-.08.5-.08.5-.08.5-.08.5-.08.5-.09.5-.09.5-.09.5-.09.5-.09.51-.1.5-.1.5-.1.5-.1.5-.1.5-.11.5-.11.5-.11.5-.11.5-.12.5-.11.5-.12.5-.13.5-.12.5-.13.5-.13.5-.13.51-.13.5-.14.5-.14.5-.14.5-.14.5-.15.5-.15.5-.15.5-.16.5-.16.5-.16.5-.16.5-.17.5-.17.5-.17.5-.18.51-.17.5-.19.5-.18.5-.19.5-.19.5-.19.5-.2.5-.2.5-.2.5-.21.5-.21.5-.21.5-.22.5-.22.5-.22.5-.22.5-.23.51-.24.5-.23.5-.24.5-.25.5-.24.5-.25.5-.26.5-.25.5-.26.5-.27.5-.26.5-.27.5-.28.5-.28.5-.28.5-.28.5-.29.51-.29.5-.3.5-.3.5-.3.5-.31.5-.31.5-.31.5-.32.5-.32.5-.32.5-.33.5-.33.5-.33.5-.34.5-.34.5-.35.5-.35.51-.35.5-.35.5-.36.5-.36.5-.36.5-.37.5-.37.5-.38.5-.37.5-.38.5-.39.5-.38.5-.39.5-.39.5-.4.5-.39.5-.4.51-.41.5-.4.5-.41.5-.41.5-.41.5-.42.5-.42.5-.42.5-.42.5-.42.5-.43.5-.43.5-.43.5-.43.5-.43.5-.44.5-.43.51-.44.5-.44.5-.44.5-.44.5-.44.5-.45.5-.44.5-.44.5-.45.5-.45.5-.44.5-.45.5-.45.5-.44.5-.45.5-.45.51-.44.5-.45.5-.44.5-.45.5-.44.5-.44.5-.45.5-.44.5-.43.5-.44.5-.44.5-.43.5-.43.5-.43.5-.43.5-.43.5-.42.51-.42.5-.42.5-.41.5-.41.5-.41.5-.4.5-.4.5-.4.5-.39.5-.39.5-.39.5-.38.5-.37.5-.37.5-.37.5-.36.5-.35.51-.35.5-.35.5-.34.5-.33.5-.33.5-.32.5-.31.5-.31.5-.3.5-.29.5-.29.5-.28.5-.27.5-.27.5-.25.5-.25.5-.24.51-.23.5-.23.5-.22.5-.2.5-.2.5-.19.5-.18.5-.17.5-.16.5-.16.5-.14.5-.13.5-.12.5-.12.5-.1.5-.09.5-.08.51-.07.5-.06.5-.05.5-.04.5-.03.5-.01h1l.5.02.5.03.5.04.5.06.5.07.5.07.5.09.5.11.51.11.5.13.5.14.5.15.5.17.5.17.5.19.5.21.5.21.5.23.5.24.5.26.5.27.5.28.5.29.5.31.5.32.51.33.5.34.5.36.5.37.5.39.5.4.5.41.5.42.5.44.5.45.5.46.5.48.5.48.5.5.5.52.5.52.5.54.51.55.5.57.5.57.5.59.5.6.5.61.5.63.5.63.5.65.5.66.5.67.5.68.5.69.5.71.5.71.5.73.5.73.51.75.5.76.5.76.5.78.5.79.5.79.5.81.5.81.5.83.5.83.5.84.5.85.5.86.5.87.5.87.5.89.5.89.51.89.5.91.5.91.5.92.5.92.5.93.5.94.5.94.5.94.5.96.5.95.5.96.5.97.5.97.5.97.5.98.5.98.51.99.5.98.5.99.5 1 .5.99.5 1 .5.99.5 1 .5 1 .5 1 .5 1 .5 1 .5 1.01.5 1 .5 1 .5 1 .51.99.5 1 .5 1 .5.99.5.99.5.99.5.99.5.98.5.98.5.97.5.98.5.97.5.96.5.96.5.95.5.95.5.95.51.94.5.93.5.93.5.92.5.92.5.9.5.91.5.89.5.89.5.88.5.87.5.86.5.86.5.84.5.84.5.83.5.82.51.81.5.81.5.79.5.78.5.78.5.76.5.75.5.74.5.74.5.72.5.71.5.7.5.69.5.67.5.67.5.65.5.65.51.63.5.62.5.6.5.6.5.58.5.57.5.56.5.55.5.53.5.52.5.51.5.5.5.48.5.47.5.46.5.44.5.43.51.42.5.41.5.39.5.38.5.36.5.36.5.34.5.33.5.31.5.3.5.29.5.28.5.26.5.25.5.23.5.23.5.21.51.2.5.18.5.18.5.16.5.14.5.14.5.12.5.11.5.1.5.08.5.08.5.06.5.05.5.04.5.02.5.02h.51l.5-.01.5-.02.5-.03.5-.04.5-.06.5-.06.5-.07.5-.09.5-.1.5-.1.5-.12.5-.13.5-.13.5-.15.5-.15.5-.17.51-.17.5-.19.5-.19.5-.2.5-.21.5-.22.5-.23.5-.24.5-.24.5-.25.5-.26.5-.27.5-.28.5-.28.5-.29.5-.29.5-.31.51-.31.5-.31.5-.33.5-.33.5-.33.5-.34.5-.35.5-.35.5-.36.5-.36.5-.37.5-.37.5-.38.5-.38.5-.39.5-.39.5-.39.51-.4.5-.4.5-.41.5-.41.5-.41.5-.41.5-.42.5-.42.5-.43.5-.42.5-.43.5-.43.5-.43.5-.44.5-.44.5-.43.5-.44.51-.44.5-.45.5-.44.5-.44.5-.45.5-.44.5-.45.5-.45.5-.44.5-.45.5-.45.5-.44.5-.45.5-.44.5-.45.5-.45.51-.44.5-.44.5-.45.5-.44.5-.44.5-.44.5-.44.5-.44.5-.43.5-.44.5-.43.5-.43.5-.43.5-.42.5-.43.5-.42.5-.42.51-.42.5-.42.5-.41.5-.42.5-.41.5-.4.5-.41.5-.4.5-.4.5-.39.5-.4.5-.39.5-.39.5-.38.5-.38.5-.38.5-.38.51-.37.5-.37.5-.37.5-.36.5-.36.5-.35.5-.36.5-.35.5-.34.5-.35.5-.34.5-.33.5-.34.5-.33.5-.32.5-.32.5-.32.51-.32.5-.31.5-.31.5-.3.5-.3.5-.3.5-.3.5-.29.5-.28.5-.29.5-.28.5-.27.5-.28.5-.27.5-.26.5-.27.5-.25.51-.26.5-.25.5-.25.5-.25.5-.24.5-.24.5-.23.5-.23.5-.23.5-.22.5-.23.5-.21.5-.22.5-.21.5-.21.5-.2.5-.21.51-.19.5-.2.5-.19.5-.19.5-.19.5-.18.5-.18.5-.18.5-.17.5-.17.5-.17.5-.17.5-.16.5-.16.5-.16.5-.15.51-.15.5-.15.5-.15.5-.14.5-.14.5-.14.5-.14.5-.13.5-.13.5-.13.5-.12.5-.13.5-.12.5-.12.5-.11.5-.12.5-.11.51-.11.5-.11.5-.1.5-.11.5-.1.5-.1.5-.09.5-.1.5-.09.5-.09.5-.09.5-.09.5-.08.5-.09.5-.08.5-.08.5-.08.51-.07.5-.08.5-.07.5-.07.5-.07.5-.07.5-.07.5-.07.5-.06.5-.06.5-.06.5-.06.5-.06.5-.06.5-.05.5-.06.5-.05.51-.05.5-.05.5-.05.5-.05.5-.05.5-.05.5-.04.5-.04.5-.05.5-.04.5-.04.5-.04.5-.04.5-.03.5-.04.5-.04.5-.03.51-.04.5-.03.5-.03.5-.03.5-.03.5-.03.5-.03.5-.03.5-.03.5-.02.5-.03.5-.03.5-.02.5-.02.5-.03.5-.02.51-.02.5-.02.5-.03.5-.02.5-.02.5-.01.5-.02.5-.02.5-.02.5-.02.5-.01.5-.02.5-.02.5-.01.5-.02.5-.01.5-.01.51-.02.5-.01.5-.01.5-.02.5-.01.5-.01.5-.01.5-.01.5-.01.5-.01.5-.01.5-.01.5-.01.5-.01.5-.01.5-.01.5-.01.51-.01h.5l.5-.01.5-.01.5-.01h.5l.5-.01.5-.01h.5" style="stroke-width:3;stroke:#4a90e2;stroke-opacity:.8;--darkreader-inline-stroke:#51d6ff"/></g></g><g fill="#FFF" stroke="none" class="test-xtl" dominant-baseline="hanging" font-size="11" style="font-family:&quot;Open Sans&quot;,verdana,arial,sans-serif" text-anchor="middle"><text x="59.018" y="145.117" style="--darkreader-inline-fill:#ffffff;--darkreader-inline-stroke:none" transform="translate(117 29)">-2</text><text x="134.018" y="145.117" style="--darkreader-inline-fill:#ffffff;--darkreader-inline-stroke:none" transform="translate(117 29)">-1</text><text x="287.153" y="145.117" style="--darkreader-inline-fill:#ffffff;--darkreader-inline-stroke:none" transform="translate(117 29)">1</text><text x="362.153" y="145.117" style="--darkreader-inline-fill:#ffffff;--darkreader-inline-stroke:none" transform="translate(117 29)">2</text><text x="204.153" y="143.117" style="--darkreader-inline-fill:#ffffff;--darkreader-inline-stroke:none" transform="translate(117 29)">0</text></g><g fill="#FFF" stroke="none" class="test-ytl" dominant-baseline="middle" font-size="11" style="font-family:&quot;Open Sans&quot;,verdana,arial,sans-serif" text-anchor="end"><text x="204.153" y="213.117" style="--darkreader-inline-fill:#ffffff;--darkreader-inline-stroke:none" transform="translate(117 29)">-1</text><text x="204.153" y="63.117" style="--darkreader-inline-fill:#ffffff;--darkreader-inline-stroke:none" transform="translate(117 29)">1</text></g><path stroke="none" d="M1 1h419v268H1z" class="real" style="fill:transparent;stroke:none;--darkreader-inline-fill:transparent;--darkreader-inline-stroke:none" transform="translate(117 29)"/></g></g></svg><svg xmlns="http://www.w3.org/2000/svg" xmlns:xlink="http://www.w3.org/1999/xlink" width="700" height="335" style="width:700px;height:335px;font-family:Asana-Math,Asana;background:0 0"/></svg>