<svg xmlns="http://www.w3.org/2000/svg" xmlns:xlink="http://www.w3.org/1999/xlink" x="0" y="0" width="702" height="337" style="
        width:702px;
        height:337px;
        background: transparent;
        fill: none;
">
        <svg xmlns="http://www.w3.org/2000/svg"/>
        
        <svg xmlns="http://www.w3.org/2000/svg" class="role-diagram-draw-area" style="overflow: visible;"><g class="shapes-region" style="stroke: black; fill: none; --darkreader-inline-stroke: #ffffff; --darkreader-inline-fill: none;" data-darkreader-inline-stroke="" data-darkreader-inline-fill=""><g class="composite-shape" data-amt="diagram/shapes/plot" transform="matrix(1,0,0,1,117,29)"><g><g/><g><g class="test-xti" style="font-family: Asana-Math, Asana;"><line x1="0" y1="138.11745651396865" x2="417" y2="138.11745651396865" fill="none" stroke="rgb(255,255,255)" stroke-opacity="1" stroke-width="1" data-darkreader-inline-stroke="" style="--darkreader-inline-stroke: #131a1d;"/><line x1="62.15344267407976" y1="134.11745651396865" x2="62.15344267407976" y2="142.11745651396865" fill="none" stroke="rgb(255,255,255)" stroke-opacity="1" stroke-width="1" data-darkreader-inline-stroke="" style="--darkreader-inline-stroke: #131a1d;"/><line x1="137.15344267407977" y1="134.11745651396865" x2="137.15344267407977" y2="142.11745651396865" fill="none" stroke="rgb(255,255,255)" stroke-opacity="1" stroke-width="1" data-darkreader-inline-stroke="" style="--darkreader-inline-stroke: #131a1d;"/><line x1="287.15344267407977" y1="134.11745651396865" x2="287.15344267407977" y2="142.11745651396865" fill="none" stroke="rgb(255,255,255)" stroke-opacity="1" stroke-width="1" data-darkreader-inline-stroke="" style="--darkreader-inline-stroke: #131a1d;"/><line x1="362.15344267407977" y1="134.11745651396865" x2="362.15344267407977" y2="142.11745651396865" fill="none" stroke="rgb(255,255,255)" stroke-opacity="1" stroke-width="1" data-darkreader-inline-stroke="" style="--darkreader-inline-stroke: #131a1d;"/><path d="M412,134.51745651396865 L420,138.11745651396865 L412,141.71745651396864 Z" stroke="none" stroke-width="1" fill="rgb(255,255,255)" fill-opacity="1" data-darkreader-inline-fill="" data-darkreader-inline-stroke="" style="--darkreader-inline-fill: #ffffff; --darkreader-inline-stroke: none;"/></g><g class="test-yti" style="font-family: Asana-Math, Asana;"><line x1="212.15344267407977" y1="4" x2="212.15344267407977" y2="270" fill="none" stroke="rgb(255,255,255)" stroke-opacity="1" stroke-width="1" data-darkreader-inline-stroke="" style="--darkreader-inline-stroke: #131a1d;"/><line x1="208.15344267407977" y1="213.11745651396865" x2="216.15344267407977" y2="213.11745651396865" fill="none" stroke="rgb(255,255,255)" stroke-opacity="1" stroke-width="1" data-darkreader-inline-stroke="" style="--darkreader-inline-stroke: #131a1d;"/><line x1="208.15344267407977" y1="63.11745651396865" x2="216.15344267407977" y2="63.11745651396865" fill="none" stroke="rgb(255,255,255)" stroke-opacity="1" stroke-width="1" data-darkreader-inline-stroke="" style="--darkreader-inline-stroke: #131a1d;"/><path d="M208.55344267407978,9 L212.15344267407977,1 L215.75344267407976,9 Z" stroke="none" stroke-width="1" fill="rgb(255,255,255)" fill-opacity="1" data-darkreader-inline-fill="" data-darkreader-inline-stroke="" style="--darkreader-inline-fill: #ffffff; --darkreader-inline-stroke: none;"/></g><g class="test-plot-expression"><defs><clipPath id="cpr05kap1ypdg-full-view"><rect x="1" y="1" width="419" height="268"/></clipPath></defs><g clip-path="url(#cpr05kap1ypdg-full-view)"><path d=" M0.00,137.98 L0.50,137.97 L1.00,137.96 L1.50,137.96 L2.00,137.95 L2.50,137.95 L3.00,137.94 L3.50,137.94 L4.00,137.93 L4.51,137.92 L5.01,137.92 L5.51,137.91 L6.01,137.90 L6.51,137.89 L7.01,137.89 L7.51,137.88 L8.01,137.87 L8.51,137.86 L9.01,137.85 L9.51,137.84 L10.01,137.83 L10.51,137.82 L11.01,137.81 L11.51,137.80 L12.01,137.79 L12.51,137.78 L13.02,137.77 L13.52,137.76 L14.02,137.75 L14.52,137.74 L15.02,137.72 L15.52,137.71 L16.02,137.70 L16.52,137.68 L17.02,137.67 L17.52,137.65 L18.02,137.64 L18.52,137.62 L19.02,137.61 L19.52,137.59 L20.02,137.57 L20.52,137.56 L21.02,137.54 L21.53,137.52 L22.03,137.50 L22.53,137.48 L23.03,137.46 L23.53,137.44 L24.03,137.42 L24.53,137.40 L25.03,137.38 L25.53,137.35 L26.03,137.33 L26.53,137.31 L27.03,137.28 L27.53,137.26 L28.03,137.23 L28.53,137.20 L29.03,137.17 L29.54,137.15 L30.04,137.12 L30.54,137.09 L31.04,137.05 L31.54,137.02 L32.04,136.99 L32.54,136.96 L33.04,136.92 L33.54,136.89 L34.04,136.85 L34.54,136.81 L35.04,136.78 L35.54,136.74 L36.04,136.70 L36.54,136.66 L37.04,136.61 L37.54,136.57 L38.05,136.53 L38.55,136.48 L39.05,136.44 L39.55,136.39 L40.05,136.34 L40.55,136.29 L41.05,136.24 L41.55,136.19 L42.05,136.13 L42.55,136.08 L43.05,136.02 L43.55,135.96 L44.05,135.91 L44.55,135.84 L45.05,135.78 L45.55,135.72 L46.05,135.66 L46.56,135.59 L47.06,135.52 L47.56,135.45 L48.06,135.38 L48.56,135.31 L49.06,135.24 L49.56,135.16 L50.06,135.08 L50.56,135.00 L51.06,134.92 L51.56,134.84 L52.06,134.76 L52.56,134.67 L53.06,134.58 L53.56,134.49 L54.06,134.40 L54.56,134.31 L55.07,134.21 L55.57,134.11 L56.07,134.01 L56.57,133.91 L57.07,133.81 L57.57,133.70 L58.07,133.59 L58.57,133.48 L59.07,133.37 L59.57,133.25 L60.07,133.14 L60.57,133.02 L61.07,132.89 L61.57,132.77 L62.07,132.64 L62.57,132.51 L63.07,132.38 L63.58,132.25 L64.08,132.11 L64.58,131.97 L65.08,131.83 L65.58,131.69 L66.08,131.54 L66.58,131.39 L67.08,131.24 L67.58,131.08 L68.08,130.92 L68.58,130.76 L69.08,130.60 L69.58,130.43 L70.08,130.26 L70.58,130.09 L71.08,129.91 L71.59,129.74 L72.09,129.55 L72.59,129.37 L73.09,129.18 L73.59,128.99 L74.09,128.80 L74.59,128.60 L75.09,128.40 L75.59,128.20 L76.09,127.99 L76.59,127.78 L77.09,127.57 L77.59,127.35 L78.09,127.13 L78.59,126.91 L79.09,126.69 L79.59,126.46 L80.10,126.22 L80.60,125.99 L81.10,125.75 L81.60,125.50 L82.10,125.26 L82.60,125.01 L83.10,124.75 L83.60,124.50 L84.10,124.24 L84.60,123.97 L85.10,123.71 L85.60,123.44 L86.10,123.16 L86.60,122.88 L87.10,122.60 L87.60,122.32 L88.10,122.03 L88.61,121.74 L89.11,121.44 L89.61,121.14 L90.11,120.84 L90.61,120.53 L91.11,120.22 L91.61,119.91 L92.11,119.59 L92.61,119.27 L93.11,118.95 L93.61,118.62 L94.11,118.29 L94.61,117.96 L95.11,117.62 L95.61,117.28 L96.11,116.93 L96.61,116.58 L97.12,116.23 L97.62,115.88 L98.12,115.52 L98.62,115.16 L99.12,114.80 L99.62,114.43 L100.12,114.06 L100.62,113.68 L101.12,113.31 L101.62,112.93 L102.12,112.54 L102.62,112.16 L103.12,111.77 L103.62,111.38 L104.12,110.98 L104.62,110.59 L105.12,110.19 L105.63,109.78 L106.13,109.38 L106.63,108.97 L107.13,108.56 L107.63,108.15 L108.13,107.73 L108.63,107.31 L109.13,106.89 L109.63,106.47 L110.13,106.05 L110.63,105.62 L111.13,105.19 L111.63,104.76 L112.13,104.33 L112.63,103.90 L113.13,103.46 L113.63,103.03 L114.14,102.59 L114.64,102.15 L115.14,101.71 L115.64,101.27 L116.14,100.83 L116.64,100.38 L117.14,99.94 L117.64,99.50 L118.14,99.05 L118.64,98.60 L119.14,98.16 L119.64,97.71 L120.14,97.26 L120.64,96.82 L121.14,96.37 L121.64,95.92 L122.15,95.48 L122.65,95.03 L123.15,94.59 L123.65,94.14 L124.15,93.70 L124.65,93.26 L125.15,92.81 L125.65,92.37 L126.15,91.94 L126.65,91.50 L127.15,91.06 L127.65,90.63 L128.15,90.20 L128.65,89.77 L129.15,89.34 L129.65,88.91 L130.15,88.49 L130.66,88.07 L131.16,87.65 L131.66,87.24 L132.16,86.83 L132.66,86.42 L133.16,86.02 L133.66,85.62 L134.16,85.22 L134.66,84.83 L135.16,84.44 L135.66,84.05 L136.16,83.67 L136.66,83.30 L137.16,82.93 L137.66,82.56 L138.16,82.20 L138.66,81.85 L139.17,81.50 L139.67,81.15 L140.17,80.81 L140.67,80.48 L141.17,80.15 L141.67,79.83 L142.17,79.52 L142.67,79.21 L143.17,78.91 L143.67,78.62 L144.17,78.33 L144.67,78.05 L145.17,77.78 L145.67,77.51 L146.17,77.26 L146.67,77.01 L147.17,76.77 L147.68,76.54 L148.18,76.31 L148.68,76.09 L149.18,75.89 L149.68,75.69 L150.18,75.50 L150.68,75.32 L151.18,75.15 L151.68,74.99 L152.18,74.83 L152.68,74.69 L153.18,74.56 L153.68,74.44 L154.18,74.32 L154.68,74.22 L155.18,74.13 L155.68,74.05 L156.19,73.98 L156.69,73.92 L157.19,73.87 L157.69,73.83 L158.19,73.80 L158.69,73.79 L159.19,73.79 L159.69,73.79 L160.19,73.81 L160.69,73.84 L161.19,73.88 L161.69,73.94 L162.19,74.01 L162.69,74.08 L163.19,74.17 L163.69,74.28 L164.20,74.39 L164.70,74.52 L165.20,74.66 L165.70,74.81 L166.20,74.98 L166.70,75.15 L167.20,75.34 L167.70,75.55 L168.20,75.76 L168.70,75.99 L169.20,76.23 L169.70,76.49 L170.20,76.76 L170.70,77.04 L171.20,77.33 L171.70,77.64 L172.20,77.96 L172.71,78.29 L173.21,78.63 L173.71,78.99 L174.21,79.36 L174.71,79.75 L175.21,80.15 L175.71,80.56 L176.21,80.98 L176.71,81.42 L177.21,81.87 L177.71,82.33 L178.21,82.81 L178.71,83.29 L179.21,83.79 L179.71,84.31 L180.21,84.83 L180.71,85.37 L181.22,85.92 L181.72,86.49 L182.22,87.06 L182.72,87.65 L183.22,88.25 L183.72,88.86 L184.22,89.49 L184.72,90.12 L185.22,90.77 L185.72,91.43 L186.22,92.10 L186.72,92.78 L187.22,93.47 L187.72,94.18 L188.22,94.89 L188.72,95.62 L189.22,96.35 L189.73,97.10 L190.23,97.86 L190.73,98.62 L191.23,99.40 L191.73,100.19 L192.23,100.98 L192.73,101.79 L193.23,102.60 L193.73,103.43 L194.23,104.26 L194.73,105.10 L195.23,105.95 L195.73,106.81 L196.23,107.68 L196.73,108.55 L197.23,109.44 L197.73,110.33 L198.24,111.22 L198.74,112.13 L199.24,113.04 L199.74,113.96 L200.24,114.88 L200.74,115.81 L201.24,116.75 L201.74,117.69 L202.24,118.63 L202.74,119.59 L203.24,120.54 L203.74,121.50 L204.24,122.47 L204.74,123.44 L205.24,124.41 L205.74,125.39 L206.24,126.37 L206.75,127.36 L207.25,128.34 L207.75,129.33 L208.25,130.33 L208.75,131.32 L209.25,132.32 L209.75,133.31 L210.25,134.31 L210.75,135.31 L211.25,136.31 L211.75,137.31 L212.25,138.31 L212.75,139.32 L213.25,140.32 L213.75,141.32 L214.25,142.32 L214.76,143.31 L215.26,144.31 L215.76,145.31 L216.26,146.30 L216.76,147.29 L217.26,148.28 L217.76,149.27 L218.26,150.25 L218.76,151.23 L219.26,152.20 L219.76,153.18 L220.26,154.15 L220.76,155.11 L221.26,156.07 L221.76,157.02 L222.26,157.97 L222.76,158.92 L223.27,159.86 L223.77,160.79 L224.27,161.72 L224.77,162.64 L225.27,163.56 L225.77,164.46 L226.27,165.37 L226.77,166.26 L227.27,167.15 L227.77,168.03 L228.27,168.90 L228.77,169.76 L229.27,170.62 L229.77,171.46 L230.27,172.30 L230.77,173.13 L231.27,173.95 L231.78,174.76 L232.28,175.57 L232.78,176.36 L233.28,177.14 L233.78,177.92 L234.28,178.68 L234.78,179.43 L235.28,180.17 L235.78,180.91 L236.28,181.63 L236.78,182.34 L237.28,183.04 L237.78,183.73 L238.28,184.40 L238.78,185.07 L239.28,185.72 L239.78,186.37 L240.29,187.00 L240.79,187.62 L241.29,188.22 L241.79,188.82 L242.29,189.40 L242.79,189.97 L243.29,190.53 L243.79,191.08 L244.29,191.61 L244.79,192.13 L245.29,192.64 L245.79,193.14 L246.29,193.62 L246.79,194.09 L247.29,194.55 L247.79,194.99 L248.29,195.42 L248.80,195.84 L249.30,196.25 L249.80,196.64 L250.30,197.02 L250.80,197.38 L251.30,197.74 L251.80,198.08 L252.30,198.41 L252.80,198.72 L253.30,199.02 L253.80,199.31 L254.30,199.59 L254.80,199.85 L255.30,200.10 L255.80,200.33 L256.30,200.56 L256.80,200.77 L257.31,200.97 L257.81,201.15 L258.31,201.33 L258.81,201.49 L259.31,201.63 L259.81,201.77 L260.31,201.89 L260.81,202.00 L261.31,202.10 L261.81,202.18 L262.31,202.26 L262.81,202.32 L263.31,202.37 L263.81,202.41 L264.31,202.43 L264.81,202.45 L265.32,202.45 L265.82,202.44 L266.32,202.42 L266.82,202.39 L267.32,202.35 L267.82,202.29 L268.32,202.23 L268.82,202.16 L269.32,202.07 L269.82,201.97 L270.32,201.87 L270.82,201.75 L271.32,201.62 L271.82,201.49 L272.32,201.34 L272.82,201.19 L273.32,201.02 L273.83,200.85 L274.33,200.66 L274.83,200.47 L275.33,200.27 L275.83,200.06 L276.33,199.84 L276.83,199.61 L277.33,199.37 L277.83,199.13 L278.33,198.88 L278.83,198.62 L279.33,198.35 L279.83,198.07 L280.33,197.79 L280.83,197.50 L281.33,197.21 L281.83,196.90 L282.34,196.59 L282.84,196.28 L283.34,195.95 L283.84,195.62 L284.34,195.29 L284.84,194.95 L285.34,194.60 L285.84,194.25 L286.34,193.89 L286.84,193.53 L287.34,193.16 L287.84,192.79 L288.34,192.41 L288.84,192.03 L289.34,191.64 L289.84,191.25 L290.34,190.86 L290.85,190.46 L291.35,190.06 L291.85,189.65 L292.35,189.24 L292.85,188.83 L293.35,188.42 L293.85,188.00 L294.35,187.58 L294.85,187.15 L295.35,186.73 L295.85,186.30 L296.35,185.87 L296.85,185.44 L297.35,185.00 L297.85,184.56 L298.35,184.13 L298.85,183.69 L299.36,183.25 L299.86,182.80 L300.36,182.36 L300.86,181.92 L301.36,181.47 L301.86,181.03 L302.36,180.58 L302.86,180.13 L303.36,179.69 L303.86,179.24 L304.36,178.79 L304.86,178.35 L305.36,177.90 L305.86,177.46 L306.36,177.01 L306.86,176.56 L307.37,176.12 L307.87,175.68 L308.37,175.23 L308.87,174.79 L309.37,174.35 L309.87,173.91 L310.37,173.47 L310.87,173.03 L311.37,172.60 L311.87,172.16 L312.37,171.73 L312.87,171.30 L313.37,170.87 L313.87,170.45 L314.37,170.02 L314.87,169.60 L315.37,169.18 L315.88,168.76 L316.38,168.34 L316.88,167.93 L317.38,167.51 L317.88,167.10 L318.38,166.70 L318.88,166.29 L319.38,165.89 L319.88,165.49 L320.38,165.10 L320.88,164.70 L321.38,164.31 L321.88,163.92 L322.38,163.54 L322.88,163.16 L323.38,162.78 L323.88,162.40 L324.39,162.03 L324.89,161.66 L325.39,161.29 L325.89,160.93 L326.39,160.57 L326.89,160.22 L327.39,159.86 L327.89,159.51 L328.39,159.17 L328.89,158.82 L329.39,158.48 L329.89,158.15 L330.39,157.81 L330.89,157.48 L331.39,157.16 L331.89,156.84 L332.39,156.52 L332.90,156.20 L333.40,155.89 L333.90,155.58 L334.40,155.28 L334.90,154.98 L335.40,154.68 L335.90,154.38 L336.40,154.09 L336.90,153.81 L337.40,153.52 L337.90,153.24 L338.40,152.97 L338.90,152.69 L339.40,152.42 L339.90,152.16 L340.40,151.89 L340.90,151.64 L341.41,151.38 L341.91,151.13 L342.41,150.88 L342.91,150.63 L343.41,150.39 L343.91,150.15 L344.41,149.92 L344.91,149.69 L345.41,149.46 L345.91,149.24 L346.41,149.01 L346.91,148.80 L347.41,148.58 L347.91,148.37 L348.41,148.16 L348.91,147.96 L349.41,147.75 L349.92,147.56 L350.42,147.36 L350.92,147.17 L351.42,146.98 L351.92,146.79 L352.42,146.61 L352.92,146.43 L353.42,146.25 L353.92,146.08 L354.42,145.91 L354.92,145.74 L355.42,145.57 L355.92,145.41 L356.42,145.25 L356.92,145.09 L357.42,144.94 L357.93,144.79 L358.43,144.64 L358.93,144.49 L359.43,144.35 L359.93,144.21 L360.43,144.07 L360.93,143.93 L361.43,143.80 L361.93,143.67 L362.43,143.54 L362.93,143.42 L363.43,143.29 L363.93,143.17 L364.43,143.05 L364.93,142.94 L365.43,142.82 L365.93,142.71 L366.44,142.60 L366.94,142.49 L367.44,142.39 L367.94,142.28 L368.44,142.18 L368.94,142.08 L369.44,141.99 L369.94,141.89 L370.44,141.80 L370.94,141.71 L371.44,141.62 L371.94,141.53 L372.44,141.45 L372.94,141.36 L373.44,141.28 L373.94,141.20 L374.44,141.12 L374.95,141.05 L375.45,140.97 L375.95,140.90 L376.45,140.83 L376.95,140.76 L377.45,140.69 L377.95,140.62 L378.45,140.55 L378.95,140.49 L379.45,140.43 L379.95,140.37 L380.45,140.31 L380.95,140.25 L381.45,140.19 L381.95,140.14 L382.45,140.08 L382.95,140.03 L383.46,139.98 L383.96,139.93 L384.46,139.88 L384.96,139.83 L385.46,139.78 L385.96,139.73 L386.46,139.69 L386.96,139.65 L387.46,139.60 L387.96,139.56 L388.46,139.52 L388.96,139.48 L389.46,139.44 L389.96,139.41 L390.46,139.37 L390.96,139.33 L391.46,139.30 L391.97,139.26 L392.47,139.23 L392.97,139.20 L393.47,139.17 L393.97,139.14 L394.47,139.11 L394.97,139.08 L395.47,139.05 L395.97,139.02 L396.47,139.00 L396.97,138.97 L397.47,138.94 L397.97,138.92 L398.47,138.90 L398.97,138.87 L399.47,138.85 L399.98,138.83 L400.48,138.81 L400.98,138.78 L401.48,138.76 L401.98,138.74 L402.48,138.73 L402.98,138.71 L403.48,138.69 L403.98,138.67 L404.48,138.65 L404.98,138.64 L405.48,138.62 L405.98,138.60 L406.48,138.59 L406.98,138.57 L407.48,138.56 L407.98,138.55 L408.49,138.53 L408.99,138.52 L409.49,138.51 L409.99,138.49 L410.49,138.48 L410.99,138.47 L411.49,138.46 L411.99,138.45 L412.49,138.44 L412.99,138.43 L413.49,138.42 L413.99,138.41 L414.49,138.40 L414.99,138.39 L415.49,138.38 L415.99,138.37 L416.49,138.36 L417.00,138.35 L417.50,138.35 L418.00,138.34 L418.50,138.33 L419.00,138.32 L419.50,138.32 L420.00,138.31 L420.50,138.30 L421.00,138.30" style="stroke-width: 3; stroke: rgb(74, 144, 226); stroke-opacity: 0.8; --darkreader-inline-stroke: #51d6ff;" data-darkreader-inline-stroke=""/></g></g><g class="test-xtl" style="font-family: &quot;Open Sans&quot;, verdana, arial, sans-serif;"><text text-anchor="middle" font-size="11" dominant-baseline="hanging" stroke="none" fill="rgb(255,255,255)" fill-opacity="1" x="59.018442674079765" y="145.11745651396865" data-darkreader-inline-fill="" data-darkreader-inline-stroke="" style="--darkreader-inline-fill: #ffffff; --darkreader-inline-stroke: none;">-2</text><text text-anchor="middle" font-size="11" dominant-baseline="hanging" stroke="none" fill="rgb(255,255,255)" fill-opacity="1" x="134.01844267407978" y="145.11745651396865" data-darkreader-inline-fill="" data-darkreader-inline-stroke="" style="--darkreader-inline-fill: #ffffff; --darkreader-inline-stroke: none;">-1</text><text text-anchor="middle" font-size="11" dominant-baseline="hanging" stroke="none" fill="rgb(255,255,255)" fill-opacity="1" x="287.15344267407977" y="145.11745651396865" data-darkreader-inline-fill="" data-darkreader-inline-stroke="" style="--darkreader-inline-fill: #ffffff; --darkreader-inline-stroke: none;">1</text><text text-anchor="middle" font-size="11" dominant-baseline="hanging" stroke="none" fill="rgb(255,255,255)" fill-opacity="1" x="362.15344267407977" y="145.11745651396865" data-darkreader-inline-fill="" data-darkreader-inline-stroke="" style="--darkreader-inline-fill: #ffffff; --darkreader-inline-stroke: none;">2</text><text text-anchor="middle" font-size="11" dominant-baseline="hanging" stroke="none" fill="rgb(255,255,255)" fill-opacity="1" x="204.15344267407977" y="143.11745651396865" data-darkreader-inline-fill="" data-darkreader-inline-stroke="" style="--darkreader-inline-fill: #ffffff; --darkreader-inline-stroke: none;">0</text></g><g class="test-ytl" style="font-family: &quot;Open Sans&quot;, verdana, arial, sans-serif;"><text text-anchor="end" dominant-baseline="middle" font-size="11" stroke="none" fill="rgb(255,255,255)" fill-opacity="1" x="204.15344267407977" y="213.11745651396865" data-darkreader-inline-fill="" data-darkreader-inline-stroke="" style="--darkreader-inline-fill: #ffffff; --darkreader-inline-stroke: none;">-1</text><text text-anchor="end" dominant-baseline="middle" font-size="11" stroke="none" fill="rgb(255,255,255)" fill-opacity="1" x="204.15344267407977" y="63.11745651396865" data-darkreader-inline-fill="" data-darkreader-inline-stroke="" style="--darkreader-inline-fill: #ffffff; --darkreader-inline-stroke: none;">1</text></g><rect class="real" x="1" y="1" width="419" height="268" style="fill: transparent; stroke: none; --darkreader-inline-fill: transparent; --darkreader-inline-stroke: none;" data-darkreader-inline-fill="" data-darkreader-inline-stroke=""/></g></g></g><g/></g><g/><g/><g/></svg>
        <svg xmlns="http://www.w3.org/2000/svg" xmlns:xlink="http://www.w3.org/1999/xlink" width="700" height="335" style="width:700px;height:335px;font-family:Asana-Math, Asana;background:transparent;"></svg>
</svg>
