<svg xmlns="http://www.w3.org/2000/svg" xmlns:xlink="http://www.w3.org/1999/xlink" x="0" y="0" width="702" height="337" style="
        width:702px;
        height:337px;
        background: transparent;
        fill: none;
">
        <svg xmlns="http://www.w3.org/2000/svg"/>
        
        <svg xmlns="http://www.w3.org/2000/svg" class="role-diagram-draw-area" style="overflow: visible;"><g class="shapes-region" style="stroke: black; fill: none; --darkreader-inline-stroke: #ffffff; --darkreader-inline-fill: none;" data-darkreader-inline-stroke="" data-darkreader-inline-fill=""><g class="composite-shape" data-amt="diagram/shapes/plot" transform="matrix(1,0,0,1,117,29)"><g><g/><g><g class="test-xti" style="font-family: Asana-Math, Asana;"><line x1="0" y1="193.67195364598277" x2="417" y2="193.67195364598277" fill="none" stroke="rgb(255,255,255)" stroke-opacity="1" stroke-width="1" data-darkreader-inline-stroke="" style="--darkreader-inline-stroke: #131a1d;"/><line x1="98.97259832701697" y1="189.67195364598277" x2="98.97259832701697" y2="197.67195364598277" fill="none" stroke="rgb(255,255,255)" stroke-opacity="1" stroke-width="1" data-darkreader-inline-stroke="" style="--darkreader-inline-stroke: #131a1d;"/><line x1="323.9725983270169" y1="189.67195364598277" x2="323.9725983270169" y2="197.67195364598277" fill="none" stroke="rgb(255,255,255)" stroke-opacity="1" stroke-width="1" data-darkreader-inline-stroke="" style="--darkreader-inline-stroke: #131a1d;"/><path d="M412,190.07195364598277 L420,193.67195364598277 L412,197.27195364598276 Z" stroke="none" stroke-width="1" fill="rgb(255,255,255)" fill-opacity="1" data-darkreader-inline-fill="" data-darkreader-inline-stroke="" style="--darkreader-inline-fill: #ffffff; --darkreader-inline-stroke: none;"/></g><g class="test-yti" style="font-family: Asana-Math, Asana;"><line x1="211.47259832701695" y1="4" x2="211.47259832701695" y2="270" fill="none" stroke="rgb(255,255,255)" stroke-opacity="1" stroke-width="1" data-darkreader-inline-stroke="" style="--darkreader-inline-stroke: #131a1d;"/><line x1="207.47259832701695" y1="81.17195364598277" x2="215.47259832701695" y2="81.17195364598277" fill="none" stroke="rgb(255,255,255)" stroke-opacity="1" stroke-width="1" data-darkreader-inline-stroke="" style="--darkreader-inline-stroke: #131a1d;"/><path d="M207.87259832701696,9 L211.47259832701695,1 L215.07259832701695,9 Z" stroke="none" stroke-width="1" fill="rgb(255,255,255)" fill-opacity="1" data-darkreader-inline-fill="" data-darkreader-inline-stroke="" style="--darkreader-inline-fill: #ffffff; --darkreader-inline-stroke: none;"/></g><g class="test-plot-expression"><defs><clipPath id="cpr05kap1ypdg-full-view"><rect x="1" y="1" width="419" height="268"/></clipPath></defs><g clip-path="url(#cpr05kap1ypdg-full-view)"><path d=" M0.00,200.20 L0.50,200.41 L1.00,200.61 L1.50,200.81 L2.00,201.01 L2.50,201.19 L3.00,201.38 L3.50,201.56 L4.00,201.73 L4.51,201.90 L5.01,202.06 L5.51,202.22 L6.01,202.37 L6.51,202.51 L7.01,202.65 L7.51,202.78 L8.01,202.91 L8.51,203.03 L9.01,203.14 L9.51,203.25 L10.01,203.34 L10.51,203.44 L11.01,203.52 L11.51,203.60 L12.01,203.67 L12.51,203.73 L13.02,203.78 L13.52,203.83 L14.02,203.87 L14.52,203.90 L15.02,203.92 L15.52,203.94 L16.02,203.95 L16.52,203.94 L17.02,203.94 L17.52,203.92 L18.02,203.89 L18.52,203.86 L19.02,203.82 L19.52,203.77 L20.02,203.71 L20.52,203.65 L21.02,203.57 L21.53,203.49 L22.03,203.40 L22.53,203.30 L23.03,203.20 L23.53,203.08 L24.03,202.96 L24.53,202.83 L25.03,202.69 L25.53,202.55 L26.03,202.39 L26.53,202.23 L27.03,202.06 L27.53,201.89 L28.03,201.70 L28.53,201.51 L29.03,201.31 L29.54,201.11 L30.04,200.90 L30.54,200.68 L31.04,200.45 L31.54,200.22 L32.04,199.98 L32.54,199.74 L33.04,199.48 L33.54,199.23 L34.04,198.96 L34.54,198.69 L35.04,198.42 L35.54,198.14 L36.04,197.86 L36.54,197.57 L37.04,197.27 L37.54,196.97 L38.05,196.67 L38.55,196.36 L39.05,196.05 L39.55,195.74 L40.05,195.42 L40.55,195.10 L41.05,194.78 L41.55,194.45 L42.05,194.12 L42.55,193.79 L43.05,193.45 L43.55,193.12 L44.05,192.78 L44.55,192.44 L45.05,192.10 L45.55,191.76 L46.05,191.42 L46.56,191.08 L47.06,190.74 L47.56,190.39 L48.06,190.05 L48.56,189.71 L49.06,189.37 L49.56,189.04 L50.06,188.70 L50.56,188.37 L51.06,188.03 L51.56,187.70 L52.06,187.38 L52.56,187.05 L53.06,186.73 L53.56,186.41 L54.06,186.10 L54.56,185.79 L55.07,185.48 L55.57,185.18 L56.07,184.88 L56.57,184.59 L57.07,184.30 L57.57,184.02 L58.07,183.75 L58.57,183.48 L59.07,183.21 L59.57,182.96 L60.07,182.71 L60.57,182.46 L61.07,182.23 L61.57,182.00 L62.07,181.78 L62.57,181.56 L63.07,181.36 L63.58,181.16 L64.08,180.97 L64.58,180.79 L65.08,180.62 L65.58,180.46 L66.08,180.31 L66.58,180.16 L67.08,180.03 L67.58,179.91 L68.08,179.79 L68.58,179.69 L69.08,179.59 L69.58,179.51 L70.08,179.44 L70.58,179.38 L71.08,179.33 L71.59,179.28 L72.09,179.26 L72.59,179.24 L73.09,179.23 L73.59,179.23 L74.09,179.25 L74.59,179.28 L75.09,179.32 L75.59,179.37 L76.09,179.43 L76.59,179.50 L77.09,179.58 L77.59,179.68 L78.09,179.79 L78.59,179.91 L79.09,180.04 L79.59,180.18 L80.10,180.34 L80.60,180.51 L81.10,180.68 L81.60,180.87 L82.10,181.08 L82.60,181.29 L83.10,181.51 L83.60,181.75 L84.10,182.00 L84.60,182.25 L85.10,182.52 L85.60,182.80 L86.10,183.09 L86.60,183.39 L87.10,183.70 L87.60,184.03 L88.10,184.36 L88.61,184.70 L89.11,185.05 L89.61,185.41 L90.11,185.79 L90.61,186.17 L91.11,186.56 L91.61,186.95 L92.11,187.36 L92.61,187.78 L93.11,188.20 L93.61,188.63 L94.11,189.07 L94.61,189.52 L95.11,189.97 L95.61,190.43 L96.11,190.90 L96.61,191.37 L97.12,191.85 L97.62,192.33 L98.12,192.82 L98.62,193.32 L99.12,193.82 L99.62,194.32 L100.12,194.83 L100.62,195.34 L101.12,195.86 L101.62,196.37 L102.12,196.89 L102.62,197.42 L103.12,197.94 L103.62,198.47 L104.12,199.00 L104.62,199.52 L105.12,200.05 L105.63,200.58 L106.13,201.11 L106.63,201.64 L107.13,202.16 L107.63,202.69 L108.13,203.21 L108.63,203.73 L109.13,204.25 L109.63,204.76 L110.13,205.27 L110.63,205.78 L111.13,206.28 L111.63,206.78 L112.13,207.27 L112.63,207.76 L113.13,208.24 L113.63,208.71 L114.14,209.18 L114.64,209.64 L115.14,210.09 L115.64,210.53 L116.14,210.96 L116.64,211.39 L117.14,211.81 L117.64,212.21 L118.14,212.61 L118.64,212.99 L119.14,213.37 L119.64,213.73 L120.14,214.08 L120.64,214.42 L121.14,214.75 L121.64,215.06 L122.15,215.36 L122.65,215.65 L123.15,215.92 L123.65,216.18 L124.15,216.43 L124.65,216.65 L125.15,216.87 L125.65,217.07 L126.15,217.25 L126.65,217.41 L127.15,217.56 L127.65,217.69 L128.15,217.81 L128.65,217.90 L129.15,217.98 L129.65,218.04 L130.15,218.08 L130.66,218.11 L131.16,218.11 L131.66,218.10 L132.16,218.06 L132.66,218.01 L133.16,217.93 L133.66,217.84 L134.16,217.73 L134.66,217.59 L135.16,217.44 L135.66,217.26 L136.16,217.06 L136.66,216.85 L137.16,216.61 L137.66,216.35 L138.16,216.07 L138.66,215.76 L139.17,215.44 L139.67,215.09 L140.17,214.72 L140.67,214.33 L141.17,213.92 L141.67,213.49 L142.17,213.03 L142.67,212.56 L143.17,212.06 L143.67,211.54 L144.17,210.99 L144.67,210.43 L145.17,209.84 L145.67,209.24 L146.17,208.61 L146.67,207.96 L147.17,207.28 L147.68,206.59 L148.18,205.88 L148.68,205.14 L149.18,204.38 L149.68,203.61 L150.18,202.81 L150.68,201.99 L151.18,201.15 L151.68,200.29 L152.18,199.42 L152.68,198.52 L153.18,197.60 L153.68,196.67 L154.18,195.71 L154.68,194.74 L155.18,193.75 L155.68,192.74 L156.19,191.71 L156.69,190.67 L157.19,189.61 L157.69,188.53 L158.19,187.44 L158.69,186.33 L159.19,185.21 L159.69,184.07 L160.19,182.91 L160.69,181.75 L161.19,180.56 L161.69,179.37 L162.19,178.16 L162.69,176.94 L163.19,175.70 L163.69,174.46 L164.20,173.20 L164.70,171.94 L165.20,170.66 L165.70,169.37 L166.20,168.08 L166.70,166.77 L167.20,165.46 L167.70,164.14 L168.20,162.81 L168.70,161.48 L169.20,160.14 L169.70,158.79 L170.20,157.44 L170.70,156.08 L171.20,154.72 L171.70,153.36 L172.20,151.99 L172.71,150.62 L173.21,149.25 L173.71,147.88 L174.21,146.51 L174.71,145.14 L175.21,143.77 L175.71,142.40 L176.21,141.03 L176.71,139.66 L177.21,138.30 L177.71,136.94 L178.21,135.59 L178.71,134.23 L179.21,132.89 L179.71,131.55 L180.21,130.22 L180.71,128.89 L181.22,127.57 L181.72,126.26 L182.22,124.96 L182.72,123.67 L183.22,122.38 L183.72,121.11 L184.22,119.85 L184.72,118.60 L185.22,117.36 L185.72,116.14 L186.22,114.93 L186.72,113.73 L187.22,112.55 L187.72,111.38 L188.22,110.22 L188.72,109.09 L189.22,107.97 L189.73,106.86 L190.23,105.78 L190.73,104.71 L191.23,103.66 L191.73,102.63 L192.23,101.61 L192.73,100.62 L193.23,99.65 L193.73,98.70 L194.23,97.77 L194.73,96.86 L195.23,95.98 L195.73,95.11 L196.23,94.27 L196.73,93.45 L197.23,92.66 L197.73,91.89 L198.24,91.14 L198.74,90.42 L199.24,89.73 L199.74,89.06 L200.24,88.41 L200.74,87.79 L201.24,87.20 L201.74,86.63 L202.24,86.09 L202.74,85.58 L203.24,85.09 L203.74,84.63 L204.24,84.20 L204.74,83.80 L205.24,83.43 L205.74,83.08 L206.24,82.76 L206.75,82.47 L207.25,82.21 L207.75,81.98 L208.25,81.78 L208.75,81.61 L209.25,81.46 L209.75,81.35 L210.25,81.26 L210.75,81.20 L211.25,81.17 L211.75,81.18 L212.25,81.21 L212.75,81.27 L213.25,81.36 L213.75,81.48 L214.25,81.62 L214.76,81.80 L215.26,82.01 L215.76,82.24 L216.26,82.51 L216.76,82.80 L217.26,83.12 L217.76,83.47 L218.26,83.85 L218.76,84.25 L219.26,84.69 L219.76,85.15 L220.26,85.64 L220.76,86.15 L221.26,86.69 L221.76,87.26 L222.26,87.86 L222.76,88.48 L223.27,89.13 L223.77,89.80 L224.27,90.50 L224.77,91.23 L225.27,91.98 L225.77,92.75 L226.27,93.55 L226.77,94.37 L227.27,95.21 L227.77,96.08 L228.27,96.96 L228.77,97.88 L229.27,98.81 L229.77,99.76 L230.27,100.74 L230.77,101.73 L231.27,102.74 L231.78,103.78 L232.28,104.83 L232.78,105.90 L233.28,106.99 L233.78,108.09 L234.28,109.22 L234.78,110.36 L235.28,111.51 L235.78,112.68 L236.28,113.87 L236.78,115.06 L237.28,116.28 L237.78,117.50 L238.28,118.74 L238.78,119.99 L239.28,121.26 L239.78,122.53 L240.29,123.81 L240.79,125.11 L241.29,126.41 L241.79,127.72 L242.29,129.04 L242.79,130.37 L243.29,131.70 L243.79,133.04 L244.29,134.39 L244.79,135.74 L245.29,137.10 L245.79,138.46 L246.29,139.82 L246.79,141.19 L247.29,142.55 L247.79,143.92 L248.29,145.30 L248.80,146.67 L249.30,148.04 L249.80,149.41 L250.30,150.78 L250.80,152.15 L251.30,153.52 L251.80,154.88 L252.30,156.24 L252.80,157.59 L253.30,158.94 L253.80,160.29 L254.30,161.63 L254.80,162.96 L255.30,164.29 L255.80,165.61 L256.30,166.92 L256.80,168.23 L257.31,169.52 L257.81,170.81 L258.31,172.08 L258.81,173.35 L259.31,174.60 L259.81,175.85 L260.31,177.08 L260.81,178.30 L261.31,179.50 L261.81,180.70 L262.31,181.88 L262.81,183.05 L263.31,184.20 L263.81,185.34 L264.31,186.46 L264.81,187.57 L265.32,188.66 L265.82,189.73 L266.32,190.79 L266.82,191.83 L267.32,192.86 L267.82,193.86 L268.32,194.85 L268.82,195.82 L269.32,196.77 L269.82,197.71 L270.32,198.62 L270.82,199.52 L271.32,200.39 L271.82,201.25 L272.32,202.08 L272.82,202.90 L273.32,203.70 L273.83,204.47 L274.33,205.22 L274.83,205.96 L275.33,206.67 L275.83,207.36 L276.33,208.03 L276.83,208.68 L277.33,209.31 L277.83,209.91 L278.33,210.50 L278.83,211.06 L279.33,211.60 L279.83,212.12 L280.33,212.61 L280.83,213.09 L281.33,213.54 L281.83,213.97 L282.34,214.38 L282.84,214.77 L283.34,215.13 L283.84,215.48 L284.34,215.80 L284.84,216.10 L285.34,216.38 L285.84,216.64 L286.34,216.87 L286.84,217.09 L287.34,217.28 L287.84,217.45 L288.34,217.61 L288.84,217.74 L289.34,217.85 L289.84,217.94 L290.34,218.01 L290.85,218.07 L291.35,218.10 L291.85,218.11 L292.35,218.10 L292.85,218.08 L293.35,218.03 L293.85,217.97 L294.35,217.89 L294.85,217.79 L295.35,217.68 L295.85,217.54 L296.35,217.39 L296.85,217.23 L297.35,217.04 L297.85,216.84 L298.35,216.63 L298.85,216.40 L299.36,216.15 L299.86,215.89 L300.36,215.62 L300.86,215.33 L301.36,215.03 L301.86,214.71 L302.36,214.39 L302.86,214.04 L303.36,213.69 L303.86,213.33 L304.36,212.95 L304.86,212.56 L305.36,212.17 L305.86,211.76 L306.36,211.34 L306.86,210.92 L307.37,210.48 L307.87,210.04 L308.37,209.58 L308.87,209.12 L309.37,208.66 L309.87,208.18 L310.37,207.70 L310.87,207.21 L311.37,206.72 L311.87,206.22 L312.37,205.72 L312.87,205.21 L313.37,204.70 L313.87,204.19 L314.37,203.67 L314.87,203.15 L315.37,202.63 L315.88,202.10 L316.38,201.58 L316.88,201.05 L317.38,200.52 L317.88,199.99 L318.38,199.46 L318.88,198.94 L319.38,198.41 L319.88,197.88 L320.38,197.36 L320.88,196.84 L321.38,196.31 L321.88,195.80 L322.38,195.28 L322.88,194.77 L323.38,194.26 L323.88,193.76 L324.39,193.26 L324.89,192.77 L325.39,192.28 L325.89,191.79 L326.39,191.31 L326.89,190.84 L327.39,190.38 L327.89,189.92 L328.39,189.46 L328.89,189.02 L329.39,188.58 L329.89,188.15 L330.39,187.73 L330.89,187.31 L331.39,186.91 L331.89,186.51 L332.39,186.12 L332.90,185.74 L333.40,185.37 L333.90,185.01 L334.40,184.66 L334.90,184.32 L335.40,183.99 L335.90,183.67 L336.40,183.36 L336.90,183.06 L337.40,182.77 L337.90,182.49 L338.40,182.22 L338.90,181.97 L339.40,181.72 L339.90,181.49 L340.40,181.26 L340.90,181.05 L341.41,180.85 L341.91,180.66 L342.41,180.49 L342.91,180.32 L343.41,180.17 L343.91,180.03 L344.41,179.90 L344.91,179.78 L345.41,179.67 L345.91,179.57 L346.41,179.49 L346.91,179.42 L347.41,179.36 L347.91,179.31 L348.41,179.27 L348.91,179.25 L349.41,179.23 L349.92,179.23 L350.42,179.24 L350.92,179.26 L351.42,179.29 L351.92,179.33 L352.42,179.38 L352.92,179.45 L353.42,179.52 L353.92,179.60 L354.42,179.70 L354.92,179.80 L355.42,179.92 L355.92,180.04 L356.42,180.18 L356.92,180.32 L357.42,180.48 L357.93,180.64 L358.43,180.81 L358.93,180.99 L359.43,181.18 L359.93,181.38 L360.43,181.59 L360.93,181.80 L361.43,182.02 L361.93,182.25 L362.43,182.49 L362.93,182.73 L363.43,182.98 L363.93,183.24 L364.43,183.51 L364.93,183.78 L365.43,184.05 L365.93,184.34 L366.44,184.62 L366.94,184.92 L367.44,185.21 L367.94,185.52 L368.44,185.82 L368.94,186.13 L369.44,186.45 L369.94,186.77 L370.44,187.09 L370.94,187.41 L371.44,187.74 L371.94,188.07 L372.44,188.40 L372.94,188.74 L373.44,189.08 L373.94,189.41 L374.44,189.75 L374.95,190.09 L375.45,190.43 L375.95,190.77 L376.45,191.12 L376.95,191.46 L377.45,191.80 L377.95,192.14 L378.45,192.48 L378.95,192.82 L379.45,193.16 L379.95,193.49 L380.45,193.82 L380.95,194.16 L381.45,194.49 L381.95,194.81 L382.45,195.14 L382.95,195.46 L383.46,195.78 L383.96,196.09 L384.46,196.40 L384.96,196.71 L385.46,197.01 L385.96,197.31 L386.46,197.60 L386.96,197.89 L387.46,198.17 L387.96,198.45 L388.46,198.73 L388.96,198.99 L389.46,199.26 L389.96,199.51 L390.46,199.76 L390.96,200.01 L391.46,200.25 L391.97,200.48 L392.47,200.70 L392.97,200.92 L393.47,201.13 L393.97,201.34 L394.47,201.53 L394.97,201.72 L395.47,201.91 L395.97,202.08 L396.47,202.25 L396.97,202.41 L397.47,202.56 L397.97,202.71 L398.47,202.85 L398.97,202.98 L399.47,203.10 L399.98,203.21 L400.48,203.32 L400.98,203.41 L401.48,203.50 L401.98,203.58 L402.48,203.66 L402.98,203.72 L403.48,203.78 L403.98,203.83 L404.48,203.87 L404.98,203.90 L405.48,203.92 L405.98,203.94 L406.48,203.95 L406.98,203.94 L407.48,203.94 L407.98,203.92 L408.49,203.90 L408.99,203.86 L409.49,203.82 L409.99,203.78 L410.49,203.72 L410.99,203.66 L411.49,203.59 L411.99,203.51 L412.49,203.43 L412.99,203.33 L413.49,203.23 L413.99,203.13 L414.49,203.02 L414.99,202.90 L415.49,202.77 L415.99,202.64 L416.49,202.50 L417.00,202.35 L417.50,202.20 L418.00,202.04 L418.50,201.88 L419.00,201.71 L419.50,201.54 L420.00,201.36 L420.50,201.17 L421.00,200.98" style="stroke-width: 3; stroke: rgb(74, 144, 226); stroke-opacity: 0.8; --darkreader-inline-stroke: #51d6ff;" data-darkreader-inline-stroke=""/></g></g><g class="test-xtl" style="font-family: &quot;Open Sans&quot;, verdana, arial, sans-serif;"><text text-anchor="middle" font-size="11" dominant-baseline="hanging" stroke="none" fill="rgb(255,255,255)" fill-opacity="1" x="95.83759832701696" y="200.67195364598277" data-darkreader-inline-fill="" data-darkreader-inline-stroke="" style="--darkreader-inline-fill: #ffffff; --darkreader-inline-stroke: none;">-1</text><text text-anchor="middle" font-size="11" dominant-baseline="hanging" stroke="none" fill="rgb(255,255,255)" fill-opacity="1" x="323.9725983270169" y="200.67195364598277" data-darkreader-inline-fill="" data-darkreader-inline-stroke="" style="--darkreader-inline-fill: #ffffff; --darkreader-inline-stroke: none;">1</text><text text-anchor="middle" font-size="11" dominant-baseline="hanging" stroke="none" fill="rgb(255,255,255)" fill-opacity="1" x="203.47259832701695" y="198.67195364598277" data-darkreader-inline-fill="" data-darkreader-inline-stroke="" style="--darkreader-inline-fill: #ffffff; --darkreader-inline-stroke: none;">0</text></g><g class="test-ytl" style="font-family: &quot;Open Sans&quot;, verdana, arial, sans-serif;"><text text-anchor="end" dominant-baseline="middle" font-size="11" stroke="none" fill="rgb(255,255,255)" fill-opacity="1" x="203.47259832701695" y="81.17195364598277" data-darkreader-inline-fill="" data-darkreader-inline-stroke="" style="--darkreader-inline-fill: #ffffff; --darkreader-inline-stroke: none;">1</text></g><rect class="real" x="1" y="1" width="419" height="268" style="fill: transparent; stroke: none; --darkreader-inline-fill: transparent; --darkreader-inline-stroke: none;" data-darkreader-inline-fill="" data-darkreader-inline-stroke=""/></g></g></g><g/></g><g/><g/><g/></svg>
        <svg xmlns="http://www.w3.org/2000/svg" xmlns:xlink="http://www.w3.org/1999/xlink" width="700" height="335" style="width:700px;height:335px;font-family:Asana-Math, Asana;background:transparent;"></svg>
</svg>
