<svg xmlns="http://www.w3.org/2000/svg" width="702" height="337" style="width:702px;height:337px;background:0 0;fill:none"><svg xmlns="http://www.w3.org/2000/svg"/><svg xmlns="http://www.w3.org/2000/svg" class="role-diagram-draw-area" style="overflow:visible"><g class="shapes-region" style="stroke:#000;fill:none;--darkreader-inline-stroke:#ffffff;--darkreader-inline-fill:none"><g class="composite-shape" data-amt="diagram/shapes/plot"><g class="test-xti" style="font-family:Asana-Math,Asana"><path stroke="#FFF" d="M0 193.672h417m-318.027-4v8m225-8v8" style="--darkreader-inline-stroke:#131a1d" transform="translate(117 29)"/><path fill="#FFF" stroke="none" d="m412 190.072 8 3.6-8 3.6Z" style="--darkreader-inline-fill:#ffffff;--darkreader-inline-stroke:none" transform="translate(117 29)"/></g><g class="test-yti" style="font-family:Asana-Math,Asana"><path stroke="#FFF" d="M211.473 4v266m-4-188.828h8" style="--darkreader-inline-stroke:#131a1d" transform="translate(117 29)"/><path fill="#FFF" stroke="none" d="m207.873 9 3.6-8 3.6 8Z" style="--darkreader-inline-fill:#ffffff;--darkreader-inline-stroke:none" transform="translate(117 29)"/></g><g class="test-plot-expression" transform="translate(117 29)"><defs><clipPath id="a"><path d="M1 1h419v268H1z"/></clipPath></defs><g clip-path="url(#a)"><path d="m0 200.2.5.21.5.2.5.2.5.2.5.18.5.19.5.18.5.17.51.17.5.16.5.16.5.15.5.14.5.14.5.13.5.13.5.12.5.11.5.11.5.09.5.1.5.08.5.08.5.07.5.06.51.05.5.05.5.04.5.03.5.02.5.02.5.01.5-.01h.5l.5-.02.5-.03.5-.03.5-.04.5-.05.5-.06.5-.06.5-.08.51-.08.5-.09.5-.1.5-.1.5-.12.5-.12.5-.13.5-.14.5-.14.5-.16.5-.16.5-.17.5-.17.5-.19.5-.19.5-.2.51-.2.5-.21.5-.22.5-.23.5-.23.5-.24.5-.24.5-.26.5-.25.5-.27.5-.27.5-.27.5-.28.5-.28.5-.29.5-.3.5-.3.51-.3.5-.31.5-.31.5-.31.5-.32.5-.32.5-.32.5-.33.5-.33.5-.33.5-.34.5-.33.5-.34.5-.34.5-.34.5-.34.5-.34.51-.34.5-.34.5-.35.5-.34.5-.34.5-.34.5-.33.5-.34.5-.33.5-.34.5-.33.5-.32.5-.33.5-.32.5-.32.5-.31.5-.31.51-.31.5-.3.5-.3.5-.29.5-.29.5-.28.5-.27.5-.27.5-.27.5-.25.5-.25.5-.25.5-.23.5-.23.5-.22.5-.22.5-.2.51-.2.5-.19.5-.18.5-.17.5-.16.5-.15.5-.15.5-.13.5-.12.5-.12.5-.1.5-.1.5-.08.5-.07.5-.06.5-.05.51-.05.5-.02.5-.02.5-.01h.5l.5.02.5.03.5.04.5.05.5.06.5.07.5.08.5.1.5.11.5.12.5.13.5.14.51.16.5.17.5.17.5.19.5.21.5.21.5.22.5.24.5.25.5.25.5.27.5.28.5.29.5.3.5.31.5.33.5.33.51.34.5.35.5.36.5.38.5.38.5.39.5.39.5.41.5.42.5.42.5.43.5.44.5.45.5.45.5.46.5.47.5.47.51.48.5.48.5.49.5.5.5.5.5.5.5.51.5.51.5.52.5.51.5.52.5.53.5.52.5.53.5.53.5.52.5.53.51.53.5.53.5.53.5.52.5.53.5.52.5.52.5.52.5.51.5.51.5.51.5.5.5.5.5.49.5.49.5.48.5.47.51.47.5.46.5.45.5.44.5.43.5.43.5.42.5.4.5.4.5.38.5.38.5.36.5.35.5.34.5.33.5.31.51.3.5.29.5.27.5.26.5.25.5.22.5.22.5.2.5.18.5.16.5.15.5.13.5.12.5.09.5.08.5.06.5.04.51.03h.5l.5-.01.5-.04.5-.05.5-.08.5-.09.5-.11.5-.14.5-.15.5-.18.5-.2.5-.21.5-.24.5-.26.5-.28.5-.31.51-.32.5-.35.5-.37.5-.39.5-.41.5-.43.5-.46.5-.47.5-.5.5-.52.5-.55.5-.56.5-.59.5-.6.5-.63.5-.65.5-.68.51-.69.5-.71.5-.74.5-.76.5-.77.5-.8.5-.82.5-.84.5-.86.5-.87.5-.9.5-.92.5-.93.5-.96.5-.97.5-.99.5-1.01.51-1.03.5-1.04.5-1.06.5-1.08.5-1.09.5-1.11.5-1.12.5-1.14.5-1.16.5-1.16.5-1.19.5-1.19.5-1.21.5-1.22.5-1.24.5-1.24.51-1.26.5-1.26.5-1.28.5-1.29.5-1.29.5-1.31.5-1.31.5-1.32.5-1.33.5-1.33.5-1.34.5-1.35.5-1.35.5-1.36.5-1.36.5-1.36.5-1.37.51-1.37.5-1.37.5-1.37.5-1.37.5-1.37.5-1.37.5-1.37.5-1.37.5-1.37.5-1.36.5-1.36.5-1.35.5-1.36.5-1.34.5-1.34.5-1.33.5-1.33.51-1.32.5-1.31.5-1.3.5-1.29.5-1.29.5-1.27.5-1.26.5-1.25.5-1.24.5-1.22.5-1.21.5-1.2.5-1.18.5-1.17.5-1.16.5-1.13.5-1.12.51-1.11.5-1.08.5-1.07.5-1.05.5-1.03.5-1.02.5-.99.5-.97.5-.95.5-.93.5-.91.5-.88.5-.87.5-.84.5-.82.5-.79.5-.77.51-.75.5-.72.5-.69.5-.67.5-.65.5-.62.5-.59.5-.57.5-.54.5-.51.5-.49.5-.46.5-.43.5-.4.5-.37.5-.35.5-.32.51-.29.5-.26.5-.23.5-.2.5-.17.5-.15.5-.11.5-.09.5-.06.5-.03.5.01.5.03.5.06.5.09.5.12.5.14.51.18.5.21.5.23.5.27.5.29.5.32.5.35.5.38.5.4.5.44.5.46.5.49.5.51.5.54.5.57.5.6.5.62.51.65.5.67.5.7.5.73.5.75.5.77.5.8.5.82.5.84.5.87.5.88.5.92.5.93.5.95.5.98.5.99.5 1.01.51 1.04.5 1.05.5 1.07.5 1.09.5 1.1.5 1.13.5 1.14.5 1.15.5 1.17.5 1.19.5 1.19.5 1.22.5 1.22.5 1.24.5 1.25.5 1.27.5 1.27.51 1.28.5 1.3.5 1.3.5 1.31.5 1.32.5 1.33.5 1.33.5 1.34.5 1.35.5 1.35.5 1.36.5 1.36.5 1.36.5 1.37.5 1.36.5 1.37.5 1.38.51 1.37.5 1.37.5 1.37.5 1.37.5 1.37.5 1.37.5 1.36.5 1.36.5 1.35.5 1.35.5 1.35.5 1.34.5 1.33.5 1.33.5 1.32.5 1.31.5 1.31.51 1.29.5 1.29.5 1.27.5 1.27.5 1.25.5 1.25.5 1.23.5 1.22.5 1.2.5 1.2.5 1.18.5 1.17.5 1.15.5 1.14.5 1.12.5 1.11.51 1.09.5 1.07.5 1.06.5 1.04.5 1.03.5 1 .5.99.5.97.5.95.5.94.5.91.5.9.5.87.5.86.5.83.5.82.5.8.51.77.5.75.5.74.5.71.5.69.5.67.5.65.5.63.5.6.5.59.5.56.5.54.5.52.5.49.5.48.5.45.5.43.51.41.5.39.5.36.5.35.5.32.5.3.5.28.5.26.5.23.5.22.5.19.5.17.5.16.5.13.5.11.5.09.5.07.51.06.5.03.5.01.5-.01.5-.02.5-.05.5-.06.5-.08.5-.1.5-.11.5-.14.5-.15.5-.16.5-.19.5-.2.5-.21.5-.23.51-.25.5-.26.5-.27.5-.29.5-.3.5-.32.5-.32.5-.35.5-.35.5-.36.5-.38.5-.39.5-.39.5-.41.5-.42.5-.42.51-.44.5-.44.5-.46.5-.46.5-.46.5-.48.5-.48.5-.49.5-.49.5-.5.5-.5.5-.51.5-.51.5-.51.5-.52.5-.52.5-.52.51-.53.5-.52.5-.53.5-.53.5-.53.5-.53.5-.52.5-.53.5-.53.5-.52.5-.52.5-.53.5-.51.5-.52.5-.51.5-.51.5-.5.51-.5.5-.49.5-.49.5-.49.5-.48.5-.47.5-.46.5-.46.5-.46.5-.44.5-.44.5-.43.5-.42.5-.42.5-.4.5-.4.5-.39.51-.38.5-.37.5-.36.5-.35.5-.34.5-.33.5-.32.5-.31.5-.3.5-.29.5-.28.5-.27.5-.25.5-.25.5-.23.5-.23.5-.21.51-.2.5-.19.5-.17.5-.17.5-.15.5-.14.5-.13.5-.12.5-.11.5-.1.5-.08.5-.07.5-.06.5-.05.5-.04.5-.02.5-.02h.51l.5.01.5.02.5.03.5.04.5.05.5.07.5.07.5.08.5.1.5.1.5.12.5.12.5.14.5.14.5.16.51.16.5.17.5.18.5.19.5.2.5.21.5.21.5.22.5.23.5.24.5.24.5.25.5.26.5.27.5.27.5.27.5.29.51.28.5.3.5.29.5.31.5.3.5.31.5.32.5.32.5.32.5.32.5.33.5.33.5.33.5.34.5.34.5.33.5.34.51.34.5.34.5.34.5.35.5.34.5.34.5.34.5.34.5.34.5.34.5.33.5.33.5.34.5.33.5.32.5.33.5.32.51.32.5.31.5.31.5.31.5.3.5.3.5.29.5.29.5.28.5.28.5.28.5.26.5.27.5.25.5.25.5.25.5.24.51.23.5.22.5.22.5.21.5.21.5.19.5.19.5.19.5.17.5.17.5.16.5.15.5.15.5.14.5.13.5.12.51.11.5.11.5.09.5.09.5.08.5.08.5.06.5.06.5.05.5.04.5.03.5.02.5.02.5.01.5-.01h.5l.5-.02.51-.02.5-.04.5-.04.5-.04.5-.06.5-.06.5-.07.5-.08.5-.08.5-.1.5-.1.5-.1.5-.11.5-.12.5-.13.5-.13.5-.14.51-.15.5-.15.5-.16.5-.16.5-.17.5-.17.5-.18.5-.19.5-.19" style="stroke-width:3;stroke:#4a90e2;stroke-opacity:.8;--darkreader-inline-stroke:#51d6ff"/></g></g><g fill="#FFF" stroke="none" class="test-xtl" dominant-baseline="hanging" font-size="11" style="font-family:&quot;Open Sans&quot;,verdana,arial,sans-serif" text-anchor="middle"><text x="95.838" y="200.672" style="--darkreader-inline-fill:#ffffff;--darkreader-inline-stroke:none" transform="translate(117 29)">-1</text><text x="323.973" y="200.672" style="--darkreader-inline-fill:#ffffff;--darkreader-inline-stroke:none" transform="translate(117 29)">1</text><text x="203.473" y="198.672" style="--darkreader-inline-fill:#ffffff;--darkreader-inline-stroke:none" transform="translate(117 29)">0</text></g><g style="font-family:&quot;Open Sans&quot;,verdana,arial,sans-serif"><text x="203.473" y="81.172" fill="#FFF" stroke="none" class="test-ytl" dominant-baseline="middle" font-size="11" style="--darkreader-inline-fill:#ffffff;--darkreader-inline-stroke:none" text-anchor="end" transform="translate(117 29)">1</text></g><path stroke="none" d="M1 1h419v268H1z" class="real" style="fill:transparent;stroke:none;--darkreader-inline-fill:transparent;--darkreader-inline-stroke:none" transform="translate(117 29)"/></g></g></svg><svg xmlns="http://www.w3.org/2000/svg" xmlns:xlink="http://www.w3.org/1999/xlink" width="700" height="335" style="width:700px;height:335px;font-family:Asana-Math,Asana;background:0 0"/></svg>