<svg xmlns="http://www.w3.org/2000/svg" xmlns:xlink="http://www.w3.org/1999/xlink" x="0" y="0" width="702" height="337" style="
        width:702px;
        height:337px;
        background: transparent;
        fill: none;
">
        <svg xmlns="http://www.w3.org/2000/svg"/>
        
        <svg xmlns="http://www.w3.org/2000/svg" class="role-diagram-draw-area" style="overflow: visible;"><g class="shapes-region" style="stroke: black; fill: none; --darkreader-inline-stroke: #ffffff; --darkreader-inline-fill: none;" data-darkreader-inline-stroke="" data-darkreader-inline-fill=""><g class="composite-shape" data-amt="diagram/shapes/plot" transform="matrix(1,0,0,1,117,29)"><g><g/><g><g class="test-xti" style="font-family: Asana-Math, Asana;"><line x1="0" y1="240.20379691375737" x2="417" y2="240.20379691375737" fill="none" stroke="rgb(255,255,255)" stroke-opacity="1" stroke-width="1" data-darkreader-inline-stroke="" style="--darkreader-inline-stroke: #131a1d;"/><line x1="217.1897461653534" y1="236.20379691375737" x2="217.1897461653534" y2="244.20379691375737" fill="none" stroke="rgb(255,255,255)" stroke-opacity="1" stroke-width="1" data-darkreader-inline-stroke="" style="--darkreader-inline-stroke: #131a1d;"/><line x1="344.6897461653534" y1="236.20379691375737" x2="344.6897461653534" y2="244.20379691375737" fill="none" stroke="rgb(255,255,255)" stroke-opacity="1" stroke-width="1" data-darkreader-inline-stroke="" style="--darkreader-inline-stroke: #131a1d;"/><path d="M412,236.60379691375738 L420,240.20379691375737 L412,243.80379691375737 Z" stroke="none" stroke-width="1" fill="rgb(255,255,255)" fill-opacity="1" data-darkreader-inline-fill="" data-darkreader-inline-stroke="" style="--darkreader-inline-fill: #ffffff; --darkreader-inline-stroke: none;"/></g><g class="test-yti" style="font-family: Asana-Math, Asana;"><line x1="89.68974616535343" y1="4" x2="89.68974616535343" y2="270" fill="none" stroke="rgb(255,255,255)" stroke-opacity="1" stroke-width="1" data-darkreader-inline-stroke="" style="--darkreader-inline-stroke: #131a1d;"/><line x1="85.68974616535343" y1="112.70379691375737" x2="93.68974616535343" y2="112.70379691375737" fill="none" stroke="rgb(255,255,255)" stroke-opacity="1" stroke-width="1" data-darkreader-inline-stroke="" style="--darkreader-inline-stroke: #131a1d;"/><path d="M86.08974616535343,9 L89.68974616535343,1 L93.28974616535342,9 Z" stroke="none" stroke-width="1" fill="rgb(255,255,255)" fill-opacity="1" data-darkreader-inline-fill="" data-darkreader-inline-stroke="" style="--darkreader-inline-fill: #ffffff; --darkreader-inline-stroke: none;"/></g><g class="test-plot-expression"><defs><clipPath id="cpr05kap1ypdg-full-view"><rect x="1" y="1" width="419" height="268"/></clipPath></defs><g clip-path="url(#cpr05kap1ypdg-full-view)"><path d=" M0.00,369.59 L0.50,369.49 L1.00,369.39 L1.50,369.30 L2.00,369.21 L2.50,369.13 L3.00,369.05 L3.50,368.97 L4.00,368.90 L4.51,368.83 L5.01,368.77 L5.51,368.71 L6.01,368.65 L6.51,368.59 L7.01,368.54 L7.51,368.49 L8.01,368.44 L8.51,368.40 L9.01,368.36 L9.51,368.32 L10.01,368.28 L10.51,368.24 L11.01,368.21 L11.51,368.18 L12.01,368.15 L12.51,368.12 L13.02,368.09 L13.52,368.07 L14.02,368.04 L14.52,368.02 L15.02,368.00 L15.52,367.98 L16.02,367.96 L16.52,367.94 L17.02,367.92 L17.52,367.90 L18.02,367.89 L18.52,367.87 L19.02,367.86 L19.52,367.84 L20.02,367.83 L20.52,367.82 L21.02,367.81 L21.53,367.80 L22.03,367.78 L22.53,367.77 L23.03,367.76 L23.53,367.75 L24.03,367.74 L24.53,367.73 L25.03,367.72 L25.53,367.71 L26.03,367.70 L26.53,367.69 L27.03,367.68 L27.53,367.67 L28.03,367.66 L28.53,367.65 L29.03,367.64 L29.54,367.63 L30.04,367.62 L30.54,367.61 L31.04,367.60 L31.54,367.58 L32.04,367.57 L32.54,367.56 L33.04,367.54 L33.54,367.53 L34.04,367.51 L34.54,367.50 L35.04,367.48 L35.54,367.46 L36.04,367.44 L36.54,367.42 L37.04,367.40 L37.54,367.38 L38.05,367.36 L38.55,367.33 L39.05,367.31 L39.55,367.28 L40.05,367.25 L40.55,367.22 L41.05,367.19 L41.55,367.15 L42.05,367.11 L42.55,367.08 L43.05,367.04 L43.55,366.99 L44.05,366.95 L44.55,366.90 L45.05,366.85 L45.55,366.80 L46.05,366.74 L46.56,366.68 L47.06,366.62 L47.56,366.55 L48.06,366.48 L48.56,366.41 L49.06,366.33 L49.56,366.25 L50.06,366.16 L50.56,366.07 L51.06,365.98 L51.56,365.88 L52.06,365.77 L52.56,365.66 L53.06,365.55 L53.56,365.43 L54.06,365.30 L54.56,365.16 L55.07,365.02 L55.57,364.87 L56.07,364.72 L56.57,364.56 L57.07,364.38 L57.57,364.21 L58.07,364.02 L58.57,363.82 L59.07,363.61 L59.57,363.40 L60.07,363.17 L60.57,362.93 L61.07,362.69 L61.57,362.43 L62.07,362.15 L62.57,361.87 L63.07,361.57 L63.58,361.26 L64.08,360.93 L64.58,360.59 L65.08,360.24 L65.58,359.87 L66.08,359.48 L66.58,359.08 L67.08,358.65 L67.58,358.21 L68.08,357.75 L68.58,357.27 L69.08,356.77 L69.58,356.25 L70.08,355.70 L70.58,355.13 L71.08,354.54 L71.59,353.92 L72.09,353.28 L72.59,352.61 L73.09,351.91 L73.59,351.18 L74.09,350.42 L74.59,349.63 L75.09,348.81 L75.59,347.96 L76.09,347.07 L76.59,346.14 L77.09,345.18 L77.59,344.18 L78.09,343.14 L78.59,342.06 L79.09,340.93 L79.59,339.76 L80.10,338.55 L80.60,337.29 L81.10,335.98 L81.60,334.61 L82.10,333.20 L82.60,331.73 L83.10,330.21 L83.60,328.63 L84.10,326.99 L84.60,325.28 L85.10,323.52 L85.60,321.68 L86.10,319.78 L86.60,317.81 L87.10,315.77 L87.60,313.65 L88.10,311.45 L88.61,309.17 L89.11,306.81 L89.61,304.37 L90.11,301.90 L90.61,299.51 L91.11,297.21 L91.61,294.98 L92.11,292.84 L92.61,290.77 L93.11,288.77 L93.61,286.85 L94.11,284.99 L94.61,283.21 L95.11,281.48 L95.61,279.82 L96.11,278.22 L96.61,276.68 L97.12,275.19 L97.62,273.76 L98.12,272.38 L98.62,271.05 L99.12,269.77 L99.62,268.54 L100.12,267.36 L100.62,266.22 L101.12,265.12 L101.62,264.07 L102.12,263.06 L102.62,262.08 L103.12,261.14 L103.62,260.24 L104.12,259.38 L104.62,258.55 L105.12,257.75 L105.63,256.98 L106.13,256.24 L106.63,255.53 L107.13,254.85 L107.63,254.20 L108.13,253.57 L108.63,252.97 L109.13,252.39 L109.63,251.84 L110.13,251.31 L110.63,250.80 L111.13,250.31 L111.63,249.85 L112.13,249.40 L112.63,248.97 L113.13,248.56 L113.63,248.17 L114.14,247.79 L114.64,247.43 L115.14,247.08 L115.64,246.75 L116.14,246.44 L116.64,246.14 L117.14,245.85 L117.64,245.57 L118.14,245.31 L118.64,245.06 L119.14,244.81 L119.64,244.58 L120.14,244.36 L120.64,244.16 L121.14,243.95 L121.64,243.76 L122.15,243.58 L122.65,243.41 L123.15,243.24 L123.65,243.08 L124.15,242.93 L124.65,242.79 L125.15,242.65 L125.65,242.52 L126.15,242.40 L126.65,242.28 L127.15,242.17 L127.65,242.06 L128.15,241.96 L128.65,241.87 L129.15,241.77 L129.65,241.69 L130.15,241.60 L130.66,241.53 L131.16,241.45 L131.66,241.38 L132.16,241.31 L132.66,241.25 L133.16,241.19 L133.66,241.13 L134.16,241.08 L134.66,241.03 L135.16,240.98 L135.66,240.93 L136.16,240.89 L136.66,240.84 L137.16,240.81 L137.66,240.77 L138.16,240.73 L138.66,240.70 L139.17,240.67 L139.67,240.64 L140.17,240.61 L140.67,240.58 L141.17,240.56 L141.67,240.53 L142.17,240.51 L142.67,240.49 L143.17,240.47 L143.67,240.45 L144.17,240.43 L144.67,240.42 L145.17,240.40 L145.67,240.38 L146.17,240.37 L146.67,240.35 L147.17,240.34 L147.68,240.33 L148.18,240.32 L148.68,240.30 L149.18,240.29 L149.68,240.28 L150.18,240.27 L150.68,240.26 L151.18,240.25 L151.68,240.24 L152.18,240.23 L152.68,240.22 L153.18,240.21 L153.68,240.20 L154.18,240.19 L154.68,240.18 L155.18,240.17 L155.68,240.16 L156.19,240.15 L156.69,240.14 L157.19,240.13 L157.69,240.12 L158.19,240.10 L158.69,240.09 L159.19,240.08 L159.69,240.07 L160.19,240.05 L160.69,240.04 L161.19,240.02 L161.69,240.01 L162.19,239.99 L162.69,239.98 L163.19,239.96 L163.69,239.94 L164.20,239.92 L164.70,239.90 L165.20,239.87 L165.70,239.85 L166.20,239.82 L166.70,239.80 L167.20,239.77 L167.70,239.74 L168.20,239.71 L168.70,239.68 L169.20,239.64 L169.70,239.60 L170.20,239.56 L170.70,239.52 L171.20,239.48 L171.70,239.43 L172.20,239.38 L172.71,239.33 L173.21,239.28 L173.71,239.22 L174.21,239.16 L174.71,239.10 L175.21,239.03 L175.71,238.96 L176.21,238.88 L176.71,238.81 L177.21,238.72 L177.71,238.64 L178.21,238.55 L178.71,238.45 L179.21,238.35 L179.71,238.24 L180.21,238.13 L180.71,238.01 L181.22,237.89 L181.72,237.76 L182.22,237.62 L182.72,237.48 L183.22,237.33 L183.72,237.17 L184.22,237.00 L184.72,236.83 L185.22,236.65 L185.72,236.46 L186.22,236.26 L186.72,236.05 L187.22,235.83 L187.72,235.60 L188.22,235.36 L188.72,235.11 L189.22,234.84 L189.73,234.57 L190.23,234.28 L190.73,233.98 L191.23,233.66 L191.73,233.33 L192.23,232.99 L192.73,232.63 L193.23,232.25 L193.73,231.86 L194.23,231.45 L194.73,231.02 L195.23,230.57 L195.73,230.11 L196.23,229.62 L196.73,229.11 L197.23,228.58 L197.73,228.03 L198.24,227.45 L198.74,226.85 L199.24,226.23 L199.74,225.58 L200.24,224.90 L200.74,224.19 L201.24,223.45 L201.74,222.69 L202.24,221.89 L202.74,221.06 L203.24,220.19 L203.74,219.29 L204.24,218.35 L204.74,217.38 L205.24,216.37 L205.74,215.32 L206.24,214.22 L206.75,213.08 L207.25,211.90 L207.75,210.67 L208.25,209.40 L208.75,208.07 L209.25,206.69 L209.75,205.26 L210.25,203.78 L210.75,202.24 L211.25,200.64 L211.75,198.98 L212.25,197.26 L212.75,195.47 L213.25,193.62 L213.75,191.69 L214.25,189.70 L214.76,187.63 L215.26,185.49 L215.76,183.27 L216.26,180.97 L216.76,178.58 L217.26,176.11 L217.76,173.67 L218.26,171.30 L218.76,169.02 L219.26,166.83 L219.76,164.70 L220.26,162.66 L220.76,160.68 L221.26,158.78 L221.76,156.95 L222.26,155.18 L222.76,153.47 L223.27,151.83 L223.77,150.24 L224.27,148.72 L224.77,147.25 L225.27,145.83 L225.77,144.47 L226.27,143.16 L226.77,141.90 L227.27,140.68 L227.77,139.51 L228.27,138.38 L228.77,137.30 L229.27,136.26 L229.77,135.26 L230.27,134.29 L230.77,133.37 L231.27,132.48 L231.78,131.62 L232.28,130.80 L232.78,130.01 L233.28,129.25 L233.78,128.52 L234.28,127.82 L234.78,127.15 L235.28,126.51 L235.78,125.89 L236.28,125.29 L236.78,124.72 L237.28,124.18 L237.78,123.65 L238.28,123.15 L238.78,122.67 L239.28,122.21 L239.78,121.77 L240.29,121.34 L240.79,120.94 L241.29,120.55 L241.79,120.18 L242.29,119.82 L242.79,119.48 L243.29,119.16 L243.79,118.85 L244.29,118.55 L244.79,118.26 L245.29,117.99 L245.79,117.73 L246.29,117.48 L246.79,117.24 L247.29,117.02 L247.79,116.80 L248.29,116.59 L248.80,116.40 L249.30,116.21 L249.80,116.03 L250.30,115.86 L250.80,115.69 L251.30,115.54 L251.80,115.39 L252.30,115.25 L252.80,115.11 L253.30,114.99 L253.80,114.86 L254.30,114.75 L254.80,114.64 L255.30,114.53 L255.80,114.43 L256.30,114.34 L256.80,114.25 L257.31,114.16 L257.81,114.08 L258.31,114.00 L258.81,113.93 L259.31,113.86 L259.81,113.79 L260.31,113.73 L260.81,113.67 L261.31,113.61 L261.81,113.56 L262.31,113.51 L262.81,113.46 L263.31,113.42 L263.81,113.37 L264.31,113.33 L264.81,113.29 L265.32,113.26 L265.82,113.22 L266.32,113.19 L266.82,113.16 L267.32,113.13 L267.82,113.10 L268.32,113.08 L268.82,113.05 L269.32,113.03 L269.82,113.01 L270.32,112.98 L270.82,112.96 L271.32,112.95 L271.82,112.93 L272.32,112.91 L272.82,112.89 L273.32,112.88 L273.83,112.86 L274.33,112.85 L274.83,112.84 L275.33,112.82 L275.83,112.81 L276.33,112.80 L276.83,112.79 L277.33,112.78 L277.83,112.77 L278.33,112.76 L278.83,112.75 L279.33,112.74 L279.83,112.73 L280.33,112.72 L280.83,112.71 L281.33,112.70 L281.83,112.69 L282.34,112.68 L282.84,112.67 L283.34,112.66 L283.84,112.65 L284.34,112.64 L284.84,112.62 L285.34,112.61 L285.84,112.60 L286.34,112.59 L286.84,112.58 L287.34,112.56 L287.84,112.55 L288.34,112.54 L288.84,112.52 L289.34,112.50 L289.84,112.49 L290.34,112.47 L290.85,112.45 L291.35,112.43 L291.85,112.41 L292.35,112.39 L292.85,112.37 L293.35,112.34 L293.85,112.32 L294.35,112.29 L294.85,112.26 L295.35,112.23 L295.85,112.20 L296.35,112.17 L296.85,112.13 L297.35,112.09 L297.85,112.05 L298.35,112.01 L298.85,111.97 L299.36,111.92 L299.86,111.87 L300.36,111.82 L300.86,111.76 L301.36,111.70 L301.86,111.64 L302.36,111.58 L302.86,111.51 L303.36,111.44 L303.86,111.36 L304.36,111.28 L304.86,111.20 L305.36,111.11 L305.86,111.02 L306.36,110.92 L306.86,110.82 L307.37,110.71 L307.87,110.59 L308.37,110.47 L308.87,110.35 L309.37,110.22 L309.87,110.08 L310.37,109.93 L310.87,109.78 L311.37,109.62 L311.87,109.45 L312.37,109.28 L312.87,109.09 L313.37,108.90 L313.87,108.70 L314.37,108.48 L314.87,108.26 L315.37,108.03 L315.88,107.78 L316.38,107.53 L316.88,107.26 L317.38,106.98 L317.88,106.69 L318.38,106.38 L318.88,106.06 L319.38,105.73 L319.88,105.38 L320.38,105.02 L320.88,104.64 L321.38,104.24 L321.88,103.82 L322.38,103.39 L322.88,102.93 L323.38,102.46 L323.88,101.97 L324.39,101.45 L324.89,100.92 L325.39,100.36 L325.89,99.77 L326.39,99.17 L326.89,98.53 L327.39,97.87 L327.89,97.19 L328.39,96.47 L328.89,95.72 L329.39,94.95 L329.89,94.14 L330.39,93.30 L330.89,92.42 L331.39,91.51 L331.89,90.56 L332.39,89.58 L332.90,88.55 L333.40,87.49 L333.90,86.38 L334.40,85.23 L334.90,84.03 L335.40,82.79 L335.90,81.50 L336.40,80.16 L336.90,78.77 L337.40,77.32 L337.90,75.82 L338.40,74.26 L338.90,72.64 L339.40,70.96 L339.90,69.22 L340.40,67.41 L340.90,65.54 L341.41,63.60 L341.91,61.58 L342.41,59.49 L342.91,57.33 L343.41,55.08 L343.91,52.75 L344.41,50.34 L344.91,47.86 L345.41,45.44 L345.91,43.10 L346.41,40.85 L346.91,38.67 L347.41,36.58 L347.91,34.55 L348.41,32.60 L348.91,30.72 L349.41,28.90 L349.92,27.15 L350.42,25.47 L350.92,23.84 L351.42,22.28 L351.92,20.77 L352.42,19.32 L352.92,17.92 L353.42,16.57 L353.92,15.27 L354.42,14.02 L354.92,12.82 L355.42,11.66 L355.92,10.55 L356.42,9.48 L356.92,8.45 L357.42,7.46 L357.93,6.51 L358.43,5.59 L358.93,4.71 L359.43,3.87 L359.93,3.06 L360.43,2.28 L360.93,1.53 L361.43,0.81 L361.93,0.12 L362.43,-0.55 L362.93,-1.18 L363.43,-1.79 L363.93,-2.38 L364.43,-2.94 L364.93,-3.48 L365.43,-4.00 L365.93,-4.50 L366.44,-4.97 L366.94,-5.43 L367.44,-5.86 L367.94,-6.28 L368.44,-6.68 L368.94,-7.06 L369.44,-7.43 L369.94,-7.78 L370.44,-8.12 L370.94,-8.44 L371.44,-8.75 L371.94,-9.04 L372.44,-9.32 L372.94,-9.59 L373.44,-9.85 L373.94,-10.09 L374.44,-10.33 L374.95,-10.55 L375.45,-10.76 L375.95,-10.97 L376.45,-11.16 L376.95,-11.35 L377.45,-11.52 L377.95,-11.69 L378.45,-11.85 L378.95,-12.01 L379.45,-12.15 L379.95,-12.29 L380.45,-12.43 L380.95,-12.55 L381.45,-12.67 L381.95,-12.79 L382.45,-12.90 L382.95,-13.00 L383.46,-13.10 L383.96,-13.19 L384.46,-13.28 L384.96,-13.36 L385.46,-13.44 L385.96,-13.52 L386.46,-13.59 L386.96,-13.66 L387.46,-13.73 L387.96,-13.79 L388.46,-13.85 L388.96,-13.90 L389.46,-13.95 L389.96,-14.00 L390.46,-14.05 L390.96,-14.10 L391.46,-14.14 L391.97,-14.18 L392.47,-14.22 L392.97,-14.25 L393.47,-14.29 L393.97,-14.32 L394.47,-14.35 L394.97,-14.38 L395.47,-14.41 L395.97,-14.43 L396.47,-14.46 L396.97,-14.48 L397.47,-14.50 L397.97,-14.52 L398.47,-14.54 L398.97,-14.56 L399.47,-14.58 L399.98,-14.59 L400.48,-14.61 L400.98,-14.63 L401.48,-14.64 L401.98,-14.65 L402.48,-14.67 L402.98,-14.68 L403.48,-14.69 L403.98,-14.70 L404.48,-14.72 L404.98,-14.73 L405.48,-14.74 L405.98,-14.75 L406.48,-14.76 L406.98,-14.77 L407.48,-14.78 L407.98,-14.79 L408.49,-14.80 L408.99,-14.81 L409.49,-14.82 L409.99,-14.83 L410.49,-14.84 L410.99,-14.85 L411.49,-14.86 L411.99,-14.87 L412.49,-14.88 L412.99,-14.89 L413.49,-14.90 L413.99,-14.91 L414.49,-14.93 L414.99,-14.94 L415.49,-14.95 L415.99,-14.97 L416.49,-14.98 L417.00,-15.00 L417.50,-15.02 L418.00,-15.04 L418.50,-15.05 L419.00,-15.07 L419.50,-15.10 L420.00,-15.12 L420.50,-15.14 L421.00,-15.17" style="stroke-width: 3; stroke: rgb(74, 144, 226); stroke-opacity: 0.8; --darkreader-inline-stroke: #51d6ff;" data-darkreader-inline-stroke=""/></g></g><g class="test-xtl" style="font-family: &quot;Open Sans&quot;, verdana, arial, sans-serif;"><text text-anchor="middle" font-size="11" dominant-baseline="hanging" stroke="none" fill="rgb(255,255,255)" fill-opacity="1" x="217.1897461653534" y="247.20379691375737" data-darkreader-inline-fill="" data-darkreader-inline-stroke="" style="--darkreader-inline-fill: #ffffff; --darkreader-inline-stroke: none;">1</text><text text-anchor="middle" font-size="11" dominant-baseline="hanging" stroke="none" fill="rgb(255,255,255)" fill-opacity="1" x="344.6897461653534" y="247.20379691375737" data-darkreader-inline-fill="" data-darkreader-inline-stroke="" style="--darkreader-inline-fill: #ffffff; --darkreader-inline-stroke: none;">2</text><text text-anchor="middle" font-size="11" dominant-baseline="hanging" stroke="none" fill="rgb(255,255,255)" fill-opacity="1" x="81.68974616535343" y="245.20379691375737" data-darkreader-inline-fill="" data-darkreader-inline-stroke="" style="--darkreader-inline-fill: #ffffff; --darkreader-inline-stroke: none;">0</text></g><g class="test-ytl" style="font-family: &quot;Open Sans&quot;, verdana, arial, sans-serif;"><text text-anchor="end" dominant-baseline="middle" font-size="11" stroke="none" fill="rgb(255,255,255)" fill-opacity="1" x="81.68974616535343" y="112.70379691375737" data-darkreader-inline-fill="" data-darkreader-inline-stroke="" style="--darkreader-inline-fill: #ffffff; --darkreader-inline-stroke: none;">1</text></g><rect class="real" x="1" y="1" width="419" height="268" style="fill: transparent; stroke: none; --darkreader-inline-fill: transparent; --darkreader-inline-stroke: none;" data-darkreader-inline-fill="" data-darkreader-inline-stroke=""/></g></g></g><g/></g><g/><g/><g/></svg>
        <svg xmlns="http://www.w3.org/2000/svg" xmlns:xlink="http://www.w3.org/1999/xlink" width="700" height="335" style="width:700px;height:335px;font-family:Asana-Math, Asana;background:transparent;"></svg>
</svg>
