<svg xmlns="http://www.w3.org/2000/svg" width="702" height="337" style="width:702px;height:337px;background:0 0;fill:none"><svg xmlns="http://www.w3.org/2000/svg"/><svg xmlns="http://www.w3.org/2000/svg" class="role-diagram-draw-area" style="overflow:visible"><g class="shapes-region" style="stroke:#000;fill:none;--darkreader-inline-stroke:#ffffff;--darkreader-inline-fill:none"><g class="composite-shape" data-amt="diagram/shapes/plot"><g class="test-xti" style="font-family:Asana-Math,Asana"><path stroke="#fff" d="M0 240.204h417m-199.81-4v8m127.5-8v8" style="--darkreader-inline-stroke:#131a1d" transform="translate(117 29)"/><path fill="#fff" stroke="none" d="m412 236.604 8 3.6-8 3.6Z" style="--darkreader-inline-fill:#ffffff;--darkreader-inline-stroke:none" transform="translate(117 29)"/></g><g class="test-yti" style="font-family:Asana-Math,Asana"><path stroke="#fff" d="M89.69 4v266m-4-157.296h8" style="--darkreader-inline-stroke:#131a1d" transform="translate(117 29)"/><path fill="#fff" stroke="none" d="m86.09 9 3.6-8 3.6 8Z" style="--darkreader-inline-fill:#ffffff;--darkreader-inline-stroke:none" transform="translate(117 29)"/></g><g class="test-plot-expression" transform="translate(117 29)"><defs><clipPath id="a"><path d="M1 1h419v268H1z"/></clipPath></defs><g clip-path="url(#a)"><path d="m0 369.59.5-.1.5-.1.5-.09.5-.09.5-.08.5-.08.5-.08.5-.07.51-.07.5-.06.5-.06.5-.06.5-.06.5-.05.5-.05.5-.05.5-.04.5-.04.5-.04.5-.04.5-.04.5-.03.5-.03.5-.03.5-.03.51-.03.5-.02.5-.03.5-.02.5-.02.5-.02.5-.02.5-.02.5-.02.5-.02.5-.01.5-.02.5-.01.5-.02.5-.01.5-.01.5-.01.51-.01.5-.02.5-.01.5-.01.5-.01.5-.01.5-.01.5-.01.5-.01.5-.01.5-.01.5-.01.5-.01.5-.01.5-.01.5-.01.51-.01.5-.01.5-.01.5-.01.5-.02.5-.01.5-.01.5-.02.5-.01.5-.02.5-.01.5-.02.5-.02.5-.02.5-.02.5-.02.5-.02.51-.02.5-.03.5-.02.5-.03.5-.03.5-.03.5-.03.5-.04.5-.04.5-.03.5-.04.5-.05.5-.04.5-.05.5-.05.5-.05.5-.06.51-.06.5-.06.5-.07.5-.07.5-.07.5-.08.5-.08.5-.09.5-.09.5-.09.5-.1.5-.11.5-.11.5-.11.5-.12.5-.13.5-.14.51-.14.5-.15.5-.15.5-.16.5-.18.5-.17.5-.19.5-.2.5-.21.5-.21.5-.23.5-.24.5-.24.5-.26.5-.28.5-.28.5-.3.51-.31.5-.33.5-.34.5-.35.5-.37.5-.39.5-.4.5-.43.5-.44.5-.46.5-.48.5-.5.5-.52.5-.55.5-.57.5-.59.51-.62.5-.64.5-.67.5-.7.5-.73.5-.76.5-.79.5-.82.5-.85.5-.89.5-.93.5-.96.5-1 .5-1.04.5-1.08.5-1.13.5-1.17.51-1.21.5-1.26.5-1.31.5-1.37.5-1.41.5-1.47.5-1.52.5-1.58.5-1.64.5-1.71.5-1.76.5-1.84.5-1.9.5-1.97.5-2.04.5-2.12.5-2.2.51-2.28.5-2.36.5-2.44.5-2.47.5-2.39.5-2.3.5-2.23.5-2.14.5-2.07.5-2 .5-1.92.5-1.86.5-1.78.5-1.73.5-1.66.5-1.6.5-1.54.51-1.49.5-1.43.5-1.38.5-1.33.5-1.28.5-1.23.5-1.18.5-1.14.5-1.1.5-1.05.5-1.01.5-.98.5-.94.5-.9.5-.86.5-.83.5-.8.51-.77.5-.74.5-.71.5-.68.5-.65.5-.63.5-.6.5-.58.5-.55.5-.53.5-.51.5-.49.5-.46.5-.45.5-.43.5-.41.5-.39.51-.38.5-.36.5-.35.5-.33.5-.31.5-.3.5-.29.5-.28.5-.26.5-.25.5-.25.5-.23.5-.22.5-.2.5-.21.5-.19.51-.18.5-.17.5-.17.5-.16.5-.15.5-.14.5-.14.5-.13.5-.12.5-.12.5-.11.5-.11.5-.1.5-.09.5-.1.5-.08.5-.09.51-.07.5-.08.5-.07.5-.07.5-.06.5-.06.5-.06.5-.05.5-.05.5-.05.5-.05.5-.04.5-.05.5-.03.5-.04.5-.04.5-.03.51-.03.5-.03.5-.03.5-.03.5-.02.5-.03.5-.02.5-.02.5-.02.5-.02.5-.02.5-.01.5-.02.5-.02.5-.01.5-.02.5-.01.51-.01.5-.01.5-.02.5-.01.5-.01.5-.01.5-.01.5-.01.5-.01.5-.01.5-.01.5-.01.5-.01.5-.01.5-.01.5-.01.5-.01.51-.01.5-.01.5-.01.5-.01.5-.02.5-.01.5-.01.5-.01.5-.02.5-.01.5-.02.5-.01.5-.02.5-.01.5-.02.5-.02.51-.02.5-.02.5-.03.5-.02.5-.03.5-.02.5-.03.5-.03.5-.03.5-.03.5-.04.5-.04.5-.04.5-.04.5-.04.5-.05.5-.05.51-.05.5-.05.5-.06.5-.06.5-.06.5-.07.5-.07.5-.08.5-.07.5-.09.5-.08.5-.09.5-.1.5-.1.5-.11.5-.11.5-.12.51-.12.5-.13.5-.14.5-.14.5-.15.5-.16.5-.17.5-.17.5-.18.5-.19.5-.2.5-.21.5-.22.5-.23.5-.24.5-.25.5-.27.51-.27.5-.29.5-.3.5-.32.5-.33.5-.34.5-.36.5-.38.5-.39.5-.41.5-.43.5-.45.5-.46.5-.49.5-.51.5-.53.5-.55.51-.58.5-.6.5-.62.5-.65.5-.68.5-.71.5-.74.5-.76.5-.8.5-.83.5-.87.5-.9.5-.94.5-.97.5-1.01.5-1.05.5-1.1.51-1.14.5-1.18.5-1.23.5-1.27.5-1.33.5-1.38.5-1.43.5-1.48.5-1.54.5-1.6.5-1.66.5-1.72.5-1.79.5-1.85.5-1.93.5-1.99.51-2.07.5-2.14.5-2.22.5-2.3.5-2.39.5-2.47.5-2.44.5-2.37.5-2.28.5-2.19.5-2.13.5-2.04.5-1.98.5-1.9.5-1.83.5-1.77.5-1.71.51-1.64.5-1.59.5-1.52.5-1.47.5-1.42.5-1.36.5-1.31.5-1.26.5-1.22.5-1.17.5-1.13.5-1.08.5-1.04.5-1 .5-.97.5-.92.5-.89.51-.86.5-.82.5-.79.5-.76.5-.73.5-.7.5-.67.5-.64.5-.62.5-.6.5-.57.5-.54.5-.53.5-.5.5-.48.5-.46.5-.44.51-.43.5-.4.5-.39.5-.37.5-.36.5-.34.5-.32.5-.31.5-.3.5-.29.5-.27.5-.26.5-.25.5-.24.5-.22.5-.22.5-.21.51-.19.5-.19.5-.18.5-.17.5-.17.5-.15.5-.15.5-.14.5-.14.5-.12.5-.13.5-.11.5-.11.5-.11.5-.1.5-.09.5-.09.51-.09.5-.08.5-.08.5-.07.5-.07.5-.07.5-.06.5-.06.5-.06.5-.05.5-.05.5-.05.5-.04.5-.05.5-.04.5-.04.51-.03.5-.04.5-.03.5-.03.5-.03.5-.03.5-.02.5-.03.5-.02.5-.02.5-.03.5-.02.5-.01.5-.02.5-.02.5-.02.5-.01.51-.02.5-.01.5-.01.5-.02.5-.01.5-.01.5-.01.5-.01.5-.01.5-.01.5-.01.5-.01.5-.01.5-.01.5-.01.5-.01.5-.01.51-.01.5-.01.5-.01.5-.01.5-.01.5-.02.5-.01.5-.01.5-.01.5-.01.5-.02.5-.01.5-.01.5-.02.5-.02.5-.01.5-.02.51-.02.5-.02.5-.02.5-.02.5-.02.5-.03.5-.02.5-.03.5-.03.5-.03.5-.03.5-.03.5-.04.5-.04.5-.04.5-.04.5-.04.51-.05.5-.05.5-.05.5-.06.5-.06.5-.06.5-.06.5-.07.5-.07.5-.08.5-.08.5-.08.5-.09.5-.09.5-.1.5-.1.51-.11.5-.12.5-.12.5-.12.5-.13.5-.14.5-.15.5-.15.5-.16.5-.17.5-.17.5-.19.5-.19.5-.2.5-.22.5-.22.5-.23.51-.25.5-.25.5-.27.5-.28.5-.29.5-.31.5-.32.5-.33.5-.35.5-.36.5-.38.5-.4.5-.42.5-.43.5-.46.5-.47.5-.49.51-.52.5-.53.5-.56.5-.59.5-.6.5-.64.5-.66.5-.68.5-.72.5-.75.5-.77.5-.81.5-.84.5-.88.5-.91.5-.95.5-.98.51-1.03.5-1.06.5-1.11.5-1.15.5-1.2.5-1.24.5-1.29.5-1.34.5-1.39.5-1.45.5-1.5.5-1.56.5-1.62.5-1.68.5-1.74.5-1.81.5-1.87.51-1.94.5-2.02.5-2.09.5-2.16.5-2.25.5-2.33.5-2.41.5-2.48.5-2.42.5-2.34.5-2.25.5-2.18.5-2.09.5-2.03.5-1.95.5-1.88.5-1.82.51-1.75.5-1.68.5-1.63.5-1.56.5-1.51.5-1.45.5-1.4.5-1.35.5-1.3.5-1.25.5-1.2.5-1.16.5-1.11.5-1.07.5-1.03.5-.99.51-.95.5-.92.5-.88.5-.84.5-.81.5-.78.5-.75.5-.72.5-.69.5-.67.5-.63.5-.61.5-.59.5-.56.5-.54.5-.52.5-.5.51-.47.5-.46.5-.43.5-.42.5-.4.5-.38.5-.37.5-.35.5-.34.5-.32.5-.31.5-.29.5-.28.5-.27.5-.26.5-.24.5-.24.51-.22.5-.21.5-.21.5-.19.5-.19.5-.17.5-.17.5-.16.5-.16.5-.14.5-.14.5-.14.5-.12.5-.12.5-.12.5-.11.5-.1.51-.1.5-.09.5-.09.5-.08.5-.08.5-.08.5-.07.5-.07.5-.07.5-.06.5-.06.5-.05.5-.05.5-.05.5-.05.5-.05.5-.04.51-.04.5-.04.5-.03.5-.04.5-.03.5-.03.5-.03.5-.03.5-.02.5-.03.5-.02.5-.02.5-.02.5-.02.5-.02.5-.02.51-.01.5-.02.5-.02.5-.01.5-.01.5-.02.5-.01.5-.01.5-.01.5-.02.5-.01.5-.01.5-.01.5-.01.5-.01.5-.01.5-.01.51-.01.5-.01.5-.01.5-.01.5-.01.5-.01.5-.01.5-.01.5-.01.5-.01.5-.01.5-.01.5-.02.5-.01.5-.01.5-.02.5-.01.51-.02.5-.02.5-.02.5-.01.5-.02.5-.03.5-.02.5-.02.5-.03" style="stroke-width:3;stroke:#4a90e2;stroke-opacity:.8;--darkreader-inline-stroke:#51d6ff"/></g></g><g fill="#fff" stroke="none" class="test-xtl" dominant-baseline="hanging" font-size="11" style="font-family:&quot;Open Sans&quot;,verdana,arial,sans-serif" text-anchor="middle"><text x="217.19" y="247.204" style="--darkreader-inline-fill:#ffffff;--darkreader-inline-stroke:none" transform="translate(117 29)">1</text><text x="344.69" y="247.204" style="--darkreader-inline-fill:#ffffff;--darkreader-inline-stroke:none" transform="translate(117 29)">2</text><text x="81.69" y="245.204" style="--darkreader-inline-fill:#ffffff;--darkreader-inline-stroke:none" transform="translate(117 29)">0</text></g><g style="font-family:&quot;Open Sans&quot;,verdana,arial,sans-serif"><text x="81.69" y="112.704" fill="#fff" stroke="none" class="test-ytl" dominant-baseline="middle" font-size="11" style="--darkreader-inline-fill:#ffffff;--darkreader-inline-stroke:none" text-anchor="end" transform="translate(117 29)">1</text></g><path stroke="none" d="M1 1h419v268H1z" class="real" style="fill:transparent;stroke:none;--darkreader-inline-fill:transparent;--darkreader-inline-stroke:none" transform="translate(117 29)"/></g></g></svg><svg xmlns="http://www.w3.org/2000/svg" xmlns:xlink="http://www.w3.org/1999/xlink" width="700" height="335" style="width:700px;height:335px;font-family:Asana-Math,Asana;background:0 0"/></svg>