<svg xmlns="http://www.w3.org/2000/svg" width="702" height="337" style="width:702px;height:337px;background:0 0;fill:none"><svg xmlns="http://www.w3.org/2000/svg"/><svg xmlns="http://www.w3.org/2000/svg" class="role-diagram-draw-area" style="overflow:visible"><g class="shapes-region" style="stroke:#000;fill:none;--darkreader-inline-stroke:#ffffff;--darkreader-inline-fill:none"><g class="composite-shape" data-amt="diagram/shapes/plot"><g class="test-xti" style="font-family:Asana-Math,Asana"><path stroke="#FFF" d="M0 243.153h417m-411.858-4v8m100-8v8m200-8v8m100-8v8" style="--darkreader-inline-stroke:#131a1d" transform="translate(117 29)"/><path fill="#FFF" stroke="none" d="m412 239.553 8 3.6-8 3.6Z" style="--darkreader-inline-fill:#ffffff;--darkreader-inline-stroke:none" transform="translate(117 29)"/></g><g class="test-yti" style="font-family:Asana-Math,Asana"><path stroke="#FFF" d="M205.142 4v266m-4-126.847h8m-8-100h8" style="--darkreader-inline-stroke:#131a1d" transform="translate(117 29)"/><path fill="#FFF" stroke="none" d="m201.542 9 3.6-8 3.6 8Z" style="--darkreader-inline-fill:#ffffff;--darkreader-inline-stroke:none" transform="translate(117 29)"/></g><g class="test-plot-expression" transform="translate(117 29)"><defs><clipPath id="a"><path d="M1 1h419v268H1z"/></clipPath></defs><g clip-path="url(#a)"><path d="m0 67.21.5.5.5.49.5.49.5.5.5.49.5.5.5.49.5.5.51.49.5.5.5.49.5.5.5.49.5.49.5.5.5.49.5.5.5.49.5.5.5.49.5.49.5.5.5.49.5.5.5.49.51.49.5.5.5.49.5.5.5.49.5.49.5.5.5.49.5.49.5.5.5.49.5.5.5.49.5.49.5.5.5.49.5.49.51.5.5.49.5.49.5.5.5.49.5.49.5.49.5.5.5.49.5.49.5.5.5.49.5.49.5.5.5.49.5.49.51.49.5.5.5.49.5.49.5.49.5.5.5.49.5.49.5.49.5.5.5.49.5.49.5.49.5.49.5.5.5.49.5.49.51.49.5.49.5.5.5.49.5.49.5.49.5.49.5.49.5.5.5.49.5.49.5.49.5.49.5.49.5.49.5.49.5.5.51.49.5.49.5.49.5.49.5.49.5.49.5.49.5.49.5.49.5.49.5.49.5.49.5.49.5.49.5.49.5.49.5.49.51.49.5.49.5.49.5.49.5.49.5.49.5.49.5.49.5.49.5.49.5.49.5.49.5.49.5.49.5.48.5.49.5.49.51.49.5.49.5.49.5.49.5.48.5.49.5.49.5.49.5.49.5.48.5.49.5.49.5.49.5.48.5.49.5.49.51.49.5.48.5.49.5.49.5.48.5.49.5.49.5.48.5.49.5.49.5.48.5.49.5.48.5.49.5.49.5.48.5.49.51.48.5.49.5.48.5.49.5.48.5.49.5.48.5.49.5.48.5.48.5.49.5.48.5.49.5.48.5.48.5.49.5.48.51.48.5.49.5.48.5.48.5.49.5.48.5.48.5.48.5.48.5.49.5.48.5.48.5.48.5.48.5.48.5.48.5.48.51.49.5.48.5.48.5.48.5.48.5.48.5.47.5.48.5.48.5.48.5.48.5.48.5.48.5.48.5.47.5.48.5.48.51.48.5.47.5.48.5.48.5.47.5.48.5.47.5.48.5.47.5.48.5.47.5.48.5.47.5.48.5.47.5.48.5.47.51.47.5.47.5.48.5.47.5.47.5.47.5.47.5.47.5.47.5.48.5.47.5.46.5.47.5.47.5.47.5.47.51.47.5.47.5.46.5.47.5.47.5.46.5.47.5.46.5.47.5.46.5.47.5.46.5.46.5.47.5.46.5.46.5.46.51.46.5.46.5.46.5.46.5.46.5.46.5.46.5.46.5.45.5.46.5.46.5.45.5.46.5.45.5.45.5.46.5.45.51.45.5.45.5.45.5.45.5.45.5.45.5.45.5.45.5.44.5.45.5.44.5.45.5.44.5.44.5.44.5.44.5.44.51.44.5.44.5.44.5.43.5.44.5.43.5.44.5.43.5.43.5.43.5.43.5.43.5.43.5.42.5.43.5.42.5.42.51.42.5.42.5.42.5.42.5.42.5.41.5.41.5.41.5.41.5.41.5.41.5.41.5.4.5.4.5.4.5.4.51.4.5.39.5.4.5.39.5.39.5.39.5.38.5.39.5.38.5.38.5.37.5.38.5.37.5.37.5.37.5.36.5.36.51.36.5.36.5.36.5.35.5.35.5.34.5.34.5.34.5.34.5.33.5.33.5.33.5.32.5.32.5.32.5.31.5.31.51.3.5.3.5.3.5.29.5.29.5.28.5.28.5.27.5.27.5.26.5.26.5.26.5.25.5.24.5.24.5.23.5.23.51.22.5.22.5.21.5.21.5.2.5.19.5.18.5.18.5.18.5.16.5.16.5.16.5.14.5.14.5.13.5.13.5.12.51.11.5.1.5.1.5.08.5.08.5.08.5.06.5.06.5.05.5.04.5.04.5.02.5.02.5.01h1l.5-.02.51-.02.5-.03.5-.03.5-.05.5-.05.5-.06.5-.07.5-.08.5-.08.5-.09.5-.1.5-.11.5-.11.5-.12.5-.13.5-.13.51-.15.5-.14.5-.16.5-.16.5-.17.5-.18.5-.18.5-.19.5-.19.5-.21.5-.2.5-.22.5-.21.5-.23.5-.23.5-.23.5-.25.51-.24.5-.25.5-.26.5-.26.5-.27.5-.27.5-.27.5-.29.5-.28.5-.29.5-.29.5-.3.5-.3.5-.31.5-.31.5-.31.5-.32.51-.32.5-.32.5-.33.5-.33.5-.34.5-.33.5-.34.5-.35.5-.34.5-.35.5-.36.5-.35.5-.36.5-.36.5-.37.5-.36.5-.37.51-.37.5-.37.5-.38.5-.38.5-.38.5-.38.5-.38.5-.39.5-.39.5-.39.5-.39.5-.4.5-.39.5-.4.5-.4.5-.4.5-.4.51-.41.5-.4.5-.41.5-.41.5-.41.5-.41.5-.42.5-.41.5-.42.5-.42.5-.42.5-.42.5-.42.5-.42.5-.43.5-.42.5-.43.51-.42.5-.43.5-.43.5-.43.5-.44.5-.43.5-.43.5-.44.5-.43.5-.44.5-.44.5-.44.5-.43.5-.44.5-.45.5-.44.51-.44.5-.44.5-.45.5-.44.5-.45.5-.45.5-.44.5-.45.5-.45.5-.45.5-.45.5-.45.5-.45.5-.45.5-.46.5-.45.5-.45.51-.46.5-.45.5-.46.5-.45.5-.46.5-.46.5-.46.5-.45.5-.46.5-.46.5-.46.5-.46.5-.46.5-.46.5-.47.5-.46.5-.46.51-.46.5-.47.5-.46.5-.47.5-.46.5-.46.5-.47.5-.47.5-.46.5-.47.5-.47.5-.46.5-.47.5-.47.5-.47.5-.47.5-.47.51-.47.5-.47.5-.47.5-.47.5-.47.5-.47.5-.47.5-.47.5-.47.5-.47.5-.48.5-.47.5-.47.5-.48.5-.47.5-.47.5-.48.51-.47.5-.48.5-.47.5-.48.5-.47.5-.48.5-.48.5-.47.5-.48.5-.47.5-.48.5-.48.5-.48.5-.47.5-.48.5-.48.51-.48.5-.47.5-.48.5-.48.5-.48.5-.48.5-.48.5-.48.5-.48.5-.48.5-.48.5-.48.5-.48.5-.48.5-.48.5-.48.5-.48.51-.48.5-.49.5-.48.5-.48.5-.48.5-.48.5-.49.5-.48.5-.48.5-.48.5-.49.5-.48.5-.48.5-.48.5-.49.5-.48.5-.49.51-.48.5-.48.5-.49.5-.48.5-.49.5-.48.5-.48.5-.49.5-.48.5-.49.5-.48.5-.49.5-.48.5-.49.5-.49.5-.48.5-.49.51-.48.5-.49.5-.49.5-.48.5-.49.5-.48.5-.49.5-.49.5-.48.5-.49.5-.49.5-.48.5-.49.5-.49.5-.49.5-.48.5-.49.51-.49.5-.49.5-.48.5-.49.5-.49.5-.49.5-.49.5-.48.5-.49.5-.49.5-.49.5-.49.5-.49.5-.49.5-.48.5-.49.5-.49.51-.49.5-.49.5-.49.5-.49.5-.49.5-.49.5-.49.5-.49.5-.49.5-.49.5-.49.5-.49.5-.49.5-.49.5-.49.5-.49.51-.49.5-.49.5-.49.5-.49.5-.49.5-.49.5-.49.5-.49.5-.49.5-.49.5-.49.5-.49.5-.49.5-.49.5-.49.5-.5.5-.49.51-.49.5-.49.5-.49.5-.49.5-.49.5-.49.5-.5.5-.49.5-.49.5-.49.5-.49.5-.49.5-.5.5-.49.5-.49.5-.49.5-.49.51-.5.5-.49.5-.49.5-.49.5-.5.5-.49.5-.49.5-.49.5-.5.5-.49.5-.49.5-.49.5-.5.5-.49.5-.49.5-.49.5-.5.51-.49.5-.49.5-.5.5-.49.5-.49.5-.49.5-.5.5-.49.5-.49.5-.5.5-.49.5-.49.5-.5.5-.49.5-.49.5-.5.5-.49.51-.5.5-.49.5-.49.5-.5.5-.49.5-.49.5-.5.5-.49.5-.49.5-.5.5-.49.5-.5.5-.49.5-.49.5-.5.5-.49.51-.5.5-.49.5-.5.5-.49.5-.49.5-.5.5-.49.5-.5.5-.49.5-.5.5-.49.5-.49.5-.5.5-.49.5-.5.5-.49.5-.5.51-.49.5-.5.5-.49.5-.5.5-.49.5-.5.5-.49.5-.49.5-.5.5-.49.5-.5.5-.49.5-.5.5-.49.5-.5.5-.49.5-.5.51-.49.5-.5.5-.49.5-.5.5-.5.5-.49.5-.5.5-.49.5-.5" style="stroke-width:3;stroke:#4a90e2;stroke-opacity:.8;--darkreader-inline-stroke:#51d6ff"/></g></g><g fill="#FFF" stroke="none" class="test-xtl" dominant-baseline="hanging" font-size="11" style="font-family:&quot;Open Sans&quot;,verdana,arial,sans-serif" text-anchor="middle"><text x="2.007" y="250.153" style="--darkreader-inline-fill:#ffffff;--darkreader-inline-stroke:none" transform="translate(117 29)">-2</text><text x="102.007" y="250.153" style="--darkreader-inline-fill:#ffffff;--darkreader-inline-stroke:none" transform="translate(117 29)">-1</text><text x="305.142" y="250.153" style="--darkreader-inline-fill:#ffffff;--darkreader-inline-stroke:none" transform="translate(117 29)">1</text><text x="405.142" y="250.153" style="--darkreader-inline-fill:#ffffff;--darkreader-inline-stroke:none" transform="translate(117 29)">2</text><text x="197.142" y="248.153" style="--darkreader-inline-fill:#ffffff;--darkreader-inline-stroke:none" transform="translate(117 29)">0</text></g><g fill="#FFF" stroke="none" class="test-ytl" dominant-baseline="middle" font-size="11" style="font-family:&quot;Open Sans&quot;,verdana,arial,sans-serif" text-anchor="end"><text x="197.142" y="143.153" style="--darkreader-inline-fill:#ffffff;--darkreader-inline-stroke:none" transform="translate(117 29)">1</text><text x="197.142" y="43.153" style="--darkreader-inline-fill:#ffffff;--darkreader-inline-stroke:none" transform="translate(117 29)">2</text></g><path stroke="none" d="M1 1h419v268H1z" class="real" style="fill:transparent;stroke:none;--darkreader-inline-fill:transparent;--darkreader-inline-stroke:none" transform="translate(117 29)"/></g></g></svg><svg xmlns="http://www.w3.org/2000/svg" xmlns:xlink="http://www.w3.org/1999/xlink" width="700" height="335" style="width:700px;height:335px;font-family:Asana-Math,Asana;background:0 0"/></svg>