<svg xmlns="http://www.w3.org/2000/svg" xmlns:xlink="http://www.w3.org/1999/xlink" x="0" y="0" width="702" height="337" style="
        width:702px;
        height:337px;
        background: transparent;
        fill: none;
">
        <svg xmlns="http://www.w3.org/2000/svg"/>
        
        <svg xmlns="http://www.w3.org/2000/svg" class="role-diagram-draw-area" style="overflow: visible;"><g class="shapes-region" style="stroke: black; fill: none; --darkreader-inline-stroke: #ffffff; --darkreader-inline-fill: none;" data-darkreader-inline-stroke="" data-darkreader-inline-fill=""><g class="composite-shape" data-amt="diagram/shapes/plot" transform="matrix(1,0,0,1,117,29)"><g><g/><g><g class="test-xti" style="font-family: Asana-Math, Asana;"><line x1="0" y1="243.15284768531802" x2="417" y2="243.15284768531802" fill="none" stroke="rgb(255,255,255)" stroke-opacity="1" stroke-width="1" data-darkreader-inline-stroke="" style="--darkreader-inline-stroke: #131a1d;"/><line x1="5.142309624015073" y1="239.15284768531802" x2="5.142309624015073" y2="247.15284768531802" fill="none" stroke="rgb(255,255,255)" stroke-opacity="1" stroke-width="1" data-darkreader-inline-stroke="" style="--darkreader-inline-stroke: #131a1d;"/><line x1="105.14230962401508" y1="239.15284768531802" x2="105.14230962401508" y2="247.15284768531802" fill="none" stroke="rgb(255,255,255)" stroke-opacity="1" stroke-width="1" data-darkreader-inline-stroke="" style="--darkreader-inline-stroke: #131a1d;"/><line x1="305.14230962401507" y1="239.15284768531802" x2="305.14230962401507" y2="247.15284768531802" fill="none" stroke="rgb(255,255,255)" stroke-opacity="1" stroke-width="1" data-darkreader-inline-stroke="" style="--darkreader-inline-stroke: #131a1d;"/><line x1="405.14230962401507" y1="239.15284768531802" x2="405.14230962401507" y2="247.15284768531802" fill="none" stroke="rgb(255,255,255)" stroke-opacity="1" stroke-width="1" data-darkreader-inline-stroke="" style="--darkreader-inline-stroke: #131a1d;"/><path d="M412,239.55284768531803 L420,243.15284768531802 L412,246.75284768531802 Z" stroke="none" stroke-width="1" fill="rgb(255,255,255)" fill-opacity="1" data-darkreader-inline-fill="" data-darkreader-inline-stroke="" style="--darkreader-inline-fill: #ffffff; --darkreader-inline-stroke: none;"/></g><g class="test-yti" style="font-family: Asana-Math, Asana;"><line x1="205.14230962401507" y1="4" x2="205.14230962401507" y2="270" fill="none" stroke="rgb(255,255,255)" stroke-opacity="1" stroke-width="1" data-darkreader-inline-stroke="" style="--darkreader-inline-stroke: #131a1d;"/><line x1="201.14230962401507" y1="143.15284768531802" x2="209.14230962401507" y2="143.15284768531802" fill="none" stroke="rgb(255,255,255)" stroke-opacity="1" stroke-width="1" data-darkreader-inline-stroke="" style="--darkreader-inline-stroke: #131a1d;"/><line x1="201.14230962401507" y1="43.152847685317994" x2="209.14230962401507" y2="43.152847685317994" fill="none" stroke="rgb(255,255,255)" stroke-opacity="1" stroke-width="1" data-darkreader-inline-stroke="" style="--darkreader-inline-stroke: #131a1d;"/><path d="M201.54230962401508,9 L205.14230962401507,1 L208.74230962401506,9 Z" stroke="none" stroke-width="1" fill="rgb(255,255,255)" fill-opacity="1" data-darkreader-inline-fill="" data-darkreader-inline-stroke="" style="--darkreader-inline-fill: #ffffff; --darkreader-inline-stroke: none;"/></g><g class="test-plot-expression"><defs><clipPath id="cpr05kap1ypdg-full-view"><rect x="1" y="1" width="419" height="268"/></clipPath></defs><g clip-path="url(#cpr05kap1ypdg-full-view)"><path d=" M0.00,67.21 L0.50,67.71 L1.00,68.20 L1.50,68.69 L2.00,69.19 L2.50,69.68 L3.00,70.18 L3.50,70.67 L4.00,71.17 L4.51,71.66 L5.01,72.16 L5.51,72.65 L6.01,73.15 L6.51,73.64 L7.01,74.13 L7.51,74.63 L8.01,75.12 L8.51,75.62 L9.01,76.11 L9.51,76.61 L10.01,77.10 L10.51,77.59 L11.01,78.09 L11.51,78.58 L12.01,79.08 L12.51,79.57 L13.02,80.06 L13.52,80.56 L14.02,81.05 L14.52,81.55 L15.02,82.04 L15.52,82.53 L16.02,83.03 L16.52,83.52 L17.02,84.01 L17.52,84.51 L18.02,85.00 L18.52,85.50 L19.02,85.99 L19.52,86.48 L20.02,86.98 L20.52,87.47 L21.02,87.96 L21.53,88.46 L22.03,88.95 L22.53,89.44 L23.03,89.94 L23.53,90.43 L24.03,90.92 L24.53,91.41 L25.03,91.91 L25.53,92.40 L26.03,92.89 L26.53,93.39 L27.03,93.88 L27.53,94.37 L28.03,94.87 L28.53,95.36 L29.03,95.85 L29.54,96.34 L30.04,96.84 L30.54,97.33 L31.04,97.82 L31.54,98.31 L32.04,98.81 L32.54,99.30 L33.04,99.79 L33.54,100.28 L34.04,100.78 L34.54,101.27 L35.04,101.76 L35.54,102.25 L36.04,102.74 L36.54,103.24 L37.04,103.73 L37.54,104.22 L38.05,104.71 L38.55,105.20 L39.05,105.70 L39.55,106.19 L40.05,106.68 L40.55,107.17 L41.05,107.66 L41.55,108.15 L42.05,108.65 L42.55,109.14 L43.05,109.63 L43.55,110.12 L44.05,110.61 L44.55,111.10 L45.05,111.59 L45.55,112.08 L46.05,112.58 L46.56,113.07 L47.06,113.56 L47.56,114.05 L48.06,114.54 L48.56,115.03 L49.06,115.52 L49.56,116.01 L50.06,116.50 L50.56,116.99 L51.06,117.48 L51.56,117.97 L52.06,118.46 L52.56,118.95 L53.06,119.44 L53.56,119.93 L54.06,120.42 L54.56,120.91 L55.07,121.40 L55.57,121.89 L56.07,122.38 L56.57,122.87 L57.07,123.36 L57.57,123.85 L58.07,124.34 L58.57,124.83 L59.07,125.32 L59.57,125.81 L60.07,126.30 L60.57,126.79 L61.07,127.28 L61.57,127.77 L62.07,128.25 L62.57,128.74 L63.07,129.23 L63.58,129.72 L64.08,130.21 L64.58,130.70 L65.08,131.19 L65.58,131.67 L66.08,132.16 L66.58,132.65 L67.08,133.14 L67.58,133.63 L68.08,134.11 L68.58,134.60 L69.08,135.09 L69.58,135.58 L70.08,136.06 L70.58,136.55 L71.08,137.04 L71.59,137.53 L72.09,138.01 L72.59,138.50 L73.09,138.99 L73.59,139.47 L74.09,139.96 L74.59,140.45 L75.09,140.93 L75.59,141.42 L76.09,141.91 L76.59,142.39 L77.09,142.88 L77.59,143.36 L78.09,143.85 L78.59,144.34 L79.09,144.82 L79.59,145.31 L80.10,145.79 L80.60,146.28 L81.10,146.76 L81.60,147.25 L82.10,147.73 L82.60,148.22 L83.10,148.70 L83.60,149.19 L84.10,149.67 L84.60,150.15 L85.10,150.64 L85.60,151.12 L86.10,151.61 L86.60,152.09 L87.10,152.57 L87.60,153.06 L88.10,153.54 L88.61,154.02 L89.11,154.51 L89.61,154.99 L90.11,155.47 L90.61,155.96 L91.11,156.44 L91.61,156.92 L92.11,157.40 L92.61,157.88 L93.11,158.37 L93.61,158.85 L94.11,159.33 L94.61,159.81 L95.11,160.29 L95.61,160.77 L96.11,161.25 L96.61,161.73 L97.12,162.22 L97.62,162.70 L98.12,163.18 L98.62,163.66 L99.12,164.14 L99.62,164.62 L100.12,165.09 L100.62,165.57 L101.12,166.05 L101.62,166.53 L102.12,167.01 L102.62,167.49 L103.12,167.97 L103.62,168.45 L104.12,168.92 L104.62,169.40 L105.12,169.88 L105.63,170.36 L106.13,170.83 L106.63,171.31 L107.13,171.79 L107.63,172.26 L108.13,172.74 L108.63,173.21 L109.13,173.69 L109.63,174.16 L110.13,174.64 L110.63,175.11 L111.13,175.59 L111.63,176.06 L112.13,176.54 L112.63,177.01 L113.13,177.49 L113.63,177.96 L114.14,178.43 L114.64,178.90 L115.14,179.38 L115.64,179.85 L116.14,180.32 L116.64,180.79 L117.14,181.26 L117.64,181.73 L118.14,182.20 L118.64,182.68 L119.14,183.15 L119.64,183.61 L120.14,184.08 L120.64,184.55 L121.14,185.02 L121.64,185.49 L122.15,185.96 L122.65,186.43 L123.15,186.89 L123.65,187.36 L124.15,187.83 L124.65,188.29 L125.15,188.76 L125.65,189.22 L126.15,189.69 L126.65,190.15 L127.15,190.62 L127.65,191.08 L128.15,191.54 L128.65,192.01 L129.15,192.47 L129.65,192.93 L130.15,193.39 L130.66,193.85 L131.16,194.31 L131.66,194.77 L132.16,195.23 L132.66,195.69 L133.16,196.15 L133.66,196.61 L134.16,197.07 L134.66,197.52 L135.16,197.98 L135.66,198.44 L136.16,198.89 L136.66,199.35 L137.16,199.80 L137.66,200.25 L138.16,200.71 L138.66,201.16 L139.17,201.61 L139.67,202.06 L140.17,202.51 L140.67,202.96 L141.17,203.41 L141.67,203.86 L142.17,204.31 L142.67,204.76 L143.17,205.20 L143.67,205.65 L144.17,206.09 L144.67,206.54 L145.17,206.98 L145.67,207.42 L146.17,207.86 L146.67,208.30 L147.17,208.74 L147.68,209.18 L148.18,209.62 L148.68,210.06 L149.18,210.49 L149.68,210.93 L150.18,211.36 L150.68,211.80 L151.18,212.23 L151.68,212.66 L152.18,213.09 L152.68,213.52 L153.18,213.95 L153.68,214.38 L154.18,214.80 L154.68,215.23 L155.18,215.65 L155.68,216.07 L156.19,216.49 L156.69,216.91 L157.19,217.33 L157.69,217.75 L158.19,218.17 L158.69,218.58 L159.19,218.99 L159.69,219.40 L160.19,219.81 L160.69,220.22 L161.19,220.63 L161.69,221.04 L162.19,221.44 L162.69,221.84 L163.19,222.24 L163.69,222.64 L164.20,223.04 L164.70,223.43 L165.20,223.83 L165.70,224.22 L166.20,224.61 L166.70,225.00 L167.20,225.38 L167.70,225.77 L168.20,226.15 L168.70,226.53 L169.20,226.90 L169.70,227.28 L170.20,227.65 L170.70,228.02 L171.20,228.39 L171.70,228.75 L172.20,229.11 L172.71,229.47 L173.21,229.83 L173.71,230.19 L174.21,230.54 L174.71,230.89 L175.21,231.23 L175.71,231.57 L176.21,231.91 L176.71,232.25 L177.21,232.58 L177.71,232.91 L178.21,233.24 L178.71,233.56 L179.21,233.88 L179.71,234.20 L180.21,234.51 L180.71,234.82 L181.22,235.12 L181.72,235.42 L182.22,235.72 L182.72,236.01 L183.22,236.30 L183.72,236.58 L184.22,236.86 L184.72,237.13 L185.22,237.40 L185.72,237.66 L186.22,237.92 L186.72,238.18 L187.22,238.43 L187.72,238.67 L188.22,238.91 L188.72,239.14 L189.22,239.37 L189.73,239.59 L190.23,239.81 L190.73,240.02 L191.23,240.23 L191.73,240.43 L192.23,240.62 L192.73,240.80 L193.23,240.98 L193.73,241.16 L194.23,241.32 L194.73,241.48 L195.23,241.64 L195.73,241.78 L196.23,241.92 L196.73,242.05 L197.23,242.18 L197.73,242.30 L198.24,242.41 L198.74,242.51 L199.24,242.61 L199.74,242.69 L200.24,242.77 L200.74,242.85 L201.24,242.91 L201.74,242.97 L202.24,243.02 L202.74,243.06 L203.24,243.10 L203.74,243.12 L204.24,243.14 L204.74,243.15 L205.24,243.15 L205.74,243.15 L206.24,243.13 L206.75,243.11 L207.25,243.08 L207.75,243.05 L208.25,243.00 L208.75,242.95 L209.25,242.89 L209.75,242.82 L210.25,242.74 L210.75,242.66 L211.25,242.57 L211.75,242.47 L212.25,242.36 L212.75,242.25 L213.25,242.13 L213.75,242.00 L214.25,241.87 L214.76,241.72 L215.26,241.58 L215.76,241.42 L216.26,241.26 L216.76,241.09 L217.26,240.91 L217.76,240.73 L218.26,240.54 L218.76,240.35 L219.26,240.14 L219.76,239.94 L220.26,239.72 L220.76,239.51 L221.26,239.28 L221.76,239.05 L222.26,238.82 L222.76,238.57 L223.27,238.33 L223.77,238.08 L224.27,237.82 L224.77,237.56 L225.27,237.29 L225.77,237.02 L226.27,236.75 L226.77,236.46 L227.27,236.18 L227.77,235.89 L228.27,235.60 L228.77,235.30 L229.27,235.00 L229.77,234.69 L230.27,234.38 L230.77,234.07 L231.27,233.75 L231.78,233.43 L232.28,233.11 L232.78,232.78 L233.28,232.45 L233.78,232.11 L234.28,231.78 L234.78,231.44 L235.28,231.09 L235.78,230.75 L236.28,230.40 L236.78,230.04 L237.28,229.69 L237.78,229.33 L238.28,228.97 L238.78,228.60 L239.28,228.24 L239.78,227.87 L240.29,227.50 L240.79,227.13 L241.29,226.75 L241.79,226.37 L242.29,225.99 L242.79,225.61 L243.29,225.23 L243.79,224.84 L244.29,224.45 L244.79,224.06 L245.29,223.67 L245.79,223.27 L246.29,222.88 L246.79,222.48 L247.29,222.08 L247.79,221.68 L248.29,221.28 L248.80,220.87 L249.30,220.47 L249.80,220.06 L250.30,219.65 L250.80,219.24 L251.30,218.83 L251.80,218.41 L252.30,218.00 L252.80,217.58 L253.30,217.16 L253.80,216.74 L254.30,216.32 L254.80,215.90 L255.30,215.48 L255.80,215.05 L256.30,214.63 L256.80,214.20 L257.31,213.78 L257.81,213.35 L258.31,212.92 L258.81,212.49 L259.31,212.05 L259.81,211.62 L260.31,211.19 L260.81,210.75 L261.31,210.32 L261.81,209.88 L262.31,209.44 L262.81,209.00 L263.31,208.57 L263.81,208.13 L264.31,207.68 L264.81,207.24 L265.32,206.80 L265.82,206.36 L266.32,205.91 L266.82,205.47 L267.32,205.02 L267.82,204.57 L268.32,204.13 L268.82,203.68 L269.32,203.23 L269.82,202.78 L270.32,202.33 L270.82,201.88 L271.32,201.43 L271.82,200.98 L272.32,200.52 L272.82,200.07 L273.32,199.62 L273.83,199.16 L274.33,198.71 L274.83,198.25 L275.33,197.80 L275.83,197.34 L276.33,196.88 L276.83,196.42 L277.33,195.97 L277.83,195.51 L278.33,195.05 L278.83,194.59 L279.33,194.13 L279.83,193.67 L280.33,193.21 L280.83,192.74 L281.33,192.28 L281.83,191.82 L282.34,191.36 L282.84,190.89 L283.34,190.43 L283.84,189.96 L284.34,189.50 L284.84,189.04 L285.34,188.57 L285.84,188.10 L286.34,187.64 L286.84,187.17 L287.34,186.70 L287.84,186.24 L288.34,185.77 L288.84,185.30 L289.34,184.83 L289.84,184.36 L290.34,183.89 L290.85,183.42 L291.35,182.95 L291.85,182.48 L292.35,182.01 L292.85,181.54 L293.35,181.07 L293.85,180.60 L294.35,180.13 L294.85,179.66 L295.35,179.19 L295.85,178.71 L296.35,178.24 L296.85,177.77 L297.35,177.29 L297.85,176.82 L298.35,176.35 L298.85,175.87 L299.36,175.40 L299.86,174.92 L300.36,174.45 L300.86,173.97 L301.36,173.50 L301.86,173.02 L302.36,172.54 L302.86,172.07 L303.36,171.59 L303.86,171.12 L304.36,170.64 L304.86,170.16 L305.36,169.68 L305.86,169.21 L306.36,168.73 L306.86,168.25 L307.37,167.77 L307.87,167.30 L308.37,166.82 L308.87,166.34 L309.37,165.86 L309.87,165.38 L310.37,164.90 L310.87,164.42 L311.37,163.94 L311.87,163.46 L312.37,162.98 L312.87,162.50 L313.37,162.02 L313.87,161.54 L314.37,161.06 L314.87,160.58 L315.37,160.10 L315.88,159.62 L316.38,159.13 L316.88,158.65 L317.38,158.17 L317.88,157.69 L318.38,157.21 L318.88,156.72 L319.38,156.24 L319.88,155.76 L320.38,155.28 L320.88,154.79 L321.38,154.31 L321.88,153.83 L322.38,153.35 L322.88,152.86 L323.38,152.38 L323.88,151.89 L324.39,151.41 L324.89,150.93 L325.39,150.44 L325.89,149.96 L326.39,149.47 L326.89,148.99 L327.39,148.51 L327.89,148.02 L328.39,147.54 L328.89,147.05 L329.39,146.57 L329.89,146.08 L330.39,145.60 L330.89,145.11 L331.39,144.62 L331.89,144.14 L332.39,143.65 L332.90,143.17 L333.40,142.68 L333.90,142.19 L334.40,141.71 L334.90,141.22 L335.40,140.74 L335.90,140.25 L336.40,139.76 L336.90,139.28 L337.40,138.79 L337.90,138.30 L338.40,137.82 L338.90,137.33 L339.40,136.84 L339.90,136.35 L340.40,135.87 L340.90,135.38 L341.41,134.89 L341.91,134.40 L342.41,133.92 L342.91,133.43 L343.41,132.94 L343.91,132.45 L344.41,131.96 L344.91,131.48 L345.41,130.99 L345.91,130.50 L346.41,130.01 L346.91,129.52 L347.41,129.03 L347.91,128.54 L348.41,128.06 L348.91,127.57 L349.41,127.08 L349.92,126.59 L350.42,126.10 L350.92,125.61 L351.42,125.12 L351.92,124.63 L352.42,124.14 L352.92,123.65 L353.42,123.16 L353.92,122.67 L354.42,122.18 L354.92,121.69 L355.42,121.20 L355.92,120.71 L356.42,120.22 L356.92,119.73 L357.42,119.24 L357.93,118.75 L358.43,118.26 L358.93,117.77 L359.43,117.28 L359.93,116.79 L360.43,116.30 L360.93,115.81 L361.43,115.32 L361.93,114.83 L362.43,114.34 L362.93,113.85 L363.43,113.36 L363.93,112.87 L364.43,112.38 L364.93,111.89 L365.43,111.39 L365.93,110.90 L366.44,110.41 L366.94,109.92 L367.44,109.43 L367.94,108.94 L368.44,108.45 L368.94,107.96 L369.44,107.46 L369.94,106.97 L370.44,106.48 L370.94,105.99 L371.44,105.50 L371.94,105.01 L372.44,104.51 L372.94,104.02 L373.44,103.53 L373.94,103.04 L374.44,102.55 L374.95,102.05 L375.45,101.56 L375.95,101.07 L376.45,100.58 L376.95,100.08 L377.45,99.59 L377.95,99.10 L378.45,98.61 L378.95,98.11 L379.45,97.62 L379.95,97.13 L380.45,96.64 L380.95,96.14 L381.45,95.65 L381.95,95.16 L382.45,94.67 L382.95,94.17 L383.46,93.68 L383.96,93.19 L384.46,92.69 L384.96,92.20 L385.46,91.71 L385.96,91.22 L386.46,90.72 L386.96,90.23 L387.46,89.74 L387.96,89.24 L388.46,88.75 L388.96,88.26 L389.46,87.76 L389.96,87.27 L390.46,86.78 L390.96,86.28 L391.46,85.79 L391.97,85.29 L392.47,84.80 L392.97,84.31 L393.47,83.81 L393.97,83.32 L394.47,82.83 L394.97,82.33 L395.47,81.84 L395.97,81.35 L396.47,80.85 L396.97,80.36 L397.47,79.86 L397.97,79.37 L398.47,78.88 L398.97,78.38 L399.47,77.89 L399.98,77.39 L400.48,76.90 L400.98,76.40 L401.48,75.91 L401.98,75.42 L402.48,74.92 L402.98,74.43 L403.48,73.93 L403.98,73.44 L404.48,72.94 L404.98,72.45 L405.48,71.96 L405.98,71.46 L406.48,70.97 L406.98,70.47 L407.48,69.98 L407.98,69.48 L408.49,68.99 L408.99,68.49 L409.49,68.00 L409.99,67.50 L410.49,67.01 L410.99,66.51 L411.49,66.02 L411.99,65.53 L412.49,65.03 L412.99,64.54 L413.49,64.04 L413.99,63.55 L414.49,63.05 L414.99,62.56 L415.49,62.06 L415.99,61.57 L416.49,61.07 L417.00,60.58 L417.50,60.08 L418.00,59.59 L418.50,59.09 L419.00,58.59 L419.50,58.10 L420.00,57.60 L420.50,57.11 L421.00,56.61" style="stroke-width: 3; stroke: rgb(74, 144, 226); stroke-opacity: 0.8; --darkreader-inline-stroke: #51d6ff;" data-darkreader-inline-stroke=""/></g></g><g class="test-xtl" style="font-family: &quot;Open Sans&quot;, verdana, arial, sans-serif;"><text text-anchor="middle" font-size="11" dominant-baseline="hanging" stroke="none" fill="rgb(255,255,255)" fill-opacity="1" x="2.0073096240150736" y="250.15284768531802" data-darkreader-inline-fill="" data-darkreader-inline-stroke="" style="--darkreader-inline-fill: #ffffff; --darkreader-inline-stroke: none;">-2</text><text text-anchor="middle" font-size="11" dominant-baseline="hanging" stroke="none" fill="rgb(255,255,255)" fill-opacity="1" x="102.00730962401508" y="250.15284768531802" data-darkreader-inline-fill="" data-darkreader-inline-stroke="" style="--darkreader-inline-fill: #ffffff; --darkreader-inline-stroke: none;">-1</text><text text-anchor="middle" font-size="11" dominant-baseline="hanging" stroke="none" fill="rgb(255,255,255)" fill-opacity="1" x="305.14230962401507" y="250.15284768531802" data-darkreader-inline-fill="" data-darkreader-inline-stroke="" style="--darkreader-inline-fill: #ffffff; --darkreader-inline-stroke: none;">1</text><text text-anchor="middle" font-size="11" dominant-baseline="hanging" stroke="none" fill="rgb(255,255,255)" fill-opacity="1" x="405.14230962401507" y="250.15284768531802" data-darkreader-inline-fill="" data-darkreader-inline-stroke="" style="--darkreader-inline-fill: #ffffff; --darkreader-inline-stroke: none;">2</text><text text-anchor="middle" font-size="11" dominant-baseline="hanging" stroke="none" fill="rgb(255,255,255)" fill-opacity="1" x="197.1423096240151" y="248.15284768531802" data-darkreader-inline-fill="" data-darkreader-inline-stroke="" style="--darkreader-inline-fill: #ffffff; --darkreader-inline-stroke: none;">0</text></g><g class="test-ytl" style="font-family: &quot;Open Sans&quot;, verdana, arial, sans-serif;"><text text-anchor="end" dominant-baseline="middle" font-size="11" stroke="none" fill="rgb(255,255,255)" fill-opacity="1" x="197.14230962401507" y="143.15284768531802" data-darkreader-inline-fill="" data-darkreader-inline-stroke="" style="--darkreader-inline-fill: #ffffff; --darkreader-inline-stroke: none;">1</text><text text-anchor="end" dominant-baseline="middle" font-size="11" stroke="none" fill="rgb(255,255,255)" fill-opacity="1" x="197.14230962401507" y="43.152847685317994" data-darkreader-inline-fill="" data-darkreader-inline-stroke="" style="--darkreader-inline-fill: #ffffff; --darkreader-inline-stroke: none;">2</text></g><rect class="real" x="1" y="1" width="419" height="268" style="fill: transparent; stroke: none; --darkreader-inline-fill: transparent; --darkreader-inline-stroke: none;" data-darkreader-inline-fill="" data-darkreader-inline-stroke=""/></g></g></g><g/></g><g/><g/><g/></svg>
        <svg xmlns="http://www.w3.org/2000/svg" xmlns:xlink="http://www.w3.org/1999/xlink" width="700" height="335" style="width:700px;height:335px;font-family:Asana-Math, Asana;background:transparent;"></svg>
</svg>
