<svg xmlns="http://www.w3.org/2000/svg" xmlns:xlink="http://www.w3.org/1999/xlink" x="0" y="0" width="702" height="337" style="
        width:702px;
        height:337px;
        background: transparent;
        fill: none;
">
        <svg xmlns="http://www.w3.org/2000/svg"/>
        
        <svg xmlns="http://www.w3.org/2000/svg" class="role-diagram-draw-area" style="overflow: visible;"><g class="shapes-region" style="stroke: black; fill: none;"><g class="composite-shape" data-amt="diagram/shapes/plot" transform="matrix(1,0,0,1,52,2)"><g><g/><g><g class="test-xti" style="font-family: Asana-Math, Asana;"><line x1="0" y1="125.40691489652818" x2="417" y2="125.40691489652818" fill="none" stroke="rgb(255,255,255)" stroke-opacity="1" stroke-width="1"/><line x1="14.330837249755923" y1="121.40691489652818" x2="14.330837249755923" y2="129.40691489652818" fill="none" stroke="rgb(255,255,255)" stroke-opacity="1" stroke-width="1"/><line x1="214.33083724975594" y1="121.40691489652818" x2="214.33083724975594" y2="129.40691489652818" fill="none" stroke="rgb(255,255,255)" stroke-opacity="1" stroke-width="1"/><line x1="314.3308372497559" y1="121.40691489652818" x2="314.3308372497559" y2="129.40691489652818" fill="none" stroke="rgb(255,255,255)" stroke-opacity="1" stroke-width="1"/><line x1="414.3308372497559" y1="121.40691489652818" x2="414.3308372497559" y2="129.40691489652818" fill="none" stroke="rgb(255,255,255)" stroke-opacity="1" stroke-width="1"/><path d="M412,121.80691489652818 L420,125.40691489652818 L412,129.00691489652817 Z" stroke="none" stroke-width="1" fill="rgb(255,255,255)" fill-opacity="1"/></g><g class="test-yti" style="font-family: Asana-Math, Asana;"><line x1="114.33083724975592" y1="4" x2="114.33083724975592" y2="270" fill="none" stroke="rgb(255,255,255)" stroke-opacity="1" stroke-width="1"/><line x1="110.33083724975592" y1="225.40691489652818" x2="118.33083724975592" y2="225.40691489652818" fill="none" stroke="rgb(255,255,255)" stroke-opacity="1" stroke-width="1"/><line x1="110.33083724975592" y1="25.406914896528235" x2="118.33083724975592" y2="25.406914896528235" fill="none" stroke="rgb(255,255,255)" stroke-opacity="1" stroke-width="1"/><path d="M110.73083724975592,9 L114.33083724975592,1 L117.93083724975591,9 Z" stroke="none" stroke-width="1" fill="rgb(255,255,255)" fill-opacity="1"/></g><g class="test-plot-expression"><defs><clipPath id="cpr05kap1ypdg-full-view"><rect x="1" y="1" width="419" height="268"/></clipPath></defs><g clip-path="url(#cpr05kap1ypdg-full-view)"><path d=" M0.00,-270.00 L0.50,-270.00 L1.00,-270.00 L1.50,-270.00 L2.00,-270.00 L2.50,-270.00 L3.00,-270.00 L3.50,-270.00 L4.00,-270.00 L4.51,-270.00 L5.01,-270.00 L5.51,-270.00 L6.01,-270.00 L6.51,-270.00 L7.01,-270.00 L7.51,-270.00 L8.01,-270.00 L8.51,-270.00 L9.01,-270.00 L9.51,-270.00 L10.01,-270.00 L10.51,-270.00 L11.01,-270.00 L11.51,-270.00 L12.01,-270.00 L12.51,-270.00 L13.02,-270.00 L13.52,-270.00 L14.02,-270.00 L14.52,-270.00 M14.52,540.00 L14.52,540.00 L15.02,540.00 M15.02,540.00 L15.02,540.00 L15.52,540.00 L16.02,540.00 L16.52,540.00 L17.02,540.00 L17.52,540.00 L18.02,540.00 L18.52,540.00 L19.02,540.00 L19.52,540.00 L20.02,540.00 L20.52,540.00 L21.02,540.00 L21.53,540.00 L22.03,540.00 L22.53,540.00 L23.03,540.00 L23.53,540.00 L24.03,540.00 L24.53,540.00 L25.03,540.00 L25.53,540.00 L26.03,540.00 L26.53,540.00 L27.03,540.00 L27.53,540.00 L28.03,540.00 L28.53,540.00 L29.03,540.00 L29.54,540.00 L30.04,540.00 L30.54,540.00 L31.04,540.00 L31.54,540.00 L32.04,540.00 L32.54,540.00 L33.04,540.00 L33.54,540.00 L34.04,532.77 L34.54,520.21 L35.04,508.25 L35.54,496.85 L36.04,485.98 L36.54,475.60 L37.04,465.68 L37.54,456.19 L38.05,447.09 L38.55,438.38 L39.05,430.01 L39.55,421.98 L40.05,414.26 L40.55,406.83 L41.05,399.69 L41.55,392.80 L42.05,386.17 L42.55,379.77 L43.05,373.59 L43.55,367.63 L44.05,361.86 L44.55,356.29 L45.05,350.90 L45.55,345.68 L46.05,340.63 L46.56,335.73 L47.06,330.98 L47.56,326.38 L48.06,321.91 L48.56,317.58 L49.06,313.36 L49.56,309.27 L50.06,305.29 L50.56,301.43 L51.06,297.67 L51.56,294.00 L52.06,290.44 L52.56,286.97 L53.06,283.59 L53.56,280.30 L54.06,277.08 L54.56,273.95 L55.07,270.90 L55.57,267.92 L56.07,265.01 L56.57,262.17 L57.07,259.40 L57.57,256.69 L58.07,254.04 L58.57,251.45 L59.07,248.92 L59.57,246.45 L60.07,244.03 L60.57,241.66 L61.07,239.35 L61.57,237.08 L62.07,234.86 L62.57,232.69 L63.07,230.56 L63.58,228.47 L64.08,226.43 L64.58,224.43 L65.08,222.47 L65.58,220.54 L66.08,218.65 L66.58,216.80 L67.08,214.98 L67.58,213.20 L68.08,211.45 L68.58,209.74 L69.08,208.05 L69.58,206.40 L70.08,204.77 L70.58,203.18 L71.08,201.61 L71.59,200.07 L72.09,198.55 L72.59,197.06 L73.09,195.60 L73.59,194.16 L74.09,192.75 L74.59,191.36 L75.09,189.99 L75.59,188.65 L76.09,187.33 L76.59,186.02 L77.09,184.74 L77.59,183.48 L78.09,182.24 L78.59,181.02 L79.09,179.82 L79.59,178.63 L80.10,177.47 L80.60,176.32 L81.10,175.18 L81.60,174.07 L82.10,172.97 L82.60,171.89 L83.10,170.82 L83.60,169.77 L84.10,168.74 L84.60,167.72 L85.10,166.71 L85.60,165.72 L86.10,164.74 L86.60,163.77 L87.10,162.82 L87.60,161.88 L88.10,160.96 L88.61,160.04 L89.11,159.14 L89.61,158.25 L90.11,157.37 L90.61,156.51 L91.11,155.65 L91.61,154.81 L92.11,153.98 L92.61,153.15 L93.11,152.34 L93.61,151.54 L94.11,150.75 L94.61,149.97 L95.11,149.20 L95.61,148.43 L96.11,147.68 L96.61,146.94 L97.12,146.20 L97.62,145.48 L98.12,144.76 L98.62,144.05 L99.12,143.35 L99.62,142.66 L100.12,141.97 L100.62,141.30 L101.12,140.63 L101.62,139.97 L102.12,139.31 L102.62,138.67 L103.12,138.03 L103.62,137.40 L104.12,136.77 L104.62,136.16 L105.12,135.55 L105.63,134.94 L106.13,134.35 L106.63,133.75 L107.13,133.17 L107.63,132.59 L108.13,132.02 L108.63,131.45 L109.13,130.89 L109.63,130.34 L110.13,129.79 L110.63,129.25 L111.13,128.71 L111.63,128.18 L112.13,127.65 L112.63,127.13 L113.13,126.62 L113.63,126.11 L114.14,125.60 L114.64,125.10 L115.14,124.61 L115.64,124.12 L116.14,123.63 L116.64,123.15 L117.14,122.68 L117.64,122.20 L118.14,121.74 L118.64,121.27 L119.14,120.82 L119.64,120.36 L120.14,119.91 L120.64,119.47 L121.14,119.03 L121.64,118.59 L122.15,118.16 L122.65,117.73 L123.15,117.31 L123.65,116.88 L124.15,116.47 L124.65,116.05 L125.15,115.65 L125.65,115.24 L126.15,114.84 L126.65,114.44 L127.15,114.04 L127.65,113.65 L128.15,113.26 L128.65,112.88 L129.15,112.50 L129.65,112.12 L130.15,111.75 L130.66,111.37 L131.16,111.01 L131.66,110.64 L132.16,110.28 L132.66,109.92 L133.16,109.56 L133.66,109.21 L134.16,108.86 L134.66,108.51 L135.16,108.17 L135.66,107.83 L136.16,107.49 L136.66,107.15 L137.16,106.82 L137.66,106.49 L138.16,106.16 L138.66,105.84 L139.17,105.51 L139.67,105.19 L140.17,104.88 L140.67,104.56 L141.17,104.25 L141.67,103.94 L142.17,103.63 L142.67,103.33 L143.17,103.02 L143.67,102.72 L144.17,102.42 L144.67,102.13 L145.17,101.84 L145.67,101.54 L146.17,101.25 L146.67,100.97 L147.17,100.68 L147.68,100.40 L148.18,100.12 L148.68,99.84 L149.18,99.57 L149.68,99.29 L150.18,99.02 L150.68,98.75 L151.18,98.48 L151.68,98.21 L152.18,97.95 L152.68,97.69 L153.18,97.43 L153.68,97.17 L154.18,96.91 L154.68,96.66 L155.18,96.40 L155.68,96.15 L156.19,95.90 L156.69,95.65 L157.19,95.41 L157.69,95.16 L158.19,94.92 L158.69,94.68 L159.19,94.44 L159.69,94.20 L160.19,93.97 L160.69,93.73 L161.19,93.50 L161.69,93.27 L162.19,93.04 L162.69,92.81 L163.19,92.58 L163.69,92.36 L164.20,92.13 L164.70,91.91 L165.20,91.69 L165.70,91.47 L166.20,91.25 L166.70,91.04 L167.20,90.82 L167.70,90.61 L168.20,90.40 L168.70,90.19 L169.20,89.98 L169.70,89.77 L170.20,89.56 L170.70,89.36 L171.20,89.15 L171.70,88.95 L172.20,88.75 L172.71,88.55 L173.21,88.35 L173.71,88.15 L174.21,87.96 L174.71,87.76 L175.21,87.57 L175.71,87.37 L176.21,87.18 L176.71,86.99 L177.21,86.80 L177.71,86.61 L178.21,86.43 L178.71,86.24 L179.21,86.06 L179.71,85.87 L180.21,85.69 L180.71,85.51 L181.22,85.33 L181.72,85.15 L182.22,84.97 L182.72,84.79 L183.22,84.62 L183.72,84.44 L184.22,84.27 L184.72,84.10 L185.22,83.92 L185.72,83.75 L186.22,83.58 L186.72,83.41 L187.22,83.25 L187.72,83.08 L188.22,82.91 L188.72,82.75 L189.22,82.58 L189.73,82.42 L190.23,82.26 L190.73,82.10 L191.23,81.94 L191.73,81.78 L192.23,81.62 L192.73,81.46 L193.23,81.30 L193.73,81.15 L194.23,80.99 L194.73,80.84 L195.23,80.69 L195.73,80.53 L196.23,80.38 L196.73,80.23 L197.23,80.08 L197.73,79.93 L198.24,79.78 L198.74,79.64 L199.24,79.49 L199.74,79.34 L200.24,79.20 L200.74,79.05 L201.24,78.91 L201.74,78.77 L202.24,78.62 L202.74,78.48 L203.24,78.34 L203.74,78.20 L204.24,78.06 L204.74,77.92 L205.24,77.79 L205.74,77.65 L206.24,77.51 L206.75,77.38 L207.25,77.24 L207.75,77.11 L208.25,76.98 L208.75,76.84 L209.25,76.71 L209.75,76.58 L210.25,76.45 L210.75,76.32 L211.25,76.19 L211.75,76.06 L212.25,75.93 L212.75,75.80 L213.25,75.68 L213.75,75.55 L214.25,75.43 L214.76,75.30 L215.26,75.18 L215.76,75.05 L216.26,74.93 L216.76,74.81 L217.26,74.69 L217.76,74.56 L218.26,74.44 L218.76,74.32 L219.26,74.20 L219.76,74.09 L220.26,73.97 L220.76,73.85 L221.26,73.73 L221.76,73.62 L222.26,73.50 L222.76,73.38 L223.27,73.27 L223.77,73.15 L224.27,73.04 L224.77,72.93 L225.27,72.81 L225.77,72.70 L226.27,72.59 L226.77,72.48 L227.27,72.37 L227.77,72.26 L228.27,72.15 L228.77,72.04 L229.27,71.93 L229.77,71.82 L230.27,71.72 L230.77,71.61 L231.27,71.50 L231.78,71.40 L232.28,71.29 L232.78,71.18 L233.28,71.08 L233.78,70.98 L234.28,70.87 L234.78,70.77 L235.28,70.67 L235.78,70.56 L236.28,70.46 L236.78,70.36 L237.28,70.26 L237.78,70.16 L238.28,70.06 L238.78,69.96 L239.28,69.86 L239.78,69.76 L240.29,69.66 L240.79,69.57 L241.29,69.47 L241.79,69.37 L242.29,69.27 L242.79,69.18 L243.29,69.08 L243.79,68.99 L244.29,68.89 L244.79,68.80 L245.29,68.70 L245.79,68.61 L246.29,68.52 L246.79,68.42 L247.29,68.33 L247.79,68.24 L248.29,68.15 L248.80,68.06 L249.30,67.97 L249.80,67.88 L250.30,67.79 L250.80,67.70 L251.30,67.61 L251.80,67.52 L252.30,67.43 L252.80,67.34 L253.30,67.25 L253.80,67.17 L254.30,67.08 L254.80,66.99 L255.30,66.91 L255.80,66.82 L256.30,66.73 L256.80,66.65 L257.31,66.56 L257.81,66.48 L258.31,66.39 L258.81,66.31 L259.31,66.23 L259.81,66.14 L260.31,66.06 L260.81,65.98 L261.31,65.90 L261.81,65.81 L262.31,65.73 L262.81,65.65 L263.31,65.57 L263.81,65.49 L264.31,65.41 L264.81,65.33 L265.32,65.25 L265.82,65.17 L266.32,65.09 L266.82,65.01 L267.32,64.93 L267.82,64.86 L268.32,64.78 L268.82,64.70 L269.32,64.62 L269.82,64.55 L270.32,64.47 L270.82,64.39 L271.32,64.32 L271.82,64.24 L272.32,64.17 L272.82,64.09 L273.32,64.02 L273.83,63.94 L274.33,63.87 L274.83,63.80 L275.33,63.72 L275.83,63.65 L276.33,63.58 L276.83,63.50 L277.33,63.43 L277.83,63.36 L278.33,63.29 L278.83,63.21 L279.33,63.14 L279.83,63.07 L280.33,63.00 L280.83,62.93 L281.33,62.86 L281.83,62.79 L282.34,62.72 L282.84,62.65 L283.34,62.58 L283.84,62.51 L284.34,62.44 L284.84,62.37 L285.34,62.31 L285.84,62.24 L286.34,62.17 L286.84,62.10 L287.34,62.04 L287.84,61.97 L288.34,61.90 L288.84,61.84 L289.34,61.77 L289.84,61.70 L290.34,61.64 L290.85,61.57 L291.35,61.51 L291.85,61.44 L292.35,61.38 L292.85,61.31 L293.35,61.25 L293.85,61.18 L294.35,61.12 L294.85,61.06 L295.35,60.99 L295.85,60.93 L296.35,60.87 L296.85,60.80 L297.35,60.74 L297.85,60.68 L298.35,60.62 L298.85,60.55 L299.36,60.49 L299.86,60.43 L300.36,60.37 L300.86,60.31 L301.36,60.25 L301.86,60.19 L302.36,60.13 L302.86,60.07 L303.36,60.01 L303.86,59.95 L304.36,59.89 L304.86,59.83 L305.36,59.77 L305.86,59.71 L306.36,59.65 L306.86,59.59 L307.37,59.53 L307.87,59.47 L308.37,59.42 L308.87,59.36 L309.37,59.30 L309.87,59.24 L310.37,59.19 L310.87,59.13 L311.37,59.07 L311.87,59.02 L312.37,58.96 L312.87,58.90 L313.37,58.85 L313.87,58.79 L314.37,58.74 L314.87,58.68 L315.37,58.62 L315.88,58.57 L316.38,58.51 L316.88,58.46 L317.38,58.41 L317.88,58.35 L318.38,58.30 L318.88,58.24 L319.38,58.19 L319.88,58.13 L320.38,58.08 L320.88,58.03 L321.38,57.97 L321.88,57.92 L322.38,57.87 L322.88,57.82 L323.38,57.76 L323.88,57.71 L324.39,57.66 L324.89,57.61 L325.39,57.56 L325.89,57.50 L326.39,57.45 L326.89,57.40 L327.39,57.35 L327.89,57.30 L328.39,57.25 L328.89,57.20 L329.39,57.15 L329.89,57.10 L330.39,57.05 L330.89,57.00 L331.39,56.95 L331.89,56.90 L332.39,56.85 L332.90,56.80 L333.40,56.75 L333.90,56.70 L334.40,56.65 L334.90,56.60 L335.40,56.55 L335.90,56.50 L336.40,56.46 L336.90,56.41 L337.40,56.36 L337.90,56.31 L338.40,56.26 L338.90,56.22 L339.40,56.17 L339.90,56.12 L340.40,56.07 L340.90,56.03 L341.41,55.98 L341.91,55.93 L342.41,55.89 L342.91,55.84 L343.41,55.79 L343.91,55.75 L344.41,55.70 L344.91,55.66 L345.41,55.61 L345.91,55.57 L346.41,55.52 L346.91,55.47 L347.41,55.43 L347.91,55.38 L348.41,55.34 L348.91,55.29 L349.41,55.25 L349.92,55.21 L350.42,55.16 L350.92,55.12 L351.42,55.07 L351.92,55.03 L352.42,54.99 L352.92,54.94 L353.42,54.90 L353.92,54.85 L354.42,54.81 L354.92,54.77 L355.42,54.72 L355.92,54.68 L356.42,54.64 L356.92,54.60 L357.42,54.55 L357.93,54.51 L358.43,54.47 L358.93,54.43 L359.43,54.38 L359.93,54.34 L360.43,54.30 L360.93,54.26 L361.43,54.22 L361.93,54.18 L362.43,54.13 L362.93,54.09 L363.43,54.05 L363.93,54.01 L364.43,53.97 L364.93,53.93 L365.43,53.89 L365.93,53.85 L366.44,53.81 L366.94,53.77 L367.44,53.73 L367.94,53.69 L368.44,53.65 L368.94,53.61 L369.44,53.57 L369.94,53.53 L370.44,53.49 L370.94,53.45 L371.44,53.41 L371.94,53.37 L372.44,53.33 L372.94,53.29 L373.44,53.25 L373.94,53.21 L374.44,53.18 L374.95,53.14 L375.45,53.10 L375.95,53.06 L376.45,53.02 L376.95,52.98 L377.45,52.95 L377.95,52.91 L378.45,52.87 L378.95,52.83 L379.45,52.80 L379.95,52.76 L380.45,52.72 L380.95,52.68 L381.45,52.65 L381.95,52.61 L382.45,52.57 L382.95,52.53 L383.46,52.50 L383.96,52.46 L384.46,52.42 L384.96,52.39 L385.46,52.35 L385.96,52.32 L386.46,52.28 L386.96,52.24 L387.46,52.21 L387.96,52.17 L388.46,52.14 L388.96,52.10 L389.46,52.06 L389.96,52.03 L390.46,51.99 L390.96,51.96 L391.46,51.92 L391.97,51.89 L392.47,51.85 L392.97,51.82 L393.47,51.78 L393.97,51.75 L394.47,51.71 L394.97,51.68 L395.47,51.64 L395.97,51.61 L396.47,51.58 L396.97,51.54 L397.47,51.51 L397.97,51.47 L398.47,51.44 L398.97,51.41 L399.47,51.37 L399.98,51.34 L400.48,51.30 L400.98,51.27 L401.48,51.24 L401.98,51.20 L402.48,51.17 L402.98,51.14 L403.48,51.10 L403.98,51.07 L404.48,51.04 L404.98,51.01 L405.48,50.97 L405.98,50.94 L406.48,50.91 L406.98,50.87 L407.48,50.84 L407.98,50.81 L408.49,50.78 L408.99,50.75 L409.49,50.71 L409.99,50.68 L410.49,50.65 L410.99,50.62 L411.49,50.59 L411.99,50.55 L412.49,50.52 L412.99,50.49 L413.49,50.46 L413.99,50.43 L414.49,50.40 L414.99,50.37 L415.49,50.33 L415.99,50.30 L416.49,50.27 L417.00,50.24 L417.50,50.21 L418.00,50.18 L418.50,50.15 L419.00,50.12 L419.50,50.09 L420.00,50.06 L420.50,50.03 L421.00,50.00" style="stroke-width: 3; stroke: rgb(74, 144, 226); stroke-opacity: 0.8;"/></g></g><g class="test-xtl" style="font-family: &quot;Open Sans&quot;, verdana, arial, sans-serif;"><text text-anchor="middle" font-size="11" dominant-baseline="hanging" stroke="none" fill="rgb(255,255,255)" fill-opacity="1" x="11.195837249755924" y="132.40691489652818">-1</text><text text-anchor="middle" font-size="11" dominant-baseline="hanging" stroke="none" fill="rgb(255,255,255)" fill-opacity="1" x="214.33083724975594" y="132.40691489652818">1</text><text text-anchor="middle" font-size="11" dominant-baseline="hanging" stroke="none" fill="rgb(255,255,255)" fill-opacity="1" x="314.3308372497559" y="132.40691489652818">2</text><text text-anchor="middle" font-size="11" dominant-baseline="hanging" stroke="none" fill="rgb(255,255,255)" fill-opacity="1" x="414.3308372497559" y="132.40691489652818">3</text><text text-anchor="middle" font-size="11" dominant-baseline="hanging" stroke="none" fill="rgb(255,255,255)" fill-opacity="1" x="106.33083724975592" y="130.40691489652818">0</text></g><g class="test-ytl" style="font-family: &quot;Open Sans&quot;, verdana, arial, sans-serif;"><text text-anchor="end" dominant-baseline="middle" font-size="11" stroke="none" fill="rgb(255,255,255)" fill-opacity="1" x="106.33083724975592" y="225.40691489652818">-1</text><text text-anchor="end" dominant-baseline="middle" font-size="11" stroke="none" fill="rgb(255,255,255)" fill-opacity="1" x="106.33083724975592" y="25.406914896528235">1</text></g><rect class="real" x="1" y="1" width="419" height="268" style="fill: transparent; stroke: none;"/></g></g></g><g/></g><g/><g/><g/></svg>
        <svg xmlns="http://www.w3.org/2000/svg" xmlns:xlink="http://www.w3.org/1999/xlink" width="700" height="335" style="width:700px;height:335px;font-family:Asana-Math, Asana;background:transparent;"></svg>
</svg>
