<svg xmlns="http://www.w3.org/2000/svg" xmlns:xlink="http://www.w3.org/1999/xlink" x="0" y="0" width="702" height="337" style="
        width:702px;
        height:337px;
        background: transparent;
        fill: none;
">
        <svg xmlns="http://www.w3.org/2000/svg"/>
        
        <svg xmlns="http://www.w3.org/2000/svg" class="role-diagram-draw-area" style="overflow: visible;"><g class="shapes-region" style="stroke: black; fill: none; --darkreader-inline-stroke: #ffffff; --darkreader-inline-fill: none;" data-darkreader-inline-stroke="" data-darkreader-inline-fill=""><g class="composite-shape" data-amt="diagram/shapes/plot" transform="matrix(1,0,0,1,117,29)"><g><g/><g><g class="test-xti" style="font-family: Asana-Math, Asana;"><line x1="0" y1="127.54264062875143" x2="417" y2="127.54264062875143" fill="none" stroke="rgb(255,255,255)" stroke-opacity="1" stroke-width="1" data-darkreader-inline-stroke="" style="--darkreader-inline-stroke: #131a1d;"/><line x1="4.603917244757085" y1="123.54264062875143" x2="4.603917244757085" y2="131.54264062875143" fill="none" stroke="rgb(255,255,255)" stroke-opacity="1" stroke-width="1" data-darkreader-inline-stroke="" style="--darkreader-inline-stroke: #131a1d;"/><line x1="76.8987902916321" y1="123.54264062875143" x2="76.8987902916321" y2="131.54264062875143" fill="none" stroke="rgb(255,255,255)" stroke-opacity="1" stroke-width="1" data-darkreader-inline-stroke="" style="--darkreader-inline-stroke: #131a1d;"/><line x1="149.1936633385071" y1="123.54264062875143" x2="149.1936633385071" y2="131.54264062875143" fill="none" stroke="rgb(255,255,255)" stroke-opacity="1" stroke-width="1" data-darkreader-inline-stroke="" style="--darkreader-inline-stroke: #131a1d;"/><line x1="293.78340943225714" y1="123.54264062875143" x2="293.78340943225714" y2="131.54264062875143" fill="none" stroke="rgb(255,255,255)" stroke-opacity="1" stroke-width="1" data-darkreader-inline-stroke="" style="--darkreader-inline-stroke: #131a1d;"/><line x1="366.07828247913216" y1="123.54264062875143" x2="366.07828247913216" y2="131.54264062875143" fill="none" stroke="rgb(255,255,255)" stroke-opacity="1" stroke-width="1" data-darkreader-inline-stroke="" style="--darkreader-inline-stroke: #131a1d;"/><path d="M412,123.94264062875143 L420,127.54264062875143 L412,131.14264062875142 Z" stroke="none" stroke-width="1" fill="rgb(255,255,255)" fill-opacity="1" data-darkreader-inline-fill="" data-darkreader-inline-stroke="" style="--darkreader-inline-fill: #ffffff; --darkreader-inline-stroke: none;"/></g><g class="test-yti" style="font-family: Asana-Math, Asana;"><line x1="221.4885363853821" y1="4" x2="221.4885363853821" y2="270" fill="none" stroke="rgb(255,255,255)" stroke-opacity="1" stroke-width="1" data-darkreader-inline-stroke="" style="--darkreader-inline-stroke: #131a1d;"/><line x1="217.4885363853821" y1="237.6401503943764" x2="225.4885363853821" y2="237.6401503943764" fill="none" stroke="rgb(255,255,255)" stroke-opacity="1" stroke-width="1" data-darkreader-inline-stroke="" style="--darkreader-inline-stroke: #131a1d;"/><line x1="217.4885363853821" y1="17.445130863126366" x2="225.4885363853821" y2="17.445130863126366" fill="none" stroke="rgb(255,255,255)" stroke-opacity="1" stroke-width="1" data-darkreader-inline-stroke="" style="--darkreader-inline-stroke: #131a1d;"/><path d="M217.8885363853821,9 L221.4885363853821,1 L225.0885363853821,9 Z" stroke="none" stroke-width="1" fill="rgb(255,255,255)" fill-opacity="1" data-darkreader-inline-fill="" data-darkreader-inline-stroke="" style="--darkreader-inline-fill: #ffffff; --darkreader-inline-stroke: none;"/></g><g class="test-plot-expression"><defs><clipPath id="cpr05kap1ypdg-full-view"><rect x="1" y="1" width="419" height="268"/></clipPath></defs><g clip-path="url(#cpr05kap1ypdg-full-view)"><path d=" M0.00,192.50 L0.50,192.61 L1.00,192.73 L1.50,192.85 L2.00,192.97 L2.50,193.09 L3.00,193.21 L3.50,193.33 L4.00,193.46 L4.51,193.58 L5.01,193.70 L5.51,193.82 L6.01,193.94 L6.51,194.07 L7.01,194.19 L7.51,194.32 L8.01,194.44 L8.51,194.56 L9.01,194.69 L9.51,194.82 L10.01,194.94 L10.51,195.07 L11.01,195.19 L11.51,195.32 L12.01,195.45 L12.51,195.58 L13.02,195.71 L13.52,195.83 L14.02,195.96 L14.52,196.09 L15.02,196.22 L15.52,196.35 L16.02,196.48 L16.52,196.61 L17.02,196.75 L17.52,196.88 L18.02,197.01 L18.52,197.14 L19.02,197.28 L19.52,197.41 L20.02,197.54 L20.52,197.68 L21.02,197.81 L21.53,197.95 L22.03,198.08 L22.53,198.22 L23.03,198.36 L23.53,198.49 L24.03,198.63 L24.53,198.77 L25.03,198.91 L25.53,199.05 L26.03,199.19 L26.53,199.33 L27.03,199.47 L27.53,199.61 L28.03,199.75 L28.53,199.89 L29.03,200.03 L29.54,200.17 L30.04,200.31 L30.54,200.46 L31.04,200.60 L31.54,200.74 L32.04,200.89 L32.54,201.03 L33.04,201.18 L33.54,201.32 L34.04,201.47 L34.54,201.62 L35.04,201.76 L35.54,201.91 L36.04,202.06 L36.54,202.21 L37.04,202.36 L37.54,202.51 L38.05,202.66 L38.55,202.81 L39.05,202.96 L39.55,203.11 L40.05,203.26 L40.55,203.41 L41.05,203.56 L41.55,203.72 L42.05,203.87 L42.55,204.02 L43.05,204.18 L43.55,204.33 L44.05,204.49 L44.55,204.64 L45.05,204.80 L45.55,204.95 L46.05,205.11 L46.56,205.27 L47.06,205.43 L47.56,205.58 L48.06,205.74 L48.56,205.90 L49.06,206.06 L49.56,206.22 L50.06,206.38 L50.56,206.54 L51.06,206.70 L51.56,206.87 L52.06,207.03 L52.56,207.19 L53.06,207.35 L53.56,207.52 L54.06,207.68 L54.56,207.85 L55.07,208.01 L55.57,208.18 L56.07,208.34 L56.57,208.51 L57.07,208.68 L57.57,208.84 L58.07,209.01 L58.57,209.18 L59.07,209.35 L59.57,209.52 L60.07,209.69 L60.57,209.86 L61.07,210.03 L61.57,210.20 L62.07,210.37 L62.57,210.54 L63.07,210.71 L63.58,210.88 L64.08,211.06 L64.58,211.23 L65.08,211.40 L65.58,211.58 L66.08,211.75 L66.58,211.93 L67.08,212.10 L67.58,212.28 L68.08,212.45 L68.58,212.63 L69.08,212.81 L69.58,212.99 L70.08,213.16 L70.58,213.34 L71.08,213.52 L71.59,213.70 L72.09,213.88 L72.59,214.06 L73.09,214.24 L73.59,214.42 L74.09,214.60 L74.59,214.78 L75.09,214.96 L75.59,215.14 L76.09,215.33 L76.59,215.51 L77.09,215.69 L77.59,215.87 L78.09,216.06 L78.59,216.24 L79.09,216.43 L79.59,216.61 L80.10,216.80 L80.60,216.98 L81.10,217.17 L81.60,217.35 L82.10,217.54 L82.60,217.72 L83.10,217.91 L83.60,218.10 L84.10,218.28 L84.60,218.47 L85.10,218.66 L85.60,218.85 L86.10,219.04 L86.60,219.22 L87.10,219.41 L87.60,219.60 L88.10,219.79 L88.61,219.98 L89.11,220.17 L89.61,220.36 L90.11,220.55 L90.61,220.74 L91.11,220.93 L91.61,221.12 L92.11,221.31 L92.61,221.50 L93.11,221.69 L93.61,221.88 L94.11,222.07 L94.61,222.26 L95.11,222.45 L95.61,222.64 L96.11,222.83 L96.61,223.02 L97.12,223.21 L97.62,223.40 L98.12,223.59 L98.62,223.78 L99.12,223.97 L99.62,224.16 L100.12,224.35 L100.62,224.54 L101.12,224.73 L101.62,224.92 L102.12,225.11 L102.62,225.30 L103.12,225.49 L103.62,225.68 L104.12,225.87 L104.62,226.06 L105.12,226.25 L105.63,226.43 L106.13,226.62 L106.63,226.81 L107.13,227.00 L107.63,227.18 L108.13,227.37 L108.63,227.56 L109.13,227.74 L109.63,227.93 L110.13,228.11 L110.63,228.29 L111.13,228.48 L111.63,228.66 L112.13,228.84 L112.63,229.02 L113.13,229.20 L113.63,229.38 L114.14,229.56 L114.64,229.74 L115.14,229.92 L115.64,230.10 L116.14,230.27 L116.64,230.45 L117.14,230.62 L117.64,230.79 L118.14,230.97 L118.64,231.14 L119.14,231.31 L119.64,231.48 L120.14,231.64 L120.64,231.81 L121.14,231.98 L121.64,232.14 L122.15,232.30 L122.65,232.47 L123.15,232.63 L123.65,232.79 L124.15,232.94 L124.65,233.10 L125.15,233.25 L125.65,233.41 L126.15,233.56 L126.65,233.71 L127.15,233.85 L127.65,234.00 L128.15,234.14 L128.65,234.28 L129.15,234.42 L129.65,234.56 L130.15,234.70 L130.66,234.83 L131.16,234.96 L131.66,235.09 L132.16,235.22 L132.66,235.35 L133.16,235.47 L133.66,235.59 L134.16,235.70 L134.66,235.82 L135.16,235.93 L135.66,236.04 L136.16,236.15 L136.66,236.25 L137.16,236.35 L137.66,236.45 L138.16,236.54 L138.66,236.63 L139.17,236.72 L139.67,236.80 L140.17,236.88 L140.67,236.96 L141.17,237.03 L141.67,237.10 L142.17,237.17 L142.67,237.23 L143.17,237.29 L143.67,237.34 L144.17,237.39 L144.67,237.44 L145.17,237.48 L145.67,237.52 L146.17,237.55 L146.67,237.58 L147.17,237.60 L147.68,237.62 L148.18,237.63 L148.68,237.64 L149.18,237.64 L149.68,237.64 L150.18,237.63 L150.68,237.62 L151.18,237.60 L151.68,237.57 L152.18,237.54 L152.68,237.51 L153.18,237.46 L153.68,237.41 L154.18,237.36 L154.68,237.30 L155.18,237.23 L155.68,237.15 L156.19,237.07 L156.69,236.98 L157.19,236.89 L157.69,236.79 L158.19,236.68 L158.69,236.56 L159.19,236.43 L159.69,236.30 L160.19,236.16 L160.69,236.01 L161.19,235.85 L161.69,235.69 L162.19,235.51 L162.69,235.33 L163.19,235.14 L163.69,234.94 L164.20,234.73 L164.70,234.51 L165.20,234.28 L165.70,234.04 L166.20,233.80 L166.70,233.54 L167.20,233.27 L167.70,233.00 L168.20,232.71 L168.70,232.41 L169.20,232.10 L169.70,231.79 L170.20,231.46 L170.70,231.11 L171.20,230.76 L171.70,230.40 L172.20,230.03 L172.71,229.64 L173.21,229.24 L173.71,228.83 L174.21,228.41 L174.71,227.97 L175.21,227.53 L175.71,227.07 L176.21,226.60 L176.71,226.11 L177.21,225.62 L177.71,225.11 L178.21,224.58 L178.71,224.04 L179.21,223.49 L179.71,222.93 L180.21,222.35 L180.71,221.76 L181.22,221.16 L181.72,220.54 L182.22,219.90 L182.72,219.25 L183.22,218.59 L183.72,217.92 L184.22,217.22 L184.72,216.52 L185.22,215.80 L185.72,215.06 L186.22,214.31 L186.72,213.55 L187.22,212.76 L187.72,211.97 L188.22,211.16 L188.72,210.33 L189.22,209.49 L189.73,208.63 L190.23,207.76 L190.73,206.87 L191.23,205.97 L191.73,205.05 L192.23,204.12 L192.73,203.17 L193.23,202.21 L193.73,201.23 L194.23,200.23 L194.73,199.22 L195.23,198.20 L195.73,197.15 L196.23,196.10 L196.73,195.03 L197.23,193.94 L197.73,192.84 L198.24,191.73 L198.74,190.60 L199.24,189.45 L199.74,188.29 L200.24,187.12 L200.74,185.93 L201.24,184.73 L201.74,183.52 L202.24,182.29 L202.74,181.05 L203.24,179.79 L203.74,178.52 L204.24,177.24 L204.74,175.95 L205.24,174.64 L205.74,173.32 L206.24,172.00 L206.75,170.65 L207.25,169.30 L207.75,167.94 L208.25,166.56 L208.75,165.18 L209.25,163.78 L209.75,162.38 L210.25,160.97 L210.75,159.54 L211.25,158.11 L211.75,156.67 L212.25,155.22 L212.75,153.77 L213.25,152.30 L213.75,150.83 L214.25,149.36 L214.76,147.88 L215.26,146.39 L215.76,144.89 L216.26,143.39 L216.76,141.89 L217.26,140.38 L217.76,138.87 L218.26,137.36 L218.76,135.84 L219.26,134.32 L219.76,132.80 L220.26,131.28 L220.76,129.75 L221.26,128.23 L221.76,126.71 L222.26,125.18 L222.76,123.66 L223.27,122.13 L223.77,120.61 L224.27,119.09 L224.77,117.58 L225.27,116.06 L225.77,114.55 L226.27,113.05 L226.77,111.54 L227.27,110.05 L227.77,108.55 L228.27,107.06 L228.77,105.58 L229.27,104.11 L229.77,102.64 L230.27,101.17 L230.77,99.72 L231.27,98.27 L231.78,96.83 L232.28,95.40 L232.78,93.98 L233.28,92.57 L233.78,91.16 L234.28,89.77 L234.78,88.39 L235.28,87.01 L235.78,85.65 L236.28,84.30 L236.78,82.96 L237.28,81.63 L237.78,80.31 L238.28,79.01 L238.78,77.72 L239.28,76.44 L239.78,75.17 L240.29,73.92 L240.79,72.68 L241.29,71.45 L241.79,70.24 L242.29,69.04 L242.79,67.85 L243.29,66.68 L243.79,65.52 L244.29,64.38 L244.79,63.25 L245.29,62.13 L245.79,61.04 L246.29,59.95 L246.79,58.88 L247.29,57.83 L247.79,56.79 L248.29,55.76 L248.80,54.76 L249.30,53.76 L249.80,52.78 L250.30,51.82 L250.80,50.87 L251.30,49.94 L251.80,49.03 L252.30,48.12 L252.80,47.24 L253.30,46.37 L253.80,45.51 L254.30,44.67 L254.80,43.85 L255.30,43.04 L255.80,42.24 L256.30,41.46 L256.80,40.70 L257.31,39.95 L257.81,39.22 L258.31,38.50 L258.81,37.79 L259.31,37.10 L259.81,36.43 L260.31,35.77 L260.81,35.12 L261.31,34.49 L261.81,33.87 L262.31,33.27 L262.81,32.68 L263.31,32.10 L263.81,31.54 L264.31,30.99 L264.81,30.45 L265.32,29.93 L265.82,29.42 L266.32,28.92 L266.82,28.44 L267.32,27.97 L267.82,27.51 L268.32,27.07 L268.82,26.63 L269.32,26.21 L269.82,25.80 L270.32,25.41 L270.82,25.02 L271.32,24.65 L271.82,24.29 L272.32,23.94 L272.82,23.60 L273.32,23.27 L273.83,22.95 L274.33,22.64 L274.83,22.35 L275.33,22.06 L275.83,21.78 L276.33,21.52 L276.83,21.26 L277.33,21.02 L277.83,20.78 L278.33,20.55 L278.83,20.34 L279.33,20.13 L279.83,19.93 L280.33,19.74 L280.83,19.56 L281.33,19.38 L281.83,19.22 L282.34,19.06 L282.84,18.91 L283.34,18.77 L283.84,18.64 L284.34,18.52 L284.84,18.40 L285.34,18.29 L285.84,18.19 L286.34,18.09 L286.84,18.00 L287.34,17.92 L287.84,17.85 L288.34,17.78 L288.84,17.72 L289.34,17.67 L289.84,17.62 L290.34,17.58 L290.85,17.54 L291.35,17.51 L291.85,17.49 L292.35,17.47 L292.85,17.45 L293.35,17.45 L293.85,17.45 L294.35,17.45 L294.85,17.46 L295.35,17.47 L295.85,17.49 L296.35,17.51 L296.85,17.54 L297.35,17.57 L297.85,17.61 L298.35,17.65 L298.85,17.70 L299.36,17.75 L299.86,17.80 L300.36,17.86 L300.86,17.92 L301.36,17.99 L301.86,18.06 L302.36,18.13 L302.86,18.21 L303.36,18.29 L303.86,18.38 L304.36,18.46 L304.86,18.55 L305.36,18.65 L305.86,18.75 L306.36,18.85 L306.86,18.95 L307.37,19.06 L307.87,19.17 L308.37,19.28 L308.87,19.39 L309.37,19.51 L309.87,19.63 L310.37,19.75 L310.87,19.88 L311.37,20.00 L311.87,20.13 L312.37,20.27 L312.87,20.40 L313.37,20.54 L313.87,20.67 L314.37,20.81 L314.87,20.96 L315.37,21.10 L315.88,21.25 L316.38,21.39 L316.88,21.54 L317.38,21.69 L317.88,21.85 L318.38,22.00 L318.88,22.16 L319.38,22.32 L319.88,22.47 L320.38,22.64 L320.88,22.80 L321.38,22.96 L321.88,23.12 L322.38,23.29 L322.88,23.46 L323.38,23.63 L323.88,23.79 L324.39,23.96 L324.89,24.14 L325.39,24.31 L325.89,24.48 L326.39,24.66 L326.89,24.83 L327.39,25.01 L327.89,25.18 L328.39,25.36 L328.89,25.54 L329.39,25.72 L329.89,25.90 L330.39,26.08 L330.89,26.26 L331.39,26.44 L331.89,26.63 L332.39,26.81 L332.90,26.99 L333.40,27.18 L333.90,27.36 L334.40,27.55 L334.90,27.73 L335.40,27.92 L335.90,28.11 L336.40,28.29 L336.90,28.48 L337.40,28.67 L337.90,28.86 L338.40,29.05 L338.90,29.23 L339.40,29.42 L339.90,29.61 L340.40,29.80 L340.90,29.99 L341.41,30.18 L341.91,30.37 L342.41,30.56 L342.91,30.75 L343.41,30.94 L343.91,31.13 L344.41,31.32 L344.91,31.51 L345.41,31.70 L345.91,31.89 L346.41,32.08 L346.91,32.27 L347.41,32.46 L347.91,32.65 L348.41,32.85 L348.91,33.04 L349.41,33.23 L349.92,33.42 L350.42,33.61 L350.92,33.80 L351.42,33.99 L351.92,34.18 L352.42,34.37 L352.92,34.56 L353.42,34.75 L353.92,34.94 L354.42,35.12 L354.92,35.31 L355.42,35.50 L355.92,35.69 L356.42,35.88 L356.92,36.07 L357.42,36.26 L357.93,36.44 L358.43,36.63 L358.93,36.82 L359.43,37.01 L359.93,37.19 L360.43,37.38 L360.93,37.57 L361.43,37.75 L361.93,37.94 L362.43,38.12 L362.93,38.31 L363.43,38.49 L363.93,38.68 L364.43,38.86 L364.93,39.05 L365.43,39.23 L365.93,39.41 L366.44,39.59 L366.94,39.78 L367.44,39.96 L367.94,40.14 L368.44,40.32 L368.94,40.50 L369.44,40.69 L369.94,40.87 L370.44,41.05 L370.94,41.23 L371.44,41.40 L371.94,41.58 L372.44,41.76 L372.94,41.94 L373.44,42.12 L373.94,42.30 L374.44,42.47 L374.95,42.65 L375.45,42.82 L375.95,43.00 L376.45,43.18 L376.95,43.35 L377.45,43.53 L377.95,43.70 L378.45,43.87 L378.95,44.05 L379.45,44.22 L379.95,44.39 L380.45,44.56 L380.95,44.73 L381.45,44.91 L381.95,45.08 L382.45,45.25 L382.95,45.42 L383.46,45.59 L383.96,45.75 L384.46,45.92 L384.96,46.09 L385.46,46.26 L385.96,46.43 L386.46,46.59 L386.96,46.76 L387.46,46.92 L387.96,47.09 L388.46,47.26 L388.96,47.42 L389.46,47.58 L389.96,47.75 L390.46,47.91 L390.96,48.07 L391.46,48.24 L391.97,48.40 L392.47,48.56 L392.97,48.72 L393.47,48.88 L393.97,49.04 L394.47,49.20 L394.97,49.36 L395.47,49.52 L395.97,49.68 L396.47,49.83 L396.97,49.99 L397.47,50.15 L397.97,50.30 L398.47,50.46 L398.97,50.61 L399.47,50.77 L399.98,50.92 L400.48,51.08 L400.98,51.23 L401.48,51.38 L401.98,51.54 L402.48,51.69 L402.98,51.84 L403.48,51.99 L403.98,52.14 L404.48,52.29 L404.98,52.44 L405.48,52.59 L405.98,52.74 L406.48,52.89 L406.98,53.04 L407.48,53.19 L407.98,53.34 L408.49,53.48 L408.99,53.63 L409.49,53.78 L409.99,53.92 L410.49,54.07 L410.99,54.21 L411.49,54.35 L411.99,54.50 L412.49,54.64 L412.99,54.78 L413.49,54.93 L413.99,55.07 L414.49,55.21 L414.99,55.35 L415.49,55.49 L415.99,55.63 L416.49,55.77 L417.00,55.91 L417.50,56.05 L418.00,56.19 L418.50,56.33 L419.00,56.47 L419.50,56.60 L420.00,56.74 L420.50,56.88 L421.00,57.01" style="stroke-width: 3; stroke: rgb(74, 144, 226); stroke-opacity: 0.8; --darkreader-inline-stroke: #51d6ff;" data-darkreader-inline-stroke=""/></g></g><g class="test-xtl" style="font-family: &quot;Open Sans&quot;, verdana, arial, sans-serif;"><text text-anchor="middle" font-size="11" dominant-baseline="hanging" stroke="none" fill="rgb(255,255,255)" fill-opacity="1" x="1.468917244757085" y="134.54264062875143" data-darkreader-inline-fill="" data-darkreader-inline-stroke="" style="--darkreader-inline-fill: #ffffff; --darkreader-inline-stroke: none;">-3</text><text text-anchor="middle" font-size="11" dominant-baseline="hanging" stroke="none" fill="rgb(255,255,255)" fill-opacity="1" x="73.76379029163209" y="134.54264062875143" data-darkreader-inline-fill="" data-darkreader-inline-stroke="" style="--darkreader-inline-fill: #ffffff; --darkreader-inline-stroke: none;">-2</text><text text-anchor="middle" font-size="11" dominant-baseline="hanging" stroke="none" fill="rgb(255,255,255)" fill-opacity="1" x="146.0586633385071" y="134.54264062875143" data-darkreader-inline-fill="" data-darkreader-inline-stroke="" style="--darkreader-inline-fill: #ffffff; --darkreader-inline-stroke: none;">-1</text><text text-anchor="middle" font-size="11" dominant-baseline="hanging" stroke="none" fill="rgb(255,255,255)" fill-opacity="1" x="293.78340943225714" y="134.54264062875143" data-darkreader-inline-fill="" data-darkreader-inline-stroke="" style="--darkreader-inline-fill: #ffffff; --darkreader-inline-stroke: none;">1</text><text text-anchor="middle" font-size="11" dominant-baseline="hanging" stroke="none" fill="rgb(255,255,255)" fill-opacity="1" x="366.07828247913216" y="134.54264062875143" data-darkreader-inline-fill="" data-darkreader-inline-stroke="" style="--darkreader-inline-fill: #ffffff; --darkreader-inline-stroke: none;">2</text><text text-anchor="middle" font-size="11" dominant-baseline="hanging" stroke="none" fill="rgb(255,255,255)" fill-opacity="1" x="213.4885363853821" y="132.54264062875143" data-darkreader-inline-fill="" data-darkreader-inline-stroke="" style="--darkreader-inline-fill: #ffffff; --darkreader-inline-stroke: none;">0</text></g><g class="test-ytl" style="font-family: &quot;Open Sans&quot;, verdana, arial, sans-serif;"><text text-anchor="end" dominant-baseline="middle" font-size="11" stroke="none" fill="rgb(255,255,255)" fill-opacity="1" x="213.4885363853821" y="237.6401503943764" data-darkreader-inline-fill="" data-darkreader-inline-stroke="" style="--darkreader-inline-fill: #ffffff; --darkreader-inline-stroke: none;">-0.5</text><text text-anchor="end" dominant-baseline="middle" font-size="11" stroke="none" fill="rgb(255,255,255)" fill-opacity="1" x="213.4885363853821" y="17.445130863126366" data-darkreader-inline-fill="" data-darkreader-inline-stroke="" style="--darkreader-inline-fill: #ffffff; --darkreader-inline-stroke: none;">0.5</text></g><rect class="real" x="1" y="1" width="419" height="268" style="fill: transparent; stroke: none; --darkreader-inline-fill: transparent; --darkreader-inline-stroke: none;" data-darkreader-inline-fill="" data-darkreader-inline-stroke=""/></g></g></g><g/></g><g/><g/><g/></svg>
        <svg xmlns="http://www.w3.org/2000/svg" xmlns:xlink="http://www.w3.org/1999/xlink" width="700" height="335" style="width:700px;height:335px;font-family:Asana-Math, Asana;background:transparent;"></svg>
</svg>
