<svg xmlns="http://www.w3.org/2000/svg" width="702" height="337" style="width:702px;height:337px;background:0 0;fill:none"><svg xmlns="http://www.w3.org/2000/svg"/><svg xmlns="http://www.w3.org/2000/svg" class="role-diagram-draw-area" style="overflow:visible"><g class="shapes-region" style="stroke:#000;fill:none;--darkreader-inline-stroke:#ffffff;--darkreader-inline-fill:none"><g class="composite-shape" data-amt="diagram/shapes/plot"><g class="test-xti" style="font-family:Asana-Math,Asana"><path stroke="#fff" d="M0 127.543h417m-412.396-4v8m72.295-8v8m72.295-8v8m144.589-8v8m72.295-8v8" style="--darkreader-inline-stroke:#131a1d" transform="translate(117 29)"/><path fill="#fff" stroke="none" d="m412 123.943 8 3.6-8 3.6Z" style="--darkreader-inline-fill:#ffffff;--darkreader-inline-stroke:none" transform="translate(117 29)"/></g><g class="test-yti" style="font-family:Asana-Math,Asana"><path stroke="#fff" d="M221.489 4v266m-4-32.36h8m-8-220.195h8" style="--darkreader-inline-stroke:#131a1d" transform="translate(117 29)"/><path fill="#fff" stroke="none" d="m217.889 9 3.6-8 3.6 8Z" style="--darkreader-inline-fill:#ffffff;--darkreader-inline-stroke:none" transform="translate(117 29)"/></g><g class="test-plot-expression" transform="translate(117 29)"><defs><clipPath id="a"><path d="M1 1h419v268H1z"/></clipPath></defs><g clip-path="url(#a)"><path d="m0 192.5.5.11.5.12.5.12.5.12.5.12.5.12.5.12.5.13.51.12.5.12.5.12.5.12.5.13.5.12.5.13.5.12.5.12.5.13.5.13.5.12.5.13.5.12.5.13.5.13.5.13.51.13.5.12.5.13.5.13.5.13.5.13.5.13.5.13.5.14.5.13.5.13.5.13.5.14.5.13.5.13.5.14.5.13.51.14.5.13.5.14.5.14.5.13.5.14.5.14.5.14.5.14.5.14.5.14.5.14.5.14.5.14.5.14.5.14.51.14.5.14.5.15.5.14.5.14.5.15.5.14.5.15.5.14.5.15.5.15.5.14.5.15.5.15.5.15.5.15.5.15.51.15.5.15.5.15.5.15.5.15.5.15.5.15.5.16.5.15.5.15.5.16.5.15.5.16.5.15.5.16.5.15.5.16.51.16.5.16.5.15.5.16.5.16.5.16.5.16.5.16.5.16.5.16.5.17.5.16.5.16.5.16.5.17.5.16.5.17.51.16.5.17.5.16.5.17.5.17.5.16.5.17.5.17.5.17.5.17.5.17.5.17.5.17.5.17.5.17.5.17.5.17.51.17.5.18.5.17.5.17.5.18.5.17.5.18.5.17.5.18.5.17.5.18.5.18.5.18.5.17.5.18.5.18.51.18.5.18.5.18.5.18.5.18.5.18.5.18.5.18.5.18.5.19.5.18.5.18.5.18.5.19.5.18.5.19.5.18.51.19.5.18.5.19.5.18.5.19.5.18.5.19.5.19.5.18.5.19.5.19.5.19.5.19.5.18.5.19.5.19.5.19.51.19.5.19.5.19.5.19.5.19.5.19.5.19.5.19.5.19.5.19.5.19.5.19.5.19.5.19.5.19.5.19.5.19.51.19.5.19.5.19.5.19.5.19.5.19.5.19.5.19.5.19.5.19.5.19.5.19.5.19.5.19.5.19.5.19.5.19.51.18.5.19.5.19.5.19.5.18.5.19.5.19.5.18.5.19.5.18.5.18.5.19.5.18.5.18.5.18.5.18.5.18.51.18.5.18.5.18.5.18.5.17.5.18.5.17.5.17.5.18.5.17.5.17.5.17.5.16.5.17.5.17.5.16.51.16.5.17.5.16.5.16.5.15.5.16.5.15.5.16.5.15.5.15.5.14.5.15.5.14.5.14.5.14.5.14.5.14.51.13.5.13.5.13.5.13.5.13.5.12.5.12.5.11.5.12.5.11.5.11.5.11.5.1.5.1.5.1.5.09.5.09.51.09.5.08.5.08.5.08.5.07.5.07.5.07.5.06.5.06.5.05.5.05.5.05.5.04.5.04.5.03.5.03.5.02.51.02.5.01.5.01h1l.5-.01.5-.01.5-.02.5-.03.5-.03.5-.03.5-.05.5-.05.5-.05.5-.06.5-.07.5-.08.51-.08.5-.09.5-.09.5-.1.5-.11.5-.12.5-.13.5-.13.5-.14.5-.15.5-.16.5-.16.5-.18.5-.18.5-.19.5-.2.51-.21.5-.22.5-.23.5-.24.5-.24.5-.26.5-.27.5-.27.5-.29.5-.3.5-.31.5-.31.5-.33.5-.35.5-.35.5-.36.5-.37.51-.39.5-.4.5-.41.5-.42.5-.44.5-.44.5-.46.5-.47.5-.49.5-.49.5-.51.5-.53.5-.54.5-.55.5-.56.5-.58.5-.59.51-.6.5-.62.5-.64.5-.65.5-.66.5-.67.5-.7.5-.7.5-.72.5-.74.5-.75.5-.76.5-.79.5-.79.5-.81.5-.83.5-.84.51-.86.5-.87.5-.89.5-.9.5-.92.5-.93.5-.95.5-.96.5-.98.5-1 .5-1.01.5-1.02.5-1.05.5-1.05.5-1.07.5-1.09.5-1.1.51-1.11.5-1.13.5-1.15.5-1.16.5-1.17.5-1.19.5-1.2.5-1.21.5-1.23.5-1.24.5-1.26.5-1.27.5-1.28.5-1.29.5-1.31.5-1.32.5-1.32.51-1.35.5-1.35.5-1.36.5-1.38.5-1.38.5-1.4.5-1.4.5-1.41.5-1.43.5-1.43.5-1.44.5-1.45.5-1.45.5-1.47.5-1.47.5-1.47.51-1.48.5-1.49.5-1.5.5-1.5.5-1.5.5-1.51.5-1.51.5-1.51.5-1.52.5-1.52.5-1.52.5-1.52.5-1.53.5-1.52.5-1.52.5-1.53.5-1.52.51-1.53.5-1.52.5-1.52.5-1.51.5-1.52.5-1.51.5-1.5.5-1.51.5-1.49.5-1.5.5-1.49.5-1.48.5-1.47.5-1.47.5-1.47.5-1.45.5-1.45.51-1.44.5-1.43.5-1.42.5-1.41.5-1.41.5-1.39.5-1.38.5-1.38.5-1.36.5-1.35.5-1.34.5-1.33.5-1.32.5-1.3.5-1.29.5-1.28.5-1.27.51-1.25.5-1.24.5-1.23.5-1.21.5-1.2.5-1.19.5-1.17.5-1.16.5-1.14.5-1.13.5-1.12.5-1.09.5-1.09.5-1.07.5-1.05.5-1.04.5-1.03.51-1 .5-1 .5-.98.5-.96.5-.95.5-.93.5-.91.5-.91.5-.88.5-.87.5-.86.5-.84.5-.82.5-.81.5-.8.5-.78.5-.76.51-.75.5-.73.5-.72.5-.71.5-.69.5-.67.5-.66.5-.65.5-.63.5-.62.5-.6.5-.59.5-.58.5-.56.5-.55.5-.54.51-.52.5-.51.5-.5.5-.48.5-.47.5-.46.5-.44.5-.44.5-.42.5-.41.5-.39.5-.39.5-.37.5-.36.5-.35.5-.34.5-.33.51-.32.5-.31.5-.29.5-.29.5-.28.5-.26.5-.26.5-.24.5-.24.5-.23.5-.21.5-.21.5-.2.5-.19.5-.18.5-.18.5-.16.51-.16.5-.15.5-.14.5-.13.5-.12.5-.12.5-.11.5-.1.5-.1.5-.09.5-.08.5-.07.5-.07.5-.06.5-.05.5-.05.5-.04.51-.04.5-.03.5-.02.5-.02.5-.02h1.5l.5.01.5.01.5.02.5.02.5.03.5.03.5.04.5.04.5.05.51.05.5.05.5.06.5.06.5.07.5.07.5.07.5.08.5.08.5.09.5.08.5.09.5.1.5.1.5.1.5.1.51.11.5.11.5.11.5.11.5.12.5.12.5.12.5.13.5.12.5.13.5.14.5.13.5.14.5.13.5.14.5.15.5.14.51.15.5.14.5.15.5.15.5.16.5.15.5.16.5.16.5.15.5.17.5.16.5.16.5.16.5.17.5.17.5.17.5.16.51.17.5.18.5.17.5.17.5.18.5.17.5.18.5.17.5.18.5.18.5.18.5.18.5.18.5.18.5.18.5.19.5.18.51.18.5.19.5.18.5.19.5.18.5.19.5.19.5.18.5.19.5.19.5.19.5.19.5.18.5.19.5.19.5.19.5.19.51.19.5.19.5.19.5.19.5.19.5.19.5.19.5.19.5.19.5.19.5.19.5.19.5.19.5.19.5.2.5.19.5.19.51.19.5.19.5.19.5.19.5.19.5.19.5.19.5.19.5.19.5.18.5.19.5.19.5.19.5.19.5.19.5.19.51.18.5.19.5.19.5.19.5.18.5.19.5.19.5.18.5.19.5.18.5.19.5.18.5.19.5.18.5.19.5.18.5.18.51.18.5.19.5.18.5.18.5.18.5.18.5.19.5.18.5.18.5.18.5.17.5.18.5.18.5.18.5.18.5.18.5.17.51.18.5.17.5.18.5.18.5.17.5.18.5.17.5.17.5.18.5.17.5.17.5.17.5.17.5.18.5.17.5.17.5.17.51.17.5.16.5.17.5.17.5.17.5.17.5.16.5.17.5.16.5.17.5.17.5.16.5.16.5.17.5.16.5.16.5.17.51.16.5.16.5.16.5.16.5.16.5.16.5.16.5.16.5.16.5.15.5.16.5.16.5.15.5.16.5.15.5.16.51.15.5.16.5.15.5.15.5.16.5.15.5.15.5.15.5.15.5.15.5.15.5.15.5.15.5.15.5.15.5.15.5.15.51.14.5.15.5.15.5.14.5.15.5.14.5.14.5.15.5.14.5.14.5.15.5.14.5.14.5.14.5.14.5.14.5.14.51.14.5.14.5.14.5.14.5.14.5.13.5.14.5.14.5.13" style="stroke-width:3;stroke:#4a90e2;stroke-opacity:.8;--darkreader-inline-stroke:#51d6ff"/></g></g><g fill="#fff" stroke="none" class="test-xtl" dominant-baseline="hanging" font-size="11" style="font-family:&quot;Open Sans&quot;,verdana,arial,sans-serif" text-anchor="middle"><text x="1.469" y="134.543" style="--darkreader-inline-fill:#ffffff;--darkreader-inline-stroke:none" transform="translate(117 29)">-3</text><text x="73.764" y="134.543" style="--darkreader-inline-fill:#ffffff;--darkreader-inline-stroke:none" transform="translate(117 29)">-2</text><text x="146.059" y="134.543" style="--darkreader-inline-fill:#ffffff;--darkreader-inline-stroke:none" transform="translate(117 29)">-1</text><text x="293.783" y="134.543" style="--darkreader-inline-fill:#ffffff;--darkreader-inline-stroke:none" transform="translate(117 29)">1</text><text x="366.078" y="134.543" style="--darkreader-inline-fill:#ffffff;--darkreader-inline-stroke:none" transform="translate(117 29)">2</text><text x="213.489" y="132.543" style="--darkreader-inline-fill:#ffffff;--darkreader-inline-stroke:none" transform="translate(117 29)">0</text></g><g fill="#fff" stroke="none" class="test-ytl" dominant-baseline="middle" font-size="11" style="font-family:&quot;Open Sans&quot;,verdana,arial,sans-serif" text-anchor="end"><text x="213.489" y="237.64" style="--darkreader-inline-fill:#ffffff;--darkreader-inline-stroke:none" transform="translate(117 29)">-0.5</text><text x="213.489" y="17.445" style="--darkreader-inline-fill:#ffffff;--darkreader-inline-stroke:none" transform="translate(117 29)">0.5</text></g><path stroke="none" d="M1 1h419v268H1z" class="real" style="fill:transparent;stroke:none;--darkreader-inline-fill:transparent;--darkreader-inline-stroke:none" transform="translate(117 29)"/></g></g></svg><svg xmlns="http://www.w3.org/2000/svg" xmlns:xlink="http://www.w3.org/1999/xlink" width="700" height="335" style="width:700px;height:335px;font-family:Asana-Math,Asana;background:0 0"/></svg>