<svg xmlns="http://www.w3.org/2000/svg" width="702" height="337" style="width:702px;height:337px;background:0 0;fill:none"><svg xmlns="http://www.w3.org/2000/svg"/><svg xmlns="http://www.w3.org/2000/svg" class="role-diagram-draw-area" style="overflow:visible"><g class="shapes-region" style="stroke:#000;fill:none;--darkreader-inline-stroke:#ffffff;--darkreader-inline-fill:none"><g class="composite-shape" data-amt="diagram/shapes/plot"><g class="test-xti" style="font-family:Asana-Math,Asana"><path stroke="#FFF" d="M0 227.803h417m-257.374-4v8m85-8v8m85-8v8m85-8v8" style="--darkreader-inline-stroke:#131a1d" transform="translate(117 29)"/><path fill="#FFF" stroke="none" d="m412 224.203 8 3.6-8 3.6Z" style="--darkreader-inline-fill:#ffffff;--darkreader-inline-stroke:none" transform="translate(117 29)"/></g><g class="test-yti" style="font-family:Asana-Math,Asana"><path stroke="#FFF" d="M74.626 4v266m-4-127.197h8m-8-85h8" style="--darkreader-inline-stroke:#131a1d" transform="translate(117 29)"/><path fill="#FFF" stroke="none" d="m71.026 9 3.6-8 3.6 8Z" style="--darkreader-inline-fill:#ffffff;--darkreader-inline-stroke:none" transform="translate(117 29)"/></g><g class="test-plot-expression" transform="translate(117 29)"><defs><clipPath id="a"><path d="M1 1h419v268H1z"/></clipPath></defs><g clip-path="url(#a)"><path d="m0 311.82.5-.15.5-.16.5-.17.5-.19.5-.21.5-.21.5-.24.5-.25.51-.26.5-.28.5-.3.5-.32.5-.33.5-.35.5-.37.5-.38.5-.41.5-.42.5-.44.5-.46.5-.48.5-.5.5-.51.5-.53.5-.56.51-.57.5-.59.5-.6.5-.63.5-.64.5-.66.5-.68.5-.69.5-.71.5-.73.5-.75.5-.76.5-.77.5-.8.5-.8.5-.82.5-.84.51-.85.5-.86.5-.87.5-.89.5-.9.5-.91.5-.92.5-.93.5-.93.5-.95.5-.96.5-.96.5-.97.5-.97.5-.98.5-.99.51-.99.5-.99.5-1 .5-1 .5-1 .5-1 .5-1 .5-1 .5-1 .5-1 .5-.99.5-1 .5-.98.5-.99.5-.97.5-.97.5-.97.51-.96.5-.95.5-.94.5-.93.5-.92.5-.92.5-.9.5-.89.5-.88.5-.86.5-.86.5-.84.5-.82.5-.82.5-.79.5-.78.5-.77.51-.75.5-.74.5-.71.5-.7.5-.69.5-.66.5-.65.5-.63.5-.62.5-.59.5-.58.5-.56.5-.54.5-.52.5-.5.5-.49.5-.46.51-.45.5-.43.5-.41.5-.39.5-.38.5-.35.5-.34.5-.32.5-.31.5-.29.5-.27.5-.25.5-.24.5-.22.5-.21.5-.2.5-.17.51-.17.5-.15.5-.14.5-.12.5-.12.5-.1.5-.09.5-.08.5-.07.5-.07.5-.05.5-.04.5-.04.5-.03.5-.03.5-.02.51-.01.5-.01.5-.01h.5l.5-.01h3l.5-.01.5-.01.5-.02.5-.01.5-.03.5-.03.51-.04.5-.04.5-.05.5-.06.5-.07.5-.08.5-.09.5-.1.5-.11.5-.13.5-.13.5-.15.5-.17.5-.17.5-.19.5-.21.5-.22.51-.24.5-.25.5-.27.5-.28.5-.3.5-.32.5-.34.5-.35.5-.38.5-.39.5-.4.5-.43.5-.44.5-.47.5-.48.5-.5.5-.52.51-.53.5-.56.5-.57.5-.6.5-.61.5-.63.5-.64.5-.67.5-.68.5-.69.5-.72.5-.73.5-.75.5-.76.5-.78.5-.8.5-.81.51-.82.5-.84.5-.85.5-.86.5-.88.5-.89.5-.9.5-.91.5-.92.5-.93.5-.94.5-.95.5-.96.5-.96.5-.97.5-.98.5-.98.51-.99.5-.99.5-1 .5-.99.5-1 .5-1 .5-1 .5-1 .5-1 .5-1 .5-1 .5-.99.5-.99.5-.99.5-.98.5-.98.51-.97.5-.96.5-.96.5-.95.5-.94.5-.93.5-.92.5-.91.5-.9.5-.89.5-.87.5-.87.5-.85.5-.84.5-.82.5-.81.5-.79.51-.78.5-.76.5-.75.5-.73.5-.72.5-.69.5-.68.5-.67.5-.64.5-.63.5-.61.5-.59.5-.57.5-.56.5-.53.5-.52.5-.5.51-.48.5-.46.5-.45.5-.42.5-.41.5-.39.5-.37.5-.35.5-.34.5-.32.5-.3.5-.28.5-.27.5-.25.5-.24.5-.22.5-.2.51-.19.5-.18.5-.16.5-.15.5-.13.5-.13.5-.11.5-.1.5-.09.5-.08.5-.07.5-.06.5-.05.5-.04.5-.04.5-.03.5-.02.51-.02.5-.01.5-.01.5-.01h.5l.5-.01h2.5l.5-.01h.5l.5-.01.5-.02.5-.02.51-.02.5-.04.5-.03.5-.05.5-.05.5-.07.5-.07.5-.08.5-.09.5-.1.5-.12.5-.12.5-.14.5-.15.5-.17.5-.18.5-.19.51-.21.5-.23.5-.24.5-.25.5-.27.5-.29.5-.31.5-.32.5-.34.5-.36.5-.37.5-.4.5-.41.5-.43.5-.45.5-.46.5-.49.51-.5.5-.52.5-.55.5-.55.5-.58.5-.6.5-.61.5-.63.5-.65.5-.67.5-.69.5-.7.5-.72.5-.73.5-.75.5-.77.5-.78.51-.8.5-.81.5-.83.5-.84.5-.85.5-.87.5-.88.5-.89.5-.9.5-.92.5-.92.5-.93.5-.94.5-.96.5-.95.5-.97.5-.97.51-.98.5-.98.5-.99.5-.99.5-1 .5-.99.5-1 .5-1 .5-1 .5-1.01.5-1 .5-.99.5-1 .5-.99.5-.99.5-.99.5-.98.51-.98.5-.97.5-.96.5-.95.5-.95.5-.94.5-.93.5-.91.5-.91.5-.9.5-.89.5-.87.5-.86.5-.85.5-.83.5-.82.51-.81.5-.79.5-.78.5-.76.5-.74.5-.73.5-.71.5-.69.5-.68.5-.66.5-.64.5-.62.5-.61.5-.59.5-.57.5-.55.5-.53.51-.51.5-.5.5-.48.5-.45.5-.44.5-.43.5-.4.5-.39.5-.36.5-.35.5-.33.5-.32.5-.3.5-.28.5-.26.5-.25.5-.23.51-.22.5-.2.5-.19.5-.17.5-.16.5-.15.5-.13.5-.12.5-.11.5-.1.5-.09.5-.07.5-.07.5-.06.5-.05.5-.04.5-.03.51-.03.5-.03.5-.01.5-.02.5-.01h.5l.5-.01h3l.5-.01h.5l.5-.02.5-.01.51-.02.5-.03.5-.03.5-.04.5-.05.5-.05.5-.07.5-.07.5-.09.5-.09.5-.1.5-.12.5-.13.5-.14.5-.16.5-.16.5-.19.51-.19.5-.22.5-.22.5-.25.5-.25.5-.28.5-.29.5-.31.5-.33.5-.34.5-.36.5-.38.5-.4.5-.41.5-.44.5-.45.51-.47.5-.49.5-.51.5-.52.5-.55.5-.56.5-.58.5-.6.5-.62.5-.63.5-.66.5-.67.5-.69.5-.7.5-.72.5-.74.5-.76.51-.77.5-.78.5-.8.5-.82.5-.83.5-.84.5-.86.5-.87.5-.88.5-.89.5-.91.5-.91.5-.93.5-.93.5-.95.5-.95.5-.96.51-.96.5-.98.5-.98.5-.98.5-.99.5-.99.5-1 .5-1 .5-.99.5-1.01.5-1 .5-1 .5-1 .5-1 .5-.99.5-.99.5-.99.51-.99.5-.98.5-.97.5-.97.5-.96.5-.95.5-.95.5-.94.5-.92.5-.92.5-.9.5-.9.5-.88.5-.87.5-.86.5-.85.5-.83.51-.82.5-.8.5-.79.5-.77.5-.76.5-.74.5-.72.5-.71.5-.69.5-.67.5-.66.5-.64.5-.62.5-.6.5-.58.5-.57.51-.55.5-.53.5-.51.5-.49.5-.47.5-.46.5-.43.5-.42.5-.4.5-.38.5-.36.5-.35.5-.33.5-.31.5-.3.5-.27.5-.26.51-.25.5-.23.5-.21.5-.2.5-.19.5-.17.5-.15.5-.15.5-.13.5-.11.5-.11.5-.1.5-.08.5-.08.5-.06.5-.06.5-.05.51-.04.5-.03.5-.03.5-.02.5-.02.5-.01.5-.01h.5l.5-.01h3l.5-.01.5-.01.51-.01.5-.02.5-.02.5-.03.5-.03.5-.04.5-.05.5-.06.5-.06.5-.08.5-.08.5-.1.5-.11.5-.12.5-.13.5-.14.5-.16.51-.17.5-.19.5-.2.5-.21.5-.23.5-.25.5-.26.5-.28.5-.29.5-.31.5-.33.5-.35.5-.37.5-.38.5-.4.5-.42.5-.44.51-.45.5-.48.5-.49.5-.51.5-.53.5-.55.5-.57.5-.58.5-.6.5-.63.5-.63.5-.66.5-.68.5-.69.5-.71.5-.72.51-.74.5-.76.5-.77.5-.79.5-.81.5-.81.5-.84.5-.84.5-.86.5-.87.5-.89.5-.89.5-.91.5-.92.5-.93.5-.93.5-.95.51-.95.5-.96.5-.97.5-.97.5-.98.5-.99.5-.99.5-.99.5-1 .5-1 .5-1 .5-1 .5-1 .5-1 .5-1 .5-1 .5-.99.51-.99.5-.99.5-.99.5-.98.5-.97.5-.96.5-.96.5-.96.5-.94.5-.93.5-.93.5-.91.5-.91.5-.89.5-.88.5-.87.5-.85.51-.85.5-.83.5-.81.5-.8.5-.78.5-.77.5-.76.5-.74.5-.72.5-.7.5-.69.5-.67.5-.65.5-.63.5-.62.5-.6.5-.58.51-.56.5-.54.5-.53.5-.51.5-.48.5-.47.5-.45.5-.44.5-.41.5-.4.5-.38.5-.36.5-.34.5-.32.5-.31.5-.29.51-.28.5-.25.5-.25.5-.22.5-.21.5-.2.5-.18.5-.17.5-.15.5-.14.5-.13.5-.12.5-.1.5-.09.5-.09.5-.07.5-.06.51-.06.5-.05.5-.03.5-.04.5-.02.5-.02.5-.02.5-.01.5-.01h.5l.5-.01h3l.51-.01.5-.01.5-.01.5-.02.5-.02.5-.03.5-.04.5-.04.5-.05" style="stroke-width:3;stroke:#4a90e2;stroke-opacity:.8;--darkreader-inline-stroke:#51d6ff"/></g></g><g fill="#FFF" stroke="none" class="test-xtl" dominant-baseline="hanging" font-size="11" style="font-family:&quot;Open Sans&quot;,verdana,arial,sans-serif" text-anchor="middle"><text x="159.626" y="234.803" style="--darkreader-inline-fill:#ffffff;--darkreader-inline-stroke:none" transform="translate(117 29)">1</text><text x="244.626" y="234.803" style="--darkreader-inline-fill:#ffffff;--darkreader-inline-stroke:none" transform="translate(117 29)">2</text><text x="329.626" y="234.803" style="--darkreader-inline-fill:#ffffff;--darkreader-inline-stroke:none" transform="translate(117 29)">3</text><text x="414.626" y="234.803" style="--darkreader-inline-fill:#ffffff;--darkreader-inline-stroke:none" transform="translate(117 29)">4</text><text x="66.626" y="232.803" style="--darkreader-inline-fill:#ffffff;--darkreader-inline-stroke:none" transform="translate(117 29)">0</text></g><g fill="#FFF" stroke="none" class="test-ytl" dominant-baseline="middle" font-size="11" style="font-family:&quot;Open Sans&quot;,verdana,arial,sans-serif" text-anchor="end"><text x="66.626" y="142.803" style="--darkreader-inline-fill:#ffffff;--darkreader-inline-stroke:none" transform="translate(117 29)">1</text><text x="66.626" y="57.803" style="--darkreader-inline-fill:#ffffff;--darkreader-inline-stroke:none" transform="translate(117 29)">2</text></g><path stroke="none" d="M1 1h419v268H1z" class="real" style="fill:transparent;stroke:none;--darkreader-inline-fill:transparent;--darkreader-inline-stroke:none" transform="translate(117 29)"/></g></g></svg><svg xmlns="http://www.w3.org/2000/svg" xmlns:xlink="http://www.w3.org/1999/xlink" width="700" height="335" style="width:700px;height:335px;font-family:Asana-Math,Asana;background:0 0"/></svg>