<svg xmlns="http://www.w3.org/2000/svg" xmlns:xlink="http://www.w3.org/1999/xlink" x="0" y="0" width="702" height="337" style="
        width:702px;
        height:337px;
        background: transparent;
        fill: none;
">
        <svg xmlns="http://www.w3.org/2000/svg"/>
        
        <svg xmlns="http://www.w3.org/2000/svg" class="role-diagram-draw-area" style="overflow: visible;"><g class="shapes-region" style="stroke: black; fill: none; --darkreader-inline-stroke: #ffffff; --darkreader-inline-fill: none;" data-darkreader-inline-stroke="" data-darkreader-inline-fill=""><g class="composite-shape" data-amt="diagram/shapes/plot" transform="matrix(1,0,0,1,117,29)"><g><g/><g><g class="test-xti" style="font-family: Asana-Math, Asana;"><line x1="0" y1="227.80253127583825" x2="417" y2="227.80253127583825" fill="none" stroke="rgb(255,255,255)" stroke-opacity="1" stroke-width="1" data-darkreader-inline-stroke="" style="--darkreader-inline-stroke: #131a1d;"/><line x1="159.62649744356898" y1="223.80253127583825" x2="159.62649744356898" y2="231.80253127583825" fill="none" stroke="rgb(255,255,255)" stroke-opacity="1" stroke-width="1" data-darkreader-inline-stroke="" style="--darkreader-inline-stroke: #131a1d;"/><line x1="244.62649744356898" y1="223.80253127583825" x2="244.62649744356898" y2="231.80253127583825" fill="none" stroke="rgb(255,255,255)" stroke-opacity="1" stroke-width="1" data-darkreader-inline-stroke="" style="--darkreader-inline-stroke: #131a1d;"/><line x1="329.626497443569" y1="223.80253127583825" x2="329.626497443569" y2="231.80253127583825" fill="none" stroke="rgb(255,255,255)" stroke-opacity="1" stroke-width="1" data-darkreader-inline-stroke="" style="--darkreader-inline-stroke: #131a1d;"/><line x1="414.626497443569" y1="223.80253127583825" x2="414.626497443569" y2="231.80253127583825" fill="none" stroke="rgb(255,255,255)" stroke-opacity="1" stroke-width="1" data-darkreader-inline-stroke="" style="--darkreader-inline-stroke: #131a1d;"/><path d="M412,224.20253127583825 L420,227.80253127583825 L412,231.40253127583824 Z" stroke="none" stroke-width="1" fill="rgb(255,255,255)" fill-opacity="1" data-darkreader-inline-fill="" data-darkreader-inline-stroke="" style="--darkreader-inline-fill: #ffffff; --darkreader-inline-stroke: none;"/></g><g class="test-yti" style="font-family: Asana-Math, Asana;"><line x1="74.62649744356895" y1="4" x2="74.62649744356895" y2="270" fill="none" stroke="rgb(255,255,255)" stroke-opacity="1" stroke-width="1" data-darkreader-inline-stroke="" style="--darkreader-inline-stroke: #131a1d;"/><line x1="70.62649744356895" y1="142.80253127583825" x2="78.62649744356895" y2="142.80253127583825" fill="none" stroke="rgb(255,255,255)" stroke-opacity="1" stroke-width="1" data-darkreader-inline-stroke="" style="--darkreader-inline-stroke: #131a1d;"/><line x1="70.62649744356895" y1="57.80253127583825" x2="78.62649744356895" y2="57.80253127583825" fill="none" stroke="rgb(255,255,255)" stroke-opacity="1" stroke-width="1" data-darkreader-inline-stroke="" style="--darkreader-inline-stroke: #131a1d;"/><path d="M71.02649744356896,9 L74.62649744356895,1 L78.22649744356895,9 Z" stroke="none" stroke-width="1" fill="rgb(255,255,255)" fill-opacity="1" data-darkreader-inline-fill="" data-darkreader-inline-stroke="" style="--darkreader-inline-fill: #ffffff; --darkreader-inline-stroke: none;"/></g><g class="test-plot-expression"><defs><clipPath id="cpr05kap1ypdg-full-view"><rect x="1" y="1" width="419" height="268"/></clipPath></defs><g clip-path="url(#cpr05kap1ypdg-full-view)"><path d=" M0.00,311.82 L0.50,311.67 L1.00,311.51 L1.50,311.34 L2.00,311.15 L2.50,310.94 L3.00,310.73 L3.50,310.49 L4.00,310.24 L4.51,309.98 L5.01,309.70 L5.51,309.40 L6.01,309.08 L6.51,308.75 L7.01,308.40 L7.51,308.03 L8.01,307.65 L8.51,307.24 L9.01,306.82 L9.51,306.38 L10.01,305.92 L10.51,305.44 L11.01,304.94 L11.51,304.43 L12.01,303.90 L12.51,303.34 L13.02,302.77 L13.52,302.18 L14.02,301.58 L14.52,300.95 L15.02,300.31 L15.52,299.65 L16.02,298.97 L16.52,298.28 L17.02,297.57 L17.52,296.84 L18.02,296.09 L18.52,295.33 L19.02,294.56 L19.52,293.76 L20.02,292.96 L20.52,292.14 L21.02,291.30 L21.53,290.45 L22.03,289.59 L22.53,288.72 L23.03,287.83 L23.53,286.93 L24.03,286.02 L24.53,285.10 L25.03,284.17 L25.53,283.24 L26.03,282.29 L26.53,281.33 L27.03,280.37 L27.53,279.40 L28.03,278.43 L28.53,277.45 L29.03,276.46 L29.54,275.47 L30.04,274.48 L30.54,273.48 L31.04,272.48 L31.54,271.48 L32.04,270.48 L32.54,269.48 L33.04,268.48 L33.54,267.48 L34.04,266.48 L34.54,265.49 L35.04,264.49 L35.54,263.51 L36.04,262.52 L36.54,261.55 L37.04,260.58 L37.54,259.61 L38.05,258.65 L38.55,257.70 L39.05,256.76 L39.55,255.83 L40.05,254.91 L40.55,253.99 L41.05,253.09 L41.55,252.20 L42.05,251.32 L42.55,250.46 L43.05,249.60 L43.55,248.76 L44.05,247.94 L44.55,247.12 L45.05,246.33 L45.55,245.55 L46.05,244.78 L46.56,244.03 L47.06,243.29 L47.56,242.58 L48.06,241.88 L48.56,241.19 L49.06,240.53 L49.56,239.88 L50.06,239.25 L50.56,238.63 L51.06,238.04 L51.56,237.46 L52.06,236.90 L52.56,236.36 L53.06,235.84 L53.56,235.34 L54.06,234.85 L54.56,234.39 L55.07,233.94 L55.57,233.51 L56.07,233.10 L56.57,232.71 L57.07,232.33 L57.57,231.98 L58.07,231.64 L58.57,231.32 L59.07,231.01 L59.57,230.72 L60.07,230.45 L60.57,230.20 L61.07,229.96 L61.57,229.74 L62.07,229.53 L62.57,229.33 L63.07,229.16 L63.58,228.99 L64.08,228.84 L64.58,228.70 L65.08,228.58 L65.58,228.46 L66.08,228.36 L66.58,228.27 L67.08,228.19 L67.58,228.12 L68.08,228.05 L68.58,228.00 L69.08,227.96 L69.58,227.92 L70.08,227.89 L70.58,227.86 L71.08,227.84 L71.59,227.83 L72.09,227.82 L72.59,227.81 L73.09,227.81 L73.59,227.80 L74.09,227.80 L74.59,227.80 L75.09,227.80 L75.59,227.80 L76.09,227.80 L76.59,227.80 L77.09,227.79 L77.59,227.78 L78.09,227.76 L78.59,227.75 L79.09,227.72 L79.59,227.69 L80.10,227.65 L80.60,227.61 L81.10,227.56 L81.60,227.50 L82.10,227.43 L82.60,227.35 L83.10,227.26 L83.60,227.16 L84.10,227.05 L84.60,226.92 L85.10,226.79 L85.60,226.64 L86.10,226.47 L86.60,226.30 L87.10,226.11 L87.60,225.90 L88.10,225.68 L88.61,225.44 L89.11,225.19 L89.61,224.92 L90.11,224.64 L90.61,224.34 L91.11,224.02 L91.61,223.68 L92.11,223.33 L92.61,222.95 L93.11,222.56 L93.61,222.16 L94.11,221.73 L94.61,221.29 L95.11,220.82 L95.61,220.34 L96.11,219.84 L96.61,219.32 L97.12,218.79 L97.62,218.23 L98.12,217.66 L98.62,217.06 L99.12,216.45 L99.62,215.82 L100.12,215.18 L100.62,214.51 L101.12,213.83 L101.62,213.14 L102.12,212.42 L102.62,211.69 L103.12,210.94 L103.62,210.18 L104.12,209.40 L104.62,208.60 L105.12,207.79 L105.63,206.97 L106.13,206.13 L106.63,205.28 L107.13,204.42 L107.63,203.54 L108.13,202.65 L108.63,201.75 L109.13,200.84 L109.63,199.92 L110.13,198.99 L110.63,198.05 L111.13,197.10 L111.63,196.14 L112.13,195.18 L112.63,194.21 L113.13,193.23 L113.63,192.25 L114.14,191.26 L114.64,190.27 L115.14,189.27 L115.64,188.28 L116.14,187.28 L116.64,186.28 L117.14,185.28 L117.64,184.28 L118.14,183.28 L118.64,182.28 L119.14,181.28 L119.64,180.29 L120.14,179.30 L120.64,178.31 L121.14,177.33 L121.64,176.35 L122.15,175.38 L122.65,174.42 L123.15,173.46 L123.65,172.51 L124.15,171.57 L124.65,170.64 L125.15,169.72 L125.65,168.81 L126.15,167.91 L126.65,167.02 L127.15,166.15 L127.65,165.28 L128.15,164.43 L128.65,163.59 L129.15,162.77 L129.65,161.96 L130.15,161.17 L130.66,160.39 L131.16,159.63 L131.66,158.88 L132.16,158.15 L132.66,157.43 L133.16,156.74 L133.66,156.06 L134.16,155.39 L134.66,154.75 L135.16,154.12 L135.66,153.51 L136.16,152.92 L136.66,152.35 L137.16,151.79 L137.66,151.26 L138.16,150.74 L138.66,150.24 L139.17,149.76 L139.67,149.30 L140.17,148.85 L140.67,148.43 L141.17,148.02 L141.67,147.63 L142.17,147.26 L142.67,146.91 L143.17,146.57 L143.67,146.25 L144.17,145.95 L144.67,145.67 L145.17,145.40 L145.67,145.15 L146.17,144.91 L146.67,144.69 L147.17,144.49 L147.68,144.30 L148.18,144.12 L148.68,143.96 L149.18,143.81 L149.68,143.68 L150.18,143.55 L150.68,143.44 L151.18,143.34 L151.68,143.25 L152.18,143.17 L152.68,143.10 L153.18,143.04 L153.68,142.99 L154.18,142.95 L154.68,142.91 L155.18,142.88 L155.68,142.86 L156.19,142.84 L156.69,142.83 L157.19,142.82 L157.69,142.81 L158.19,142.81 L158.69,142.80 L159.19,142.80 L159.69,142.80 L160.19,142.80 L160.69,142.80 L161.19,142.80 L161.69,142.79 L162.19,142.79 L162.69,142.78 L163.19,142.76 L163.69,142.74 L164.20,142.72 L164.70,142.68 L165.20,142.65 L165.70,142.60 L166.20,142.55 L166.70,142.48 L167.20,142.41 L167.70,142.33 L168.20,142.24 L168.70,142.14 L169.20,142.02 L169.70,141.90 L170.20,141.76 L170.70,141.61 L171.20,141.44 L171.70,141.26 L172.20,141.07 L172.71,140.86 L173.21,140.63 L173.71,140.39 L174.21,140.14 L174.71,139.87 L175.21,139.58 L175.71,139.27 L176.21,138.95 L176.71,138.61 L177.21,138.25 L177.71,137.88 L178.21,137.48 L178.71,137.07 L179.21,136.64 L179.71,136.19 L180.21,135.73 L180.71,135.24 L181.22,134.74 L181.72,134.22 L182.22,133.67 L182.72,133.12 L183.22,132.54 L183.72,131.94 L184.22,131.33 L184.72,130.70 L185.22,130.05 L185.72,129.38 L186.22,128.69 L186.72,127.99 L187.22,127.27 L187.72,126.54 L188.22,125.79 L188.72,125.02 L189.22,124.24 L189.73,123.44 L190.23,122.63 L190.73,121.80 L191.23,120.96 L191.73,120.11 L192.23,119.24 L192.73,118.36 L193.23,117.47 L193.73,116.57 L194.23,115.65 L194.73,114.73 L195.23,113.80 L195.73,112.86 L196.23,111.90 L196.73,110.95 L197.23,109.98 L197.73,109.01 L198.24,108.03 L198.74,107.05 L199.24,106.06 L199.74,105.07 L200.24,104.07 L200.74,103.08 L201.24,102.08 L201.74,101.08 L202.24,100.08 L202.74,99.07 L203.24,98.07 L203.74,97.08 L204.24,96.08 L204.74,95.09 L205.24,94.10 L205.74,93.11 L206.24,92.13 L206.75,91.15 L207.25,90.18 L207.75,89.22 L208.25,88.27 L208.75,87.32 L209.25,86.38 L209.75,85.45 L210.25,84.54 L210.75,83.63 L211.25,82.73 L211.75,81.84 L212.25,80.97 L212.75,80.11 L213.25,79.26 L213.75,78.43 L214.25,77.61 L214.76,76.80 L215.26,76.01 L215.76,75.23 L216.26,74.47 L216.76,73.73 L217.26,73.00 L217.76,72.29 L218.26,71.60 L218.76,70.92 L219.26,70.26 L219.76,69.62 L220.26,69.00 L220.76,68.39 L221.26,67.80 L221.76,67.23 L222.26,66.68 L222.76,66.15 L223.27,65.64 L223.77,65.14 L224.27,64.66 L224.77,64.21 L225.27,63.77 L225.77,63.34 L226.27,62.94 L226.77,62.55 L227.27,62.19 L227.77,61.84 L228.27,61.51 L228.77,61.19 L229.27,60.89 L229.77,60.61 L230.27,60.35 L230.77,60.10 L231.27,59.87 L231.78,59.65 L232.28,59.45 L232.78,59.26 L233.28,59.09 L233.78,58.93 L234.28,58.78 L234.78,58.65 L235.28,58.53 L235.78,58.42 L236.28,58.32 L236.78,58.23 L237.28,58.16 L237.78,58.09 L238.28,58.03 L238.78,57.98 L239.28,57.94 L239.78,57.91 L240.29,57.88 L240.79,57.85 L241.29,57.84 L241.79,57.82 L242.29,57.81 L242.79,57.81 L243.29,57.80 L243.79,57.80 L244.29,57.80 L244.79,57.80 L245.29,57.80 L245.79,57.80 L246.29,57.80 L246.79,57.79 L247.29,57.79 L247.79,57.77 L248.29,57.76 L248.80,57.74 L249.30,57.71 L249.80,57.68 L250.30,57.64 L250.80,57.59 L251.30,57.54 L251.80,57.47 L252.30,57.40 L252.80,57.31 L253.30,57.22 L253.80,57.12 L254.30,57.00 L254.80,56.87 L255.30,56.73 L255.80,56.57 L256.30,56.41 L256.80,56.22 L257.31,56.03 L257.81,55.81 L258.31,55.59 L258.81,55.34 L259.31,55.09 L259.81,54.81 L260.31,54.52 L260.81,54.21 L261.31,53.88 L261.81,53.54 L262.31,53.18 L262.81,52.80 L263.31,52.40 L263.81,51.99 L264.31,51.55 L264.81,51.10 L265.32,50.63 L265.82,50.14 L266.32,49.63 L266.82,49.11 L267.32,48.56 L267.82,48.00 L268.32,47.42 L268.82,46.82 L269.32,46.20 L269.82,45.57 L270.32,44.91 L270.82,44.24 L271.32,43.55 L271.82,42.85 L272.32,42.13 L272.82,41.39 L273.32,40.63 L273.83,39.86 L274.33,39.08 L274.83,38.28 L275.33,37.46 L275.83,36.63 L276.33,35.79 L276.83,34.93 L277.33,34.06 L277.83,33.18 L278.33,32.29 L278.83,31.38 L279.33,30.47 L279.83,29.54 L280.33,28.61 L280.83,27.66 L281.33,26.71 L281.83,25.75 L282.34,24.79 L282.84,23.81 L283.34,22.83 L283.84,21.85 L284.34,20.86 L284.84,19.87 L285.34,18.87 L285.84,17.87 L286.34,16.88 L286.84,15.87 L287.34,14.87 L287.84,13.87 L288.34,12.87 L288.84,11.87 L289.34,10.88 L289.84,9.89 L290.34,8.90 L290.85,7.91 L291.35,6.93 L291.85,5.96 L292.35,4.99 L292.85,4.03 L293.35,3.08 L293.85,2.13 L294.35,1.19 L294.85,0.27 L295.35,-0.65 L295.85,-1.55 L296.35,-2.45 L296.85,-3.33 L297.35,-4.20 L297.85,-5.06 L298.35,-5.91 L298.85,-6.74 L299.36,-7.56 L299.86,-8.36 L300.36,-9.15 L300.86,-9.92 L301.36,-10.68 L301.86,-11.42 L302.36,-12.14 L302.86,-12.85 L303.36,-13.54 L303.86,-14.21 L304.36,-14.87 L304.86,-15.51 L305.36,-16.13 L305.86,-16.73 L306.36,-17.31 L306.86,-17.88 L307.37,-18.43 L307.87,-18.96 L308.37,-19.47 L308.87,-19.96 L309.37,-20.43 L309.87,-20.89 L310.37,-21.32 L310.87,-21.74 L311.37,-22.14 L311.87,-22.52 L312.37,-22.88 L312.87,-23.23 L313.37,-23.56 L313.87,-23.87 L314.37,-24.17 L314.87,-24.44 L315.37,-24.70 L315.88,-24.95 L316.38,-25.18 L316.88,-25.39 L317.38,-25.59 L317.88,-25.78 L318.38,-25.95 L318.88,-26.10 L319.38,-26.25 L319.88,-26.38 L320.38,-26.49 L320.88,-26.60 L321.38,-26.70 L321.88,-26.78 L322.38,-26.86 L322.88,-26.92 L323.38,-26.98 L323.88,-27.03 L324.39,-27.07 L324.89,-27.10 L325.39,-27.13 L325.89,-27.15 L326.39,-27.17 L326.89,-27.18 L327.39,-27.19 L327.89,-27.19 L328.39,-27.20 L328.89,-27.20 L329.39,-27.20 L329.89,-27.20 L330.39,-27.20 L330.89,-27.20 L331.39,-27.20 L331.89,-27.21 L332.39,-27.22 L332.90,-27.23 L333.40,-27.25 L333.90,-27.27 L334.40,-27.30 L334.90,-27.33 L335.40,-27.37 L335.90,-27.42 L336.40,-27.48 L336.90,-27.54 L337.40,-27.62 L337.90,-27.70 L338.40,-27.80 L338.90,-27.91 L339.40,-28.03 L339.90,-28.16 L340.40,-28.30 L340.90,-28.46 L341.41,-28.63 L341.91,-28.82 L342.41,-29.02 L342.91,-29.23 L343.41,-29.46 L343.91,-29.71 L344.41,-29.97 L344.91,-30.25 L345.41,-30.54 L345.91,-30.85 L346.41,-31.18 L346.91,-31.53 L347.41,-31.90 L347.91,-32.28 L348.41,-32.68 L348.91,-33.10 L349.41,-33.54 L349.92,-33.99 L350.42,-34.47 L350.92,-34.96 L351.42,-35.47 L351.92,-36.00 L352.42,-36.55 L352.92,-37.12 L353.42,-37.70 L353.92,-38.30 L354.42,-38.93 L354.92,-39.56 L355.42,-40.22 L355.92,-40.90 L356.42,-41.59 L356.92,-42.30 L357.42,-43.02 L357.93,-43.76 L358.43,-44.52 L358.93,-45.29 L359.43,-46.08 L359.93,-46.89 L360.43,-47.70 L360.93,-48.54 L361.43,-49.38 L361.93,-50.24 L362.43,-51.11 L362.93,-52.00 L363.43,-52.89 L363.93,-53.80 L364.43,-54.72 L364.93,-55.65 L365.43,-56.58 L365.93,-57.53 L366.44,-58.48 L366.94,-59.44 L367.44,-60.41 L367.94,-61.38 L368.44,-62.36 L368.94,-63.35 L369.44,-64.34 L369.94,-65.33 L370.44,-66.33 L370.94,-67.33 L371.44,-68.33 L371.94,-69.33 L372.44,-70.33 L372.94,-71.33 L373.44,-72.33 L373.94,-73.33 L374.44,-74.32 L374.95,-75.31 L375.45,-76.30 L375.95,-77.29 L376.45,-78.27 L376.95,-79.24 L377.45,-80.20 L377.95,-81.16 L378.45,-82.12 L378.95,-83.06 L379.45,-83.99 L379.95,-84.92 L380.45,-85.83 L380.95,-86.74 L381.45,-87.63 L381.95,-88.51 L382.45,-89.38 L382.95,-90.23 L383.46,-91.08 L383.96,-91.91 L384.46,-92.72 L384.96,-93.52 L385.46,-94.30 L385.96,-95.07 L386.46,-95.83 L386.96,-96.57 L387.46,-97.29 L387.96,-97.99 L388.46,-98.68 L388.96,-99.35 L389.46,-100.00 L389.96,-100.63 L390.46,-101.25 L390.96,-101.85 L391.46,-102.43 L391.97,-102.99 L392.47,-103.53 L392.97,-104.06 L393.47,-104.57 L393.97,-105.05 L394.47,-105.52 L394.97,-105.97 L395.47,-106.41 L395.97,-106.82 L396.47,-107.22 L396.97,-107.60 L397.47,-107.96 L397.97,-108.30 L398.47,-108.62 L398.97,-108.93 L399.47,-109.22 L399.98,-109.50 L400.48,-109.75 L400.98,-110.00 L401.48,-110.22 L401.98,-110.43 L402.48,-110.63 L402.98,-110.81 L403.48,-110.98 L403.98,-111.13 L404.48,-111.27 L404.98,-111.40 L405.48,-111.52 L405.98,-111.62 L406.48,-111.71 L406.98,-111.80 L407.48,-111.87 L407.98,-111.93 L408.49,-111.99 L408.99,-112.04 L409.49,-112.07 L409.99,-112.11 L410.49,-112.13 L410.99,-112.15 L411.49,-112.17 L411.99,-112.18 L412.49,-112.19 L412.99,-112.19 L413.49,-112.20 L413.99,-112.20 L414.49,-112.20 L414.99,-112.20 L415.49,-112.20 L415.99,-112.20 L416.49,-112.20 L417.00,-112.21 L417.50,-112.22 L418.00,-112.23 L418.50,-112.25 L419.00,-112.27 L419.50,-112.30 L420.00,-112.34 L420.50,-112.38 L421.00,-112.43" style="stroke-width: 3; stroke: rgb(74, 144, 226); stroke-opacity: 0.8; --darkreader-inline-stroke: #51d6ff;" data-darkreader-inline-stroke=""/></g></g><g class="test-xtl" style="font-family: &quot;Open Sans&quot;, verdana, arial, sans-serif;"><text text-anchor="middle" font-size="11" dominant-baseline="hanging" stroke="none" fill="rgb(255,255,255)" fill-opacity="1" x="159.62649744356898" y="234.80253127583825" data-darkreader-inline-fill="" data-darkreader-inline-stroke="" style="--darkreader-inline-fill: #ffffff; --darkreader-inline-stroke: none;">1</text><text text-anchor="middle" font-size="11" dominant-baseline="hanging" stroke="none" fill="rgb(255,255,255)" fill-opacity="1" x="244.62649744356898" y="234.80253127583825" data-darkreader-inline-fill="" data-darkreader-inline-stroke="" style="--darkreader-inline-fill: #ffffff; --darkreader-inline-stroke: none;">2</text><text text-anchor="middle" font-size="11" dominant-baseline="hanging" stroke="none" fill="rgb(255,255,255)" fill-opacity="1" x="329.626497443569" y="234.80253127583825" data-darkreader-inline-fill="" data-darkreader-inline-stroke="" style="--darkreader-inline-fill: #ffffff; --darkreader-inline-stroke: none;">3</text><text text-anchor="middle" font-size="11" dominant-baseline="hanging" stroke="none" fill="rgb(255,255,255)" fill-opacity="1" x="414.626497443569" y="234.80253127583825" data-darkreader-inline-fill="" data-darkreader-inline-stroke="" style="--darkreader-inline-fill: #ffffff; --darkreader-inline-stroke: none;">4</text><text text-anchor="middle" font-size="11" dominant-baseline="hanging" stroke="none" fill="rgb(255,255,255)" fill-opacity="1" x="66.62649744356897" y="232.80253127583825" data-darkreader-inline-fill="" data-darkreader-inline-stroke="" style="--darkreader-inline-fill: #ffffff; --darkreader-inline-stroke: none;">0</text></g><g class="test-ytl" style="font-family: &quot;Open Sans&quot;, verdana, arial, sans-serif;"><text text-anchor="end" dominant-baseline="middle" font-size="11" stroke="none" fill="rgb(255,255,255)" fill-opacity="1" x="66.62649744356895" y="142.80253127583825" data-darkreader-inline-fill="" data-darkreader-inline-stroke="" style="--darkreader-inline-fill: #ffffff; --darkreader-inline-stroke: none;">1</text><text text-anchor="end" dominant-baseline="middle" font-size="11" stroke="none" fill="rgb(255,255,255)" fill-opacity="1" x="66.62649744356895" y="57.80253127583825" data-darkreader-inline-fill="" data-darkreader-inline-stroke="" style="--darkreader-inline-fill: #ffffff; --darkreader-inline-stroke: none;">2</text></g><rect class="real" x="1" y="1" width="419" height="268" style="fill: transparent; stroke: none; --darkreader-inline-fill: transparent; --darkreader-inline-stroke: none;" data-darkreader-inline-fill="" data-darkreader-inline-stroke=""/></g></g></g><g/></g><g/><g/><g/></svg>
        <svg xmlns="http://www.w3.org/2000/svg" xmlns:xlink="http://www.w3.org/1999/xlink" width="700" height="335" style="width:700px;height:335px;font-family:Asana-Math, Asana;background:transparent;"></svg>
</svg>
